<?xml version="1.0" encoding="iso-8859-1"?>
<!DOCTYPE svg PUBLIC "-//W3C//DTD SVG 1.1//EN" "http://www.w3.org/Graphics/SVG/1.1/DTD/svg11.dtd">
<svg version="1.1" xmlns="http://www.w3.org/2000/svg" xmlns:xlink="http://www.w3.org/1999/xlink" x="0px"
	y="0px" width="511.626px" height="511.627px" viewBox="0 0 1100 1100"
	style="enable-background:new 0 0 1100 1100;" xml:space="preserve">
	<g>
		

<path transform="rotate(180 500 500) scale(0.9)" d="M936.545 889.426h-831.376c-44.281 0-80.26-35.976-80.26-80.257v-252.957c0-44.281 35.979-80.259 80.26-80.259h831.376c44.281 0 80.259 35.978 80.259 80.259v252.957c0 44.281-35.978 80.257-80.259 80.257zM961.453 556.212c0-13.838-11.347-24.908-24.908-24.908h-831.376c-13.838 0-24.908 11.347-24.908 24.908v252.957c0 13.838 11.347 24.905 24.908 24.905h831.376c13.838 0 24.908-11.344 24.908-24.905v-252.957zM901.4 619.311h-761.636c-7.749 0-13.838-6.090-13.838-13.839s6.089-13.838 13.838-13.838h761.636c7.749 0 13.838 6.089 13.838 13.838s-6.089 13.839-13.838 13.839zM544.657 354.733c-3.598 6.365-9.686 11.068-16.882 12.728-7.196 1.937-14.668 0.833-21.034-2.765-13.284-7.749-17.712-24.631-9.963-37.916 27.399-47.049 27.676-86.071-0.554-124.264-35.425-66.698-34.871-127.308 1.661-179.892 5.258-7.472 13.561-11.903 22.694-11.903 5.535 0 11.070 1.663 15.775 4.984 12.454 8.856 15.498 26.015 6.919 38.469-24.078 34.595-24.078 74.171-0.554 118.729 39.853 53.691 40.406 114.854 1.661 181.552l0.277 0.277zM800.934 354.733c-3.598 6.365-9.686 11.068-16.882 12.728-7.196 1.937-14.668 0.833-21.034-2.765-13.284-7.749-17.712-24.631-9.963-37.916 27.399-47.049 27.676-86.071-0.554-124.264-35.425-66.975-34.871-127.308 1.661-179.892 5.258-7.472 13.561-11.903 22.694-11.903 5.535 0 11.070 1.663 15.775 4.984 12.454 8.856 15.498 26.015 6.919 38.469-24.078 34.595-24.078 74.171-0.554 118.729 39.853 53.691 40.406 114.854 1.661 181.552l0.277 0.277zM253.509 354.456c-3.598 6.365-9.686 11.068-16.882 13.005s-14.668 0.833-21.034-2.765c-13.284-7.749-17.712-24.631-9.963-37.916 27.399-47.049 27.676-86.071-0.554-124.264-35.425-66.698-34.871-127.308 1.661-179.892 5.258-7.472 13.561-11.903 22.694-11.903 5.535 0 11.070 1.663 15.775 4.984 12.454 8.856 15.498 26.015 6.919 38.469-24.078 34.595-24.078 74.171-0.554 118.729 39.853 53.691 40.406 114.854 1.661 181.552h0.277zM895.031 728.632c21.399 0 38.746 17.348 38.746 38.747s-17.347 38.743-38.746 38.743c-21.399 0-38.746-17.344-38.746-38.743s17.347-38.747 38.746-38.747z" fill="#1D1D1D" />

    </g>
</svg>