<?xml version="1.0" encoding="iso-8859-1"?>
<!DOCTYPE svg PUBLIC "-//W3C//DTD SVG 1.1//EN" "http://www.w3.org/Graphics/SVG/1.1/DTD/svg11.dtd">
<svg version="1.1" xmlns="http://www.w3.org/2000/svg" xmlns:xlink="http://www.w3.org/1999/xlink" x="0px"
	y="0px" width="511.626px" height="511.627px" viewBox="0 0 1100 1100"
	style="enable-background:new 0 0 1100 1100;" xml:space="preserve">
	<g>
		

<path transform="rotate(180 500 500) scale(0.9)" d="M942.077 709.762h-426.56l-88 104.316c-12.16 14.4-30.080 22.723-48.96 22.723h-308.479c-35.2 0-64-28.8-64-64v-655.681c0-35.2 28.8-64 64-64h871.999c35.2 0 64 28.8 64 64v528.642c0 35.2-28.8 64-64 64zM70.078 709.762v63.039h308.479l53.12-63.039h-361.599zM70.078 645.762h871.999v-528.642h-871.999v528.642zM653.44 413.44h-115.2v115.2c0 17.601-14.4 32.001-32 32.001s-32-14.4-32-32.001v-115.2h-115.2c-17.6 0-32-14.4-32-32s14.4-32 32-32h115.2v-115.203c0-17.6 14.4-32 32-32s32 14.4 32 32v115.203h115.2c17.6 0 32 14.4 32 32s-14.4 32-32 32z" fill="#1D1D1D" />

    </g>
</svg>