<?xml version="1.0" encoding="iso-8859-1"?>
<!DOCTYPE svg PUBLIC "-//W3C//DTD SVG 1.1//EN" "http://www.w3.org/Graphics/SVG/1.1/DTD/svg11.dtd">
<svg version="1.1" xmlns="http://www.w3.org/2000/svg" xmlns:xlink="http://www.w3.org/1999/xlink" x="0px"
	y="0px" width="511.626px" height="511.627px" viewBox="0 0 1100 1100"
	style="enable-background:new 0 0 1100 1100;" xml:space="preserve">
	<g>
		

<path transform="rotate(180 500 500) scale(0.9)" d="M444.587 587.947l-96.711-285.013h38.116l29.582 89.6h100.978l30.436-89.6h39.253l-97.28 285.013h-44.373zM422.969 421.262l27.876 82.489c5.404 17.351 10.24 34.702 14.507 51.484h0.853c4.267-16.498 8.533-33.28 14.791-52.053l27.876-81.92h-85.902zM664.747 587.947h-36.693v-285.013h36.693v285.013zM927.858 575.716c-43.804 0-79.36-35.556-79.36-79.36 0-33.28 20.48-62.293 50.631-73.956l-1.422-368.64-363.236-1.422v102.4h234.098c15.644 0 28.444 12.8 28.444 28.444v524.516c0 15.644-12.8 28.444-28.444 28.444h-234.098v131.128c0 7.396-3.129 14.792-8.249 20.196-5.689 5.689-14.222 9.102-20.196 8.248l-420.126-1.707c-15.644 0-28.444-12.8-28.444-28.444v-397.084c-30.151-11.662-50.915-40.96-50.915-73.956 0-43.804 35.555-79.36 79.359-79.36s79.36 35.556 79.36 79.36c0 32.711-20.765 62.293-50.916 73.956v368.64l363.237 1.422v-102.399h-233.53c-15.644 0-28.444-12.8-28.444-28.444v-524.516c0-15.644 12.8-28.444 28.444-28.444h233.53v-131.129c0-7.396 3.129-14.791 8.249-20.196 5.404-5.404 12.516-8.249 20.196-8.249l420.124 1.707c15.644 0 28.16 12.8 28.444 28.444l1.707 397.084c30.151 11.662 50.916 40.96 50.916 73.956 0 43.804-35.556 79.36-79.36 79.36zM63.714 394.809c0 12.231 9.956 22.471 22.471 22.471s22.471-9.956 22.471-22.471c0-12.516-9.956-22.471-22.471-22.471s-22.471 9.956-22.471 22.471zM272.781 211.911v467.627h467.628v-467.627h-467.628zM905.671 496.356c0 12.231 9.956 22.471 22.471 22.471s22.471-9.956 22.471-22.471c0-12.516-9.956-22.471-22.471-22.471s-22.471 9.956-22.471 22.471z" fill="#1D1D1D" />

    </g>
</svg>