<?xml version="1.0" encoding="iso-8859-1"?>
<!DOCTYPE svg PUBLIC "-//W3C//DTD SVG 1.1//EN" "http://www.w3.org/Graphics/SVG/1.1/DTD/svg11.dtd">
<svg version="1.1" xmlns="http://www.w3.org/2000/svg" xmlns:xlink="http://www.w3.org/1999/xlink" x="0px"
	y="0px" width="511.626px" height="511.627px" viewBox="0 0 1100 1100"
	style="enable-background:new 0 0 1100 1100;" xml:space="preserve">
	<g>
		

<path transform="rotate(180 500 500) scale(0.9)" d="M701.285 936.417h-229.314c-17.067 0-31.030-13.964-31.030-31.030v-920.048c0-17.067 13.964-31.030 31.030-31.030h229.314c17.067 0 31.030 13.964 31.030 31.030v920.048c0 17.067-13.964 31.030-31.030 31.030zM670.255 874.356v-857.988h-167.253v857.988h167.253zM824.785 716.414h97.125l-15.205-15.205c-6.206-6.206-6.206-15.828 0-22.034 3.103-3.103 7.137-4.652 10.861-4.652s8.068 1.549 10.861 4.652l40.65 40.651c6.206 6.206 6.206 15.825 0 22.031l-42.822 42.822c-6.206 6.206-15.825 6.206-22.032 0s-6.206-15.824 0-22.030l15.205-15.205h-94.642c-8.688 0-15.515-6.827-15.515-15.515s6.827-15.515 15.515-15.515zM926.255 497.959c-6.206 6.206-15.825 6.206-22.032 0s-6.206-15.825 0-22.032l15.205-15.202h-94.642c-8.688 0-15.515-6.827-15.515-15.515s6.827-15.515 15.515-15.515h97.125l-15.205-15.205c-6.206-6.206-6.206-15.829 0-22.035 3.103-3.103 7.137-4.651 10.861-4.651s8.068 1.548 10.861 4.651l40.65 40.65c6.206 6.206 6.206 15.825 0 22.032l-42.822 42.822zM926.255 211.549c-6.206 6.206-15.825 6.206-22.032 0s-6.206-15.822 0-22.028l15.205-15.205h-94.642c-8.688 0-15.515-6.827-15.515-15.515s6.827-15.515 15.515-15.515h97.125l-15.205-15.208c-6.206-6.206-6.206-15.825 0-22.032 3.103-3.103 7.137-4.655 10.861-4.655s8.068 1.552 10.861 4.655l40.65 40.653c6.206 6.206 6.206 15.822 0 22.028l-42.822 42.822zM263.757 770.716c0 28.858-23.583 52.75-52.752 52.75s-52.441-23.582-52.441-52.75c0-29.168 23.583-52.443 52.441-52.443s52.752 23.585 52.752 52.443zM211.006 749.303c-11.792 0-21.411 9.621-21.411 21.413s9.619 21.72 21.411 21.72c11.792 0 21.721-9.618 21.721-21.72s-9.619-21.413-21.721-21.413zM292.616 605.321c-39.408 0-71.37-31.958-71.37-71.367s31.962-71.37 71.37-71.37c39.408 0 71.369 31.961 71.369 71.37s-31.961 71.367-71.369 71.367zM292.616 493.615c-22.342 0-40.34 17.998-40.34 40.339s17.998 40.336 40.34 40.336c22.342 0 40.339-17.994 40.339-40.336s-17.997-40.339-40.339-40.339zM145.842 464.446c0 28.548-23.273 51.821-51.821 51.821s-51.821-23.273-51.821-51.821c0-28.548 23.273-51.821 51.821-51.821s51.821 23.273 51.821 51.821zM73.231 464.446c0 11.481 9.309 20.79 20.79 20.79s20.79-9.309 20.79-20.79c0-11.481-9.309-20.79-20.79-20.79s-20.79 9.309-20.79 20.79zM113.881 305.261c-28.548 0-51.821-23.273-51.821-51.821s23.273-51.818 51.821-51.818c28.548 0 51.821 23.27 51.821 51.818s-23.273 51.821-51.821 51.821zM113.881 232.653c-11.481 0-20.79 9.306-20.79 20.787s9.309 20.79 20.79 20.79c11.481 0 20.79-9.309 20.79-20.79s-9.309-20.787-20.79-20.787zM280.513 232.653c-35.375 0-63.922-28.551-63.922-63.926s28.548-63.926 63.922-63.926c35.375 0 63.923 28.551 63.923 63.926s-28.859 63.926-63.923 63.926zM280.513 135.832c-18.308 0-32.892 14.898-32.892 32.895s14.895 32.895 32.892 32.895c17.998 0 32.892-14.898 32.892-32.895s-14.895-32.895-32.892-32.895z" fill="#1D1D1D" />

    </g>
</svg>