<?xml version="1.0" encoding="iso-8859-1"?>
<!DOCTYPE svg PUBLIC "-//W3C//DTD SVG 1.1//EN" "http://www.w3.org/Graphics/SVG/1.1/DTD/svg11.dtd">
<svg version="1.1" xmlns="http://www.w3.org/2000/svg" xmlns:xlink="http://www.w3.org/1999/xlink" x="0px"
	y="0px" width="511.626px" height="511.627px" viewBox="0 0 1100 1100"
	style="enable-background:new 0 0 1100 1100;" xml:space="preserve">
	<g>
		

<path transform="rotate(180 500 500) scale(0.9)" d="M920.493 946.162h-826.395c-45.665 0-83.027-37.362-83.027-83.027v-647.888c0-45.665 37.362-83.027 83.027-83.027h153.324c15.222 0 27.676 12.454 27.676 27.676s-12.454 27.676-27.676 27.676h-153.324c-15.222 0-27.676 12.454-27.676 27.676v647.888c0 15.222 12.454 27.676 27.676 27.676h826.395c15.222 0 27.676-12.454 27.676-27.676v-647.888c0-15.222-12.454-27.676-27.676-27.676h-153.323c-15.222 0-27.676-12.454-27.676-27.676s12.454-27.676 27.676-27.676h153.323c45.665 0 83.027 37.362 83.027 83.027v647.888c0 45.665-37.362 83.027-83.027 83.027zM528.605 357.224c-10.24 12.731-32.657 12.731-42.897 0l-290.042-358.123c-6.642-8.303-8.026-19.65-3.598-29.336 4.705-9.686 14.391-15.775 24.908-15.775h580.36c10.517 0 20.48 6.089 24.908 15.775 4.705 9.686 3.321 21.034-3.321 29.336l-290.318 358.123zM275.096 9.341l232.199 286.443 232.199-286.443h-464.398z" fill="#1D1D1D" />

    </g>
</svg>