<?xml version="1.0" encoding="iso-8859-1"?>
<!DOCTYPE svg PUBLIC "-//W3C//DTD SVG 1.1//EN" "http://www.w3.org/Graphics/SVG/1.1/DTD/svg11.dtd">
<svg version="1.1" xmlns="http://www.w3.org/2000/svg" xmlns:xlink="http://www.w3.org/1999/xlink" x="0px"
	y="0px" width="511.626px" height="511.627px" viewBox="0 0 1100 1100"
	style="enable-background:new 0 0 1100 1100;" xml:space="preserve">
	<g>
		

<path transform="rotate(180 500 500) scale(0.9)" d="M981.44 184.32h-335.677l-226.243 572.481c-4.8 12.16-16.317 20.16-29.437 20.16l-355.521 1.918c-17.6 0-32-14.4-32-32s14.4-32 32-32l333.761-1.598 226.56-572.481c4.8-12.16 16.64-20.16 29.76-20.16h357.44c17.6 0 32 14.4 32 32s-14.4 32-32 32l-0.643-0.32zM624 712.961h355.52c17.6 0 32 14.4 32 32s-14.4 32-32 32h-355.52c-17.6 0-32-14.4-32-32s14.4-32 32-32z" fill="#1D1D1D" />

    </g>
</svg>