<?xml version="1.0" encoding="iso-8859-1"?>
<!DOCTYPE svg PUBLIC "-//W3C//DTD SVG 1.1//EN" "http://www.w3.org/Graphics/SVG/1.1/DTD/svg11.dtd">
<svg version="1.1" xmlns="http://www.w3.org/2000/svg" xmlns:xlink="http://www.w3.org/1999/xlink" x="0px"
	y="0px" width="511.626px" height="511.627px" viewBox="0 0 1100 1100"
	style="enable-background:new 0 0 1100 1100;" xml:space="preserve">
	<g>
		

<path transform="rotate(180 500 500) scale(0.9)" d="M903.040 162.56c-55.36 0-100.48-44.48-100.48-99.2s45.12-99.2 100.48-99.2c55.36 0 100.48 44.48 100.48 99.2s-45.12 99.2-100.48 99.2zM903.040 28.16c-20.16 0-36.48 15.68-36.48 35.2s16.32 35.2 36.48 35.2c20.16 0 36.48-15.68 36.48-35.2s-16.32-35.2-36.48-35.2zM548.8 943.359c-17.6 0-32-14.4-32-32v-914.879c0-17.6 14.4-32 32-32s32 14.4 32 32v914.879c0 17.6-14.4 32-32 32zM707.52 810.238c-17.6 0-32-14.4-32-32v-648.638c0-17.6 14.4-32 32-32s32 14.4 32 32v648.638c0 17.6-14.4 32-32 32zM866.56 250.237c17.6 0 32 14.4 32 32v343.043c0 17.601-14.4 32.001-32 32.001s-32-14.4-32-32.001v-343.043c0-17.6 14.4-32 32-32zM390.080 943.359c-17.6 0-32-14.4-32-32v-914.879c0-17.6 14.4-32 32-32s32 14.4 32 32v914.879c0 17.6-14.4 32-32 32zM72.641 657.602c-17.6 0-32-14.4-32-32.002v-343.040c0-17.6 14.4-32 32-32s32 14.4 32 32v343.040c0 17.602-14.4 32.002-32 32.002zM231.361 810.238c-17.6 0-32-14.4-32-32v-648.638c0-17.6 14.4-32 32-32s32 14.4 32 32v648.638c0 17.6-14.4 32-32 32z" fill="#1D1D1D" />

    </g>
</svg>