<?xml version="1.0" encoding="iso-8859-1"?>
<!DOCTYPE svg PUBLIC "-//W3C//DTD SVG 1.1//EN" "http://www.w3.org/Graphics/SVG/1.1/DTD/svg11.dtd">
<svg version="1.1" xmlns="http://www.w3.org/2000/svg" xmlns:xlink="http://www.w3.org/1999/xlink" x="0px"
	y="0px" width="511.626px" height="511.627px" viewBox="0 0 1100 1100"
	style="enable-background:new 0 0 1100 1100;" xml:space="preserve">
	<g>
		

<path transform="rotate(180 500 500) scale(0.9)" d="M878.649 332.231c-11.093 11.093-29.013 11.093-40.107 0l-291.84-291.84v880.925c0 15.645-12.8 28.445-28.444 28.445s-28.444-12.8-28.444-28.445v-880.925l-291.839 291.84c-10.809 10.809-29.583 10.809-40.108 0-5.405-5.404-8.248-12.516-8.248-20.196s2.844-14.791 8.248-20.196l340.48-340.48c1.991-1.991 4.267-3.698 6.258-4.836l4.836-1.991c2.56-0.853 5.404-1.422 8.533-1.422 1.422 0 3.129 0 4.551 0.284l2.844 0.569c5.404 1.422 9.671 3.698 13.084 7.111l340.48 340.48c5.404 5.404 8.249 12.516 8.249 20.196s-2.844 14.791-8.249 20.196l-0.284 0.284z" fill="#1D1D1D" />

    </g>
</svg>