<?xml version="1.0" encoding="iso-8859-1"?>
<!DOCTYPE svg PUBLIC "-//W3C//DTD SVG 1.1//EN" "http://www.w3.org/Graphics/SVG/1.1/DTD/svg11.dtd">
<svg version="1.1" xmlns="http://www.w3.org/2000/svg" xmlns:xlink="http://www.w3.org/1999/xlink" x="0px"
	y="0px" width="511.626px" height="511.627px" viewBox="0 0 1100 1100"
	style="enable-background:new 0 0 1100 1100;" xml:space="preserve">
	<g>
		

<path transform="rotate(180 500 500) scale(0.9)" d="M1006.844-2.283l-889.774 889.773h401.575c15.222 0 27.676 12.454 27.676 27.676s-12.454 27.676-27.676 27.676h-468.55c-4.705 0-9.41-1.384-13.838-3.875l-2.768-1.937c-4.151-3.044-7.195-6.919-7.472-8.856l-2.215-3.598v-1.937c-0.83-2.491-1.106-4.982-1.106-7.473v-468.549c0-15.222 12.454-27.676 27.676-27.676s27.676 12.454 27.676 27.676v401.574l889.774-889.773c5.258-5.258 12.177-8.026 19.65-8.026s14.391 2.768 19.65 8.026c10.794 10.794 10.794 28.229 0 39.023l-0.277 0.277z" fill="#1D1D1D" />

    </g>
</svg>