<?xml version="1.0" encoding="iso-8859-1"?>
<!DOCTYPE svg PUBLIC "-//W3C//DTD SVG 1.1//EN" "http://www.w3.org/Graphics/SVG/1.1/DTD/svg11.dtd">
<svg version="1.1" xmlns="http://www.w3.org/2000/svg" xmlns:xlink="http://www.w3.org/1999/xlink" x="0px"
	y="0px" width="511.626px" height="511.627px" viewBox="0 0 1100 1100"
	style="enable-background:new 0 0 1100 1100;" xml:space="preserve">
	<g>
		

<path transform="rotate(180 500 500) scale(0.9)" d="M1015.971 922.638l-1.104 3.044c0 0 0 0.553-0.554 0.83-1.937 3.875-4.705 7.472-8.303 10.24l-2.768 1.937c-4.428 2.768-9.133 4.151-13.838 4.151h-468.549c-15.222 0-27.676-12.454-27.676-27.676s12.454-27.676 27.676-27.676h401.571l-889.772-889.773c-10.793-10.794-10.793-28.229 0-39.023 5.258-5.258 12.178-8.026 19.65-8.026s14.391 2.768 19.649 8.026l889.774 889.773v-401.574c0-15.222 12.454-27.676 27.676-27.676s27.676 12.454 27.676 27.676v468.549c0 2.491-0.28 4.982-1.11 7.472v-0.277z" fill="#1D1D1D" />

    </g>
</svg>