<?xml version="1.0" encoding="iso-8859-1"?>
<!DOCTYPE svg PUBLIC "-//W3C//DTD SVG 1.1//EN" "http://www.w3.org/Graphics/SVG/1.1/DTD/svg11.dtd">
<svg version="1.1" xmlns="http://www.w3.org/2000/svg" xmlns:xlink="http://www.w3.org/1999/xlink" x="0px"
	y="0px" width="511.626px" height="511.627px" viewBox="0 0 1100 1100"
	style="enable-background:new 0 0 1100 1100;" xml:space="preserve">
	<g>
		

<path transform="rotate(180 500 500) scale(0.9)" d="M970.032 664.977h-527.498v82.75c0 10.517-6.089 20.204-15.498 24.909s-20.757 3.598-29.059-2.768l-381.649-292.255c-6.642-4.982-10.517-13.284-10.517-21.864s3.875-16.882 10.517-21.864l381.649-292.255c4.982-3.875 10.794-5.812 16.882-5.812 4.151 0 8.303 0.83 12.177 2.768 9.41 4.705 15.498 14.391 15.498 24.908v82.75h527.498c15.222 0 27.676 12.454 27.676 27.676v363.659c0 15.222-12.454 27.676-27.676 27.676v-0.277zM387.183 273.643v-54.244l-308.585 236.074 308.585 236.073v-54.244c0-15.222 12.454-27.676 27.676-27.676h527.498v-308.307h-527.498c-15.222 0-27.676-12.454-27.676-27.676z" fill="#1D1D1D" />

    </g>
</svg>