<?xml version="1.0" encoding="iso-8859-1"?>
<!DOCTYPE svg PUBLIC "-//W3C//DTD SVG 1.1//EN" "http://www.w3.org/Graphics/SVG/1.1/DTD/svg11.dtd">
<svg version="1.1" xmlns="http://www.w3.org/2000/svg" xmlns:xlink="http://www.w3.org/1999/xlink" x="0px"
	y="0px" width="511.626px" height="511.627px" viewBox="0 0 1100 1100"
	style="enable-background:new 0 0 1100 1100;" xml:space="preserve">
	<g>
		

<path transform="rotate(180 500 500) scale(0.9)" d="M279.273-43.216c-4.034 0-8.068 0.624-11.792 2.486-11.481 4.965-19.239 16.133-19.239 28.545v918.5c0 12.412 7.447 23.891 19.239 28.545 11.481 4.655 24.825 2.173 33.824-6.826l459.558-459.25c5.896-5.896 8.999-13.653 8.999-22.032s-3.413-16.133-8.999-22.028l-459.558-459.252c-5.896-5.896-13.964-8.999-22.032-8.999v0.31zM310.303 831.224v-768.62l384.465 384.149-384.465 384.471z" fill="#1D1D1D" />

    </g>
</svg>