<?xml version="1.0" encoding="iso-8859-1"?>
<!DOCTYPE svg PUBLIC "-//W3C//DTD SVG 1.1//EN" "http://www.w3.org/Graphics/SVG/1.1/DTD/svg11.dtd">
<svg version="1.1" xmlns="http://www.w3.org/2000/svg" xmlns:xlink="http://www.w3.org/1999/xlink" x="0px"
	y="0px" width="511.626px" height="511.627px" viewBox="0 0 1100 1100"
	style="enable-background:new 0 0 1100 1100;" xml:space="preserve">
	<g>
		

<path transform="rotate(180 500 500) scale(0.9)" d="M656.467 545.418l-292.255 381.647c-10.24 13.284-33.764 13.284-44.004 0l-292.255-381.647c-6.365-8.303-7.472-19.65-2.768-29.059s14.391-15.498 24.908-15.498h82.75v-527.498c0-15.222 12.454-27.676 27.676-27.676h363.658c15.222 0 27.676 12.454 27.676 27.676v527.498h82.75c10.517 0 20.203 6.089 24.908 15.498s3.598 20.757-2.768 29.059h-0.277zM160.519 556.212h-54.244l236.074 308.583 236.074-308.583h-54.244c-15.222 0-27.676-12.454-27.676-27.676v-527.498h-308.307v527.498c0 15.222-12.454 27.676-27.676 27.676z" fill="#1D1D1D" />

    </g>
</svg>