<?xml version="1.0" encoding="iso-8859-1"?>
<!DOCTYPE svg PUBLIC "-//W3C//DTD SVG 1.1//EN" "http://www.w3.org/Graphics/SVG/1.1/DTD/svg11.dtd">
<svg version="1.1" xmlns="http://www.w3.org/2000/svg" xmlns:xlink="http://www.w3.org/1999/xlink" x="0px"
	y="0px" width="511.626px" height="511.627px" viewBox="0 0 1100 1100"
	style="enable-background:new 0 0 1100 1100;" xml:space="preserve">
	<g>
		

<path transform="rotate(180 500 500) scale(0.9)" d="M873.532 601.031l-340.48 340.48c-3.413 3.413-7.68 5.689-13.084 7.111l-3.132 0.569c-5.404 0.853-10.237 0-15.642-1.991h-0.853c0 0-0.569-0.854-0.853-0.854h-0.572c-2.276-1.422-4.264-3.129-6.255-4.835l-340.482-340.48c-5.404-5.404-8.248-12.516-8.248-20.196s2.844-14.791 8.248-20.196c10.809-10.809 29.583-10.809 40.108 0l291.841 291.84v-880.925c0-15.644 12.8-28.444 28.444-28.444s28.444 12.8 28.444 28.444v880.925l291.84-291.84c11.093-11.093 29.013-11.093 40.107 0 5.404 5.404 8.246 12.516 8.246 20.196s-2.842 14.791-8.246 20.196h0.569z" fill="#1D1D1D" />

    </g>
</svg>