<?xml version="1.0" encoding="iso-8859-1"?>
<!DOCTYPE svg PUBLIC "-//W3C//DTD SVG 1.1//EN" "http://www.w3.org/Graphics/SVG/1.1/DTD/svg11.dtd">
<svg version="1.1" xmlns="http://www.w3.org/2000/svg" xmlns:xlink="http://www.w3.org/1999/xlink" x="0px"
	y="0px" width="511.626px" height="511.627px" viewBox="0 0 1100 1100"
	style="enable-background:new 0 0 1100 1100;" xml:space="preserve">
	<g>
		

<path transform="rotate(180 500 500) scale(0.9)" d="M733.87-43.216c-8.068 0-16.136 3.103-22.032 9.002l-459.56 459.248c-5.896 5.896-8.998 13.653-8.998 22.032s3.413 16.133 8.998 22.028l459.56 459.251c8.999 8.999 22.342 11.48 33.823 6.826 11.481-4.965 19.239-16.133 19.239-28.545v-918.501c0-12.412-7.447-23.89-19.239-28.545-3.724-1.552-7.758-2.486-11.792-2.486v-0.31zM318.373 447.066l384.466-384.152v768.621l-384.466-384.469z" fill="#1D1D1D" />

    </g>
</svg>