<?xml version="1.0" encoding="iso-8859-1"?>
<!DOCTYPE svg PUBLIC "-//W3C//DTD SVG 1.1//EN" "http://www.w3.org/Graphics/SVG/1.1/DTD/svg11.dtd">
<svg version="1.1" xmlns="http://www.w3.org/2000/svg" xmlns:xlink="http://www.w3.org/1999/xlink" x="0px"
	y="0px" width="511.626px" height="511.627px" viewBox="0 0 1100 1100"
	style="enable-background:new 0 0 1100 1100;" xml:space="preserve">
	<g>
		

<path transform="rotate(180 500 500) scale(0.9)" d="M989.126 655.844c15.222 0 27.676 12.454 27.676 27.676v225.277c0 15.222-12.454 27.676-27.676 27.676h-225.28c-15.222 0-27.676-12.454-27.676-27.676v-84.959h-436.445v84.959c0 15.222-12.454 27.676-27.675 27.676h-225.28c-15.222 0-27.676-12.454-27.676-27.676v-225.277c0-15.222 12.454-27.676 27.676-27.676h84.965v-436.445h-84.965c-15.222 0-27.676-12.454-27.676-27.676v-225.277c0-15.222 12.454-27.676 27.676-27.676h225.28c15.221 0 27.675 12.454 27.675 27.676v84.959h436.445v-84.959c0-15.222 12.454-27.676 27.676-27.676h225.28c15.222 0 27.676 12.454 27.676 27.676v225.277c0 15.222-12.454 27.676-27.676 27.676h-84.962v436.445h84.962zM791.522 881.122h169.929v-169.926h-169.929v169.926zM74.446 881.122h169.928v-169.926h-169.928v169.926zM244.374-5.878h-169.928v169.926h84.688c0 0 0 0 0.277 0s-0.001 0 0.276 0h84.411v-169.926h0.276zM961.45-5.878h-169.929v169.926h84.411c0 0 0 0 0.277 0s0.003 0 0.28 0h84.685v-169.926h0.277zM848.813 219.399h-84.967c-15.222 0-27.676-12.454-27.676-27.676v-84.967h-436.445v84.967c0 15.222-12.454 27.676-27.675 27.676h-84.964v436.445h84.964c15.221 0 27.675 12.454 27.675 27.676v84.966h436.445v-84.966c0-15.222 12.454-27.676 27.676-27.676h84.967v-436.445z" fill="#1D1D1D" />

    </g>
</svg>