<?xml version="1.0" encoding="iso-8859-1"?>
<!DOCTYPE svg PUBLIC "-//W3C//DTD SVG 1.1//EN" "http://www.w3.org/Graphics/SVG/1.1/DTD/svg11.dtd">
<svg version="1.1" xmlns="http://www.w3.org/2000/svg" xmlns:xlink="http://www.w3.org/1999/xlink" x="0px"
	y="0px" width="511.626px" height="511.627px" viewBox="0 0 1100 1100"
	style="enable-background:new 0 0 1100 1100;" xml:space="preserve">
	<g>
		

<path transform="rotate(180 500 500) scale(0.9)" d="M946.883 796.801h-880.641c-35.2 0-64-28.8-64-64v-563.841c0-35.2 28.8-64 64-64h880.641c35.2 0 64 28.8 64 64v563.841c0 35.2-28.8 64-64 64zM946.883 168.96v0zM946.883 168.96h-880.641v428.8h880.641v-428.8zM66.242 732.801h880.641v-71.041h-880.641v71.041zM875.84 263.040h-180.8c-17.6 0-32-14.4-32-32s14.4-32 32-32h180.8c17.6 0 32 14.4 32 32s-14.4 32-32 32zM575.043 263.040h-83.2c-17.6 0-32-14.4-32-32s14.4-32 32-32h83.2c17.6 0 32 14.4 32 32s-14.4 32-32 32z" fill="#1D1D1D" />

    </g>
</svg>