<?xml version="1.0" encoding="iso-8859-1"?>
<!DOCTYPE svg PUBLIC "-//W3C//DTD SVG 1.1//EN" "http://www.w3.org/Graphics/SVG/1.1/DTD/svg11.dtd">
<svg version="1.1" xmlns="http://www.w3.org/2000/svg" xmlns:xlink="http://www.w3.org/1999/xlink" x="0px"
	y="0px" width="511.626px" height="511.627px" viewBox="0 0 1100 1100"
	style="enable-background:new 0 0 1100 1100;" xml:space="preserve">
	<g>
		

<path transform="rotate(180 500 500) scale(0.9)" d="M962.006 771.252h-268.177c-0.83 94.651-78.045 171.312-172.696 171.312s-171.866-76.661-172.696-171.312h-268.177c-30.443 0-55.351-24.908-55.351-55.351v-703.239c0-30.443 24.908-55.351 55.351-55.351h881.47c30.443 0 55.351 24.908 55.351 55.351v703.239c0 30.443-24.908 55.351-55.351 55.351h0.277zM376.112 578.906c15.222 0 27.676 12.454 27.676 27.676v109.319h234.69v-109.319c0-15.222 12.454-27.676 27.676-27.676s27.676 12.454 27.676 27.676v109.319h268.177v-703.239h-881.471v703.239h268.178v-109.319c0-15.222 12.454-27.676 27.676-27.676h-0.277zM521.133 886.936c64.208 0 116.515-51.753 117.345-115.961h-234.69c0.83 63.931 53.137 115.961 117.345 115.961z" fill="#1D1D1D" />

    </g>
</svg>