<?xml version="1.0" encoding="iso-8859-1"?>
<!DOCTYPE svg PUBLIC "-//W3C//DTD SVG 1.1//EN" "http://www.w3.org/Graphics/SVG/1.1/DTD/svg11.dtd">
<svg version="1.1" xmlns="http://www.w3.org/2000/svg" xmlns:xlink="http://www.w3.org/1999/xlink" x="0px"
	y="0px" width="511.626px" height="511.627px" viewBox="0 0 1100 1100"
	style="enable-background:new 0 0 1100 1100;" xml:space="preserve">
	<g>
		

<path transform="rotate(180 500 500) scale(0.9)" d="M874.744 659.936c-0.931 3.724-2.482 7.139-4.655 10.242l-248.553 260.345h-0.621c-3.103 2.482-6.516 4.032-10.55 5.273-1.241 0.31-2.482 0.621-2.793 0.621l-412.391 0.621c-17.067 0-31.030-13.964-31.030-31.030v-918.187c0-17.067 13.964-31.030 31.030-31.030h650.394c17.067 0 31.030 13.964 31.030 31.030v664.047c0 0 0 2.793-1.241 7.758l-0.621 0.311zM632.708 683.208v145.845l139.636-145.845h-139.636zM601.678 621.149h212.247v-601.985h-588.334v856.124h345.056v-223.11c0-17.065 13.964-31.029 31.030-31.029zM404.947 525.265h38.788c47.475 0 76.336-15.825 83.783-47.476h-122.571v-27.307h124.12c-3.724-37.547-35.371-62.061-94.33-62.061h-29.79v-33.823c51.198-54.613 90.92-101.776 133.432-152.976h52.131c-45.615 56.165-92.16 111.706-134.672 155.769 69.818 2.172 113.881 37.547 119.467 93.091h58.958v27.307h-59.268c-3.103 25.135-14.587 43.132-30.413 55.544h89.991v27.307h-229.315v-35.375h-0.311z" fill="#1D1D1D" />

    </g>
</svg>