<?xml version="1.0" encoding="iso-8859-1"?>
<!DOCTYPE svg PUBLIC "-//W3C//DTD SVG 1.1//EN" "http://www.w3.org/Graphics/SVG/1.1/DTD/svg11.dtd">
<svg version="1.1" xmlns="http://www.w3.org/2000/svg" xmlns:xlink="http://www.w3.org/1999/xlink" x="0px"
	y="0px" width="511.626px" height="511.627px" viewBox="0 0 1100 1100"
	style="enable-background:new 0 0 1100 1100;" xml:space="preserve">
	<g>
		

<path transform="rotate(180 500 500) scale(0.9)" d="M977.92 768h-943.68c-17.6 0-32-14.4-32-32v-545.6c0-17.6 14.4-32 32-32h943.68c17.6 0 32 14.4 32 32v545.6c0 17.6-14.4 32-32 32zM945.92 222.4h-879.68v481.6h879.68v-481.6zM846.72 272.32c-32 39.040-64 77.76-93.76 108.48 48.64 1.6 79.36 26.243 83.2 64.963h40.96v18.877h-41.28c-2.24 17.6-10.24 30.079-21.12 38.719h62.72v18.879h-159.68v-24.637h26.88c32.96 0 53.12-10.881 58.56-32.961h-85.44v-18.877h86.4c-2.56-26.24-24.64-43.203-65.6-43.203h-20.8v-23.68c35.52-38.080 63.36-71.040 93.12-106.56h35.84z" fill="#1D1D1D" />

    </g>
</svg>