<?xml version="1.0" encoding="iso-8859-1"?>
<!DOCTYPE svg PUBLIC "-//W3C//DTD SVG 1.1//EN" "http://www.w3.org/Graphics/SVG/1.1/DTD/svg11.dtd">
<svg version="1.1" xmlns="http://www.w3.org/2000/svg" xmlns:xlink="http://www.w3.org/1999/xlink" x="0px"
	y="0px" width="511.626px" height="511.627px" viewBox="0 0 1100 1100"
	style="enable-background:new 0 0 1100 1100;" xml:space="preserve">
	<g>
		

<path transform="rotate(180 500 500) scale(0.9)" d="M99.632 91.814h817.54c15.222 0 27.676 12.454 27.676 27.676v380.541c0 15.222-12.454 27.676-27.676 27.676h-244.93v115.131c0 15.221-12.454 27.675-27.676 27.675h-244.93v210.059c0 15.222-12.454 27.676-27.676 27.676h-272.329c-15.222 0-27.676-12.454-27.676-27.676v-761.081c0-15.222 12.454-27.676 27.676-27.676zM889.496 472.355v-325.189h-217.254v325.189h217.254zM616.891 615.161v-467.719h-217.254v467.719h217.254zM344.285 852.895v-705.73h-216.978v705.73h216.978zM976.675 29.821h-936.822c-15.222 0-27.676-12.454-27.676-27.676s12.454-27.676 27.676-27.676h936.822c15.222 0 27.676 12.454 27.676 27.676s-12.454 27.676-27.676 27.676z" fill="#1D1D1D" />

    </g>
</svg>