<?xml version="1.0" encoding="iso-8859-1"?>
<!DOCTYPE svg PUBLIC "-//W3C//DTD SVG 1.1//EN" "http://www.w3.org/Graphics/SVG/1.1/DTD/svg11.dtd">
<svg version="1.1" xmlns="http://www.w3.org/2000/svg" xmlns:xlink="http://www.w3.org/1999/xlink" x="0px"
	y="0px" width="511.626px" height="511.627px" viewBox="0 0 1100 1100"
	style="enable-background:new 0 0 1100 1100;" xml:space="preserve">
	<g>
		

<path transform="rotate(180 500 500) scale(0.9)" d="M990.177 458.864l-180.286 337.606c0 0-1.552 1.554-2.172 2.796-20.79 57.096-65.784 102.399-122.88 123.5-0.621 0.31-0.931 0.932-1.552 1.242-4.655 2.793-9.619 3.72-14.584 3.72-17.377 4.655-35.375 7.447-54.303 7.447h-224.97c-18.308 0-35.995-2.482-52.752-7.136-4.965 0-10.24-0.927-14.895-3.72-0.621 0-0.931-0.932-1.241-1.242-59.889-21.411-107.055-69.506-126.915-130.326l-178.424-334.197c-7.447-14.274-3.103-31.654 10.24-40.653l157.944-103.331v-328.918c0-17.067 13.964-31.030 31.030-31.030h574.682c17.067 0 31.030 13.964 31.030 31.030v327.984l159.496 104.575c13.343 8.688 17.998 26.379 10.24 40.653h0.31zM758.070 729.447v-254.143h-225.28l0.621 132.189 146.153 249.174c46.235-23.893 78.507-71.676 78.507-127.53v0.311zM614.090 873.424c0 0 1.862 0 3.103-0.311l-114.502-195.492-114.812 195.803c0 0 0.931 0 1.552 0h224.659zM324.887 857.598l146.463-249.795-0.621-132.499h-225.591v254.143c0 56.165 32.582 104.258 79.748 128.151zM83.161 454.827l100.228 187.423v-252.894l-100.228 65.471zM245.449 17.302v304.711c1.862 5.896 1.862 12.105 0 18.001v73.539h180.907l-117.605-118.84c-12.102-12.102-11.792-31.967 0-43.759 5.896-5.896 13.964-8.993 21.722-8.993s16.136 3.097 22.032 9.303l149.566 151.121 149.566-151.121c6.206-6.206 13.964-9.303 22.032-9.303s15.825 3.097 21.721 8.993c12.102 12.102 12.412 31.657 0 43.759l-117.605 118.84h179.665v-396.251h-512.001zM820.131 388.425v47.166c0.931 2.793 1.862 5.89 1.862 8.993s-0.931 6.206-1.862 8.999v192.387l101.779-190.833-101.779-66.712z" fill="#1D1D1D" />

    </g>
</svg>