<?xml version="1.0" encoding="iso-8859-1"?>
<!DOCTYPE svg PUBLIC "-//W3C//DTD SVG 1.1//EN" "http://www.w3.org/Graphics/SVG/1.1/DTD/svg11.dtd">
<svg version="1.1" xmlns="http://www.w3.org/2000/svg" xmlns:xlink="http://www.w3.org/1999/xlink" x="0px"
	y="0px" width="511.626px" height="511.627px" viewBox="0 0 1100 1100"
	style="enable-background:new 0 0 1100 1100;" xml:space="preserve">
	<g>
		

<path transform="rotate(180 500 500) scale(0.9)" d="M706.006 660.272h-626.024v259.045c0 15.222-12.454 27.676-27.676 27.676s-27.676-12.454-27.676-27.676v-936.822c0-15.222 12.454-27.676 27.676-27.676s27.676 12.454 27.676 27.676v251.018h881.47v-251.018c0-15.222 12.454-27.676 27.676-27.676s27.676 12.454 27.676 27.676v367.256c0 171.312-139.485 310.798-310.798 310.798v-0.277zM706.006 604.921c140.869 0 255.446-114.577 255.446-255.446v-60.61h-566.521v316.056h311.075zM339.581 604.921v-316.056h-259.874v316.056h259.874z" fill="#1D1D1D" />

    </g>
</svg>