<?xml version="1.0" encoding="iso-8859-1"?>
<!DOCTYPE svg PUBLIC "-//W3C//DTD SVG 1.1//EN" "http://www.w3.org/Graphics/SVG/1.1/DTD/svg11.dtd">
<svg version="1.1" xmlns="http://www.w3.org/2000/svg" xmlns:xlink="http://www.w3.org/1999/xlink" x="0px"
	y="0px" width="511.626px" height="511.627px" viewBox="0 0 1100 1100"
	style="enable-background:new 0 0 1100 1100;" xml:space="preserve">
	<g>
		

<path transform="rotate(180 500 500) scale(0.9)" d="M864.868 201.963l-68.082 66.145c-43.451 42.067-67.255 96.588-67.255 153.323v201.479c0 112.087-81.366 211.442-198.711 244.93-5.258 42.067-40.957 75.001-84.408 75.001s-79.155-32.657-84.414-75.001c-117.621-33.211-198.71-132.843-198.71-244.93v-201.479c0-57.012-23.801-111.533-67.252-153.323l-68.082-66.145c-19.096-18.543-24.632-44.835-14.945-68.636 10.517-25.738 35.978-42.344 65.314-42.344h212.274c12.454-76.385 77.492-132.566 155.814-132.566s143.083 57.289 155.814 132.566h212.27c29.336 0 55.077 16.605 65.317 42.344 9.686 23.801 3.875 50.37-14.945 68.636zM446.411 10.724c-49.263 0-91.053 33.488-102.677 80.259h205.351c-11.624-46.772-53.411-80.259-102.674-80.259zM760.53 230.746l68.082-66.145c5.535-5.258 3.595-9.963 3.042-11.624-2.491-5.812-9.133-9.686-17.159-9.686h-736.448c-8.026 0-14.668 3.875-17.159 9.686-0.554 1.661-2.491 6.089 3.044 11.624l68.082 66.145c53.414 52.030 83.027 119.836 83.027 190.962v201.479c0 112.916 103.506 204.523 231.091 204.523s231.095-91.884 231.095-204.523v-201.479c0-71.126 29.613-138.932 83.027-190.962h0.277zM421.503 878.911c11.901 14.668 38.192 14.668 50.093 0-8.579 0.83-16.882 1.106-25.185 1.106s-16.605-0.276-25.185-1.106h0.277z" fill="#1D1D1D" />

    </g>
</svg>