<?xml version="1.0" encoding="iso-8859-1"?>
<!DOCTYPE svg PUBLIC "-//W3C//DTD SVG 1.1//EN" "http://www.w3.org/Graphics/SVG/1.1/DTD/svg11.dtd">
<svg version="1.1" xmlns="http://www.w3.org/2000/svg" xmlns:xlink="http://www.w3.org/1999/xlink" x="0px"
	y="0px" width="511.626px" height="511.627px" viewBox="0 0 1100 1100"
	style="enable-background:new 0 0 1100 1100;" xml:space="preserve">
	<g>
		

<path transform="rotate(180 500 500) scale(0.9)" d="M889.496 707.042l-410.43 233.585c-8.579 4.982-19.096 4.705-27.399 0l-410.431-233.585c-8.579-4.982-14.114-14.114-14.114-24.079v-467.165c0-9.963 5.258-19.096 14.114-24.078l410.431-233.58c4.151-2.491 8.856-3.598 13.561-3.598s9.686 1.384 13.561 3.598l410.43 233.58c8.579 4.982 14.115 14.115 14.115 24.078v467.165c0 9.964-5.258 19.097-14.115 24.079h0.277zM82.749 666.915l382.756 217.807 382.755-217.807v-434.788l-382.755-217.808-382.756 217.808v434.788zM646.504 449.384c0 99.909-81.090 180.999-180.999 180.999s-180.999-81.090-180.999-180.999c0-99.909 81.090-180.999 180.999-180.999s180.999 81.090 180.999 180.999zM465.505 575.031c69.189 0 125.648-56.458 125.648-125.648s-56.458-125.648-125.648-125.648c-69.189 0-125.648 56.458-125.648 125.648s56.458 125.648 125.648 125.648z" fill="#1D1D1D" />

    </g>
</svg>