<?xml version="1.0" encoding="iso-8859-1"?>
<!DOCTYPE svg PUBLIC "-//W3C//DTD SVG 1.1//EN" "http://www.w3.org/Graphics/SVG/1.1/DTD/svg11.dtd">
<svg version="1.1" xmlns="http://www.w3.org/2000/svg" xmlns:xlink="http://www.w3.org/1999/xlink" x="0px"
	y="0px" width="511.626px" height="511.627px" viewBox="0 0 1100 1100"
	style="enable-background:new 0 0 1100 1100;" xml:space="preserve">
	<g>
		

<path transform="rotate(180 500 500) scale(0.9)" d="M117.068 126.962h850.751c15.222 0 27.676 12.454 27.676 27.676v764.403c0 15.222-12.454 27.676-27.676 27.676h-798.443c-91.606 0-166.054-74.448-166.054-166.054v-712.372c0-62.824 51.2-114.024 114.024-114.024h850.751c15.222 0 27.676 12.454 27.676 27.676s-12.454 27.676-27.676 27.676h-850.751c-32.381 0-58.672 26.292-58.672 58.672s26.292 58.672 58.672 58.672h-0.277zM169.098 891.365h770.768v-709.051h-823.075c-21.034 0-40.96-5.812-58.672-16.329v614.677c0 61.163 49.539 110.703 110.703 110.703h0.277z" fill="#1D1D1D" />

    </g>
</svg>