<?xml version="1.0" encoding="iso-8859-1"?>
<!DOCTYPE svg PUBLIC "-//W3C//DTD SVG 1.1//EN" "http://www.w3.org/Graphics/SVG/1.1/DTD/svg11.dtd">
<svg version="1.1" xmlns="http://www.w3.org/2000/svg" xmlns:xlink="http://www.w3.org/1999/xlink" x="0px"
	y="0px" width="511.626px" height="511.627px" viewBox="0 0 1100 1100"
	style="enable-background:new 0 0 1100 1100;" xml:space="preserve">
	<g>
		

<path transform="rotate(180 500 500) scale(0.9)" d="M781.854 908.498c-1.506 8.132-6.024 15.361-12.951 19.879-6.626 4.518-14.758 6.023-21.986 4.517l-196.969-34.634c-1.506 15.36-14.456 27.105-30.118 27.105h-410.805c-16.565 0-30.118-13.553-30.118-30.118v-892.987c0-16.565 13.553-30.118 30.118-30.118h411.106c16.565 0 30.118 13.553 30.118 30.118v689.393l124.687-708.669c2.409-14.456 15.059-24.998 29.515-24.998l207.511 36.141c7.831 1.205 15.059 5.722 19.576 12.348s6.325 14.758 4.819 22.588l-154.805 879.736 0.301-0.301zM746.616 761.825l-143.059-25.298-18.673 106.616 143.059 25.299 18.673-106.618zM757.158 702.494l115.049-654.456-143.059-25.299-115.049 654.456 143.059 25.299zM284.612 698.579v-666.202h-145.167v666.202h145.167zM284.612 865.43v-106.616h-145.167v106.616h145.167zM490.014 138.993v-106.616h-145.167v106.616h145.167zM490.014 865.43v-666.201h-145.167v666.201h145.167z" fill="#1D1D1D" />

    </g>
</svg>