<?xml version="1.0" encoding="iso-8859-1"?>
<!DOCTYPE svg PUBLIC "-//W3C//DTD SVG 1.1//EN" "http://www.w3.org/Graphics/SVG/1.1/DTD/svg11.dtd">
<svg version="1.1" xmlns="http://www.w3.org/2000/svg" xmlns:xlink="http://www.w3.org/1999/xlink" x="0px"
	y="0px" width="511.626px" height="511.627px" viewBox="0 0 1100 1100"
	style="enable-background:new 0 0 1100 1100;" xml:space="preserve">
	<g>
		

<path transform="rotate(180 500 500) scale(0.9)" d="M837.037 623.735c-104.052 106.032-258.312 97.441-320.743 88.192-112.31 248.072-251.375 219.662-276.48 212.064-81.92-15.855-122.22-98.103-125.193-104.379-121.559-327.68 57.146-644.129 76.635-677.161 4.625-11.231 24.114-56.815 50.539-98.766 47.236-74.653 109.006-95.46 156.903-95.46 20.48 0 38.648 3.957 51.861 8.912 89.187 22.132 107.685 29.068 141.378 42.281 13.543 5.285 29.729 11.565 55.164 20.483 9.579 3.303 64.413 30.39 70.359 33.363 54.503 27.417 103.061 75.974 106.694 79.608 229.244 264.588 27.747 476.328 12.883 491.193v-0.33zM775.597 177.469c0 0-43.272-42.942-87.866-65.404-19.489-9.579-57.476-28.084-62.761-30.066-26.095-9.249-42.942-15.522-56.815-21.137-32.372-12.552-48.888-18.825-135.763-40.296l-4.625-1.325c-7.597-2.973-75.644-26.423-130.478 59.792-26.426 41.951-45.915 90.178-45.915 90.508l-2.642 4.952c-1.982 2.973-186.962 313.806-73.992 619.354 0 0.661 28.407 56.815 78.286 65.734l5.615 1.323c0 0 7.598 2.315 17.838 2.315 35.014 0 114.622-22.134 188.945-200.839l10.901-25.766 27.086 6.274c1.652 0.33 182.008 40.63 286.059-65.404l0.661-0.661c7.267-6.937 178.044-176.386-14.865-399.353h0.33zM653.048 513.404c-34.023 2.643-67.052-8.588-93.148-31.050-25.765-22.462-41.294-53.516-43.936-87.869-4.955-70.359 48.227-131.795 118.916-136.75 2.973 0 6.276-0.33 9.249-0.33 30.72 0 60.122 10.897 83.905 31.377 25.765 22.462 41.287 53.519 43.93 87.872 2.312 34.023-8.588 67.049-31.050 93.144-22.462 25.765-53.512 41.294-87.866 43.936v-0.33zM684.762 338.66c-12.552-10.901-28.411-16.183-44.927-15.192-16.516 1.321-31.711 8.592-42.612 21.144s-16.186 28.404-15.195 44.921c1.321 16.516 8.592 31.711 21.144 42.612s28.735 16.186 44.921 15.195c16.516-1.321 31.711-8.585 42.612-21.137s16.186-28.411 15.195-44.927c-1.321-16.516-8.585-31.714-21.137-42.615z" fill="#1D1D1D" />

    </g>
</svg>