<?xml version="1.0" encoding="iso-8859-1"?>
<!DOCTYPE svg PUBLIC "-//W3C//DTD SVG 1.1//EN" "http://www.w3.org/Graphics/SVG/1.1/DTD/svg11.dtd">
<svg version="1.1" xmlns="http://www.w3.org/2000/svg" xmlns:xlink="http://www.w3.org/1999/xlink" x="0px"
	y="0px" width="511.626px" height="511.627px" viewBox="0 0 1100 1100"
	style="enable-background:new 0 0 1100 1100;" xml:space="preserve">
	<g>
		

<path transform="rotate(180 500 500) scale(0.9)" d="M733.869 614.728l-105.026 52.775v231.318h24.156c13.916 0 25.206 11.29 25.206 25.206s-11.29 25.206-25.206 25.206h-290.922c-13.916 0-25.206-11.29-25.206-25.206s11.29-25.206 25.206-25.206h23.368v-231.581l-104.238-52.513c-26.256-13.128-42.798-39.91-42.798-69.317v-483.906c0-33.608 20.742-63.015 51.987-73.255 71.68-23.893 144.673-35.971 216.879-35.971 72.468 0 145.461 12.078 217.141 35.971 30.983 10.24 51.988 39.91 51.988 73.255v484.168c0 29.407-16.279 56.189-42.798 69.317l0.263-0.263zM306.152 35.774c-10.503 3.413-17.329 13.653-17.329 25.469v149.136h437.432v-149.136c0-11.815-7.089-22.055-17.329-25.469-133.645-44.636-269.129-44.636-402.512 0h-0.262zM726.255 454.302v-193.51h-437.432v193.51h437.432zM288.823 545.149c0 10.503 5.776 19.692 14.966 24.418l118.416 59.339 6.826 5.251c1.575 1.575 2.363 3.151 3.151 4.464l2.1 3.938c1.050 3.151 1.051 4.464 1.051 4.464l0.788 251.798h142.573v-248.648l0.525-1.575c0-1.313 0.525-3.151 1.313-5.251l4.989-8.139c1.575-1.575 3.151-2.626 3.413-2.888l122.617-62.49c9.19-4.726 14.966-13.916 14.966-24.418v-40.697h-437.433v40.435h-0.262z" fill="#1D1D1D" />

    </g>
</svg>