<?xml version="1.0" encoding="iso-8859-1"?>
<!DOCTYPE svg PUBLIC "-//W3C//DTD SVG 1.1//EN" "http://www.w3.org/Graphics/SVG/1.1/DTD/svg11.dtd">
<svg version="1.1" xmlns="http://www.w3.org/2000/svg" xmlns:xlink="http://www.w3.org/1999/xlink" x="0px"
	y="0px" width="511.626px" height="511.627px" viewBox="0 0 1100 1100"
	style="enable-background:new 0 0 1100 1100;" xml:space="preserve">
	<g>
		

<path transform="rotate(180 500 500) scale(0.9)" d="M1017.078 744.406l-74.724 165.501c-8.856 19.65-28.783 32.38-50.37 32.38h-739.77c-21.587 0-41.514-12.73-50.37-32.38l-73.339-162.18-1.108-3.321c-0.83-2.491-1.106-5.258-1.106-8.025v-730.915c0-30.443 24.908-55.351 55.351-55.351h881.469c30.443 0 55.351 24.908 55.351 55.351v730.915c0 2.768-0.277 5.535-1.107 8.025h-0.277zM962.834 708.705v-703.239h-881.469v703.239h881.469zM947.612 764.056h-851.026l55.628 122.879h739.77l55.628-122.879zM499.543 140.246c5.258-7.472 13.561-11.901 22.417-11.901s17.436 4.428 22.417 11.901l141.699 141.699c10.794 10.794 10.794 28.229 0 39.023s-28.226 10.794-39.020 0l-97.421-97.418v323.805c0 15.222-12.454 27.676-27.676 27.676s-27.676-12.454-27.676-27.676v-323.805l-97.416 97.418c-10.794 10.794-28.229 10.794-39.023 0s-10.794-28.229 0-39.023l141.697-141.699z" fill="#1D1D1D" />

    </g>
</svg>