<?xml version="1.0" encoding="iso-8859-1"?>
<!DOCTYPE svg PUBLIC "-//W3C//DTD SVG 1.1//EN" "http://www.w3.org/Graphics/SVG/1.1/DTD/svg11.dtd">
<svg version="1.1" xmlns="http://www.w3.org/2000/svg" xmlns:xlink="http://www.w3.org/1999/xlink" x="0px"
	y="0px" width="511.626px" height="511.627px" viewBox="0 0 1100 1100"
	style="enable-background:new 0 0 1100 1100;" xml:space="preserve">
	<g>
		

<path transform="rotate(180 500 500) scale(0.9)" d="M989.679 914.611h-936.821c-15.222 0-27.676-12.454-27.676-27.676v-211.442c0-15.222 12.454-27.676 27.676-27.676h30.444v-612.186c0-30.443 24.908-55.351 55.351-55.351h763.847c30.443 0 55.351 24.908 55.351 55.351v612.186h32.107c15.222 0 27.676 12.454 27.676 27.676v211.442c0 15.222-12.454 27.676-27.676 27.676h-0.28zM962.004 859.26v-156.091h-881.47v156.091h881.47zM902.224 646.158v-610.525h-763.848v610.525h763.848zM339.304 209.159h363.658c15.222 0 27.676 12.454 27.676 27.676s-12.454 27.676-27.676 27.676h-363.658c-15.222 0-27.676-12.454-27.676-27.676s12.454-27.676 27.676-27.676z" fill="#1D1D1D" />

    </g>
</svg>