<?xml version="1.0" encoding="iso-8859-1"?>
<!DOCTYPE svg PUBLIC "-//W3C//DTD SVG 1.1//EN" "http://www.w3.org/Graphics/SVG/1.1/DTD/svg11.dtd">
<svg version="1.1" xmlns="http://www.w3.org/2000/svg" xmlns:xlink="http://www.w3.org/1999/xlink" x="0px"
	y="0px" width="511.626px" height="511.627px" viewBox="0 0 1100 1100"
	style="enable-background:new 0 0 1100 1100;" xml:space="preserve">
	<g>
		

<path transform="rotate(180 500 500) scale(0.9)" d="M997.624 726.962c0 3.723-2.172 11.792-4.965 16.136-0.931 1.241-4.965 6.825-9.309 9.618-0.931 0.621-4.655 2.485-5.896 2.796l-459.869 176.25c-7.137 2.793-15.205 2.793-22.342 0l-459.869-176.25c-1.862-0.621-4.655-2.172-6.206-3.102-3.724-2.482-7.758-7.759-8.999-9.311-2.172-3.413-3.413-7.136-4.034-10.86l-0.931-546.442c0-12.412 7.448-23.896 18.929-28.551l460.179-193.939c3.724-1.552 7.758-2.479 12.102-2.479s8.378 0.928 12.102 2.479l460.179 193.939c11.481 4.965 18.928 16.139 18.928 28.551v541.165zM647.602 84.949l-110.158-46.545v473.522l398.119 167.87v-473.522l-111.709-47.169v208.216c0 10.55-5.275 20.17-13.964 25.755s-19.549 6.827-29.168 2.793l-114.502-48.407c-11.481-4.965-18.928-16.136-18.928-28.548 0-158.255 0-214.109 0-234.279l0.31 0.313zM762.415 133.353l-53.062-22.342v187.73l52.441 22.035c0-121.018 0.31-168.495 0.621-187.423zM129.397 725.409l377.018 144.292 377.018-144.292-377.018-158.874-377.018 158.874zM475.384 512.233v-473.519l-398.119 167.871v473.522l398.119-167.874zM170.355 440.863l174.702-73.852c1.862-0.931 4.034-1.244 5.896-1.244 5.896 0 11.792 3.416 14.274 9.622 3.413 7.758-0.31 17.064-8.378 20.477l-174.702 73.852c-7.758 3.413-17.067-0.307-20.48-8.375-3.413-7.758 0.311-17.067 8.379-20.48h0.31zM170.355 345.6l174.702-73.852c1.862-0.931 4.034-1.238 5.896-1.238 5.896 0 11.792 3.41 14.274 9.616 3.413 7.758-0.31 17.070-8.378 20.483l-174.702 73.852c-7.758 3.103-17.067-0.313-20.48-8.381-3.413-7.758 0.311-17.067 8.379-20.48h0.31z" fill="#1D1D1D" />

    </g>
</svg>