<?xml version="1.0" encoding="iso-8859-1"?>
<!DOCTYPE svg PUBLIC "-//W3C//DTD SVG 1.1//EN" "http://www.w3.org/Graphics/SVG/1.1/DTD/svg11.dtd">
<svg version="1.1" xmlns="http://www.w3.org/2000/svg" xmlns:xlink="http://www.w3.org/1999/xlink" x="0px"
	y="0px" width="511.626px" height="511.627px" viewBox="0 0 1100 1100"
	style="enable-background:new 0 0 1100 1100;" xml:space="preserve">
	<g>
		

<path transform="rotate(180 500 500) scale(0.9)" d="M390.772 639.588c12.883-12.883 33.693-12.883 46.575 0l224.95 224.947c11.231 11.231 28.077 17.508 46.245 17.508 0 0 0.661 0 0.991 0 19.489-0.661 37.987-9.248 52.521-23.782l155.252-155.254c29.068-29.068 31.711-73.994 6.276-99.428l-224.95-224.946c-12.883-12.883-12.883-33.693 0-46.575 6.276-6.276 14.534-9.583 23.453-9.583s17.177 3.307 23.453 9.583l224.95 224.95c51.53 51.53 48.888 138.074-6.276 192.908l-155.252 155.25c-26.095 26.096-60.449 41.622-96.124 42.944-36.335 1.982-71.019-11.231-96.785-36.996l-224.95-224.952c-12.883-12.883-12.883-33.69 0-46.573h-0.33zM595.572 276.89l-225.941-225.607c-11.892-11.892-27.747-19.162-47.236-17.51-19.158 0.661-37.987 9.252-52.191 23.456l-154.591 154.591c-14.534 14.534-22.792 33.032-23.453 52.191-0.661 18.168 5.615 35.014 17.507 47.236l225.941 225.607c12.883 12.883 12.883 33.696 0 46.579s-33.693 12.883-46.576 0l-225.94-225.61c-51.53-51.53-48.888-138.075 5.945-192.908l154.591-154.591c26.095-26.095 60.45-41.294 96.455-42.945h5.615c34.685 0 67.056 13.213 90.839 36.996l225.941 225.614c12.883 12.883 12.883 33.693 0 46.575s-33.693 12.883-46.575 0l-0.33 0.327zM987.004 284.16l-215.37 40.299c-8.588 1.652-17.507-0.003-24.774-5.288-7.267-4.955-12.222-12.552-13.874-21.141s0-17.507 5.285-24.774c4.955-7.267 12.552-12.219 21.141-13.87l215.37-40.303 5.946-0.657c15.855 0 29.399 11.231 32.372 27.086 3.303 17.837-8.588 35.014-26.426 38.317l0.33 0.33zM683.768 248.485c-8.588-1.652-16.186-6.603-21.141-13.87s-6.937-16.186-5.285-24.774l40.299-215.37c2.973-15.525 16.516-27.090 32.372-27.090l5.946 0.661c17.837 3.303 29.729 20.483 26.426 38.651l-40.299 215.37c-3.303 17.837-20.81 29.726-38.648 26.423h0.33zM350.803 673.279l5.946 0.661c17.837 3.303 29.729 20.482 26.426 38.649l-40.299 215.371c-3.303 17.837-20.481 29.727-38.648 26.423-17.837-3.303-29.729-20.477-26.425-38.645l40.3-215.371c2.973-15.525 16.516-27.089 32.372-27.089h0.33zM53.844 638.598l215.37-40.298 5.946-0.661c15.855 0 29.399 11.228 32.372 27.083 3.303 17.838-8.588 35.016-26.425 38.319l-215.371 40.298c-8.588 1.652-17.507-0.001-24.774-4.955s-12.221-12.549-13.873-21.468c-3.303-17.837 8.588-35.016 26.426-38.649l0.331 0.331z" fill="#1D1D1D" />

    </g>
</svg>