<?xml version="1.0" encoding="iso-8859-1"?>
<!DOCTYPE svg PUBLIC "-//W3C//DTD SVG 1.1//EN" "http://www.w3.org/Graphics/SVG/1.1/DTD/svg11.dtd">
<svg version="1.1" xmlns="http://www.w3.org/2000/svg" xmlns:xlink="http://www.w3.org/1999/xlink" x="0px"
	y="0px" width="511.626px" height="511.627px" viewBox="0 0 1100 1100"
	style="enable-background:new 0 0 1100 1100;" xml:space="preserve">
	<g>
		

<path transform="rotate(180 500 500) scale(0.9)" d="M947.045 663.972h-283.307v229.623c0 34.133-27.927 62.060-62.061 62.060h-509.829c-34.133 0-62.061-27.927-62.061-62.060v-896.155c0-17.067 13.964-31.030 31.030-31.030h917.257c17.067 0 31.030 13.964 31.030 31.030v604.16c0 34.133-27.927 62.061-62.061 62.061v0.311zM91.848 893.595h509.829v-865.125h-509.829v865.125zM663.738 601.91h283.307v-573.13h-283.307v573.13zM193.629 716.721h325.198c17.067 0 31.030 13.964 31.030 31.030s-13.964 31.030-31.030 31.030h-325.198c-17.067 0-31.030-13.964-31.030-31.030s13.964-31.030 31.030-31.030zM436.596 461.343c0 17.067-13.964 31.030-31.030 31.030h-278.342c-17.067 0-31.030-13.964-31.030-31.030s13.964-31.030 31.030-31.030h278.342c17.067 0 31.030 13.964 31.030 31.030zM544.582 204.102h-278.343c-17.067 0-31.030-13.964-31.030-31.030s13.964-31.030 31.030-31.030h278.343c17.067 0 31.030 13.964 31.030 31.030s-13.964 31.030-31.030 31.030zM899.565 492.373h-184.32c-17.067 0-31.030-13.964-31.030-31.030s13.964-31.030 31.030-31.030h184.32c17.067 0 31.030 13.964 31.030 31.030s-13.964 31.030-31.030 31.030zM835.953 332.878h-124.742c-17.067 0-31.030-13.964-31.030-31.030s13.964-31.030 31.030-31.030h124.742c17.067 0 31.030 13.964 31.030 31.030s-13.964 31.030-31.030 31.030z" fill="#1D1D1D" />

    </g>
</svg>