<?xml version="1.0" encoding="iso-8859-1"?>
<!DOCTYPE svg PUBLIC "-//W3C//DTD SVG 1.1//EN" "http://www.w3.org/Graphics/SVG/1.1/DTD/svg11.dtd">
<svg version="1.1" xmlns="http://www.w3.org/2000/svg" xmlns:xlink="http://www.w3.org/1999/xlink" x="0px"
	y="0px" width="511.626px" height="511.627px" viewBox="0 0 1100 1100"
	style="enable-background:new 0 0 1100 1100;" xml:space="preserve">
	<g>
		

<path transform="rotate(180 500 500) scale(0.9)" d="M302.398 653.762h658.878c17.6 0 32 14.4 32 32s-14.4 32-32 32h-658.878c-17.6 0-32-14.4-32-32s14.4-32 32-32zM961.277 226.56h-658.878c-17.6 0-32-14.4-32-32s14.4-32 32-32h658.878c17.6 0 32 14.4 32 32s-14.4 32-32 32zM85.117 752.32v-207.359h64v281.598h-48.32l-68.16-37.117 14.721-57.922 37.76 20.801zM196.798 248.96c0 44.16-28.16 88.64-91.2 88.64-29.44 0-57.92-10.24-80-29.12l-8.96-7.68 24-54.080 16.32 13.76c7.68 6.4 23.040 17.283 41.6 17.283 14.080 0 32.641-3.523 32.641-32.643 0-31.040-25.6-60.477-86.72-119.357l-30.721-30.403v-43.52h188.481v60.16h-87.040c46.4 46.080 80.96 86.72 80.96 137.28l0.64-0.32z" fill="#1D1D1D" />

    </g>
</svg>