<?xml version="1.0" encoding="iso-8859-1"?>
<!DOCTYPE svg PUBLIC "-//W3C//DTD SVG 1.1//EN" "http://www.w3.org/Graphics/SVG/1.1/DTD/svg11.dtd">
<svg version="1.1" xmlns="http://www.w3.org/2000/svg" xmlns:xlink="http://www.w3.org/1999/xlink" x="0px"
	y="0px" width="511.626px" height="511.627px" viewBox="0 0 1100 1100"
	style="enable-background:new 0 0 1100 1100;" xml:space="preserve">
	<g>
		

<path transform="rotate(180 500 500) scale(0.9)" d="M317.441 720.32h670.079c17.6 0 32 14.4 32 32s-14.4 32-32 32h-670.079c-17.6 0-32-14.4-32-32s14.4-32 32-32zM987.52 487.039h-670.079c-17.6 0-32-14.399-32-31.999s14.4-32 32-32h670.079c17.6 0 32 14.4 32 32s-14.4 31.999-32 31.999zM987.52 189.763h-670.079c-17.6 0-32-14.4-32-32s14.4-32 32-32h670.079c17.6 0 32 14.4 32 32s-14.4 32-32 32zM174.081 784.32h-129.28c-17.6 0-32-14.4-32-32s14.4-32 32-32h129.28c17.6 0 32 14.4 32 32s-14.4 32-32 32zM174.081 487.039h-129.28c-17.6 0-32-14.399-32-31.999s14.4-32 32-32h129.28c17.6 0 32 14.4 32 32s-14.4 31.999-32 31.999zM174.081 189.763h-129.28c-17.6 0-32-14.4-32-32s14.4-32 32-32h129.28c17.6 0 32 14.4 32 32s-14.4 32-32 32z" fill="#1D1D1D" />

    </g>
</svg>