<?xml version="1.0" encoding="iso-8859-1"?>
<!DOCTYPE svg PUBLIC "-//W3C//DTD SVG 1.1//EN" "http://www.w3.org/Graphics/SVG/1.1/DTD/svg11.dtd">
<svg version="1.1" xmlns="http://www.w3.org/2000/svg" xmlns:xlink="http://www.w3.org/1999/xlink" x="0px"
	y="0px" width="511.626px" height="511.627px" viewBox="0 0 1100 1100"
	style="enable-background:new 0 0 1100 1100;" xml:space="preserve">
	<g>
		

<path transform="rotate(180 500 500) scale(0.9)" d="M971.52 189.763h-670.079c-17.6 0-32-14.4-32-32s14.4-32 32-32h670.079c17.6 0 32 14.4 32 32s-14.4 32-32 32zM301.441 720.32h670.079c17.6 0 32 14.4 32 32s-14.4 32-32 32h-670.079c-17.6 0-32-14.4-32-32s14.4-32 32-32zM971.52 487.040h-670.079c-17.6 0-32-14.4-32-32s14.4-32 32-32h670.079c17.6 0 32 14.4 32 32s-14.4 32-32 32zM83.841 827.199c-41.28 0-74.88-33.599-74.88-74.879s33.6-74.879 74.88-74.879c41.28 0 74.88 33.599 74.88 74.879s-33.6 74.879-74.88 74.879zM83.841 529.922c-41.28 0-74.88-33.602-74.88-74.882s33.6-74.88 74.88-74.88c41.28 0 74.88 33.6 74.88 74.88s-33.6 74.882-74.88 74.882zM83.841 232.96c-41.28 0-74.88-33.603-74.88-74.883s33.6-74.877 74.88-74.877c41.28 0 74.88 33.597 74.88 74.877s-33.6 74.883-74.88 74.883z" fill="#1D1D1D" />

    </g>
</svg>