<?xml version="1.0" encoding="iso-8859-1"?>
<!DOCTYPE svg PUBLIC "-//W3C//DTD SVG 1.1//EN" "http://www.w3.org/Graphics/SVG/1.1/DTD/svg11.dtd">
<svg version="1.1" xmlns="http://www.w3.org/2000/svg" xmlns:xlink="http://www.w3.org/1999/xlink" x="0px"
	y="0px" width="511.626px" height="511.627px" viewBox="0 0 1100 1100"
	style="enable-background:new 0 0 1100 1100;" xml:space="preserve">
	<g>
		

<path transform="rotate(180 500 500) scale(0.9)" d="M901.95 858.707c-10.794 34.871-42.621 58.396-79.429 58.396h-603.053c-36.532 0-68.635-23.524-79.429-58.672l-114.301-369.748-1.106-270.391c0-30.443 24.908-55.351 55.351-55.351h2.767v-95.204c0-45.665 37.362-83.027 83.027-83.027h9.688c45.665 0 83.027 37.362 83.027 83.027v95.204h524.73v-95.204c0-45.665 37.362-83.027 83.027-83.027h9.686c45.665 0 83.027 37.362 83.027 83.027v95.204h2.768c30.443 0 55.351 24.908 55.351 55.351v262.642l-115.408 377.773h0.277zM219.468 861.752h603.053c12.177 0 22.694-7.749 26.569-19.649l102.954-333.492h-862.097l102.953 333.492c3.598 11.624 14.115 19.649 26.569 19.649zM961.73 218.292h-881.747v234.966h881.747v-234.966zM203.14 162.941v-95.204c0-15.222-12.454-27.676-27.676-27.676h-9.688c-15.222 0-27.676 12.454-27.676 27.676v95.204h65.039zM903.611 162.941v-95.204c0-15.222-12.454-27.676-27.676-27.676h-9.686c-15.222 0-27.676 12.454-27.676 27.676v95.204h65.038zM264.024 400.675c-35.702 0-64.76-29.059-64.76-64.761s29.059-64.761 64.76-64.761c35.701 0 64.761 29.059 64.761 64.761s-29.059 64.761-64.761 64.761zM776.3 400.675c-35.702 0-64.758-29.059-64.758-64.761s29.057-64.761 64.758-64.761c35.702 0 64.764 29.059 64.764 64.761s-29.062 64.761-64.764 64.761z" fill="#1D1D1D" />

    </g>
</svg>