<?xml version="1.0" encoding="iso-8859-1"?>
<!DOCTYPE svg PUBLIC "-//W3C//DTD SVG 1.1//EN" "http://www.w3.org/Graphics/SVG/1.1/DTD/svg11.dtd">
<svg version="1.1" xmlns="http://www.w3.org/2000/svg" xmlns:xlink="http://www.w3.org/1999/xlink" x="0px"
	y="0px" width="511.626px" height="511.627px" viewBox="0 0 1100 1100"
	style="enable-background:new 0 0 1100 1100;" xml:space="preserve">
	<g>
		

<path transform="rotate(180 500 500) scale(0.9)" d="M990.080 206.72l-160.32 160.32c-34.56 34.88-101.12 34.88-135.68 0l-87.68-87.68-250.24 250.243 87.68 87.68c37.44 37.439 37.44 98.239 0 135.679l-160.002 160c-36.16 36.16-99.84 36.16-136 0l-68.16-68.16c-34.56-34.56-53.44-80.321-53.12-129.281v-4.801c1.28-420.8 344.321-763.2 765.121-762.88h1.28c47.68 0 94.080 19.523 127.36 53.443l69.76 70.717c37.12 37.44 36.8 98.24-0.32 135.36l0.32-0.64zM238.719 867.521l160.001-160c12.48-12.48 12.48-32.641 0-45.441l-87.681-87.679c-24.96-24.96-24.96-65.6 0-90.56l250.241-250.237c24.96-24.96 65.6-24.96 90.56 0l87.68 87.68c11.84 11.84 33.28 11.84 45.12 0l160.32-160.32c12.48-12.48 12.48-32.643 0-45.123l-69.76-70.717c-21.44-21.76-51.52-34.243-83.2-34.243-385.6 0-700.162 313.6-701.122 699.199v4.801c0 31.68 12.16 61.44 34.56 83.84l68.16 68.16c6.080 6.080 14.080 9.281 22.72 9.281s16.64-3.201 22.72-9.281l-0.32 0.641z" fill="#1D1D1D" />

    </g>
</svg>