<?xml version="1.0" encoding="iso-8859-1"?>
<!DOCTYPE svg PUBLIC "-//W3C//DTD SVG 1.1//EN" "http://www.w3.org/Graphics/SVG/1.1/DTD/svg11.dtd">
<svg version="1.1" xmlns="http://www.w3.org/2000/svg" xmlns:xlink="http://www.w3.org/1999/xlink" x="0px"
	y="0px" width="511.626px" height="511.627px" viewBox="0 0 1100 1100"
	style="enable-background:new 0 0 1100 1100;" xml:space="preserve">
	<g>
		

<path transform="rotate(180 500 500) scale(0.9)" d="M97.281 257.28l191.040-1.283c22.72 0 44.159 8.963 60.159 24.963s24.96 37.76 24.96 60.8l-0.64 98.558 286.72-1.922 0.64-99.52c0-47.040 38.72-85.437 85.76-85.757l190.4-1.283c22.72 0 44.16 8.963 60.16 24.963 16.32 16.32 24.96 37.76 24.96 60.8l-0.64 80.957c-0.32 42.24-17.28 82.24-47.36 112l-2.88 2.883c-254.72 253.12-665.279 254.719-915.519 3.519-29.12-29.12-45.44-69.439-44.8-111.039l0.96-83.203c0.64-46.72 39.040-85.117 85.76-85.437h0.32zM925.76 488.318l2.88-2.879c17.92-17.6 28.16-42.243 28.48-67.203l0.64-80.956c0-5.76-2.24-11.203-6.080-15.043-4.16-4.16-9.28-6.080-15.040-6.080l-190.080 1.283c-12.16 0-22.080 9.917-22.4 22.397l-0.64 104.001c0 32.32-26.56 58.559-58.88 58.879l-297.28 1.922c-15.68 0-30.4-6.081-41.28-17.281s-17.28-25.918-17.28-41.918l0.641-104c0-5.76-2.24-11.203-6.080-15.043s-9.28-6.077-15.040-6.077l-190.4 1.28c-12.16 0-22.081 9.917-22.401 22.077l-0.96 83.2c0 24.32 9.28 48.001 26.24 64.961 225.28 226.24 595.52 224.64 825.28-3.52h-0.32zM987.203 228.16h-944.641c-17.6 0-32-14.4-32-32s14.4-32 32-32h944.641c17.6 0 32 14.4 32 32s-14.4 32-32 32z" fill="#1D1D1D" />

    </g>
</svg>