<?xml version="1.0" encoding="iso-8859-1"?>
<!DOCTYPE svg PUBLIC "-//W3C//DTD SVG 1.1//EN" "http://www.w3.org/Graphics/SVG/1.1/DTD/svg11.dtd">
<svg version="1.1" xmlns="http://www.w3.org/2000/svg" xmlns:xlink="http://www.w3.org/1999/xlink" x="0px"
	y="0px" width="511.626px" height="511.627px" viewBox="0 0 1100 1100"
	style="enable-background:new 0 0 1100 1100;" xml:space="preserve">
	<g>
		

<path transform="rotate(180 500 500) scale(0.9)" d="M920.216 884.722h-95.204v30.443c0 15.222-12.454 27.676-27.676 27.676s-27.676-12.454-27.676-27.676v-30.443h-525.007v30.443c0 15.222-12.454 27.676-27.676 27.676s-27.676-12.454-27.676-27.676v-30.443h-95.205c-45.665 0-83.027-37.362-83.027-83.027v-768c0-45.665 37.362-83.027 83.027-83.027h826.118c45.665 0 83.027 37.362 83.027 83.027v768c0 45.665-37.362 83.027-83.027 83.027zM216.978 757.691c15.222 0 27.676 12.454 27.676 27.676v44.004h525.007v-44.004c0-15.222 12.454-27.676 27.676-27.676s27.676 12.454 27.676 27.676v44.004h95.204c15.222 0 27.676-12.454 27.676-27.676v-768c0-15.222-12.454-27.676-27.676-27.676h-826.118c-15.222 0-27.676 12.454-27.676 27.676v768c0 15.222 12.454 27.676 27.676 27.676h95.205v-44.004c0-15.222 12.454-27.676 27.676-27.676zM419.566 204.454c5.258-6.089 12.731-9.41 21.034-9.41 8.026 0 15.775 3.598 20.757 9.963l272.329 325.466c9.686 11.624 8.303 29.059-3.321 39.023-5.812 4.705-13.008 6.919-20.203 6.365-7.472-0.554-14.115-4.151-18.819-9.686l-251.849-300.835-117.345 132.843c-9.963 11.347-27.676 12.731-39.023 2.491s-12.454-27.676-2.491-39.023l138.932-157.198z" fill="#1D1D1D" />

    </g>
</svg>