<?xml version="1.0" encoding="iso-8859-1"?>
<!DOCTYPE svg PUBLIC "-//W3C//DTD SVG 1.1//EN" "http://www.w3.org/Graphics/SVG/1.1/DTD/svg11.dtd">
<svg version="1.1" xmlns="http://www.w3.org/2000/svg" xmlns:xlink="http://www.w3.org/1999/xlink" x="0px"
	y="0px" width="511.626px" height="511.627px" viewBox="0 0 1100 1100"
	style="enable-background:new 0 0 1100 1100;" xml:space="preserve">
	<g>
		

<path transform="rotate(180 500 500) scale(0.9)" d="M914.678 884.722h-95.204v30.443c0 15.222-12.454 27.676-27.676 27.676s-27.676-12.454-27.676-27.676v-30.443h-525.006v30.443c0 15.222-12.454 27.676-27.676 27.676s-27.676-12.454-27.676-27.676v-30.443h-95.204c-45.665 0-83.027-37.362-83.027-83.027v-768c0-45.665 37.362-83.027 83.027-83.027h826.118c45.665 0 83.027 37.362 83.027 83.027v768c0 45.665-37.362 83.027-83.027 83.027zM211.441 757.691c15.222 0 27.676 12.454 27.676 27.676v44.004h525.006v-44.004c0-15.222 12.454-27.676 27.676-27.676s27.676 12.454 27.676 27.676v44.004h95.204c15.222 0 27.676-12.454 27.676-27.676v-768c0-15.222-12.454-27.676-27.676-27.676h-826.118c-15.222 0-27.676 12.454-27.676 27.676v768c0 15.222 12.454 27.676 27.676 27.676h95.204v-44.004c0-15.222 12.454-27.676 27.676-27.676zM276.477 172.074c5.259-5.258 12.178-8.026 19.65-8.026s14.391 2.768 19.65 8.026l185.981 185.981 185.427-185.427c10.517-10.517 28.783-10.517 39.023 0 10.794 10.794 10.794 28.229 0 39.023l-185.427 185.427 185.981 185.981c10.794 10.794 10.794 28.229 0 39.023s-28.229 10.794-39.023 0l-185.981-185.981-185.981 185.981c-10.794 10.794-28.229 10.794-39.023 0s-10.794-28.229 0-39.023l185.981-185.981-185.981-185.981c-10.794-10.794-10.794-28.229 0-39.023h-0.277z" fill="#1D1D1D" />

    </g>
</svg>