<?xml version="1.0" encoding="iso-8859-1"?>
<!DOCTYPE svg PUBLIC "-//W3C//DTD SVG 1.1//EN" "http://www.w3.org/Graphics/SVG/1.1/DTD/svg11.dtd">
<svg version="1.1" xmlns="http://www.w3.org/2000/svg" xmlns:xlink="http://www.w3.org/1999/xlink" x="0px"
	y="0px" width="511.626px" height="511.627px" viewBox="0 0 1100 1100"
	style="enable-background:new 0 0 1100 1100;" xml:space="preserve">
	<g>
		

<path transform="rotate(180 500 500) scale(0.9)" d="M933.777 884.722h-95.204v30.443c0 15.222-12.454 27.676-27.676 27.676s-27.676-12.454-27.676-27.676v-30.443h-525.007v30.443c0 15.222-12.454 27.676-27.676 27.676s-27.676-12.454-27.676-27.676v-30.443h-95.205c-45.665 0-83.027-37.362-83.027-83.027v-768c0-45.665 37.362-83.027 83.027-83.027h826.119c45.665 0 83.027 37.362 83.027 83.027v768c0 45.665-37.362 83.027-83.027 83.027zM230.539 757.691c15.222 0 27.676 12.454 27.676 27.676v44.004h525.007v-44.004c0-15.222 12.454-27.676 27.676-27.676s27.676 12.454 27.676 27.676v44.004h95.204c15.222 0 27.676-12.454 27.676-27.676v-768c0-15.222-12.454-27.676-27.676-27.676h-826.119c-15.222 0-27.676 12.454-27.676 27.676v768c0 15.222 12.454 27.676 27.676 27.676h95.205v-44.004c0-15.222 12.454-27.676 27.676-27.676zM492.904 642.283h-234.689c-22.927 0-41.514-18.587-41.514-41.514v-25.185c0-22.927 18.586-41.514 41.514-41.514h234.689c22.927 0 41.514 18.587 41.514 41.514v25.185c0 22.927-18.587 41.514-41.514 41.514zM782.945 278.625h-234.69c-22.927 0-41.514-18.587-41.514-41.514v-18.543c0-22.927 18.587-41.514 41.514-41.514h234.69c22.927 0 41.514 18.587 41.514 41.514v18.543c0 22.927-18.587 41.514-41.514 41.514z" fill="#1D1D1D" />

    </g>
</svg>