<?xml version="1.0" encoding="iso-8859-1"?>
<!DOCTYPE svg PUBLIC "-//W3C//DTD SVG 1.1//EN" "http://www.w3.org/Graphics/SVG/1.1/DTD/svg11.dtd">
<svg version="1.1" xmlns="http://www.w3.org/2000/svg" xmlns:xlink="http://www.w3.org/1999/xlink" x="0px"
	y="0px" width="511.626px" height="511.627px" viewBox="0 0 1100 1100"
	style="enable-background:new 0 0 1100 1100;" xml:space="preserve">
	<g>
		

<path transform="rotate(180 500 500) scale(0.9)" d="M990.154 98.133l-432.64 760.889c-10.24 17.92-28.729 28.729-49.493 28.729s-39.253-10.809-49.493-28.729l-432.641-760.889c-10.24-17.92-9.956-38.969 0-56.889 10.24-17.636 28.73-28.16 49.21-28.16h865.28c20.48 0 38.969 10.524 49.209 28.16s10.524 38.969 0 56.604l0.569 0.284zM508.021 830.863l432.64-760.889h-865.28l432.64 760.889zM482.133 243.2h52.907l27.022 306.347c1.138 9.956 1.707 17.067 1.707 21.333 0 15.929-5.12 29.298-15.076 38.969-9.956 9.956-23.040 14.792-38.4 14.792-17.636 0-31.289-5.406-40.96-15.646-9.387-10.239-14.222-25.315-14.222-44.657 0-2.276 0.284-8.249 1.422-16.782l25.884-304.071-0.284-0.284zM470.187 222.436c-10.524-10.809-15.929-23.609-15.929-38.969s5.404-28.16 16.213-38.969c10.809-10.524 23.893-15.929 38.684-15.929s28.16 5.404 38.969 15.929c10.809 10.809 16.213 23.893 16.213 38.969s-5.404 28.16-16.213 38.969c-21.333 21.049-56.604 21.333-78.222 0h0.284z" fill="#1D1D1D" />

    </g>
</svg>