<?xml version="1.0" encoding="iso-8859-1"?>
<!DOCTYPE svg PUBLIC "-//W3C//DTD SVG 1.1//EN" "http://www.w3.org/Graphics/SVG/1.1/DTD/svg11.dtd">
<svg version="1.1" xmlns="http://www.w3.org/2000/svg" xmlns:xlink="http://www.w3.org/1999/xlink" x="0px"
	y="0px" width="511.626px" height="511.627px" viewBox="0 0 1100 1100"
	style="enable-background:new 0 0 1100 1100;" xml:space="preserve">
	<g>
		

<path transform="rotate(180 500 500) scale(0.9)" d="M997.303 690.834c-3.657 54.857-28.16 107.517-68.754 148.111l-27.794 27.795c-40.96 40.96-93.992 65.463-149.581 68.755-56.32 3.291-107.516-15.358-145.185-53.027l-186.152-186.147c-14.263-14.263-14.263-37.304 0-51.567 3.291-3.291 6.952-5.484 10.975-7.312-47.543-2.194-90.699-20.483-122.882-53.030l-240.275-240.274c-76.8-76.8-69.849-208.823 15.728-294.4l27.792-27.798c43.886-43.886 102.768-69.12 161.648-69.12 51.2 0 98.378 19.021 132.755 53.398l186.145 186.149c14.263 14.263 14.263 37.303 0 51.566-3.657 3.657-7.68 6.217-11.703 7.68 47.909 2.194 91.432 20.111 123.981 52.659l240.274 240.278c38.034 37.669 56.686 89.965 53.029 146.285zM540.16 243.566l-186.15-186.152c-48.274-48.274-134.216-41.322-190.902 15.729l-27.795 27.794c-57.051 57.051-64 142.629-15.725 191.269l240.274 240.274c48.275 48.274 134.218 41.326 190.904-15.726l27.794-27.794c20.114-20.114 34.739-44.621 42.053-70.587 2.56-9.509 8.781-17.189 17.558-21.943s18.651-5.848 27.794-2.922c19.383 5.486 30.72 25.966 25.234 45.349-10.971 38.034-31.821 73.509-60.712 102.4l-27.794 27.794c-39.863 39.864-90.697 63.269-143.726 68.024 4.754 1.829 9.509 4.388 13.166 8.411l186.152 186.147c48.274 48.274 134.213 41.328 191.265-15.723l27.794-27.795c28.16-28.16 44.983-64.366 47.543-101.304 2.194-35.109-9.143-66.929-31.817-89.969l-240.274-240.271c-48.274-48.274-134.213-41.326-191.265 15.726l-27.798 27.791c-20.114 20.114-34.739 44.621-42.053 70.587-2.56 9.509-8.781 17.185-17.558 21.939-8.41 4.754-18.65 5.855-27.793 3.295-19.383-5.486-30.718-25.969-25.232-45.352 10.971-38.034 31.816-73.505 60.709-102.396l27.794-27.794c39.131-39.131 90.328-63.269 142.991-68.023-4.389-1.829-8.408-4.389-12.065-8.046l-0.366-0.731z" fill="#1D1D1D" />

    </g>
</svg>