<?xml version="1.0" encoding="iso-8859-1"?>
<!DOCTYPE svg PUBLIC "-//W3C//DTD SVG 1.1//EN" "http://www.w3.org/Graphics/SVG/1.1/DTD/svg11.dtd">
<svg version="1.1" xmlns="http://www.w3.org/2000/svg" xmlns:xlink="http://www.w3.org/1999/xlink" x="0px"
	y="0px" width="511.626px" height="511.627px" viewBox="0 0 1100 1100"
	style="enable-background:new 0 0 1100 1100;" xml:space="preserve">
	<g>
		

<path transform="rotate(180 500 500) scale(0.9)" d="M716.803 777.922c0 95.040-86.080 172.477-192 172.477h-34.561c-105.92 0-192-77.437-192-172.477v-230.402c0-17.6 14.4-32 32-32 4.16 0 7.679 0.963 11.199 2.243-27.2-29.76-43.199-67.523-43.199-108.803v-297.6c0-95.040 86.080-172.48 192-172.48h34.561c105.92 0 192 77.44 192 172.48v230.403c0 17.6-14.4 32-32 32-4.16 0-7.683-0.963-11.203-2.243 27.2 29.76 43.203 67.52 43.203 108.8v297.602zM652.803 341.763v-230.403c0-59.84-57.28-108.48-128-108.48h-34.561c-70.72 0-128 48.64-128 108.48v297.6c0 59.84 57.28 108.48 128 108.48h34.561c24.96 0 49.28-6.080 70.080-17.6 15.36-8.32 34.88-2.88 43.52 12.48 4.16 7.36 5.117 16 2.877 24.32s-7.677 15.040-15.357 19.2c-30.401 16.64-65.282 25.6-100.802 25.6h-34.558c-50.56 0-96.321-17.6-130.561-46.4 1.6 3.84 2.561 8 2.561 12.8v230.398c0 59.84 57.28 108.48 128 108.48h34.558c70.72 0 127.999-48.64 127.999-108.48v-297.598c0-59.84-57.279-108.48-127.999-108.48h-34.558c-24.96 0-48.96 6.083-70.080 17.603-15.36 8.32-34.88 2.877-43.52-12.483-4.16-7.36-5.121-16-2.881-24.32s7.679-15.037 15.359-19.197c30.4-16.64 65.281-25.603 100.801-25.603h34.561c50.56 0 96.317 17.6 130.557 46.4-1.6-3.84-2.557-7.997-2.557-12.797z" fill="#1D1D1D" />

    </g>
</svg>