<?xml version="1.0" encoding="iso-8859-1"?>
<!DOCTYPE svg PUBLIC "-//W3C//DTD SVG 1.1//EN" "http://www.w3.org/Graphics/SVG/1.1/DTD/svg11.dtd">
<svg version="1.1" xmlns="http://www.w3.org/2000/svg" xmlns:xlink="http://www.w3.org/1999/xlink" x="0px"
	y="0px" width="511.626px" height="511.627px" viewBox="0 0 1100 1100"
	style="enable-background:new 0 0 1100 1100;" xml:space="preserve">
	<g>
		

<path transform="rotate(180 500 500) scale(0.9)" d="M902.781 940.351c-62.824 0-114.024-51.2-114.024-114.024 0-39.023 20.757-75.557 53.691-96.314l-146.128-321.313c-30.72 5.812-57.565-1.384-81.366-17.436l-146.128 146.128c10.794 17.712 16.329 37.639 16.329 58.396 0 62.824-51.2 114.023-114.024 114.023s-114.023-51.199-114.023-114.023c0-33.488 14.945-65.315 40.406-86.902l-146.404-331.278c-68.082 7.749-126.201-46.495-126.201-113.47 0-62.824 51.2-114.024 114.024-114.024s114.024 51.2 114.024 114.024c0 37.916-18.819 72.787-50.093 93.821l144.466 326.57c30.166-6.919 57.842-1.107 82.474 13.838l147.788-147.785c-9.133-16.605-13.838-35.148-13.838-54.244 0-62.824 51.2-114.024 114.024-114.024s114.024 51.2 114.024 114.024c0 35.702-16.329 68.636-44.558 89.946l148.342 326.021c2.491 0 4.982-0.277 7.472-0.277 62.824 0 114.024 51.2 114.024 114.024s-51.2 114.024-114.024 114.024l-0.277 0.277zM902.781 767.655c-32.381 0-58.672 26.292-58.672 58.672s26.292 58.672 58.672 58.672c32.381 0 58.672-26.292 58.672-58.672s-26.292-58.672-58.672-58.672zM677.501 237.665c-32.381 0-58.672 26.292-58.672 58.672s26.292 58.672 58.672 58.672c32.381 0 58.672-26.292 58.672-58.672s-26.292-58.672-58.672-58.672zM370.854 654.461c32.381 0 58.672-26.292 58.672-58.672s-26.292-58.672-58.672-58.672c-32.381 0-58.672 26.292-58.672 58.672s26.292 58.672 58.672 58.672zM138.379 5.189c-32.381 0-58.672 26.292-58.672 58.672s26.292 58.672 58.672 58.672c32.381 0 58.673-26.292 58.673-58.672s-26.292-58.672-58.673-58.672z" fill="#1D1D1D" />

    </g>
</svg>