<?xml version="1.0" encoding="iso-8859-1"?>
<!DOCTYPE svg PUBLIC "-//W3C//DTD SVG 1.1//EN" "http://www.w3.org/Graphics/SVG/1.1/DTD/svg11.dtd">
<svg version="1.1" xmlns="http://www.w3.org/2000/svg" xmlns:xlink="http://www.w3.org/1999/xlink" x="0px"
	y="0px" width="511.626px" height="511.627px" viewBox="0 0 1100 1100"
	style="enable-background:new 0 0 1100 1100;" xml:space="preserve">
	<g>
		

<path transform="rotate(180 500 500) scale(0.9)" d="M512.31 10.783h-427.288v856.437h427.288c17.067 0 31.030 13.964 31.030 31.030s-13.964 31.030-31.030 31.030h-427.288c-34.133 0-62.061-27.927-62.061-62.061v-856.437c0-34.133 27.927-62.061 62.061-62.061h427.288c17.067 0 31.030 13.964 31.030 31.030s-13.964 31.030-31.030 31.030zM990.177 465.38l-116.984 117.912c-5.896 5.896-13.653 9.309-22.032 9.309s-15.825-3.103-21.721-8.999c-12.102-12.102-12.412-31.651 0-43.753l67.956-68.577h-498.347c-17.067 0-31.030-13.964-31.030-31.030s13.964-31.030 31.030-31.030h497.726l-68.577-68.577c-12.102-12.102-12.102-31.651 0-43.753 5.896-5.896 13.653-8.999 22.032-8.999s16.136 3.103 22.032 8.999l118.225 117.918c8.378 5.896 13.653 15.202 13.653 25.442s-4.965 19.242-13.343 25.138h-0.621z" fill="#1D1D1D" />

    </g>
</svg>