<?xml version="1.0" encoding="iso-8859-1"?>
<!DOCTYPE svg PUBLIC "-//W3C//DTD SVG 1.1//EN" "http://www.w3.org/Graphics/SVG/1.1/DTD/svg11.dtd">
<svg version="1.1" xmlns="http://www.w3.org/2000/svg" xmlns:xlink="http://www.w3.org/1999/xlink" x="0px"
	y="0px" width="511.626px" height="511.627px" viewBox="0 0 1100 1100"
	style="enable-background:new 0 0 1100 1100;" xml:space="preserve">
	<g>
		

<path transform="rotate(180 500 500) scale(0.9)" d="M507.038 10.783h-427.288v856.437h427.288c17.067 0 31.030 13.964 31.030 31.030s-13.964 31.030-31.030 31.030h-427.288c-34.133 0-62.061-27.927-62.061-62.061v-856.437c0-34.133 27.927-62.061 62.061-62.061h427.288c17.067 0 31.030 13.964 31.030 31.030s-13.964 31.030-31.030 31.030zM967.215 470.962h-497.723l68.577 68.574c12.102 12.102 12.102 31.654 0 43.756s-31.651 12.102-43.753 0l-118.225-117.915c-8.378-5.896-13.653-15.205-13.653-25.445s4.962-19.239 13.34-25.135l116.677-118.225c5.896-5.896 13.653-9.312 22.032-9.312s16.136 3.106 21.721 9.002c5.896 5.896 8.999 13.65 9.309 22.028 0 8.378-3.106 16.139-9.002 22.035l-67.956 68.577h498.347c17.067 0 31.030 13.964 31.030 31.030s-13.964 31.030-31.030 31.030h0.31z" fill="#1D1D1D" />

    </g>
</svg>