<?xml version="1.0" encoding="iso-8859-1"?>
<!DOCTYPE svg PUBLIC "-//W3C//DTD SVG 1.1//EN" "http://www.w3.org/Graphics/SVG/1.1/DTD/svg11.dtd">
<svg version="1.1" xmlns="http://www.w3.org/2000/svg" xmlns:xlink="http://www.w3.org/1999/xlink" x="0px"
	y="0px" width="511.626px" height="511.627px" viewBox="0 0 1100 1100"
	style="enable-background:new 0 0 1100 1100;" xml:space="preserve">
	<g>
		

<path transform="rotate(180 500 500) scale(0.9)" d="M767.167 854.556c-14.391 0-29.057-1.384-45.109-4.428-52.030 60.333-129.248 96.035-208.401 96.035s-154.154-34.041-206.184-93.544c-10.794 1.384-20.754 1.937-30.164 1.937-138.656 0-251.297-112.64-251.297-251.295 0-61.44 20.479-119.005 58.118-163.010v-458.586c0-15.222 12.454-27.676 27.676-27.676h819.202c15.222 0 27.676 12.454 27.676 27.676v458.032c38.469 44.835 59.777 102.677 59.777 163.286 0 138.655-112.64 251.295-251.295 251.295v0.277zM910.804 469.31l-2.491-3.321c0 0-2.211-3.044-3.042-5.535-1.107-2.491-1.11-4.428-1.387-5.535l-0.551-445.578h-763.851v439.766c0.277 7.472-2.213 14.945-7.471 20.203-32.657 34.595-50.647 82.197-50.647 133.95 0 105.721 84.134 192.069 188.748 195.944-20.757-39.299-31.551-83.027-31.551-127.862 0-15.222 12.454-27.676 27.676-27.676s27.675 12.454 27.675 27.676c0 48.709 16.605 96.588 46.495 134.781 41.79 53.968 104.891 84.688 173.25 84.688 55.075 0 108.491-21.31 149.175-58.949-88.562-40.406-146.958-129.799-146.958-228.601 0-15.222 12.454-27.676 27.676-27.676s27.676 12.454 27.676 27.676c0 89.392 60.33 167.438 146.678 189.855 16.605 4.151 32.934 6.089 49.263 6.089 107.935 0 195.944-88.009 195.944-195.944 0-50.646-18.543-98.249-52.307-133.95zM265.132 375.49c-15.222 0-27.676-12.454-27.676-27.676v-187.918c0-15.222 12.454-27.676 27.676-27.676 15.223 0 27.677 12.454 27.677 27.676v187.918c0 15.222-12.454 27.676-27.677 27.676zM521.41 375.49c-15.222 0-27.676-12.454-27.676-27.676v-187.918c0-15.222 12.454-27.676 27.676-27.676s27.676 12.454 27.676 27.676v187.918c0 15.222-12.454 27.676-27.676 27.676zM777.684 375.49c-15.222 0-27.676-12.454-27.676-27.676v-187.918c0-15.222 12.454-27.676 27.676-27.676s27.676 12.454 27.676 27.676v187.918c0 15.222-12.454 27.676-27.676 27.676z" fill="#1D1D1D" />

    </g>
</svg>