<?xml version="1.0" encoding="iso-8859-1"?>
<!DOCTYPE svg PUBLIC "-//W3C//DTD SVG 1.1//EN" "http://www.w3.org/Graphics/SVG/1.1/DTD/svg11.dtd">
<svg version="1.1" xmlns="http://www.w3.org/2000/svg" xmlns:xlink="http://www.w3.org/1999/xlink" x="0px"
	y="0px" width="511.626px" height="511.627px" viewBox="0 0 1100 1100"
	style="enable-background:new 0 0 1100 1100;" xml:space="preserve">
	<g>
		

<path transform="rotate(180 500 500) scale(0.9)" d="M640.96 610.24h-265.6c-17.6 0-32-14.4-32-32v-265.6c0-17.6 14.4-32 32-32h265.6c17.6 0 32 14.4 32 32v265.6c0 17.6-14.4 32-32 32zM608.96 546.24v-201.6h-201.6v201.6h201.6zM980.803 267.2h-104.96v356.48h104.96c17.6 0 32 14.4 32 32s-14.4 32-32 32h-104.96v93.439c0 17.6-14.4 32-32 32h-93.44v104.961c0 17.6-14.4 32-32 32s-32-14.4-32-32v-104.961h-356.48v104.961c0 17.6-14.401 32-32.001 32s-32-14.4-32-32v-104.961h-93.439c-17.6 0-32-14.4-32-32v-93.439h-105.92c-17.6 0-32-14.4-32-32s14.4-32 32-32h105.92v-356.48h-105.92c-17.6 0-32-14.4-32-32s14.4-32 32-32h105.92v-93.44c0-17.6 14.4-32 32-32h93.439v-104.96c0-17.6 14.4-32 32-32s32.001 14.4 32.001 32v104.96h356.48v-104.96c0-17.6 14.4-32 32-32s32 14.4 32 32v104.96h93.44c17.6 0 32 14.4 32 32v93.44h104.96c17.6 0 32 14.4 32 32s-14.4 32-32 32zM204.803 141.76v607.041h607.040v-607.041h-607.040z" fill="#1D1D1D" />

    </g>
</svg>