<?xml version="1.0" encoding="iso-8859-1"?>
<!DOCTYPE svg PUBLIC "-//W3C//DTD SVG 1.1//EN" "http://www.w3.org/Graphics/SVG/1.1/DTD/svg11.dtd">
<svg version="1.1" xmlns="http://www.w3.org/2000/svg" xmlns:xlink="http://www.w3.org/1999/xlink" x="0px"
	y="0px" width="511.626px" height="511.627px" viewBox="0 0 1100 1100"
	style="enable-background:new 0 0 1100 1100;" xml:space="preserve">
	<g>
		

<path transform="rotate(180 500 500) scale(0.9)" d="M1000.96 515.413c-11.093 11.093-29.013 11.093-40.107 0l-27.876-27.876c-23.324 234.098-217.884 413.013-456.533 413.013-253.44 0-459.378-205.937-459.378-459.377s205.938-459.378 459.378-459.378c122.596 0 238.080 47.787 324.836 134.542 11.093 11.093 11.093 29.013 0 40.107s-29.582 10.809-40.107 0c-75.947-75.947-177.209-117.76-284.444-117.76-221.866 0-402.489 180.622-402.489 402.489s180.623 402.488 402.489 402.488c204.231 0 372.622-150.47 398.507-349.297l-21.049 21.049c-10.809 10.809-29.582 10.809-40.107 0-5.404-5.404-8.249-12.516-8.249-20.196s2.844-14.791 8.249-20.196l73.671-73.671c10.809-10.809 29.582-10.809 40.107 0l73.671 73.671c11.093 11.093 11.093 29.013 0 40.107l-0.569 0.284zM476.16 767.715c-15.644 0-28.444-12.8-28.444-28.444v-298.097c0-7.68 2.844-14.791 8.249-20.196l186.88-186.88c5.404-5.404 12.516-8.249 20.196-8.249s14.791 2.844 20.196 8.249c11.093 11.093 11.093 29.013 0 40.107l-178.631 178.631v286.435c0 15.644-12.8 28.444-28.444 28.444z" fill="#1D1D1D" />

    </g>
</svg>