<?xml version="1.0" encoding="iso-8859-1"?>
<!DOCTYPE svg PUBLIC "-//W3C//DTD SVG 1.1//EN" "http://www.w3.org/Graphics/SVG/1.1/DTD/svg11.dtd">
<svg version="1.1" xmlns="http://www.w3.org/2000/svg" xmlns:xlink="http://www.w3.org/1999/xlink" x="0px"
	y="0px" width="511.626px" height="511.627px" viewBox="0 0 1100 1100"
	style="enable-background:new 0 0 1100 1100;" xml:space="preserve">
	<g>
		

<path transform="rotate(180 500 500) scale(0.9)" d="M664.216 774.85c-126.755 0-238.564-68.359-296.683-179.892-38.469 35.425-87.455 54.522-140.316 54.522-115.961 0-210.335-95.205-210.335-212.273v-19.373c0-102.954 83.857-186.811 186.811-186.811h319.654c13.284 0 24.355 10.794 24.355 24.355s-10.794 24.355-24.355 24.355h-319.654c-76.108 0-138.102 61.994-138.102 138.102v19.373c0 90.222 72.51 163.564 161.626 163.564 45.942 0 89.393-19.65 119.836-54.245-11.901-35.148-18.266-71.957-18.266-109.319 0-13.561 10.794-24.355 24.355-24.355s24.355 11.070 24.355 24.355c0 36.532 6.642 71.957 19.65 105.444 43.451 111.533 148.342 183.49 267.070 183.49 158.028 0 286.72-129.522 286.72-288.934 0-5.535 0-10.794-0.554-16.882v-3.598c-0.554-75.555-62.27-136.995-138.102-136.995-13.284 0-24.355-10.794-24.355-24.355s10.794-24.355 24.355-24.355c102.123 0 185.704 82.75 186.811 184.597v1.384c0.277 6.642 0.554 13.284 0.554 20.203 0 186.257-150.556 337.643-335.429 337.643zM678.884 408.424c-10.517 10.517-28.506 10.517-39.023 0l-70.85-71.126c-10.794-10.794-10.794-28.229 0-39.023s28.783-10.517 39.023 0l25.185 25.185v-170.482c0-14.945 12.177-26.845 26.845-26.845s26.845 12.177 26.845 26.845v169.375l25.185-25.185c10.517-10.517 28.783-10.517 39.023 0s10.794 28.229 0 39.023l-72.234 72.234z" fill="#1D1D1D" />

    </g>
</svg>