<?xml version="1.0" encoding="iso-8859-1"?>
<!DOCTYPE svg PUBLIC "-//W3C//DTD SVG 1.1//EN" "http://www.w3.org/Graphics/SVG/1.1/DTD/svg11.dtd">
<svg version="1.1" xmlns="http://www.w3.org/2000/svg" xmlns:xlink="http://www.w3.org/1999/xlink" x="0px"
	y="0px" width="511.626px" height="511.627px" viewBox="0 0 1100 1100"
	style="enable-background:new 0 0 1100 1100;" xml:space="preserve">
	<g>
		

<path transform="rotate(180 500 500) scale(0.9)" d="M667.022 783.929c-130.276 0-245.191-70.258-304.924-184.889-39.538 36.409-89.884 56.036-144.213 56.036-119.182 0-216.178-97.85-216.178-218.17v-19.911c0-105.813 86.187-192 192-192h291.271c13.653 0 25.031 11.093 25.031 25.031s-11.093 25.031-25.031 25.031h-291.271c-78.222 0-141.938 63.716-141.938 141.938v19.911c0 92.729 74.524 168.107 166.116 168.107 47.218 0 91.876-20.196 123.164-55.752-12.231-36.124-18.773-73.956-18.773-112.356 0-13.938 11.093-25.031 25.031-25.031s25.031 11.378 25.031 25.031c0 37.547 6.827 73.956 20.196 108.373 44.658 114.631 152.462 188.587 274.489 188.587 162.418 0 294.684-133.12 294.684-296.96 0-5.973 0-11.662-0.569-17.636v-3.413c-0.569-77.653-64-140.8-141.938-140.8-13.653 0-25.031-11.093-25.031-25.031s11.093-25.031 25.031-25.031c105.529 0 191.716 85.902 192 190.862 0.284 6.827 0.569 13.938 0.569 21.049 0 191.431-154.738 347.022-344.747 347.022zM717.938 238.649l-25.884-25.884v175.218c0 15.36-12.516 27.591-27.591 27.591s-27.591-12.516-27.591-27.591v-174.080l-25.884 25.884c-11.093 11.093-29.013 11.093-40.107 0s-11.093-29.013 0-40.107l73.956-73.956c5.404-5.404 12.516-8.249 20.196-8.249s14.791 2.844 20.196 8.249l73.102 73.102c11.093 11.093 11.093 29.013 0 40.107s-29.013 11.093-40.107 0l-0.284-0.284z" fill="#1D1D1D" />

    </g>
</svg>