<?xml version="1.0" encoding="iso-8859-1"?>
<!DOCTYPE svg PUBLIC "-//W3C//DTD SVG 1.1//EN" "http://www.w3.org/Graphics/SVG/1.1/DTD/svg11.dtd">
<svg version="1.1" xmlns="http://www.w3.org/2000/svg" xmlns:xlink="http://www.w3.org/1999/xlink" x="0px"
	y="0px" width="511.626px" height="511.627px" viewBox="0 0 1100 1100"
	style="enable-background:new 0 0 1100 1100;" xml:space="preserve">
	<g>
		

<path transform="rotate(180 500 500) scale(0.9)" d="M675.84 729.884c-130.276 0-245.191-70.258-304.924-184.889-39.538 36.409-89.884 56.036-144.213 56.036-119.182 0-216.178-97.848-216.178-218.169v-19.911c0-105.813 86.187-192 192-192h625.493c105.529 0 191.431 85.618 192 190.862v1.138c0.284 6.542 0.569 13.084 0.569 20.196 0 191.43-154.738 347.022-344.747 347.022v-0.285zM969.956 361.529c-0.569-77.653-64-140.8-141.938-140.8h-625.493c-78.222 0-141.938 63.716-141.938 141.938v19.911c0 92.729 74.524 168.106 166.116 168.106 47.218 0 91.876-20.195 123.164-55.75-12.231-36.125-18.773-73.956-18.773-112.356 0-13.938 11.378-25.031 25.031-25.031s25.031 11.378 25.031 25.031c0 37.547 6.827 73.956 20.196 108.374 44.658 114.631 152.462 188.587 274.489 188.587 162.418 0 294.684-133.12 294.684-296.96 0-5.404 0-10.524-0.569-17.351v-3.698zM791.040 502.046l-173.227-142.224-58.88 58.88c-9.387 9.387-26.169 9.387-35.271 0-9.671-9.671-9.671-25.6 0-35.271l75.093-75.090c4.836-4.551 11.093-7.111 17.636-7.111 5.689 0 11.378 1.988 15.929 5.686l190.578 156.729c10.809 8.818 12.231 24.462 3.413 35.271-8.818 10.524-24.462 11.947-34.987 3.413l-0.284-0.283z" fill="#1D1D1D" />

    </g>
</svg>