<?xml version="1.0" encoding="iso-8859-1"?>
<!DOCTYPE svg PUBLIC "-//W3C//DTD SVG 1.1//EN" "http://www.w3.org/Graphics/SVG/1.1/DTD/svg11.dtd">
<svg version="1.1" xmlns="http://www.w3.org/2000/svg" xmlns:xlink="http://www.w3.org/1999/xlink" x="0px"
	y="0px" width="511.626px" height="511.627px" viewBox="0 0 1100 1100"
	style="enable-background:new 0 0 1100 1100;" xml:space="preserve">
	<g>
		

<path transform="rotate(180 500 500) scale(0.9)" d="M841.852 151.661c91.85 8.068 158.875 122.57 158.875 225.28 0 85.333-51.51 141.498-138.395 152.359v30.72c0 17.067-13.964 31.030-31.030 31.030h-785.378c-17.067 0-31.030-13.964-31.030-31.030v-298.201c0-97.125 45.304-186.492 121.018-243.898h-88.126c-17.067 0-31.030-13.964-31.030-31.030s13.964-31.030 31.030-31.030h262.206c3.724 0 7.448-0.621 11.482-0.621h234.279c3.724 0 7.758 0 11.481 0.621h264.068c17.067 0 31.030 14.274 31.030 31.341s-13.964 31.030-31.030 31.030h-89.988c44.994 34.133 79.748 80.058 100.538 133.741v-0.31zM938.667 376.941c0-63.612-36.926-132.81-78.817-155.462 1.862 13.653 2.793 26.996 2.793 40.339v205.11c50.579-8.688 76.335-38.788 76.335-89.988h-0.31zM570.337 17.92h-262.827c-129.396 7.447-230.555 114.502-230.555 243.898v267.171h723.317v-267.171c0-129.086-100.848-236.141-229.935-243.898zM217.831 644.112c17.067 0 31.030 13.964 31.030 31.030v229.314c0 17.067-13.964 31.030-31.030 31.030s-31.030-13.964-31.030-31.030v-229.314c0-17.067 13.964-31.030 31.030-31.030zM447.767 644.112c17.067 0 31.030 13.964 31.030 31.030v229.314c0 17.067-13.964 31.030-31.030 31.030s-31.030-13.964-31.030-31.030v-229.314c0-17.067 13.964-31.030 31.030-31.030zM678.012 644.112c17.067 0 31.030 13.964 31.030 31.030v229.314c0 17.067-13.964 31.030-31.030 31.030s-31.030-13.964-31.030-31.030v-229.314c0-17.067 13.964-31.030 31.030-31.030z" fill="#1D1D1D" />

    </g>
</svg>