<?xml version="1.0" encoding="iso-8859-1"?>
<!DOCTYPE svg PUBLIC "-//W3C//DTD SVG 1.1//EN" "http://www.w3.org/Graphics/SVG/1.1/DTD/svg11.dtd">
<svg version="1.1" xmlns="http://www.w3.org/2000/svg" xmlns:xlink="http://www.w3.org/1999/xlink" x="0px"
	y="0px" width="511.626px" height="511.627px" viewBox="0 0 1100 1100"
	style="enable-background:new 0 0 1100 1100;" xml:space="preserve">
	<g>
		

<path transform="rotate(180 500 500) scale(0.9)" d="M505.92 774.4c-287.679 0-504.639-103.361-504.639-240.961v-176.639c0-136.96 216.96-240.32 504.639-240.32 134.72 0 260.48 23.68 353.6 66.56 97.28 44.8 150.72 106.56 150.72 173.76v177.28c0 136.96-216.96 240.32-504.64 240.32h0.32zM505.92 710.4c232.64 0 437.12-80.96 440.64-173.76v-2.881c0-21.76-11.84-43.839-34.56-65.28-72.32-67.2-231.68-110.72-406.080-110.72s-333.759 43.52-406.079 110.72c-22.72 21.76-34.56 43.52-34.56 65.6 0 94.080 205.76 176.32 440.639 176.32zM529.92 180.8v113.28c105.6 2.24 206.080 19.52 287.68 48.96v-107.84c-78.080-32.32-181.44-51.52-287.68-54.080v-0.32zM865.6 258.24v104.64c30.72 14.4 56.96 30.72 78.4 48.32h0.32l2.24 1.92v-56.32c0-33.92-28.48-68.48-80.96-98.56zM481.92 294.080v-113.28c-106.24 2.56-209.599 22.080-287.359 54.080v107.84c81.28-29.44 181.759-46.72 287.359-48.96v0.32zM146.561 362.88v-104.64c-52.48 30.080-81.28 64.32-81.28 98.56v56.32l2.56-2.24h0.32c21.44-17.28 47.68-33.6 78.4-48z" fill="#1D1D1D" />

    </g>
</svg>