<?xml version="1.0" encoding="iso-8859-1"?>
<!DOCTYPE svg PUBLIC "-//W3C//DTD SVG 1.1//EN" "http://www.w3.org/Graphics/SVG/1.1/DTD/svg11.dtd">
<svg version="1.1" xmlns="http://www.w3.org/2000/svg" xmlns:xlink="http://www.w3.org/1999/xlink" x="0px"
	y="0px" width="511.626px" height="511.627px" viewBox="0 0 1100 1100"
	style="enable-background:new 0 0 1100 1100;" xml:space="preserve">
	<g>
		

<path transform="rotate(180 500 500) scale(0.9)" d="M1001.038 402.385h-1.241c-8.068 55.234-59.888 105.503-145.222 140.257v107.676c0 115.743-181.217 202.937-421.392 202.937s-421.391-87.194-421.391-202.937v-146.464c0-61.75 53.372-118.225 146.463-155.772v-107.365c0-115.743 180.906-202.938 421.081-202.938 112.33 0 216.902 19.859 294.788 55.855 81.61 37.857 126.604 89.988 126.604 147.394v161.668l0.31-0.31zM602.919 100.15v84.402c84.092 2.172 164.771 15.825 230.555 38.788v-80.058c-62.681-25.445-145.222-40.96-230.555-43.442v0.31zM556.373 184.553v-84.402c-85.333 2.482-167.874 17.998-230.555 43.442v80.058c65.784-23.273 146.153-36.926 230.555-38.788v-0.31zM433.183 791.506c211.627 0 359.331-74.162 359.331-141.188 0-16.756-9.309-33.823-26.996-50.58-58.958-54.924-189.285-90.298-332.335-90.298s-273.377 35.375-332.025 90.298c-17.998 17.067-26.996 33.824-27.306 50.89 0 66.715 147.394 140.877 359.331 140.877zM409.91 448v-84.402c-85.333 2.482-167.874 17.998-230.555 43.442v80.058c65.784-23.273 146.463-36.926 230.555-38.788v-0.31zM456.456 363.598v84.402c84.092 2.172 164.771 15.825 230.555 38.788v-80.058c-62.681-25.445-145.222-40.96-230.555-43.442v0.31zM733.556 430.002v76.335c22.962 10.861 42.822 22.652 58.958 35.375v-37.547c0-25.445-20.79-51.2-58.958-74.162zM433.183 301.227c218.764 0 390.982 74.162 417.358 175.632 55.544-26.065 88.126-58.958 88.126-89.367 0-16.756-8.999-33.823-26.996-50.89-58.958-54.924-189.285-90.298-332.024-90.298-123.501 0-237.692 26.376-304.407 68.887 49.648-9.309 103.331-14.274 157.944-14.274v0.31zM73.852 541.712c16.136-12.412 35.995-24.204 58.958-35.375v-76.335c-38.167 22.962-58.958 49.028-58.958 74.162v37.547zM220.315 278.264c16.136-12.412 35.995-24.204 58.957-35.064v-76.335c-36.305 21.721-56.785 46.235-58.957 70.439v40.96zM879.709 166.555v76.335c22.962 10.861 42.512 22.652 58.958 35.375v-37.547c0-25.445-20.79-51.2-58.958-74.162z" fill="#1D1D1D" />

    </g>
</svg>