<?xml version="1.0" encoding="iso-8859-1"?>
<!DOCTYPE svg PUBLIC "-//W3C//DTD SVG 1.1//EN" "http://www.w3.org/Graphics/SVG/1.1/DTD/svg11.dtd">
<svg version="1.1" xmlns="http://www.w3.org/2000/svg" xmlns:xlink="http://www.w3.org/1999/xlink" x="0px"
	y="0px" width="511.626px" height="511.627px" viewBox="0 0 1100 1100"
	style="enable-background:new 0 0 1100 1100;" xml:space="preserve">
	<g>
		

<path transform="rotate(180 500 500) scale(0.9)" d="M501.757 955.573c-273.435 0-496.223-222.514-496.223-496.226s222.512-496.225 496.223-496.225c273.712 0 496.225 222.512 496.225 496.225s-222.512 496.226-496.225 496.226zM501.757 900.221c242.992 0 440.874-197.606 440.874-440.874s-197.881-440.874-440.874-440.874c-242.991 0-440.872 197.604-440.872 440.874s197.604 440.874 440.872 440.874zM293.913 224.101c4.151 0 8.579 1.11 12.454 3.047l277.034 138.655c5.258 2.768 9.686 6.919 12.454 12.454l138.655 277.034c5.258 10.794 3.321 23.524-5.258 31.826-8.303 8.303-21.31 10.517-31.827 5.259l-277.034-138.655c-5.258-2.768-9.686-7.196-12.454-12.454l-138.655-277.034c-5.258-10.794-3.321-23.524 5.258-32.104 5.259-5.258 12.178-8.029 19.65-8.029h-0.277zM647.608 605.475l-97.418-194.283-194.283-97.144 97.142 194.286 194.56 97.142z" fill="#1D1D1D" />

    </g>
</svg>