<?xml version="1.0" encoding="iso-8859-1"?>
<!DOCTYPE svg PUBLIC "-//W3C//DTD SVG 1.1//EN" "http://www.w3.org/Graphics/SVG/1.1/DTD/svg11.dtd">
<svg version="1.1" xmlns="http://www.w3.org/2000/svg" xmlns:xlink="http://www.w3.org/1999/xlink" x="0px"
	y="0px" width="511.626px" height="511.627px" viewBox="0 0 1100 1100"
	style="enable-background:new 0 0 1100 1100;" xml:space="preserve">
	<g>
		

<path transform="rotate(180 500 500) scale(0.9)" d="M981.933 471.801c-13.284-2.491-26.569-3.321-39.023-3.044-47.325 1.661-91.053 21.864-123.434 56.458-32.104 34.595-48.986 79.983-47.325 127.031 0.277 8.856 1.661 18.266 3.598 28.783l9.133 45.388-44.558-13.561c-16.882-5.258-34.318-7.75-52.030-7.75-97.695 0-177.124 79.43-177.124 177.125 0 9.41 0.83 19.097 2.768 30.167l5.812 34.595-35.148-2.215c-259.32-17.436-462.736-234.69-462.736-494.565 0-273.436 222.512-496.225 496.224-496.225s492.35 219.745 495.948 489.859l0.554 33.764-33.211-6.089 0.554 0.277zM518.919 9.894c-242.992 0-440.872 197.604-440.872 440.874 0 220.575 161.625 405.171 378.325 435.891 0-1.384 0-2.49 0-3.873 0-128.138 104.337-232.476 232.476-232.476 9.41 0 18.819 0.554 28.229 1.661-1.661-61.163 20.48-119.282 61.994-164.117 42.344-45.665 99.632-71.957 161.903-74.171 5.535 0 11.347 0 16.882 0-18.819-227.771-208.951-403.788-438.936-403.788zM372.515 711.196c-43.451 0-78.599-35.148-78.599-78.599s35.148-78.599 78.599-78.599c43.451 0 78.599 35.148 78.599 78.599s-35.148 78.599-78.599 78.599zM372.515 655.844c12.731 0 23.248-10.517 23.248-23.248s-10.517-23.248-23.248-23.248c-12.731 0-23.248 10.517-23.248 23.248s10.517 23.248 23.248 23.248zM629.345 490.897c-43.451 0-78.599-35.148-78.599-78.599s35.148-78.599 78.599-78.599c43.451 0 78.599 35.148 78.599 78.599s-35.148 78.599-78.599 78.599zM629.345 435.546c12.731 0 23.248-10.517 23.248-23.248s-10.517-23.248-23.248-23.248c-12.731 0-23.248 10.517-23.248 23.248s10.517 23.248 23.248 23.248zM360.34 309.622c-43.454 0-78.599-35.148-78.599-78.599s35.145-78.599 78.599-78.599c43.451 0 78.596 35.148 78.596 78.599s-35.145 78.599-78.596 78.599zM360.34 254.27c12.731 0 23.245-10.517 23.245-23.248s-10.514-23.248-23.245-23.248c-12.731 0-23.248 10.517-23.248 23.248s10.517 23.248 23.248 23.248z" fill="#1D1D1D" />

    </g>
</svg>