<?xml version="1.0" encoding="iso-8859-1"?>
<!DOCTYPE svg PUBLIC "-//W3C//DTD SVG 1.1//EN" "http://www.w3.org/Graphics/SVG/1.1/DTD/svg11.dtd">
<svg version="1.1" xmlns="http://www.w3.org/2000/svg" xmlns:xlink="http://www.w3.org/1999/xlink" x="0px"
	y="0px" width="511.626px" height="511.627px" viewBox="0 0 1100 1100"
	style="enable-background:new 0 0 1100 1100;" xml:space="preserve">
	<g>
		

<path transform="rotate(180 500 500) scale(0.9)" d="M713.387 842.396h-497.417c-47.166 0-85.644-38.478-85.644-85.644v-706.871c0-47.166 38.478-85.644 85.644-85.644h497.417c47.166 0 85.644 38.478 85.644 85.644v706.871c0 47.166-38.478 85.644-85.644 85.644zM215.97 780.335h497.417c13.033 0 23.583-10.551 23.583-23.583v-706.871c0-13.033-10.55-23.583-23.583-23.583h-497.417c-13.033 0-23.583 10.55-23.583 23.583v706.871c0 13.033 10.551 23.583 23.583 23.583zM828.816 958.449h-552.65c-17.067 0-31.030-13.964-31.030-31.030s13.964-31.030 31.030-31.030h552.65c13.033 0 23.273-10.862 23.273-24.205v-761.173c0-17.067 13.964-31.030 31.030-31.030s31.030 13.964 31.030 31.030v761.173c0 47.476-38.167 86.265-85.333 86.265z" fill="#1D1D1D" />

    </g>
</svg>