<?xml version="1.0" encoding="iso-8859-1"?>
<!DOCTYPE svg PUBLIC "-//W3C//DTD SVG 1.1//EN" "http://www.w3.org/Graphics/SVG/1.1/DTD/svg11.dtd">
<svg version="1.1" xmlns="http://www.w3.org/2000/svg" xmlns:xlink="http://www.w3.org/1999/xlink" x="0px"
	y="0px" width="511.626px" height="511.627px" viewBox="0 0 1100 1100"
	style="enable-background:new 0 0 1100 1100;" xml:space="preserve">
	<g>
		

<path transform="rotate(180 500 500) scale(0.9)" d="M912.291 929.28h-792.514c-51.2 0-93.091-41.891-93.091-93.091v-854.265c0-17.067 13.964-31.030 31.030-31.030h6.827c4.965 0 9.62 1.241 14.895 4.034 0.31 0 0.621 0.31 1.242 0.621l115.742 118.536 126.915-116.981c5.585-5.275 13.032-8.071 21.1-8.071 6.827 0 13.653 2.482 19.239 6.516l152.669 119.777 152.669-117.918c11.481-8.999 28.238-8.685 39.408 0.934l131.568 113.881 112.64-112.64c2.793-2.793 6.206-4.965 9.93-6.516 7.758-3.103 16.136-3.103 23.583 0s13.653 9.309 17.067 17.067c1.552 3.724 2.172 7.758 2.172 11.792v854.265c0 51.2-41.891 93.091-93.091 93.091zM496.795 139.248l-151.118-118.536-130.017 119.467c-5.896 5.275-13.343 8.068-20.791 8.068-8.068 0-16.446-3.103-22.342-9.309l-83.782-86.885v784.136c0 17.067 13.964 31.030 31.030 31.030h792.514c17.067 0 31.030-13.964 31.030-31.030v-779.482l-80.058 79.748c-11.481 11.481-30.099 12.412-42.201 1.552l-134.361-116.364-151.738 117.295c-11.171 8.688-26.996 8.688-38.167 0v0.31zM312.167 612.774h407.739c17.067 0 31.030 13.964 31.030 31.030s-13.964 31.029-31.030 31.029h-407.739c-17.067 0-31.030-13.964-31.030-31.029 0-17.067 13.964-31.030 31.030-31.030zM750.936 439.932c0 17.067-13.964 31.030-31.030 31.030h-407.739c-17.067 0-31.030-13.964-31.030-31.030s13.964-31.030 31.030-31.030h407.739c17.067 0 31.030 13.964 31.030 31.030z" fill="#1D1D1D" />

    </g>
</svg>