<?xml version="1.0" encoding="iso-8859-1"?>
<!DOCTYPE svg PUBLIC "-//W3C//DTD SVG 1.1//EN" "http://www.w3.org/Graphics/SVG/1.1/DTD/svg11.dtd">
<svg version="1.1" xmlns="http://www.w3.org/2000/svg" xmlns:xlink="http://www.w3.org/1999/xlink" x="0px"
	y="0px" width="511.626px" height="511.627px" viewBox="0 0 1100 1100"
	style="enable-background:new 0 0 1100 1100;" xml:space="preserve">
	<g>
		

<path transform="rotate(180 500 500) scale(0.9)" d="M507.345 263.677c103.511 0 187.426 83.912 187.426 187.423s-83.915 187.423-187.426 187.423c-103.511 0-187.42-83.912-187.42-187.423s83.909-187.423 187.42-187.423zM967.525 482.13h-105.503c-14.895 173.148-150.497 308.752-323.646 323.336v105.504c0 17.067-13.964 31.030-31.030 31.030s-31.030-13.964-31.030-31.030v-105.504c-173.15-14.895-308.752-150.499-323.647-323.336h-105.502c-17.067 0-31.030-13.964-31.030-31.030s13.964-31.030 31.030-31.030h105.502c14.895-170.356 152.979-308.752 323.647-323.646v-105.503c0-17.067 13.964-31.030 31.030-31.030s31.030 13.964 31.030 31.030v105.503c170.356 14.895 308.752 153.29 323.646 323.646h105.503c17.067 0 31.030 13.964 31.030 31.030s-13.964 31.030-31.030 31.030zM213.178 453.582c1.241 159.806 131.258 290.131 291.064 291.683h6.206c159.496-1.552 289.513-131.569 291.064-291.065v-5.893c-1.552-161.047-133.12-291.375-294.167-291.375s-292.926 130.638-294.167 291.685v4.965z" fill="#1D1D1D" />

    </g>
</svg>