<?xml version="1.0" encoding="iso-8859-1"?>
<!DOCTYPE svg PUBLIC "-//W3C//DTD SVG 1.1//EN" "http://www.w3.org/Graphics/SVG/1.1/DTD/svg11.dtd">
<svg version="1.1" xmlns="http://www.w3.org/2000/svg" xmlns:xlink="http://www.w3.org/1999/xlink" x="0px"
	y="0px" width="511.626px" height="511.627px" viewBox="0 0 1100 1100"
	style="enable-background:new 0 0 1100 1100;" xml:space="preserve">
	<g>
		

<path transform="rotate(180 500 500) scale(0.9)" d="M518.827 934.244c-270.895 0-491.209-126.913-491.209-282.686v-412.082c0-156.082 220.314-282.996 491.209-282.996 129.396 0 251.656 28.548 343.816 80.368 94.953 53.372 147.394 125.362 147.394 202.628v412.082c0 156.082-220.315 282.686-491.21 282.686zM518.827 872.184c232.727 0 429.149-101.158 429.149-220.625s-196.422-220.625-429.149-220.625c-232.728 0-429.149 101.159-429.149 220.625s196.421 220.625 429.149 220.625zM518.827 224.582c-172.218 0-327.679 53.993-395.946 137.775-21.721 26.065-32.892 53.993-33.203 82.541v68.887c85.333-89.057 247.311-144.912 429.149-144.912s343.505 55.855 429.149 144.912v-68.887c0-28.548-11.171-56.475-33.202-82.851-68.267-83.472-223.418-137.464-395.636-137.464h-0.31zM89.678 306.192c85.023-87.816 250.104-143.67 429.149-143.67s344.436 55.855 429.149 143.67v-67.025c0-119.777-196.422-220.936-429.149-220.936s-429.149 101.159-429.149 220.936v67.025z" fill="#1D1D1D" />

    </g>
</svg>