<?xml version="1.0" encoding="iso-8859-1"?>
<!DOCTYPE svg PUBLIC "-//W3C//DTD SVG 1.1//EN" "http://www.w3.org/Graphics/SVG/1.1/DTD/svg11.dtd">
<svg version="1.1" xmlns="http://www.w3.org/2000/svg" xmlns:xlink="http://www.w3.org/1999/xlink" x="0px"
	y="0px" width="511.626px" height="511.627px" viewBox="0 0 1100 1100"
	style="enable-background:new 0 0 1100 1100;" xml:space="preserve">
	<g>
		

<path transform="rotate(180 500 500) scale(0.9)" d="M981.87 791.771h-738.744c-10.24 0-19.601-5.267-24.868-14.044l-188.416-306.615c-5.852-9.362-5.852-21.358 0-30.72l188.416-306.615c5.266-8.777 14.628-14.043 24.868-14.043h738.744c16.091 0 29.257 13.166 29.257 29.257v613.522c0 16.091-13.166 29.257-29.257 29.257zM259.51 178.249l-170.57 277.358 170.57 277.357h693.103v-555.008l-693.103 0.293zM732.602 638.465c-11.41 11.41-29.842 11.41-41.253 0l-141.312-141.313-141.312 141.313c-11.41 11.41-29.842 11.41-41.253 0s-11.41-29.842 0-41.253l141.312-141.313-141.312-141.312c-11.41-11.41-11.41-29.842 0-41.253 11.118-11.118 30.427-11.118 41.253 0l141.312 141.312 141.312-141.312c5.559-5.559 12.873-8.485 20.773-8.485s15.214 2.926 20.773 8.485c11.41 11.41 11.41 29.842 0 41.253l-141.312 141.312 141.312 141.313c11.41 11.41 11.41 29.842 0 41.253h-0.293z" fill="#1D1D1D" />

    </g>
</svg>