<?xml version="1.0" encoding="iso-8859-1"?>
<!DOCTYPE svg PUBLIC "-//W3C//DTD SVG 1.1//EN" "http://www.w3.org/Graphics/SVG/1.1/DTD/svg11.dtd">
<svg version="1.1" xmlns="http://www.w3.org/2000/svg" xmlns:xlink="http://www.w3.org/1999/xlink" x="0px"
	y="0px" width="511.626px" height="511.627px" viewBox="0 0 1100 1100"
	style="enable-background:new 0 0 1100 1100;" xml:space="preserve">
	<g>
		

<path transform="rotate(180 500 500) scale(0.9)" d="M833.603 948.477h-671.041c-17.6 0-32-14.4-32-32v-945.273c0-17.6 14.4-32 32-32h671.041c17.6 0 32 14.4 32 32v945.273c0 17.6-14.4 32-32 32zM801.603 3.203h-607.041v881.273h607.041v-881.273zM287.684 709.437h420.48c17.6 0 32 14.4 32 32s-14.4 32-32 32h-420.48c-17.6 0-32-14.4-32-32s14.4-32 32-32zM287.684 529.28h420.48c17.6 0 32 14.4 32 32s-14.4 32-32 32h-420.48c-17.6 0-32-14.4-32-32s14.4-32 32-32zM287.684 349.117h210.24c17.6 0 32 14.4 32 32s-14.4 32-32 32h-210.24c-17.6 0-32-14.4-32-32s14.4-32 32-32zM287.684 168.96h210.24c17.6 0 32 14.4 32 32s-14.4 32-32 32h-210.24c-17.6 0-32-14.4-32-32s14.4-32 32-32z" fill="#1D1D1D" />

    </g>
</svg>