<?xml version="1.0" encoding="iso-8859-1"?>
<!DOCTYPE svg PUBLIC "-//W3C//DTD SVG 1.1//EN" "http://www.w3.org/Graphics/SVG/1.1/DTD/svg11.dtd">
<svg version="1.1" xmlns="http://www.w3.org/2000/svg" xmlns:xlink="http://www.w3.org/1999/xlink" x="0px"
	y="0px" width="511.626px" height="511.627px" viewBox="0 0 1100 1100"
	style="enable-background:new 0 0 1100 1100;" xml:space="preserve">
	<g>
		

<path transform="rotate(180 500 500) scale(0.9)" d="M937.92 681.922c0 16.96-7.040 33.597-18.88 45.437l-199.68 197.121c-12.16 11.84-28.16 18.559-45.12 18.559h-355.2c-17.6 0-32-14.4-32-32v-105.918h-149.12c-17.6 0-32-14.4-32-32v-793.921c0-17.6 14.4-32 32-32h586.88c17.6 0 32 14.4 32 32v105.92h149.12c8.64 0 16.64 3.2 22.72 9.28s9.28 14.080 9.28 22.72v564.802zM737.92 589.44l-199.68 197.119c-12.16 11.84-28.16 18.562-45.12 18.562h-142.080v73.918h323.2l199.68-197.117v-532.802h-117.12v394.88c0 16.96-7.040 33.6-18.88 45.44zM692.8 544v-532.8h-522.88v729.921h323.2l199.68-197.121zM226.24 260.48c0-17.6 14.4-32 32-32h354.24c17.6 0 32 14.4 32 32s-14.4 32-32 32h-354.24c-17.6 0-32-14.4-32-32zM612.48 178.56h-354.24c-17.6 0-32-14.4-32-32s14.4-32 32-32h354.24c17.6 0 32 14.4 32 32s-14.4 32-32 32z" fill="#1D1D1D" />

    </g>
</svg>