<?xml version="1.0" encoding="iso-8859-1"?>
<!DOCTYPE svg PUBLIC "-//W3C//DTD SVG 1.1//EN" "http://www.w3.org/Graphics/SVG/1.1/DTD/svg11.dtd">
<svg version="1.1" xmlns="http://www.w3.org/2000/svg" xmlns:xlink="http://www.w3.org/1999/xlink" x="0px"
	y="0px" width="511.626px" height="511.627px" viewBox="0 0 1100 1100"
	style="enable-background:new 0 0 1100 1100;" xml:space="preserve">
	<g>
		

<path transform="rotate(180 500 500) scale(0.9)" d="M991.899 476.783h-367.256c-15.222 0-27.676-12.454-27.676-27.676v-98.802c0-15.222 12.454-27.676 27.676-27.676s27.676 12.454 27.676 27.676v71.126h311.905v-71.126c0-15.222 12.454-27.676 27.676-27.676s27.676 12.454 27.676 27.676v98.802c0 15.222-12.454 27.676-27.676 27.676zM743.369 525.215h129.799c15.222 0 27.676 12.454 27.676 27.676s-12.454 27.676-27.676 27.676h-129.799c-15.222 0-27.676-12.454-27.676-27.676s12.454-27.676 27.676-27.676zM168.269 525.215h129.798c15.222 0 27.676 12.454 27.676 27.676s-12.454 27.676-27.676 27.676h-129.798c-15.222 0-27.676-12.454-27.676-27.676s12.454-27.676 27.676-27.676zM416.796 476.783h-367.255c-15.222 0-27.676-12.454-27.676-27.676v-98.802c0-15.222 12.454-27.676 27.676-27.676s27.676 12.454 27.676 27.676v71.126h311.904v-71.126c0-15.222 12.454-27.676 27.676-27.676s27.676 12.454 27.676 27.676v98.802c0 15.222-12.454 27.676-27.676 27.676zM518.365 889.703c-15.222 0-27.676-12.454-27.676-27.676v-820.58c0-15.222 12.454-27.676 27.676-27.676s27.676 12.454 27.676 27.676v820.58c0 15.222-12.454 27.676-27.676 27.676z" fill="#1D1D1D" />

    </g>
</svg>