<?xml version="1.0" encoding="iso-8859-1"?>
<!DOCTYPE svg PUBLIC "-//W3C//DTD SVG 1.1//EN" "http://www.w3.org/Graphics/SVG/1.1/DTD/svg11.dtd">
<svg version="1.1" xmlns="http://www.w3.org/2000/svg" xmlns:xlink="http://www.w3.org/1999/xlink" x="0px"
	y="0px" width="511.626px" height="511.627px" viewBox="0 0 1100 1100"
	style="enable-background:new 0 0 1100 1100;" xml:space="preserve">
	<g>
		

<path transform="rotate(180 500 500) scale(0.9)" d="M858.919 663.040c-0.931 3.413-2.482 6.827-4.344 9.619l-246.070 258.172-3.103 2.794c-3.103 2.482-6.827 4.033-10.861 5.275-1.552 0.31-2.482 0.621-2.482 0.621l-412.702 0.93c-17.067 0-31.030-13.963-31.030-31.030v-918.187c0-17.067 13.964-31.030 31.030-31.030h650.394c17.067 0 31.030 13.964 31.030 31.030v664.048l-1.241 7.758h-0.621zM756.519 686.312h-139.636v145.843l139.636-145.843zM585.852 624.252h212.247v-601.988h-588.333v856.126h345.056v-223.108c0-17.066 13.964-31.030 31.030-31.030zM532.48 533.954c0 17.067-13.964 31.030-31.030 31.030s-31.030-13.964-31.030-31.030v-210.385l-27.306 28.238c-11.792 12.102-31.651 12.412-43.753 0.621s-12.412-31.651-0.62-43.753l79.126-81.61c5.896-5.896 13.964-9.309 22.342-9.309s15.825 3.103 21.721 8.688l82.23 80.058c12.102 11.792 12.412 31.651 0.621 43.753s-31.651 12.412-43.753 0.621l-27.927-27.307v210.385h-0.621z" fill="#1D1D1D" />

    </g>
</svg>