<?xml version="1.0" encoding="iso-8859-1"?>
<!DOCTYPE svg PUBLIC "-//W3C//DTD SVG 1.1//EN" "http://www.w3.org/Graphics/SVG/1.1/DTD/svg11.dtd">
<svg version="1.1" xmlns="http://www.w3.org/2000/svg" xmlns:xlink="http://www.w3.org/1999/xlink" x="0px"
	y="0px" width="511.626px" height="511.627px" viewBox="0 0 1100 1100"
	style="enable-background:new 0 0 1100 1100;" xml:space="preserve">
	<g>
		

<path transform="rotate(180 500 500) scale(0.9)" d="M940.143 942.287h-881.47c-30.443 0-55.351-24.908-55.351-55.351v-881.47c0-30.443 24.908-55.351 55.351-55.351h881.47c30.443 0 55.351 24.908 55.351 55.351v881.47c0 30.443-24.908 55.351-55.351 55.351zM940.143 886.936v-566.244h-185.427c-6.919 0-13.284-2.491-18.266-6.919l-142.253-126.478c-2.491-2.214-5.812-3.598-9.133-3.598h-171.036c-3.321 0-6.642 1.107-9.133 3.598l-142.253 126.478c-4.982 4.428-11.623 6.919-18.542 6.919l-185.151-1.384v567.905l881.194-0.277zM940.143-8.372v13.838h-881.47v258.214l174.91 1.384 142.253-126.201c7.472-6.642 17.436-10.517 27.676-10.517h192.069c10.24 0 19.926 3.598 27.676 10.517l142.253 126.478h174.91v-273.712h-0.277zM479.619 324.566c2.491-2.491 5.535-4.705 9.133-6.089 3.321-1.384 6.919-2.214 10.517-2.214s7.196 0.83 10.517 2.214c3.321 1.384 6.365 3.598 9.133 6.089l144.744 144.467c10.794 10.794 10.794 28.229 0 39.023s-28.229 10.794-39.023 0l-97.418-97.418v325.743c0 15.222-12.454 27.676-27.676 27.676s-27.676-12.454-27.676-27.676v-325.743l-97.418 97.418c-10.517 10.517-28.783 10.517-39.023 0-10.794-10.794-10.794-28.229 0-39.023l144.744-144.467h-0.554z" fill="#1D1D1D" />

    </g>
</svg>