<?xml version="1.0" encoding="iso-8859-1"?>
<!DOCTYPE svg PUBLIC "-//W3C//DTD SVG 1.1//EN" "http://www.w3.org/Graphics/SVG/1.1/DTD/svg11.dtd">
<svg version="1.1" xmlns="http://www.w3.org/2000/svg" xmlns:xlink="http://www.w3.org/1999/xlink" x="0px"
	y="0px" width="511.626px" height="511.627px" viewBox="0 0 1100 1100"
	style="enable-background:new 0 0 1100 1100;" xml:space="preserve">
	<g>
		

<path transform="rotate(180 500 500) scale(0.9)" d="M1065.237 166.538c-3.598 6.365-9.41 11.070-16.329 13.284-13.838 4.151-30.166-4.705-34.318-18.819l-30.72-106.275-285.613 563.2c-3.875 7.749-11.624 13.284-20.757 14.945-8.579 1.107-17.436-1.661-23.524-7.749l-231.092-231.092-347.606 541.89c-8.026 12.454-26.015 16.328-38.193 8.302-12.731-8.303-16.605-25.461-8.302-38.192l366.149-570.673c4.428-7.196 11.901-11.624 20.203-12.454s16.605 1.937 22.694 8.026l228.601 228.601 269.838-532.203-107.935 30.997c-6.919 2.214-14.391 1.384-21.034-2.214s-11.347-9.41-13.284-16.605c-1.937-7.196-1.107-14.668 2.214-21.034 3.598-6.365 9.41-11.070 16.605-13.284l171.312-49.263c2.491-0.83 5.258-1.107 7.749-1.107 4.428 0 9.133 1.107 13.284 3.321 6.642 3.598 11.347 9.41 13.284 16.605l49.263 171.312c1.937 7.196 1.107 14.668-2.491 21.034v-0.554z" fill="#1D1D1D" />

    </g>
</svg>