<?xml version="1.0" encoding="iso-8859-1"?>
<!DOCTYPE svg PUBLIC "-//W3C//DTD SVG 1.1//EN" "http://www.w3.org/Graphics/SVG/1.1/DTD/svg11.dtd">
<svg version="1.1" xmlns="http://www.w3.org/2000/svg" xmlns:xlink="http://www.w3.org/1999/xlink" x="0px"
	y="0px" width="511.626px" height="511.627px" viewBox="0 0 1100 1100"
	style="enable-background:new 0 0 1100 1100;" xml:space="preserve">
	<g>
		

<path transform="rotate(180 500 500) scale(0.9)" d="M533.101 915.939c-5.585 9.309-15.825 15.204-26.996 15.204-8.688 0-20.79-5.585-26.685-15.515-29.789-51.2-292.616-505.172-292.616-670.564 0-174.39 131.258-296.342 319.301-296.342s319.302 128.469 319.302 305.031c0 166.012-262.827 611.606-292.616 661.875l0.31 0.311zM763.656 254.064c0-140.878-108.296-242.97-257.241-242.97s-257.24 96.194-257.24 234.279c0 100.848 130.637 368.022 257.551 592.992 126.604-220.625 256.931-483.141 256.931-583.99v-0.31zM508.897 56.087c68.577 6.516 121.328 33.202 156.393 78.817 61.13 79.748 43.753 186.492 43.132 190.836-2.793 16.446-18.618 28.238-35.064 25.755h-0.31c-16.756-2.793-28.238-18.928-25.755-35.685 0-0.931 13.033-85.954-31.341-143.050-24.204-31.341-62.061-49.648-112.95-54.613-17.067-1.552-29.478-16.753-27.927-33.82 1.552-15.825 14.584-27.93 33.512-27.93l0.31-0.31z" fill="#1D1D1D" />

    </g>
</svg>