<?xml version="1.0" encoding="iso-8859-1"?>
<!DOCTYPE svg PUBLIC "-//W3C//DTD SVG 1.1//EN" "http://www.w3.org/Graphics/SVG/1.1/DTD/svg11.dtd">
<svg version="1.1" xmlns="http://www.w3.org/2000/svg" xmlns:xlink="http://www.w3.org/1999/xlink" x="0px"
	y="0px" width="511.626px" height="511.627px" viewBox="0 0 1100 1100"
	style="enable-background:new 0 0 1100 1100;" xml:space="preserve">
	<g>
		

<path transform="rotate(180 500 500) scale(0.9)" d="M54.924 286.642c27.307 0 39.719-10.24 56.786-24.204 20.79-17.067 46.855-37.857 95.883-37.857s75.093 21.101 95.884 37.857c17.066 13.964 29.478 24.204 56.785 24.204s39.408-10.24 56.785-24.204c20.79-17.067 46.856-37.857 95.884-37.857s75.093 21.101 95.884 37.857c17.067 13.964 29.479 24.204 56.785 24.204s39.719-10.24 56.785-24.204c20.79-17.067 46.856-37.857 95.884-37.857s75.093 21.101 95.884 37.857c17.377 13.964 29.789 24.204 56.785 24.204 17.067 0 31.030 13.964 31.030 31.030s-13.964 31.030-31.030 31.030c-49.338 0-75.093-21.101-95.884-37.857-17.377-13.964-29.789-24.204-56.785-24.204s-39.719 10.24-56.785 24.204c-20.79 16.756-46.856 37.857-95.884 37.857s-75.093-21.101-95.884-37.857c-17.067-13.964-29.479-24.204-56.785-24.204s-39.408 10.24-56.785 24.204c-20.79 17.067-46.856 37.857-95.884 37.857s-75.093-21.101-95.883-37.857c-17.067-13.964-29.478-24.204-56.785-24.204s-39.719 10.24-56.786 24.204c-20.79 17.067-46.856 37.857-95.884 37.857-17.067 0-31.030-13.964-31.030-31.030s13.964-31.030 31.030-31.030zM971.559 199.137c-49.338 0-75.093-21.101-95.884-37.857-17.377-13.964-29.789-24.204-56.785-24.204s-39.719 10.24-56.785 24.204c-20.79 16.756-46.856 37.857-95.884 37.857s-75.093-21.101-95.884-37.857c-17.067-13.964-29.479-24.204-56.785-24.204s-39.408 10.24-56.785 24.204c-20.79 17.067-46.856 37.857-95.884 37.857s-75.092-21.101-95.882-37.857c-17.067-13.964-29.479-24.204-56.786-24.204s-39.718 10.24-56.785 24.204c-20.79 17.067-46.856 37.857-95.884 37.857-17.067 0-31.030-13.964-31.030-31.030s13.964-31.030 31.030-31.030c27.307 0 39.718-10.24 56.785-24.204 20.79-17.067 46.855-37.857 95.883-37.857s75.093 21.101 95.884 37.857c17.066 13.964 29.478 24.204 56.785 24.204s39.408-10.24 56.785-24.204c20.79-17.067 46.856-37.857 95.884-37.857s75.093 21.101 95.884 37.857c17.067 13.964 29.479 24.204 56.785 24.204s39.719-10.24 56.785-24.204c20.79-17.067 46.856-37.857 95.884-37.857s75.093 21.101 95.884 37.857c17.377 13.964 29.789 24.204 56.785 24.204 17.067 0 31.030 13.964 31.030 31.030s-13.964 31.030-31.030 31.030zM282.689 392.145c5.585-9.309 15.826-15.205 26.686-15.205 5.586 0 11.171 1.552 15.826 4.344 14.584 8.688 19.549 27.927 10.861 42.512-41.892 70.128-42.512 123.502-1.862 169.117 56.165 73.852 56.785 154.53 1.241 239.553-9.309 14.274-28.548 18.309-42.822 9-6.827-4.655-11.791-11.481-13.343-19.549s0-16.446 4.345-23.273c40.65-62.371 41.27-115.436 2.793-166.326-58.337-65.474-59.578-146.154-3.414-240.486l-0.311 0.313zM486.865 392.145c5.585-9.309 15.825-15.205 26.686-15.205 5.585 0 11.171 1.552 15.825 4.344 14.584 8.688 19.549 27.927 10.861 42.512-41.891 70.128-42.508 123.502-1.859 169.117 56.475 73.852 56.785 154.53 1.241 239.553-9.309 14.274-28.548 18.309-42.822 9s-18.311-28.548-9.002-42.822c40.65-62.371 41.27-115.436 2.793-166.326-58.337-65.474-59.575-146.154-3.41-240.486l-0.313 0.313zM691.045 392.145c5.585-9.309 15.825-15.205 26.686-15.205 5.585 0 11.171 1.552 15.825 4.344 14.584 8.688 19.549 27.927 10.861 42.512-41.891 70.128-42.512 123.502-1.862 169.117 56.165 73.852 56.785 154.53 1.241 239.553-9.309 14.274-28.548 18.309-42.822 9-6.827-4.655-11.792-11.481-13.343-19.549s0-16.446 4.344-23.273c40.65-62.371 41.27-115.436 2.793-166.326-58.337-65.474-59.578-146.154-3.413-240.486l-0.31 0.313z" fill="#1D1D1D" />

    </g>
</svg>