<?xml version="1.0" encoding="iso-8859-1"?>
<!DOCTYPE svg PUBLIC "-//W3C//DTD SVG 1.1//EN" "http://www.w3.org/Graphics/SVG/1.1/DTD/svg11.dtd">
<svg version="1.1" xmlns="http://www.w3.org/2000/svg" xmlns:xlink="http://www.w3.org/1999/xlink" x="0px"
	y="0px" width="511.626px" height="511.627px" viewBox="0 0 1100 1100"
	style="enable-background:new 0 0 1100 1100;" xml:space="preserve">
	<g>
		

<path transform="rotate(180 500 500) scale(0.9)" d="M878.933 627.484c-15.644 0-28.444-12.8-28.444-28.444v-316.587c0-15.644 12.8-28.444 28.444-28.444s28.444 12.8 28.444 28.444v316.587c0 15.644-12.8 28.444-28.444 28.444zM770.278 732.444c-15.644 0-28.444-12.8-28.444-28.444v-525.084c0-15.644 12.8-28.444 28.444-28.444s28.444 12.8 28.444 28.444v525.084c0 15.644-12.8 28.444-28.444 28.444zM987.591 521.386c-15.644 0-28.444-12.8-28.444-28.444v-103.253c0-15.644 12.8-28.444 28.444-28.444s28.444 12.8 28.444 28.444v103.253c0 15.644-12.8 28.444-28.444 28.444zM137.389 627.484c-15.644 0-28.444-12.8-28.444-28.444v-316.587c0-15.644 12.8-28.444 28.444-28.444s28.444 12.8 28.444 28.444v316.587c0 15.644-12.8 28.444-28.444 28.444zM246.045 732.444c-15.644 0-28.444-12.8-28.444-28.444v-525.084c0-15.644 12.8-28.444 28.444-28.444s28.444 12.8 28.444 28.444v525.084c0 15.644-12.8 28.444-28.444 28.444zM29.014 521.386c-15.644 0-28.444-12.8-28.444-28.444v-103.253c0-15.644 12.8-28.444 28.444-28.444s28.444 12.8 28.444 28.444v103.253c0 15.644-12.8 28.444-28.444 28.444zM692.907 469.902h-373.76c-15.644 0-28.444-12.8-28.444-28.444s12.8-28.444 28.444-28.444h373.76c15.644 0 28.444 12.8 28.444 28.444s-12.8 28.444-28.444 28.444z" fill="#1D1D1D" />

    </g>
</svg>