<?xml version="1.0" encoding="iso-8859-1"?>
<!DOCTYPE svg PUBLIC "-//W3C//DTD SVG 1.1//EN" "http://www.w3.org/Graphics/SVG/1.1/DTD/svg11.dtd">
<svg version="1.1" xmlns="http://www.w3.org/2000/svg" xmlns:xlink="http://www.w3.org/1999/xlink" x="0px"
	y="0px" width="511.626px" height="511.627px" viewBox="0 0 1100 1100"
	style="enable-background:new 0 0 1100 1100;" xml:space="preserve">
	<g>
		

<path transform="rotate(180 500 500) scale(0.9)" d="M929.126 443.181c-16.565 0-30.118-13.553-30.118-30.118v-416.527h-833.053v832.754h416.526c16.565 0 30.118 13.553 30.118 30.118s-13.553 30.118-30.118 30.118h-416.526c-33.129 0-60.235-27.106-60.235-60.235v-832.754c0-33.129 27.106-60.235 60.235-60.235h833.053c33.129 0 60.235 27.106 60.235 60.235v416.527c0 16.565-13.553 30.118-30.118 30.118zM993.581 791.042l-132.819 132.82c-11.445 11.445-31.322 11.445-42.466 0l-494.231-494.233c-4.518-4.518-7.228-9.939-8.433-16.264l-27.106-159.922c-1.506-9.638 1.506-19.576 8.433-26.504 5.723-5.722 13.252-8.737 21.384-8.737l165.045 27.711c6.325 1.205 11.746 3.912 16.264 8.43l494.231 494.231c5.722 5.722 8.734 13.251 8.734 21.383s-3.012 15.664-8.734 21.386l-0.301-0.301zM796.311 816.641l43.068 43.070 90.052-90.051-43.068-43.070-90.052 90.051zM354.786 285.064l18.372 108.725 380.386 380.386 90.052-90.051-380.386-380.386-108.725-18.372 0.301-0.301z" fill="#1D1D1D" />

    </g>
</svg>