<?xml version="1.0" encoding="iso-8859-1"?>
<!DOCTYPE svg PUBLIC "-//W3C//DTD SVG 1.1//EN" "http://www.w3.org/Graphics/SVG/1.1/DTD/svg11.dtd">
<svg version="1.1" xmlns="http://www.w3.org/2000/svg" xmlns:xlink="http://www.w3.org/1999/xlink" x="0px"
	y="0px" width="511.626px" height="511.627px" viewBox="0 0 1100 1100"
	style="enable-background:new 0 0 1100 1100;" xml:space="preserve">
	<g>
		

<path transform="rotate(180 500 500) scale(0.9)" d="M959.147 556.739l-32.914 32.914c-18.042 18.042-28.038 41.935-28.038 67.535v46.568c0 79.482-64.61 144.336-144.335 144.336h-46.568c-25.6 0-49.493 9.996-67.535 28.038l-32.914 32.915c-27.307 27.307-63.39 42.179-101.912 42.179s-74.85-15.116-101.912-42.179l-32.914-32.915c-18.042-18.042-41.935-28.038-67.535-28.038h-46.568c-79.482 0-144.336-64.61-144.336-144.336v-46.568c0-25.6-9.996-49.493-28.038-67.535l-32.914-32.914c-27.307-27.307-42.179-63.39-42.179-101.912s15.116-74.85 42.179-101.912l32.914-32.914c18.042-18.042 28.038-41.935 28.038-67.535v-46.568c0-79.482 64.61-144.335 144.336-144.335h46.568c25.356 0 49.493-9.996 67.535-28.038l32.914-32.914c27.307-27.307 63.39-42.179 101.912-42.179s74.85 15.116 101.912 42.179l32.914 32.914c18.042 18.042 41.935 28.038 67.535 28.038h46.568c79.482 0 144.335 64.61 144.335 144.335v46.568c0 25.6 9.996 49.493 28.038 67.535l32.914 32.914c27.307 27.307 42.179 63.39 42.179 101.912s-15.116 74.606-42.179 101.912zM924.77 387.291l-32.914-32.914c-27.307-27.307-42.179-63.39-42.179-101.912v-46.568c0-52.663-42.91-95.573-95.573-95.573h-46.568c-38.522 0-74.606-15.116-101.912-42.179l-32.914-32.914c-36.084-36.084-98.987-36.084-135.070 0l-32.914 32.914c-27.307 27.307-63.39 42.179-101.912 42.179h-46.568c-52.663 0-95.574 42.91-95.574 95.573v46.568c0 38.522-15.116 74.606-42.179 101.912l-32.914 32.914c-18.042 18.042-28.038 41.935-28.038 67.535s9.996 49.493 28.038 67.535l32.914 32.914c27.307 27.307 42.179 63.39 42.179 101.912v46.568c0 52.663 42.911 95.574 95.574 95.574h46.568c38.522 0 74.85 15.116 101.912 42.179l32.914 32.915c36.084 36.084 98.987 36.084 135.070 0l32.914-32.915c27.307-27.307 63.39-42.179 101.912-42.179h46.568c52.663 0 95.573-42.91 95.573-95.574v-46.568c0-38.522 15.116-74.606 42.179-101.912l32.914-32.914c18.042-18.042 28.038-41.935 28.038-67.535s-9.996-49.493-28.038-67.535zM502.491 350.964c16.579 0 30.232 13.166 30.476 29.989l7.070 324.754c0.488 21.212-16.579 38.522-37.79 38.522s-38.034-17.31-37.79-38.522l7.070-324.754c0.244-16.579 13.897-29.989 30.476-29.989h0.488zM505.661 289.036c-27.55 0-48.762-21.211-48.762-48.762s21.211-48.762 48.762-48.762c25.844 0 47.055 21.211 47.055 48.762s-21.211 48.762-47.055 48.762z" fill="#1D1D1D" />

    </g>
</svg>