<?xml version="1.0" encoding="iso-8859-1"?>
<!DOCTYPE svg PUBLIC "-//W3C//DTD SVG 1.1//EN" "http://www.w3.org/Graphics/SVG/1.1/DTD/svg11.dtd">
<svg version="1.1" xmlns="http://www.w3.org/2000/svg" xmlns:xlink="http://www.w3.org/1999/xlink" x="0px"
	y="0px" width="511.626px" height="511.627px" viewBox="0 0 1100 1100"
	style="enable-background:new 0 0 1100 1100;" xml:space="preserve">
	<g>
		

<path transform="rotate(180 500 500) scale(0.9)" d="M871.021 663.040c-0.931 4.034-2.793 7.758-4.655 10.241l-248.863 260.653h-0.621c-3.103 2.482-6.516 4.035-10.55 5.277-1.241 0.31-2.793 0.93-2.793 0.619l-412.702 0.932c-17.067 0-31.030-13.964-31.030-31.030v-918.187c0-17.067 13.964-31.030 31.030-31.030h650.395c17.067 0 31.030 13.964 31.030 31.030v664.048l-1.241 7.758v-0.311zM628.984 686.312v145.843l139.636-145.843h-139.636zM221.867 878.39h345.056v-223.108c0-17.066 13.964-31.030 31.030-31.030h212.247v-601.988h-588.334v856.126zM459.562 471.583c0 8.378-3.103 16.136-8.688 22.032-12.103 12.412-31.652 12.412-43.754 0.621l-116.364-113.571c-5.896-5.896-9.309-13.964-9.309-22.342s3.413-16.446 9.309-22.032l116.364-113.571c5.896-5.585 13.654-8.999 21.722-8.999s16.446 3.413 22.343 9.309c5.896 5.896 8.999 13.653 8.688 22.032 0 8.378-3.413 16.136-9.309 21.721l-93.713 91.539 93.713 91.539c5.896 5.896 9.309 13.653 9.309 21.721h-0.31zM624.95 493.925c-12.102 11.792-31.651 11.792-44.063-0.621-5.896-5.896-8.999-13.964-8.688-22.032 0-8.378 3.413-16.136 9.309-21.721l93.712-91.539-93.712-91.539c-5.896-5.896-9.309-13.653-9.309-21.721 0-8.378 3.103-16.136 8.999-22.032s13.964-9.309 22.032-9.309c8.068 0 15.825 3.103 21.721 8.999l116.364 113.571c5.896 5.896 9.309 13.964 9.309 22.342s-3.413 16.446-9.309 22.032l-116.364 113.571z" fill="#1D1D1D" />

    </g>
</svg>