<?xml version="1.0" encoding="iso-8859-1"?>
<!DOCTYPE svg PUBLIC "-//W3C//DTD SVG 1.1//EN" "http://www.w3.org/Graphics/SVG/1.1/DTD/svg11.dtd">
<svg version="1.1" xmlns="http://www.w3.org/2000/svg" xmlns:xlink="http://www.w3.org/1999/xlink" x="0px"
	y="0px" width="511.626px" height="511.627px" viewBox="0 0 1100 1100"
	style="enable-background:new 0 0 1100 1100;" xml:space="preserve">
	<g>
		

<path transform="rotate(180 500 500) scale(0.9)" d="M412.091 764.333l78.876 78.876v-300.281c0-15.222 12.454-27.676 27.676-27.676s27.676 12.454 27.676 27.676v300.281l78.876-78.876c10.517-10.517 28.783-10.517 39.023 0 10.794 10.793 10.794 28.229 0 39.023l-126.201 126.201c-2.491 2.491-5.535 4.705-8.856 6.089-6.919 2.768-14.391 2.768-21.034 0-3.321-1.384-6.365-3.321-9.133-6.089l-125.924-125.924c-10.794-10.794-10.794-28.229 0-39.023s28.229-10.794 39.023 0v-0.277zM625.194 118.659l-78.876-78.876v300.281c0 15.222-12.454 27.676-27.676 27.676s-27.676-12.454-27.676-27.676v-300.281l-78.876 78.876c-10.517 10.517-28.783 10.517-39.023 0-10.794-10.794-10.794-28.229 0-39.023l126.201-126.201c2.491-2.491 5.535-4.428 8.856-5.812s6.919-2.214 10.517-2.214c3.598 0 7.196 0.83 10.517 2.214s6.365 3.321 9.133 6.089l125.924 125.924c10.794 10.794 10.794 28.229 0 39.023-10.517 10.517-28.783 10.517-39.023 0zM117.067 413.959h300.279c15.222 0 27.676 12.454 27.676 27.676s-12.454 27.676-27.676 27.676h-300.279l78.875 78.876c5.258 5.258 8.026 12.177 8.026 19.65s-2.768 14.391-8.026 19.65c-10.794 10.794-28.228 10.794-39.022 0l-126.202-126.201c-2.491-2.491-4.705-5.535-5.812-8.856-2.768-6.642-2.768-14.391 0-21.034 1.384-3.321 3.321-6.365 6.089-9.133l126.201-126.201c5.258-5.258 12.178-8.026 19.65-8.026s14.391 2.768 19.649 8.026c5.258 5.258 8.026 12.177 8.026 19.65s-2.768 14.391-8.026 19.65l-78.876 78.876-0.553-0.277zM1012.65 452.151c-1.384 3.321-3.321 6.365-6.089 9.133l-125.924 126.201c-10.794 10.794-28.229 10.794-39.023 0-5.258-5.258-8.026-12.177-8.026-19.65s2.768-14.391 8.026-19.65l78.876-78.876h-300.281c-15.222 0-27.676-12.454-27.676-27.676s12.454-27.676 27.676-27.676h300.281l-78.876-78.876c-5.258-5.258-8.026-12.177-8.026-19.65s2.768-14.391 8.026-19.65c5.258-5.258 12.177-8.026 19.65-8.026s14.391 2.768 19.65 8.026l125.924 126.201c2.491 2.491 4.705 5.535 6.089 9.133 2.768 6.642 2.768 14.391 0 21.034h-0.277z" fill="#1D1D1D" />

    </g>
</svg>