<?xml version="1.0" encoding="iso-8859-1"?>
<!DOCTYPE svg PUBLIC "-//W3C//DTD SVG 1.1//EN" "http://www.w3.org/Graphics/SVG/1.1/DTD/svg11.dtd">
<svg version="1.1" xmlns="http://www.w3.org/2000/svg" xmlns:xlink="http://www.w3.org/1999/xlink" x="0px"
	y="0px" width="511.626px" height="511.627px" viewBox="0 0 1100 1100"
	style="enable-background:new 0 0 1100 1100;" xml:space="preserve">
	<g>
		

<path transform="rotate(180 500 500) scale(0.9)" d="M990.151 453.407c-22.471 28.16-226.987 275.341-486.116 275.341-50.631 0-102.969-9.671-155.591-28.729l-21.049-7.679 44.942-44.943 8.249 2.844c41.529 14.222 83.058 21.333 123.449 21.333 200.818 0 376.889-180.052 426.667-236.087-28.729-32.427-90.453-96.43-172.373-149.905l-14.791-9.668 41.529-41.529 9.671 6.539c116.907 77.369 192.284 173.23 195.413 177.212l13.653 17.636-13.653 17.636zM633.742 385.994l43.517-43.523 7.967 19.914c9.671 23.609 14.504 48.356 14.504 73.387 0 107.804-87.893 195.697-195.698 195.697-25.031 0-49.775-4.836-73.384-14.507l-19.914-7.965 43.52-43.519 8.249 2.559c13.653 4.267 27.591 6.543 41.529 6.543 76.516 0 138.809-62.293 138.809-138.808 0-13.938-2.276-27.878-6.542-41.532l-2.557-8.246zM822.326 157.867v0l-601.029 600.748h-1.708c-10.809 6.258-24.461 4.552-33.847-4.835-5.404-5.404-8.25-12.516-8.25-19.911s2.846-14.792 8.25-19.912l62.292-62.293c-125.724-73.671-212.764-177.209-230.115-198.827l-13.37-17.636 13.655-17.636c22.471-28.16 226.417-275.342 486.114-275.342 66.276 0 135.114 16.498 203.95 49.209l74.237-74.24c5.404-5.404 12.516-8.246 20.196-8.246s14.791 3.129 19.911 8.533c9.102 9.102 10.809 23.324 4.267 34.418l-4.267 5.97h-0.284zM289.846 609.85l57.461-57.458c-25.316-33.564-38.969-74.522-38.969-116.62 0-107.804 87.89-195.698 195.695-195.698 42.382 0 83.342 13.65 116.622 38.966l43.804-43.802c-54.613-23.609-108.655-35.556-160.708-35.556-200.818 0-376.89 180.053-426.668 236.089 34.987 39.538 111.786 118.043 212.478 174.079h0.284zM504.033 296.963c-76.516 0-138.806 62.293-138.806 138.809 0 27.022 7.964 53.473 22.756 76.23l192.284-192.286c-22.471-14.791-48.927-22.753-76.234-22.753z" fill="#1D1D1D" />

    </g>
</svg>