<?xml version="1.0" encoding="iso-8859-1"?>
<!DOCTYPE svg PUBLIC "-//W3C//DTD SVG 1.1//EN" "http://www.w3.org/Graphics/SVG/1.1/DTD/svg11.dtd">
<svg version="1.1" xmlns="http://www.w3.org/2000/svg" xmlns:xlink="http://www.w3.org/1999/xlink" x="0px"
	y="0px" width="511.626px" height="511.627px" viewBox="0 0 1100 1100"
	style="enable-background:new 0 0 1100 1100;" xml:space="preserve">
	<g>
		

<path transform="rotate(180 500 500) scale(0.9)" d="M989.864 472.462c-9.102 11.662-218.738 275.059-485.831 275.059s-477.296-263.966-485.83-275.059l-13.655-17.351 13.655-17.351c8.818-11.093 218.737-275.342 485.83-275.342s477.298 263.964 485.831 275.342l13.656 17.351-13.656 17.351zM504.033 218.738c-201.956 0-377.456 180.338-426.949 236.373 49.493 55.751 224.709 236.089 426.949 236.089s377.458-180.337 426.951-236.089c-49.493-56.036-224.996-236.373-426.951-236.373zM504.033 650.809c-107.804 0-195.695-87.893-195.695-195.698s87.89-195.698 195.695-195.698c107.804 0 195.698 87.893 195.698 195.698s-87.893 195.698-195.698 195.698zM365.227 455.111c0 76.516 62.29 138.809 138.806 138.809s138.809-62.293 138.809-138.809c0-76.516-62.293-138.809-138.809-138.809s-138.806 62.293-138.806 138.809z" fill="#1D1D1D" />

    </g>
</svg>