<?xml version="1.0" encoding="iso-8859-1"?>
<!DOCTYPE svg PUBLIC "-//W3C//DTD SVG 1.1//EN" "http://www.w3.org/Graphics/SVG/1.1/DTD/svg11.dtd">
<svg version="1.1" xmlns="http://www.w3.org/2000/svg" xmlns:xlink="http://www.w3.org/1999/xlink" x="0px"
	y="0px" width="511.626px" height="511.627px" viewBox="0 0 1100 1100"
	style="enable-background:new 0 0 1100 1100;" xml:space="preserve">
	<g>
		

<path transform="rotate(180 500 500) scale(0.9)" d="M484.914 453.949c0 122.88-103.061 222.966-229.904 222.966s-229.905-100.086-229.905-222.966c0-18.168 14.865-33.032 33.032-33.032h393.414c18.168 0 33.032 14.865 33.032 33.032h0.33zM95.134 486.981c15.855 70.689 81.589 123.871 160.206 123.871s144.351-53.182 160.206-123.871h-320.412zM513.985 425.211c-122.88 0-222.969-103.064-222.969-229.908s100.089-229.905 222.969-229.905c18.168 0 33.032 14.865 33.032 33.032v393.748c0 18.168-14.865 33.032-33.032 33.032zM480.953 35.427c-70.689 15.855-123.871 81.59-123.871 160.206s53.182 144.351 123.871 160.206v-320.413zM969.5 486.981h-393.414c-18.168 0-33.032-14.865-33.032-33.032 0-122.88 103.061-222.968 229.905-222.968s229.905 100.088 229.905 222.968c0 18.168-14.865 33.032-33.032 33.032h-0.33zM772.628 297.046c-78.617 0-144.351 53.182-160.206 123.871h320.083c-15.855-70.689-81.59-123.871-160.206-123.871h0.33zM513.985 483.017c122.88 0 222.968 103.057 222.968 229.902s-100.088 229.903-222.968 229.903c-18.168 0-33.032-14.865-33.032-33.032v-393.741c0-18.168 14.865-33.032 33.032-33.032zM547.017 872.795c70.689-15.855 123.871-81.589 123.871-160.206s-53.182-144.351-123.871-160.207v320.413z" fill="#1D1D1D" />

    </g>
</svg>