<?xml version="1.0" encoding="iso-8859-1"?>
<!DOCTYPE svg PUBLIC "-//W3C//DTD SVG 1.1//EN" "http://www.w3.org/Graphics/SVG/1.1/DTD/svg11.dtd">
<svg version="1.1" xmlns="http://www.w3.org/2000/svg" xmlns:xlink="http://www.w3.org/1999/xlink" x="0px"
	y="0px" width="511.626px" height="511.627px" viewBox="0 0 1100 1100"
	style="enable-background:new 0 0 1100 1100;" xml:space="preserve">
	<g>
		

<path transform="rotate(180 500 500) scale(0.9)" d="M732.729 599.327c-10.24 0-19.911-1.997-29.013-5.41v208.499c0 47.218-38.4 85.903-85.902 85.903-12.516 0-24.178-2.845-34.987-7.681-12.516 32.142-43.52 54.896-79.929 54.896s-67.414-22.754-79.93-54.896c-10.809 4.836-22.471 7.681-34.987 7.681-43.52 0-79.36-32.708-84.764-74.805-9.387 3.413-19.342 5.687-29.867 5.687-47.218 0-85.902-38.401-85.902-85.903v-562.063c0-80.782 65.707-146.77 146.773-146.77h337.068c80.782 0 146.773 65.704 146.773 146.77v342.187c0 47.218-38.4 85.905-85.902 85.905h0.569zM761.742 171.236c0-49.493-40.391-89.882-89.884-89.882h-337.068c-49.493 0-89.884 40.388-89.884 89.882v562.063c0 15.929 13.084 29.014 29.013 29.014s29.014-13.085 29.014-29.014v-233.527c0-15.644 12.8-28.444 28.444-28.444s28.444 12.8 28.444 28.444v302.93c0 15.929 13.084 29.014 29.013 29.014s29.013-13.085 29.013-29.014v-302.93c0-15.644 12.8-28.444 28.444-28.444s28.445 12.8 28.445 28.444v350.145c0 15.929 13.084 29.014 29.013 29.014s29.013-13.085 29.013-29.014v-350.145c0-15.644 12.8-28.444 28.444-28.444s28.444 12.8 28.444 28.444v302.93c0 15.929 13.084 29.014 29.013 29.014s29.013-13.085 29.013-29.014v-475.306c0-15.644 12.8-28.444 28.444-28.444s28.444 12.8 28.444 28.444v186.027c0 15.929 13.084 29.016 29.013 29.016s29.013-13.087 29.013-29.016v-342.187h-0.853zM658.202-3.695h-309.759c-15.644 0-28.444-12.8-28.444-28.444s12.8-28.444 28.444-28.444h309.759c15.644 0 28.444 12.8 28.444 28.444s-12.8 28.444-28.444 28.444z" fill="#1D1D1D" />

    </g>
</svg>