<?xml version="1.0" encoding="iso-8859-1"?>
<!DOCTYPE svg PUBLIC "-//W3C//DTD SVG 1.1//EN" "http://www.w3.org/Graphics/SVG/1.1/DTD/svg11.dtd">
<svg version="1.1" xmlns="http://www.w3.org/2000/svg" xmlns:xlink="http://www.w3.org/1999/xlink" x="0px"
	y="0px" width="511.626px" height="511.627px" viewBox="0 0 1100 1100"
	style="enable-background:new 0 0 1100 1100;" xml:space="preserve">
	<g>
		

<path transform="rotate(180 500 500) scale(0.9)" d="M1016.32 931.199c-5.12 12.16-16.64 19.84-29.44 19.84h-947.201c-13.12 0-24.64-7.68-29.44-19.84-5.12-12.16-2.241-25.599 7.039-34.879l347.201-346.88v-578.56c0-12.16 6.72-23.043 17.92-28.803 4.48-2.24 9.28-3.197 14.080-3.197 7.040 0 13.76 2.24 19.52 6.4l235.2 178.88c8 6.080 12.48 15.683 12.48 25.603v400.637l346.24 345.92c9.28 9.28 11.84 22.719 7.040 34.879h-0.64zM608.64 586.56c-2.88-2.88-5.44-6.4-7.040-10.56-1.6-3.84-2.24-8-2.24-12.16v-397.763l-171.2-130.237v527.040c0 4.16-0.96 8.32-2.56 12.16s-3.84 7.36-7.040 10.56l-301.76 301.439h792.64l-300.8-300.479z" fill="#1D1D1D" />

    </g>
</svg>