<?xml version="1.0" encoding="iso-8859-1"?>
<!DOCTYPE svg PUBLIC "-//W3C//DTD SVG 1.1//EN" "http://www.w3.org/Graphics/SVG/1.1/DTD/svg11.dtd">
<svg version="1.1" xmlns="http://www.w3.org/2000/svg" xmlns:xlink="http://www.w3.org/1999/xlink" x="0px"
	y="0px" width="511.626px" height="511.627px" viewBox="0 0 1100 1100"
	style="enable-background:new 0 0 1100 1100;" xml:space="preserve">
	<g>
		

<path transform="rotate(180 500 500) scale(0.9)" d="M420.827 417.61c3.964-1.982 8.258-2.639 12.883-2.639 6.606 0 13.214 2.312 17.838 5.615 8.919 5.946 14.534 15.525 15.195 27.417 0 47.566 30.059 87.535 65.404 87.535 33.693 0 62.101-35.348 64.743-80.272 0.661-10.901 6.937-20.477 16.516-26.423 8.919-5.285 19.819-5.946 30.059-1.652 28.738 12.883 122.88 61.106 129.817 135.099 2.312 24.114-3.967 59.131-47.57 89.851-164.501 114.622-168.461 266.57-168.792 267.891 0 12.883-7.267 24.441-18.498 29.726-11.561 5.615-25.105 4.294-35.014-3.964-8.588-6.937-210.747-169.452-210.747-318.758 0-100.748 45.254-175.074 127.835-209.097l0.331-0.33zM501.096 854.631c17.177-67.716 63.422-170.778 186.963-257.322 18.828-12.883 20.48-22.792 19.819-29.068-1.321-15.195-18.828-38.648-54.503-61.44-19.819 56.485-67.055 94.472-121.228 94.472s-104.713-41.294-123.542-100.752c-33.032 27.417-49.548 69.701-49.548 125.856 0 80.268 87.206 176.062 141.709 228.253h0.33zM856.853 103.804l-147.324 79.277 147.324 79.611c21.471 11.892 36.996 31.050 43.272 55.164 5.946 23.783 2.312 48.227-10.24 69.037-24.774 39.969-76.305 53.509-117.265 31.047l-248.403-134.438-248.403 134.438c-40.96 22.462-92.49 8.592-117.595-31.377-12.552-21.141-16.186-45.585-9.909-69.037 6.606-23.453 21.801-42.942 43.272-54.834l146.994-79.611-146.994-79.277c-21.471-11.892-36.996-31.047-43.603-55.161-5.946-23.783-2.312-48.23 10.24-68.71 23.453-38.648 73.664-54.17 117.266-31.708l248.401 134.438 248.733-134.772c13.543-6.937 27.42-10.567 41.624-10.567 31.050 0 59.455 15.852 75.641 42.278 12.883 21.141 16.186 45.588 9.91 68.71-5.946 23.453-21.471 42.942-42.942 54.834v0.657zM454.851 246.176l-46.906-25.435-184.649 100.088c-5.285 2.973-9.25 7.594-10.901 13.87-1.652 5.946-0.66 12.222 2.313 17.177 4.294 6.937 11.892 10.904 19.159 10.904 3.634 0 7.267-0.994 10.24-2.646l210.744-113.628v-0.33zM212.064 31.467c1.652 6.276 5.616 11.228 11.232 14.201l581.697 314.467c2.973 1.652 6.606 2.646 10.24 2.646 7.597 0 14.865-3.967 18.828-10.574 3.303-5.285 3.964-11.558 2.312-17.834-1.321-5.946-5.285-10.57-10.901-13.543l-581.036-314.467c-10.24-5.615-23.453-1.982-29.399 8.258-3.303 4.955-3.965 10.901-2.643 16.846h-0.331zM593.586 120.32l46.575 25.105 184.981-99.757c5.615-2.973 9.579-7.924 11.231-13.87 1.652-6.606 0.661-12.222-2.643-17.507-5.946-10.24-19.159-13.874-29.068-8.258l-211.076 114.288z" fill="#1D1D1D" />

    </g>
</svg>