<?xml version="1.0" encoding="iso-8859-1"?>
<!DOCTYPE svg PUBLIC "-//W3C//DTD SVG 1.1//EN" "http://www.w3.org/Graphics/SVG/1.1/DTD/svg11.dtd">
<svg version="1.1" xmlns="http://www.w3.org/2000/svg" xmlns:xlink="http://www.w3.org/1999/xlink" x="0px"
	y="0px" width="511.626px" height="511.627px" viewBox="0 0 1100 1100"
	style="enable-background:new 0 0 1100 1100;" xml:space="preserve">
	<g>
		

<path transform="rotate(180 500 500) scale(0.9)" d="M934.015 748.064h-224.349v23.583c0 51.2-41.891 93.091-93.091 93.091h-219.695c-51.2 0-93.092-41.891-93.092-93.091v-23.583h-224.349c-34.133 0-62.061-27.927-62.061-62.061v-567.856c0-34.133 27.927-62.061 62.061-62.061h854.576c34.133 0 62.061 27.927 62.061 62.061v567.856c0 34.133-27.927 62.061-62.061 62.061zM396.881 802.678h219.695c17.067 0 31.030-13.964 31.030-31.030v-23.273h-281.755v23.273c0 17.067 13.964 31.030 31.030 31.030zM79.439 118.148v567.856h854.576v-567.856h-854.576zM650.709 433.105h-112.95v112.95c0 17.068-13.964 31.031-31.030 31.031s-31.030-13.964-31.030-31.031v-112.95h-112.95c-17.067 0-31.030-13.964-31.030-31.030s13.964-31.030 31.030-31.030h112.95v-112.95c0-17.067 13.964-31.030 31.030-31.030s31.030 13.964 31.030 31.030v112.95h112.95c17.067 0 31.030 13.964 31.030 31.030s-13.964 31.030-31.030 31.030z" fill="#1D1D1D" />

    </g>
</svg>