<?xml version="1.0" encoding="iso-8859-1"?>
<!DOCTYPE svg PUBLIC "-//W3C//DTD SVG 1.1//EN" "http://www.w3.org/Graphics/SVG/1.1/DTD/svg11.dtd">
<svg version="1.1" xmlns="http://www.w3.org/2000/svg" xmlns:xlink="http://www.w3.org/1999/xlink" x="0px"
	y="0px" width="511.626px" height="511.627px" viewBox="0 0 1100 1100"
	style="enable-background:new 0 0 1100 1100;" xml:space="preserve">
	<g>
		

<path transform="rotate(180 500 500) scale(0.9)" d="M1005.44 887.999c-9.92 5.76-22.4 5.44-32-0.32-2.24-1.28-206.4-118.719-443.52 0.961-271.361 136.96-494.401 4.479-503.681-1.281-9.6-5.76-15.36-15.999-15.36-27.199v-888.959c0-17.6 14.4-32 32-32s32 14.4 32 32v396.16c50.56 24 225.92 92.157 426.241-9.283 272.32-137.6 496-4.477 505.28 1.283 9.6 5.76 15.68 16.317 15.68 27.517v473.603c0 11.52-6.4 22.080-16.32 27.84l-0.32-0.32zM74.559 840.64c50.56 24 225.92 92.159 426.241-9.281 199.68-100.8 373.44-56.318 456.96-22.398v-403.52c-50.88-24-227.52-92.163-428.16 9.277-81.28 40.96-166.4 61.763-252.481 61.763s-158.72-21.44-202.56-39.36v403.52z" fill="#1D1D1D" />

    </g>
</svg>