<?xml version="1.0" encoding="iso-8859-1"?>
<!DOCTYPE svg PUBLIC "-//W3C//DTD SVG 1.1//EN" "http://www.w3.org/Graphics/SVG/1.1/DTD/svg11.dtd">
<svg version="1.1" xmlns="http://www.w3.org/2000/svg" xmlns:xlink="http://www.w3.org/1999/xlink" x="0px"
	y="0px" width="511.626px" height="511.627px" viewBox="0 0 1100 1100"
	style="enable-background:new 0 0 1100 1100;" xml:space="preserve">
	<g>
		

<path transform="rotate(180 500 500) scale(0.9)" d="M733.867 944.485c-98.676 0-184.32-54.924-228.693-135.913-44.063 80.989-130.017 135.913-228.694 135.913-143.36 0-260.032-116.674-260.032-260.034v-460.179c0-143.36 116.672-260.034 260.032-260.034 98.677 0 184.321 54.924 228.694 135.913 44.063-80.989 130.017-135.913 228.693-135.913 143.36 0 260.034 116.674 260.034 260.034v460.179c0 143.36-116.674 260.034-260.034 260.034zM733.867 882.424c109.227 0 197.973-88.747 197.973-197.973v-161.044l-166.633 149.563v107.674c0 17.067-13.964 31.030-31.030 31.030s-31.030-13.964-31.030-31.030v-107.674l-166.633-148.015v159.496c0 3.724-0.31 7.136-0.621 10.86 5.585 104.262 91.85 187.114 197.663 187.114h0.31zM276.79 882.424c105.504 0 191.768-83.162 197.664-187.114 0-3.724-0.621-7.136-0.621-10.86v-160.427l-166.013 148.945v107.674c0 17.067-13.964 31.030-31.030 31.030s-31.030-13.964-31.030-31.030v-107.674l-166.943-148.635v160.116c0 109.227 88.747 197.973 197.973 197.973zM276.79 25.988c-109.227 0-197.973 88.747-197.973 197.973v216.902l197.973 176.252 197.043-176.873v-216.281c0-3.724 0.31-7.134 0.621-10.858-5.585-104.262-91.85-187.116-197.664-187.116zM733.867 25.988c-105.503 0-191.767 83.164-197.663 187.116 0 3.724 0.621 7.134 0.621 10.858v217.522l197.353 175.632 197.663-177.493v-215.661c0-109.227-88.747-197.973-197.973-197.973z" fill="#1D1D1D" />

    </g>
</svg>