<?xml version="1.0" encoding="iso-8859-1"?>
<!DOCTYPE svg PUBLIC "-//W3C//DTD SVG 1.1//EN" "http://www.w3.org/Graphics/SVG/1.1/DTD/svg11.dtd">
<svg version="1.1" xmlns="http://www.w3.org/2000/svg" xmlns:xlink="http://www.w3.org/1999/xlink" x="0px"
	y="0px" width="511.626px" height="511.627px" viewBox="0 0 1100 1100"
	style="enable-background:new 0 0 1100 1100;" xml:space="preserve">
	<g>
		

<path transform="rotate(180 500 500) scale(0.9)" d="M911.067 332.434h-47.399c67.584 67.291 156.818 196.023 109.714 377.416l-9.070 34.814-32.183-15.793c-7.314-3.511-45.934-23.116-82.213-53.836 0.878 31.598 0.003 64.655-2.923 99.471l-2.926 33.65-33.061-7.9c-5.851-1.463-115.273-28.967-187.538-133.999-24.869 155.647-84.261 243.419-88.357 249.27l-23.698 33.643-24.286-33.35c-55.296-76.654-82.798-162.081-94.208-244.878-72.556 100.937-178.467 127.851-184.318 129.314l-33.061 7.9-2.926-33.65c-2.926-35.109-3.804-68.166-2.926-99.471-36.279 30.72-74.898 50.325-82.213 53.836l-32.182 15.793-9.071-34.814c-47.104-181.393 42.13-310.124 109.714-377.416h-52.955c-10.825 0-20.479-5.851-25.745-15.214-4.974-9.362-4.682-20.773 1.17-29.842l215.333-333.236c5.266-8.485 14.629-13.464 24.576-13.464h384.437c10.24 0 19.602 5.266 24.869 13.751l207.729 333.242c5.559 9.070 5.851 20.48 0.878 29.55s-14.921 14.921-25.454 14.921l0.293 0.293zM924.526 656.893c28.379-190.171-117.617-301.931-150.385-324.459h-10.822c25.743 46.226 60.855 125.516 77.824 234.938 7.314 33.353 50.027 67.871 83.673 89.521h-0.29zM791.113 731.5c9.070-220.307-71.098-360.446-96.551-399.066h-80.162c15.799 81.92 21.358 156.23 19.602 222.351 32.768 107.374 111.47 156.819 157.111 176.714zM509.071 841.8c35.986-75.483 98.307-254.243 45.937-509.366h-74.898c-20.48 70.217-79.29 316.562 28.962 509.366zM228.79 731.5c45.934-20.187 125.514-70.212 157.99-179.342 2.341-93.915 19.892-174.375 32.473-219.724h-93.915c-25.452 38.619-105.617 178.758-96.547 399.066zM95.377 656.893c33.646-21.943 76.361-56.168 83.675-89.814 16.677-109.422 52.077-188.419 77.531-234.645h-10.825c-32.768 22.528-178.761 133.995-150.381 324.459zM686.665-0.807h-352.259l-177.59 274.727h701.003l-171.154-274.727z" fill="#1D1D1D" />

    </g>
</svg>