<?xml version="1.0" encoding="iso-8859-1"?>
<!DOCTYPE svg PUBLIC "-//W3C//DTD SVG 1.1//EN" "http://www.w3.org/Graphics/SVG/1.1/DTD/svg11.dtd">
<svg version="1.1" xmlns="http://www.w3.org/2000/svg" xmlns:xlink="http://www.w3.org/1999/xlink" x="0px"
	y="0px" width="511.626px" height="511.627px" viewBox="0 0 1100 1100"
	style="enable-background:new 0 0 1100 1100;" xml:space="preserve">
	<g>
		

<path transform="rotate(180 500 500) scale(0.9)" d="M939.84 709.762h-426.56l-88 104.316c-12.16 14.4-30.080 22.723-48.96 22.723h-308.48c-35.2 0-64-28.8-64-64v-655.681c0-35.2 28.8-64 64-64h872c35.2 0 64 28.8 64 64v528.642c0 35.2-28.8 64-64 64zM67.84 709.762v63.039h308.48l53.12-63.039h-361.6zM939.84 117.12h-872v528.642h872v-528.642z" fill="#1D1D1D" />

    </g>
</svg>