<?xml version="1.0" encoding="iso-8859-1"?>
<!DOCTYPE svg PUBLIC "-//W3C//DTD SVG 1.1//EN" "http://www.w3.org/Graphics/SVG/1.1/DTD/svg11.dtd">
<svg version="1.1" xmlns="http://www.w3.org/2000/svg" xmlns:xlink="http://www.w3.org/1999/xlink" x="0px"
	y="0px" width="511.626px" height="511.627px" viewBox="0 0 1100 1100"
	style="enable-background:new 0 0 1100 1100;" xml:space="preserve">
	<g>
		

<path transform="rotate(180 500 500) scale(0.9)" d="M109.318 246.244c15.222 0 27.676 12.454 27.676 27.676v433.401h763.847v-433.401c0-15.222 12.454-27.676 27.676-27.676s27.676 12.454 27.676 27.676v461.077c0 15.221-12.454 27.676-27.676 27.676h-819.199c-15.222 0-27.676-12.454-27.676-27.676v-461.077c0-15.222 12.454-27.676 27.676-27.676zM986.361 193.384h-150.556v161.072c0 15.222-12.454 27.676-27.676 27.676h-290.318c-15.222 0-27.676-12.454-27.676-27.676v-161.072h-440.873c-15.222 0-27.676-12.454-27.676-27.676s12.454-27.676 27.676-27.676h936.821c15.222 0 27.676 12.454 27.676 27.676s-12.454 27.676-27.676 27.676h0.277zM780.454 326.781v-133.397h-234.966v133.397h234.966z" fill="#1D1D1D" />

    </g>
</svg>