<?xml version="1.0" encoding="iso-8859-1"?>
<!DOCTYPE svg PUBLIC "-//W3C//DTD SVG 1.1//EN" "http://www.w3.org/Graphics/SVG/1.1/DTD/svg11.dtd">
<svg version="1.1" xmlns="http://www.w3.org/2000/svg" xmlns:xlink="http://www.w3.org/1999/xlink" x="0px"
	y="0px" width="511.626px" height="511.627px" viewBox="0 0 1100 1100"
	style="enable-background:new 0 0 1100 1100;" xml:space="preserve">
	<g>
		

<path transform="rotate(180 500 500) scale(0.9)" d="M973.44 339.84l-54.4 38.083c3.84 22.72 5.76 45.117 5.76 67.197s-1.92 44.48-5.76 67.2l54.4 38.080c27.52 19.2 35.52 55.36 18.56 84.48l-72.32 125.44c-16.64 29.12-52.16 40.318-82.24 25.918l-60.16-28.16c-35.2 29.12-74.24 51.844-116.16 67.524l-5.76 65.918c-2.88 33.28-30.4 58.242-63.68 58.242h-144.64c-33.28 0-60.8-24.962-63.68-58.242l-5.76-65.918c-41.921-15.68-80.961-38.404-116.161-67.524l-60.16 28.16c-30.4 14.080-65.599 2.882-82.559-25.918l-72.32-125.44c-16.64-28.8-8.639-65.28 18.561-84.48l54.398-38.080c-3.84-22.72-5.76-45.12-5.76-67.2s1.92-44.477 5.76-67.197l-54.398-38.083c-27.52-19.2-35.521-55.36-18.561-84.48l72.32-125.437c16.64-29.12 52.159-40.003 82.559-25.923l60.16 28.16c35.2-29.12 74.24-51.84 116.161-67.52l5.76-65.92c2.88-33.28 30.4-58.24 63.68-58.24h144.64c33.28 0 60.8 24.96 63.68 58.24l5.76 65.92c41.92 15.68 80.96 38.4 116.16 67.52l60.16-28.16c30.4-14.080 65.6-2.877 82.56 25.923l72.32 125.437c16.64 28.8 8.64 65.28-18.56 84.48h-0.32zM750.080 193.6c-37.76-34.88-80.96-59.84-128.64-74.88-12.48-3.84-21.12-14.72-22.4-27.84l-7.68-86.4h-144.64l-7.68 86.4c-1.28 13.12-9.92 24-22.4 27.84-47.68 14.72-90.88 40-128.64 74.56-5.76 5.44-13.44 8.643-21.76 8.643-4.48 0-9.279-0.963-13.439-2.883l-79.041-36.803-72.32 125.443 71.361 49.92c10.56 7.36 15.679 20.48 12.799 33.28-5.44 24.96-8.32 49.92-8.32 74.56s2.88 49.6 8.32 74.56c2.88 12.48-2.239 25.6-12.799 32.96l-71.361 49.92 72.32 125.44 79.041-36.801c11.84-5.44 25.599-3.199 35.199 5.441 37.76 34.88 80.96 59.839 128.64 74.879 12.48 3.84 21.12 14.72 22.4 27.84l7.68 86.398h144.64l7.68-86.398c1.28-12.8 9.92-23.68 22.4-27.84 47.68-14.72 90.88-39.999 128.64-74.879 9.6-8.64 23.36-10.881 35.2-5.441l79.040 36.801 72.32-125.44-71.36-49.92c-10.56-7.36-15.68-20.48-12.8-33.28 5.44-25.28 8.32-50.24 8.32-74.56s-2.88-49.28-8.32-74.56c-2.88-12.8 2.24-25.6 12.8-33.28l71.36-49.92-72.32-125.437-79.36 36.797c-11.84 5.44-25.6 3.2-35.2-5.44l0.32 0.32zM519.037 654.078c-115.2 0-209.279-93.758-209.279-209.278s93.759-209.28 209.279-209.28c115.52 0 209.28 93.76 209.28 209.28s-93.76 209.278-209.28 209.278zM519.037 590.077c80 0 145.28-65.277 145.28-145.277s-65.28-145.28-145.28-145.28c-80 0-145.28 65.28-145.28 145.28s65.28 145.277 145.28 145.277z" fill="#1D1D1D" />

    </g>
</svg>