<?xml version="1.0" encoding="iso-8859-1"?>
<!DOCTYPE svg PUBLIC "-//W3C//DTD SVG 1.1//EN" "http://www.w3.org/Graphics/SVG/1.1/DTD/svg11.dtd">
<svg version="1.1" xmlns="http://www.w3.org/2000/svg" xmlns:xlink="http://www.w3.org/1999/xlink" x="0px"
	y="0px" width="511.626px" height="511.627px" viewBox="0 0 1100 1100"
	style="enable-background:new 0 0 1100 1100;" xml:space="preserve">
	<g>
		

<path transform="rotate(180 500 500) scale(0.9)" d="M998.59 893.63c0 12.136-6.068 23.133-18.204 31.477-4.551 2.655-9.481 4.552-13.653 5.31l-213.902 3.037c-20.859 0-37.547-16.687-37.926-37.546 0-10.24 3.793-19.725 10.619-26.93 7.206-7.206 16.687-11.375 26.548-11.375l117.57-1.139-117.191-117.19-97.849 97.847c-14.412 14.412-39.443 14.412-53.476 0-7.206-7.206-10.999-16.686-10.999-26.926s3.793-19.725 10.999-26.93l97.849-97.847-51.2-51.199c-69.784 57.647-157.013 89.125-247.277 89.125-215.040 0-390.257-175.218-390.257-390.258s175.217-390.254 390.257-390.254c215.040 0 390.258 175.214 390.258 390.254 0 90.264-31.479 177.493-89.126 247.277l51.2 51.199 97.849-97.848c14.412-14.412 39.443-14.412 53.476 0 7.206 7.206 10.999 16.687 10.999 26.927s-3.793 19.725-10.999 26.929l-97.849 97.847 117.191 117.19 1.138-117.57c0-20.859 17.067-37.546 38.305-37.546 10.24 0 19.721 4.174 26.927 11.38s10.999 16.686 10.999 26.926l-2.276 207.833zM400.498 647.87c173.321 0 314.406-141.085 314.406-314.407s-141.084-314.41-314.406-314.41c-173.321 0-314.405 141.088-314.405 314.41s141.084 314.407 314.405 314.407z" fill="#1D1D1D" />

    </g>
</svg>