<?xml version="1.0" encoding="iso-8859-1"?>
<!DOCTYPE svg PUBLIC "-//W3C//DTD SVG 1.1//EN" "http://www.w3.org/Graphics/SVG/1.1/DTD/svg11.dtd">
<svg version="1.1" xmlns="http://www.w3.org/2000/svg" xmlns:xlink="http://www.w3.org/1999/xlink" x="0px"
	y="0px" width="511.626px" height="511.627px" viewBox="0 0 1100 1100"
	style="enable-background:new 0 0 1100 1100;" xml:space="preserve">
	<g>
		

<path transform="rotate(180 500 500) scale(0.9)" d="M537.445 586.082v196.735l113.881-49.958c15.205-6.516 34.133 0.928 40.96 16.133 3.413 7.758 3.413 16.136 0.31 23.583-3.103 7.758-8.999 13.965-16.446 17.068l-92.47 40.341 92.47 40.337c15.515 6.827 22.962 25.136 16.136 40.962-6.827 15.515-25.135 22.649-40.96 16.133l-144.912-63.299-144.911 63.299c-7.758 3.413-16.135 3.414-23.582 0.311-7.758-3.103-13.964-8.996-17.067-16.443-6.827-15.825 0.31-34.135 16.135-40.962l92.471-40.337-92.471-40.341c-7.447-3.413-13.343-9.311-16.446-17.068s-2.792-16.136 0.311-23.583c6.516-15.205 25.755-22.649 40.96-16.133l113.881 49.958v-196.735c-162.909-15.825-288.271-152.359-288.271-317.44 0-175.942 143.359-319.299 319.301-319.299s319.302 143.357 319.302 319.299c0 165.081-125.362 301.615-288.272 317.44h-0.31zM506.415 525.886c141.808 0 257.241-115.436 257.241-257.244s-115.433-257.238-257.241-257.238c-141.807 0-257.24 115.43-257.24 257.238s115.433 257.244 257.24 257.244z" fill="#1D1D1D" />

    </g>
</svg>