<?xml version="1.0" encoding="iso-8859-1"?>
<!DOCTYPE svg PUBLIC "-//W3C//DTD SVG 1.1//EN" "http://www.w3.org/Graphics/SVG/1.1/DTD/svg11.dtd">
<svg version="1.1" xmlns="http://www.w3.org/2000/svg" xmlns:xlink="http://www.w3.org/1999/xlink" x="0px"
	y="0px" width="511.626px" height="511.627px" viewBox="0 0 1100 1100"
	style="enable-background:new 0 0 1100 1100;" xml:space="preserve">
	<g>
		

<path transform="rotate(180 500 500) scale(0.9)" d="M881.518 903.243c0 2.633-0.585 4.68-0.878 6.436v1.461l-1.755 4.096c0 0.585-0.585 0.879-0.878 1.464-2.048 3.803-4.974 7.314-9.362 10.532-3.803 2.633-7.899 4.097-11.995 4.682l-165.303 2.046c-16.091-1.17-28.379-13.458-28.379-28.964 0-7.899 2.926-15.213 8.485-20.772s12.873-8.778 20.48-8.778l90.697-0.879-171.447-171.447c-53.833 44.471-121.125 68.754-190.757 68.754-165.889 0-301.057-135.167-301.057-301.055 0-155.648 118.199-284.379 271.799-299.301v-34.816h-132.827c-16.091 0-29.257-13.166-29.257-29.257s13.166-29.257 29.257-29.257h132.827v-102.693c0-16.091 13.166-29.257 29.258-29.257s29.257 13.166 29.257 29.257v102.693h132.827c16.091 0 29.257 13.166 29.257 29.257s-13.166 29.257-29.257 29.257h-132.827v34.816c153.6 14.921 271.799 143.653 271.799 299.301 0 69.632-24.283 136.923-68.754 190.757l171.447 171.448 0.878-90.696c0-16.091 13.166-28.968 29.55-28.968 7.899 0 15.214 3.22 20.773 8.779s8.485 12.872 8.192 20.771l-1.755 160.332h-0.293zM177.59 470.821c0 133.705 108.836 242.54 242.542 242.54s242.542-108.835 242.542-242.54-108.837-242.542-242.542-242.542c-133.707 0-242.542 108.837-242.542 242.542z" fill="#1D1D1D" />

    </g>
</svg>