<?xml version="1.0" encoding="iso-8859-1"?>
<!DOCTYPE svg PUBLIC "-//W3C//DTD SVG 1.1//EN" "http://www.w3.org/Graphics/SVG/1.1/DTD/svg11.dtd">
<svg version="1.1" xmlns="http://www.w3.org/2000/svg" xmlns:xlink="http://www.w3.org/1999/xlink" x="0px"
	y="0px" width="511.626px" height="511.627px" viewBox="0 0 1100 1100"
	style="enable-background:new 0 0 1100 1100;" xml:space="preserve">
	<g>
		

<path transform="rotate(180 500 500) scale(0.9)" d="M948.163 699.199h-207.68c16.64 24 25.6 52.161 25.6 81.601 0 80.32-65.28 145.918-145.92 145.918-44.48 0-86.080-20.799-113.28-55.039-27.52 34.56-68.803 55.039-113.283 55.039-80.318 0-145.918-65.598-145.918-145.918 0-29.12 8.96-57.601 25.6-81.601h-208c-35.2 0-64-28.8-64-64v-119.359c0-17.6 14.4-32 32-32h34.24v-466.88c0-35.84 29.121-64.64 64.641-64.64h749.118c35.84 0 64.643 29.12 64.643 64.64v466.88h34.24c17.6 0 32 14.4 32 32v119.359c0 35.2-28.8 64-64 64zM881.923 483.84v-466.88l-342.723-0.64-0.637 467.52h343.36zM948.163 635.199v-87.359h-409.28v87.359h409.28zM620.483 699.199h-81.283v83.84c0.96 43.84 37.443 79.68 81.283 79.68s81.92-36.798 81.92-81.918c0-45.12-36.48-81.601-81.6-81.601h-0.32zM475.2 16.32h-343.358c0 0-0.641 0.32-0.641 0.64v466.88h343.682l0.637-467.52h-0.32zM474.563 699.199h-81.283c-45.12 0-81.598 36.481-81.598 81.601s36.798 81.918 81.918 81.918c45.12 0 80.323-35.838 81.283-77.758v-85.441l-0.32-0.32zM474.563 547.84h-409.6v87.359h409.6v-87.359z" fill="#1D1D1D" />

    </g>
</svg>