<?xml version="1.0" encoding="iso-8859-1"?>
<!DOCTYPE svg PUBLIC "-//W3C//DTD SVG 1.1//EN" "http://www.w3.org/Graphics/SVG/1.1/DTD/svg11.dtd">
<svg version="1.1" xmlns="http://www.w3.org/2000/svg" xmlns:xlink="http://www.w3.org/1999/xlink" x="0px"
	y="0px" width="511.626px" height="511.627px" viewBox="0 0 1100 1100"
	style="enable-background:new 0 0 1100 1100;" xml:space="preserve">
	<g>
		

<path transform="rotate(180 500 500) scale(0.9)" d="M803.067 373.527c91.229 82.23 143.36 199.525 143.36 322.094 0 80.989-22.962 160.738-66.405 229.935-5.585 8.999-15.515 14.583-26.376 14.583h-681.427c-10.861 0-20.479-5.585-26.375-14.583-53.682-85.644-75.405-184.011-62.992-284.548 24.514-197.353 185.873-355.607 383.225-376.087 5.275-0.621 10.55-0.931 15.825-1.241v-240.175h-172.839c-17.067 0-31.030-13.964-31.030-31.030s13.964-31.030 31.030-31.030h407.738c17.067 0 31.030 13.964 31.030 31.030s-13.964 31.030-31.030 31.030h-172.839v240.175c97.125 6.516 186.182 44.373 258.793 109.847h0.31zM145.224 744.96h735.729c2.482-16.756 3.413-33.514 3.413-49.339 0-104.882-44.684-205.73-122.88-275.859-79.127-71.059-181.838-104.262-288.582-93.091-169.116 17.687-307.201 153.29-327.992 322.095-4.034 31.96-3.723 64.233 0.621 96.505l-0.311-0.311zM835.959 878.080c12.722-22.342 22.962-46.235 30.72-71.059h-707.802c7.758 24.824 17.997 48.717 30.72 71.059h646.362z" fill="#1D1D1D" />

    </g>
</svg>