<?xml version="1.0" encoding="iso-8859-1"?>
<!DOCTYPE svg PUBLIC "-//W3C//DTD SVG 1.1//EN" "http://www.w3.org/Graphics/SVG/1.1/DTD/svg11.dtd">
<svg version="1.1" xmlns="http://www.w3.org/2000/svg" xmlns:xlink="http://www.w3.org/1999/xlink" x="0px"
	y="0px" width="511.626px" height="511.627px" viewBox="0 0 1100 1100"
	style="enable-background:new 0 0 1100 1100;" xml:space="preserve">
	<g>
		

<path transform="rotate(180 500 500) scale(0.9)" d="M931.547 457.359c-297.838 0-413.696 116.154-413.696 413.698 0 16.091-13.166 29.257-29.257 29.257s-29.257-13.166-29.257-29.257c0-297.837-116.151-413.698-413.696-413.698-16.091 0-29.257-13.166-29.257-29.257s13.166-29.257 29.257-29.257c297.838 0 413.696-116.145 413.696-413.69 0-16.091 13.166-29.257 29.257-29.257s29.257 13.166 29.257 29.257c0 297.838 116.151 413.69 413.696 413.69 16.091 0 29.257 13.166 29.257 29.257s-13.166 29.257-29.257 29.257zM713.582 428.102c-113.81-37.157-187.831-111.467-225.28-225.277-37.157 113.81-111.47 187.828-225.28 225.277 113.81 37.157 187.831 111.473 225.28 225.283 37.157-113.81 111.47-187.834 225.28-225.283zM970.752 692.882h-95.671v95.671c0 16.091-13.166 29.257-29.257 29.257s-29.257-13.166-29.257-29.257v-95.671h-95.671c-16.091 0-29.257-13.166-29.257-29.257s13.166-29.257 29.257-29.257h95.671v-95.671c0-16.091 13.166-29.257 29.257-29.257s29.257 13.166 29.257 29.257v95.671h95.671c16.091 0 29.257 13.166 29.257 29.257s-13.166 29.257-29.257 29.257zM628.443 831.854h23.113v-22.821c0-16.091 13.166-29.257 29.257-29.257s29.257 13.166 29.257 29.257v22.821h22.821c16.091 0 29.257 13.166 29.257 29.257s-13.166 29.257-29.257 29.257h-22.821v23.114c0 16.091-13.166 29.257-29.257 29.257s-29.257-13.166-29.257-29.257v-23.114h-23.113c-16.091 0-29.257-13.166-29.257-29.257s13.166-29.257 29.257-29.257z" fill="#1D1D1D" />

    </g>
</svg>