<?xml version="1.0" encoding="iso-8859-1"?>
<!DOCTYPE svg PUBLIC "-//W3C//DTD SVG 1.1//EN" "http://www.w3.org/Graphics/SVG/1.1/DTD/svg11.dtd">
<svg version="1.1" xmlns="http://www.w3.org/2000/svg" xmlns:xlink="http://www.w3.org/1999/xlink" x="0px"
	y="0px" width="511.626px" height="511.627px" viewBox="0 0 1100 1100"
	style="enable-background:new 0 0 1100 1100;" xml:space="preserve">
	<g>
		

<path transform="rotate(180 500 500) scale(0.9)" d="M631.36 941.766l-540.477-113.922c-14.080-2.88-24.32-15.678-24.32-30.078v-316.479c0-14.4 10.24-27.203 24.32-30.083l425.92-90.237-83.203-205.123c-14.4-35.52-14.397-74.24 0.643-109.44 14.72-35.2 42.56-62.397 78.080-77.117 17.28-7.040 35.2-10.563 53.76-10.563 58.88 0 110.72 34.88 132.8 88.96l154.557 375.68c1.28 2.88 1.923 6.083 2.243 9.603 52.48 56.32 81.597 129.277 81.597 206.397 0 166.72-136.96 302.402-305.92 302.402zM752.323 360.966l-118.080-286.723c-15.040-37.44-57.92-55.677-95.68-40.317-18.24 7.36-32.64 21.44-40.32 39.68-7.68 17.92-7.68 38.080 0 56.32l88 216.637 41.92-8.957 6.4-0.64c40.64 0 80.64 8.32 117.76 24.32v-0.32zM796.803 461.446c-43.84-40-100.48-62.403-159.040-63.363l-509.441 107.843v266.878l508.161 107.84c132.16-0.96 239.68-108.801 239.68-241.281 0-66.56-28.163-130.877-79.043-177.917h-0.317zM664.96 785.285c-80.32 0-145.92-65.602-145.92-145.922s65.6-145.917 145.92-145.917c80.32 0 145.92 65.597 145.92 145.917s-65.6 145.922-145.92 145.922zM664.96 562.883c-42.24 0-76.48 34.24-76.48 76.16s34.24 76.48 76.48 76.48c42.24 0 76.48-34.241 76.48-76.48s-34.24-76.16-76.48-76.16z" fill="#1D1D1D" />

    </g>
</svg>