<?xml version="1.0" encoding="iso-8859-1"?>
<!DOCTYPE svg PUBLIC "-//W3C//DTD SVG 1.1//EN" "http://www.w3.org/Graphics/SVG/1.1/DTD/svg11.dtd">
<svg version="1.1" xmlns="http://www.w3.org/2000/svg" xmlns:xlink="http://www.w3.org/1999/xlink" x="0px"
	y="0px" width="511.626px" height="511.627px" viewBox="0 0 1100 1100"
	style="enable-background:new 0 0 1100 1100;" xml:space="preserve">
	<g>
		

<path transform="rotate(180 500 500) scale(0.9)" d="M63.421 785.258h885.926c33.363 0 60.449 27.089 60.449 60.452s-27.086 60.448-60.449 60.448h-885.926c-33.363 0-60.449-27.085-60.449-60.448s27.087-60.452 60.449-60.452zM949.347 519.68h-885.926c-33.363 0-60.449-27.086-60.449-60.449s27.087-60.449 60.449-60.449h885.926c33.363 0 60.449 27.086 60.449 60.449s-27.086 60.449-60.449 60.449zM949.347 125.605h-885.926c-33.363 0-60.449-27.086-60.449-60.449s27.087-60.449 60.449-60.449h885.926c33.363 0 60.449 27.086 60.449 60.449s-27.086 60.449-60.449 60.449z" fill="#1D1D1D" />

    </g>
</svg>