<?xml version="1.0" encoding="iso-8859-1"?>
<!DOCTYPE svg PUBLIC "-//W3C//DTD SVG 1.1//EN" "http://www.w3.org/Graphics/SVG/1.1/DTD/svg11.dtd">
<svg version="1.1" xmlns="http://www.w3.org/2000/svg" xmlns:xlink="http://www.w3.org/1999/xlink" x="0px"
	y="0px" width="511.626px" height="511.627px" viewBox="0 0 1100 1100"
	style="enable-background:new 0 0 1100 1100;" xml:space="preserve">
	<g>
		

<path transform="rotate(180 500 500) scale(0.9)" d="M1008.781 155.745l-451.944 448.899 61.717 61.995c5.258 5.258 8.026 12.176 8.026 19.649 0 58.396-47.602 105.998-105.998 105.998s-105.998-47.603-105.998-105.998c0-15.222 12.454-27.676 27.676-27.676s27.676 12.454 27.676 27.676c0 27.952 22.694 50.647 50.646 50.647 24.078 0 44.835-17.159 49.539-40.407l-537.739-540.782c-8.026-8.026-10.241-19.926-5.813-30.166s14.392-17.159 25.462-17.159h936.823c11.347 0 21.308 6.642 25.462 17.159 4.428 10.517 1.937 22.141-6.091 30.166h0.556zM118.73 163.771l399.082 401.574 404.344-401.574h-803.426z" fill="#1D1D1D" />

    </g>
</svg>