<?xml version="1.0" encoding="iso-8859-1"?>
<!DOCTYPE svg PUBLIC "-//W3C//DTD SVG 1.1//EN" "http://www.w3.org/Graphics/SVG/1.1/DTD/svg11.dtd">
<svg version="1.1" xmlns="http://www.w3.org/2000/svg" xmlns:xlink="http://www.w3.org/1999/xlink" x="0px"
	y="0px" width="511.626px" height="511.627px" viewBox="0 0 1100 1100"
	style="enable-background:new 0 0 1100 1100;" xml:space="preserve">
	<g>
		

<path transform="rotate(180 500 500) scale(0.9)" d="M508.897 936.417c-269.653 0-489.348-219.385-489.348-489.348s219.385-489.348 489.348-489.348c269.964 0 489.348 219.384 489.348 489.348s-219.384 489.348-489.348 489.348zM508.897 874.356c235.52 0 427.287-191.768 427.287-427.287s-191.767-427.287-427.287-427.287c-235.519 0-427.287 191.767-427.287 427.287s191.768 427.287 427.287 427.287zM508.9 128.074c113.571 0 219.384 61.13 276.48 159.496 4.034 7.137 5.272 15.515 3.1 23.583s-7.134 14.584-14.271 18.928c-7.137 4.344-15.515 5.278-23.583 3.106s-14.895-7.14-18.928-14.587c-45.925-79.127-131.261-128.465-222.487-128.465-91.229 0-176.873 49.338-222.488 128.465-4.034 7.137-10.86 12.415-18.928 14.587s-16.446 0.928-23.273-3.106c-7.137-4.034-12.413-10.861-14.275-18.928-2.172-8.068-0.93-16.446 3.104-23.583 56.785-98.366 162.909-159.496 276.48-159.496h-0.931zM305.028 459.171c40.103 0 72.61 32.507 72.61 72.611 0 40.1-32.507 72.611-72.61 72.611s-72.612-32.51-72.612-72.611c0-40.104 32.51-72.611 72.612-72.611zM712.766 458.861c40.029 0 72.611 32.579 72.611 72.608s-32.582 72.614-72.611 72.614c-40.029 0-72.611-32.585-72.611-72.614s32.582-72.608 72.611-72.608z" fill="#1D1D1D" />

    </g>
</svg>