<?xml version="1.0" encoding="iso-8859-1"?>
<!DOCTYPE svg PUBLIC "-//W3C//DTD SVG 1.1//EN" "http://www.w3.org/Graphics/SVG/1.1/DTD/svg11.dtd">
<svg version="1.1" xmlns="http://www.w3.org/2000/svg" xmlns:xlink="http://www.w3.org/1999/xlink" x="0px"
	y="0px" width="511.626px" height="511.627px" viewBox="0 0 1100 1100"
	style="enable-background:new 0 0 1100 1100;" xml:space="preserve">
	<g>
		

<path transform="rotate(180 500 500) scale(0.9)" d="M720.684 900.328c-72.739 0-144.066-27.543-198.091-75.918-53.672 48.375-124.646 75.918-197.383 75.918-163.84 0-297.313-133.475-297.313-297.315 0-84.039 35.31-163.84 95.691-217.865 1.059-1.412 2.119-2.472 3.531-3.178l371.817-371.818c6.709-6.709 15.537-10.236 25.070-10.236s18.361 3.528 25.070 10.236l373.23 373.23c2.119 2.119 3.531 4.237 4.59 6.003 58.262 55.437 91.454 133.12 91.454 213.628 0 163.84-133.473 297.315-297.313 297.315h-0.353zM872.872 435.641c-2.472-2.472-4.943-4.943-6.709-8.121l-342.157-342.157-342.862 342.86v10.597h-10.946c-45.55 42.019-71.327 101.694-71.327 164.547 0 124.999 101.694 226.69 226.692 226.69 63.557 0 124.644-27.186 165.957-72.030l3.884-4.237c6.003-8.121 15.537-13.065 28.601-13.771 3.178 0 6.003 0.354 8.828 1.060 2.119 0.706 3.884 1.41 6.003 2.117l6.709 3.883c3.884 2.825 7.062 6.004 9.534 9.888 42.372 46.61 103.106 73.091 166.665 73.091 124.999 0 226.692-101.691 226.692-226.69 0-63.912-27.189-124.999-74.505-167.372l-1.059-0.353z" fill="#1D1D1D" />

    </g>
</svg>