<?xml version="1.0" encoding="iso-8859-1"?>
<!DOCTYPE svg PUBLIC "-//W3C//DTD SVG 1.1//EN" "http://www.w3.org/Graphics/SVG/1.1/DTD/svg11.dtd">
<svg version="1.1" xmlns="http://www.w3.org/2000/svg" xmlns:xlink="http://www.w3.org/1999/xlink" x="0px"
	y="0px" width="511.626px" height="511.627px" viewBox="0 0 1100 1100"
	style="enable-background:new 0 0 1100 1100;" xml:space="preserve">
	<g>
		

<path transform="rotate(180 500 500) scale(0.9)" d="M872.262 766.371v112.64c0 34.133-27.927 62.061-62.061 62.061h-588.334c-34.133 0-62.060-27.927-62.060-62.061v-112.64c0-26.686 11.481-52.131 31.341-69.818l278.031-246.688-278.031-246.384c-19.859-17.687-31.341-43.132-31.341-69.818v-112.95c0-34.133 27.927-62.061 62.060-62.061h588.334c34.133 0 62.061 27.927 62.061 62.061v112.95c0 26.686-11.481 52.131-31.341 69.818l-278.032 246.688 278.032 246.384c19.859 17.687 31.341 43.132 31.341 69.818zM799.651 157.246c6.516-5.896 10.55-14.274 10.55-23.273v-112.95h-588.334v112.95c0 8.999 3.724 17.377 10.55 23.273l283.616 251.345 283.617-251.345zM221.867 879.011v0zM221.867 879.011h588.334v-112.64c0-8.999-3.724-17.377-10.55-23.273l-283.617-251.346-283.616 251.346c-6.516 5.896-10.55 14.274-10.55 23.273v112.64z" fill="#1D1D1D" />

    </g>
</svg>