<?xml version="1.0" encoding="iso-8859-1"?>
<!DOCTYPE svg PUBLIC "-//W3C//DTD SVG 1.1//EN" "http://www.w3.org/Graphics/SVG/1.1/DTD/svg11.dtd">
<svg version="1.1" xmlns="http://www.w3.org/2000/svg" xmlns:xlink="http://www.w3.org/1999/xlink" x="0px"
	y="0px" width="511.626px" height="511.627px" viewBox="0 0 1100 1100"
	style="enable-background:new 0 0 1100 1100;" xml:space="preserve">
	<g>
		

<path transform="rotate(180 500 500) scale(0.9)" d="M512 943.614c-274.725 0-498.25-223.526-498.25-498.543s223.525-498.243 498.25-498.243c274.725 0 498.249 223.519 498.249 498.243s-223.525 498.543-498.249 498.543zM512 885.1c110.592 0 211.529-41.252 288.768-108.836l-155.063-155.065c-37.449 28.672-83.968 45.937-134.583 45.937-1.755 0-3.511 0-5.266 0 2.341 4.388 4.096 9.362 4.096 14.628 0 17.554-14.043 31.6-31.598 31.6s-31.598-14.046-31.598-31.6c0-8.485 3.511-16.091 8.777-21.65-78.702-20.48-140.434-82.798-159.451-162.085-0.585 0-0.878 0-1.17 0-16.383 0-29.549-13.166-29.549-29.55 0-14.629 10.824-26.039 24.575-28.379 1.17-48.567 17.848-93.327 45.642-129.314l-154.185-154.188c-67.584 77.239-108.837 178.173-108.837 288.765 0 242.542 197.194 440.029 439.735 440.029l-0.293-0.293zM674.377 445.071c0-90.112-73.435-163.249-163.255-163.249-34.523 0-66.414 10.825-92.745 29.257l227.035 227.035c18.432-26.331 29.257-58.52 29.257-92.751l-0.293-0.293zM347.575 445.071c0 90.112 73.143 163.258 163.255 163.258 34.523 0 66.414-10.825 92.745-29.257l-227.035-227.035c-18.432 26.331-29.257 58.511-29.257 92.742l0.293 0.293zM511.707 5.342c-110.885 0-212.114 41.545-289.645 109.714l154.184 154.179c37.449-28.672 83.968-45.928 134.583-45.928 18.432 0 36.279 2.63 53.248 6.726 0-2.048-0.585-3.801-0.585-5.849 0-23.991 19.602-43.593 43.593-43.593s43.593 19.602 43.593 43.593c0 14.629-7.314 27.502-18.432 35.401 60.27 39.79 100.352 107.953 100.352 185.484 0 11.118-1.17 21.653-2.633 32.478 2.926-0.585 6.144-1.17 9.362-1.17 23.113 0 41.838 18.722 41.838 41.835s-18.725 41.844-41.838 41.844c-12.581 0-23.406-5.559-31.305-14.336-6.144 11.995-13.458 23.11-21.358 33.643l155.063 155.064c68.169-77.533 109.714-178.765 109.714-289.65 0-242.542-197.193-439.729-439.735-439.729v0.293zM381.513 687.029c23.991 0 43.596 19.602 43.596 43.593s-19.605 43.593-43.596 43.593c-23.991 0-43.593-19.602-43.593-43.593s19.602-43.593 43.593-43.593zM239.614 349.693c23.991 0 43.593 19.602 43.593 43.593s-19.602 43.599-43.593 43.599c-23.991 0-43.593-19.608-43.593-43.599s19.602-43.593 43.593-43.593zM545.649 118.272c13.251 0 23.988 10.743 23.988 23.991 0 13.251-10.737 23.994-23.988 23.994s-23.991-10.743-23.991-23.994c0-13.248 10.74-23.991 23.991-23.991zM818.322 518.214c-13.751 0-24.869-11.115-24.869-24.866s11.118-24.869 24.869-24.869c13.751 0 24.869 11.118 24.869 24.869s-11.118 24.866-24.869 24.866z" fill="#1D1D1D" />

    </g>
</svg>