<?xml version="1.0" encoding="iso-8859-1"?>
<!DOCTYPE svg PUBLIC "-//W3C//DTD SVG 1.1//EN" "http://www.w3.org/Graphics/SVG/1.1/DTD/svg11.dtd">
<svg version="1.1" xmlns="http://www.w3.org/2000/svg" xmlns:xlink="http://www.w3.org/1999/xlink" x="0px"
	y="0px" width="511.626px" height="511.627px" viewBox="0 0 1100 1100"
	style="enable-background:new 0 0 1100 1100;" xml:space="preserve">
	<g>
		

<path transform="rotate(180 500 500) scale(0.9)" d="M1011.588 757.992h-209.765v-121.64h71.68v-245.448c0-53.372-43.442-96.815-96.815-96.815s-96.815 43.442-96.815 96.815v155.774c0 89.988-73.232 163.216-163.219 163.216s-163.219-73.228-163.219-163.216v-250.416c0-53.372-43.442-96.815-96.814-96.815s-96.815 43.442-96.815 96.815v340.091h69.509v121.64h-205.422v-121.64h69.508v-340.091c0-89.988 73.231-163.219 163.219-163.219s163.219 73.232 163.219 163.219v250.416c0 53.372 43.442 96.815 96.815 96.815s96.815-43.442 96.815-96.815v-155.774c0-89.988 73.232-163.219 163.219-163.219s163.219 73.232 163.219 163.219v245.448h71.68v121.64z" fill="#1D1D1D" />

    </g>
</svg>