<?xml version="1.0" encoding="iso-8859-1"?>
<!DOCTYPE svg PUBLIC "-//W3C//DTD SVG 1.1//EN" "http://www.w3.org/Graphics/SVG/1.1/DTD/svg11.dtd">
<svg version="1.1" xmlns="http://www.w3.org/2000/svg" xmlns:xlink="http://www.w3.org/1999/xlink" x="0px"
	y="0px" width="511.626px" height="511.627px" viewBox="0 0 1100 1100"
	style="enable-background:new 0 0 1100 1100;" xml:space="preserve">
	<g>
		

<path transform="rotate(180 500 500) scale(0.9)" d="M235.519 206.895h473.831c17.067 0 31.030 13.964 31.030 31.030s-13.964 31.030-31.030 31.030h-473.831c-47.787 0-86.265-38.791-86.265-86.578s38.789-86.261 86.265-86.261h618.121c78.196 0 141.812 63.612 141.812 141.808-0.621 74.473-7.45 149.566-20.483 223.108l-57.716 322.714c-14.895 83.782-87.505 144.602-172.839 144.602h-480.037c-85.023 0-157.634-60.82-172.839-144.602l-57.716-322.714c-13.033-73.542-19.86-148.635-19.86-223.418v-76.335c0-109.537 89.056-198.594 198.593-198.594h750.933c17.067 0 31.030 13.964 31.030 31.030s-13.964 31.030-31.030 31.030h-750.933c-75.093 0-136.532 61.13-136.532 136.533v76.335c0 44.063 35.685 79.748 79.748 79.748h697.559c44.063 0 79.748-35.685 79.748-79.748s-35.685-79.748-79.748-79.748h-618.122c-13.343 0-24.205 10.864-24.205 24.207s10.862 24.511 24.205 24.511l0.311 0.31zM853.641 379.733h-697.559c-26.996 0-51.822-8.068-73.544-21.101 3.103 30.72 7.138 61.44 12.413 91.85l57.716 322.715c9.619 54.303 56.476 93.402 111.71 93.402h480.037c54.924 0 102.093-39.409 111.712-93.402l57.716-322.715c5.275-30.099 9.616-60.819 12.719-91.539-21.411 13.033-46.235 20.79-72.921 20.79z" fill="#1D1D1D" />

    </g>
</svg>