<?xml version="1.0" encoding="iso-8859-1"?>
<!DOCTYPE svg PUBLIC "-//W3C//DTD SVG 1.1//EN" "http://www.w3.org/Graphics/SVG/1.1/DTD/svg11.dtd">
<svg version="1.1" xmlns="http://www.w3.org/2000/svg" xmlns:xlink="http://www.w3.org/1999/xlink" x="0px"
	y="0px" width="511.626px" height="511.627px" viewBox="0 0 1100 1100"
	style="enable-background:new 0 0 1100 1100;" xml:space="preserve">
	<g>
		

<path transform="rotate(180 500 500) scale(0.9)" d="M966.258 781.369h-905.956c-31.289 0-56.889-25.6-56.889-56.889v-577.138c0-15.644 12.8-28.444 28.445-28.444h88.462c7.68 0 15.361 3.129 20.481 8.818 5.404 5.689 8.248 13.084 7.964 21.049l-0.568 7.68c0 104.676 85.333 190.009 190.008 190.009s190.009-85.333 190.009-190.009l-0.569-7.964c-0.284-7.68 2.56-15.36 7.964-21.049 5.404-5.404 12.8-8.818 20.48-8.818h410.169c31.289 0 56.889 25.6 56.889 56.889v548.978c0 31.289-25.6 56.889-56.889 56.889zM60.302 175.787v548.693h905.956v-548.693h-382.009c-7.68 99.84-74.809 184.036-168.107 215.040 37.262 25.6 60.871 68.267 60.871 114.631 0 76.516-62.293 138.809-138.809 138.809s-138.809-62.293-138.809-138.809c0-46.364 23.609-89.316 60.871-114.631-93.298-31.004-160.428-115.2-168.108-215.040h-31.857zM338.204 587.662c45.227 0 81.92-36.693 81.92-81.92s-36.693-81.92-81.92-81.92c-45.227 0-81.92 36.693-81.92 81.92s36.693 81.92 81.92 81.92zM617.244 612.977h273.92c15.644 0 28.444 12.8 28.444 28.444s-12.8 28.444-28.444 28.444h-273.92c-15.644 0-28.444-12.8-28.444-28.444s12.8-28.444 28.444-28.444z" fill="#1D1D1D" />

    </g>
</svg>