<?xml version="1.0" encoding="iso-8859-1"?>
<!DOCTYPE svg PUBLIC "-//W3C//DTD SVG 1.1//EN" "http://www.w3.org/Graphics/SVG/1.1/DTD/svg11.dtd">
<svg version="1.1" xmlns="http://www.w3.org/2000/svg" xmlns:xlink="http://www.w3.org/1999/xlink" x="0px"
	y="0px" width="511.626px" height="511.627px" viewBox="0 0 1100 1100"
	style="enable-background:new 0 0 1100 1100;" xml:space="preserve">
	<g>
		

<path transform="rotate(180 500 500) scale(0.9)" d="M739.913 313.71c-16.091 0-29.257-13.166-29.257-29.257v-182.269c0-16.091-13.166-29.257-29.257-29.257h-61.733v777.359c0 10.24-1.755 20.481-5.266 29.843h66.999c16.091 0 29.257-13.166 29.257-29.257v-181.979c0-16.093 13.166-29.259 29.257-29.259s29.257 13.166 29.257 29.259v181.979c0 48.274-39.497 87.771-87.771 87.771h-538.917c-23.406 0-45.349-9.070-62.025-25.747-11.703-11.703-19.895-26.624-23.991-44.471-1.17-5.851-1.755-11.702-1.755-17.554v-755.42c0-44.178 33.061-81.627 76.946-87.186l389.413-47.982c3.511-0.585 7.314-0.582 10.825-0.582 21.358 0 42.13 7.899 58.222 21.943 9.947 8.777 17.847 20.187 22.821 32.768h68.462c48.274 0 87.771 39.497 87.771 87.771v182.269c0 16.091-13.166 29.257-29.257 29.257zM113.225 850.871c0 0 0 2.926 0.293 4.389l0.586 2.925c1.463 5.851 4.973 11.411 9.947 15.214s11.118 6.143 18.432 6.729l389.705-0.586c16.091 0 29.257-13.166 29.257-29.257v-802.813c0-8.485-3.511-16.384-9.947-21.943-6.144-5.559-14.629-7.905-23.113-7.028l-389.413 47.985c-14.629 1.755-25.746 14.336-25.746 28.965v755.42zM952.613 505.929h-190.171l58.222 58.222c5.559 5.559 8.485 12.873 8.485 20.773s-2.926 15.214-8.485 20.773c-11.41 11.41-29.842 11.41-41.253 0l-108.251-107.962c-5.559-5.559-8.485-12.87-8.485-20.77s2.926-15.214 8.485-20.773l108.251-108.254c5.559-5.559 12.873-8.482 20.773-8.482s15.214 2.923 20.773 8.482c11.41 11.41 11.41 29.845 0 41.255l-58.222 58.222h189.879c16.091 0 29.257 13.166 29.257 29.257s-13.166 29.257-29.257 29.257z" fill="#1D1D1D" />

    </g>
</svg>