<?xml version="1.0" encoding="iso-8859-1"?>
<!DOCTYPE svg PUBLIC "-//W3C//DTD SVG 1.1//EN" "http://www.w3.org/Graphics/SVG/1.1/DTD/svg11.dtd">
<svg version="1.1" xmlns="http://www.w3.org/2000/svg" xmlns:xlink="http://www.w3.org/1999/xlink" x="0px"
	y="0px" width="511.626px" height="511.627px" viewBox="0 0 1100 1100"
	style="enable-background:new 0 0 1100 1100;" xml:space="preserve">
	<g>
		

<path transform="rotate(180 500 500) scale(0.9)" d="M963.491 762.027h-325.508l42.822 111.708h282.996c17.067 0 31.030 13.964 31.030 31.030s-13.964 31.030-31.030 31.030h-304.407c-12.722 0-24.514-8.068-28.858-19.86l-58.647-153.909h-524.412c-12.412 0-23.895-7.447-28.549-19.239s-2.171-24.823 6.828-33.822l449.009-449.013v-241.413l-172.53 0.624c-17.067 0-31.030-13.653-31.030-31.030 0-17.067 13.653-31.030 31.030-31.030l199.526-0.934c0 0 2.793-0.931 4.344-0.931s2.793 0.621 4.344 0.931l199.525-0.931c17.067 0 31.030 13.653 31.030 31.030 0 17.067-13.653 31.030-31.030 31.030l-172.839 0.621v241.729l449.008 449.006c8.999 8.999 11.481 22.341 6.827 33.822s-16.136 19.239-28.548 19.239l-0.931 0.311zM547.685 699.966l-63.922-166.943h-194.871l-166.943 166.943h425.737zM505.173 316.742l-154.221 154.221h308.441l-154.221-154.221zM721.455 533.023h-171.287l63.922 166.943h274.308l-166.943-166.943z" fill="#1D1D1D" />

    </g>
</svg>