<?xml version="1.0" encoding="iso-8859-1"?>
<!DOCTYPE svg PUBLIC "-//W3C//DTD SVG 1.1//EN" "http://www.w3.org/Graphics/SVG/1.1/DTD/svg11.dtd">
<svg version="1.1" xmlns="http://www.w3.org/2000/svg" xmlns:xlink="http://www.w3.org/1999/xlink" x="0px"
	y="0px" width="511.626px" height="511.627px" viewBox="0 0 1100 1100"
	style="enable-background:new 0 0 1100 1100;" xml:space="preserve">
	<g>
		

<path transform="rotate(180 500 500) scale(0.9)" d="M915.704 939.208h-792.515c-51.2 0-93.091-41.891-93.091-93.091v-792.513c0-51.2 41.891-93.091 93.091-93.091h792.515c51.2 0 93.091 41.891 93.091 93.091v792.513c0 51.2-41.891 93.091-93.091 93.091zM946.735 53.605c0-17.067-13.964-31.030-31.030-31.030h-792.515c-17.067 0-31.030 13.964-31.030 31.030v148.018l146.152 204.797 207.594-149.256c6.827-4.965 15.515-6.824 23.273-5.272 8.068 1.241 15.515 6.203 20.17 12.719l235.52 336.989 221.556-276.48v-271.515h0.31zM722.385 684.761c-9.619-0.31-18.928-5.277-24.514-13.345l-241.416-345.369-207.283 148.949c-6.827 4.965-15.205 6.827-23.273 5.275-8.068-1.241-15.515-5.896-20.17-12.722l-113.882-159.185v537.443c0 17.067 13.964 31.030 31.030 31.030h792.515c17.067 0 31.030-13.964 31.030-31.030v-421.39l-199.215 248.553c-6.206 7.758-15.515 10.861-25.445 11.792h0.621zM315.578 775.061c-66.715 0-121.328-54.304-121.328-121.33s54.303-121.328 121.328-121.328c67.025 0 121.328 54.303 121.328 121.328s-54.303 121.33-121.328 121.33zM315.578 713c32.582 0 59.268-26.687 59.268-59.269s-26.686-59.268-59.268-59.268c-32.582 0-59.268 26.686-59.268 59.268s26.686 59.269 59.268 59.269z" fill="#1D1D1D" />

    </g>
</svg>