<?xml version="1.0" encoding="iso-8859-1"?>
<!DOCTYPE svg PUBLIC "-//W3C//DTD SVG 1.1//EN" "http://www.w3.org/Graphics/SVG/1.1/DTD/svg11.dtd">
<svg version="1.1" xmlns="http://www.w3.org/2000/svg" xmlns:xlink="http://www.w3.org/1999/xlink" x="0px"
	y="0px" width="511.626px" height="511.627px" viewBox="0 0 1100 1100"
	style="enable-background:new 0 0 1100 1100;" xml:space="preserve">
	<g>
		

<path transform="rotate(180 500 500) scale(0.9)" d="M965.663 470.962c-17.067 0-31.030-13.964-31.030-31.030 0-140.878-114.502-255.379-255.379-255.379h-554.2l66.715 66.715c12.102 12.102 12.102 31.648 0 43.75s-32.272 11.792-43.753 0l-113.881-113.878c-10.861-4.965-17.998-15.825-17.998-27.927 0-5.275 1.241-10.24 3.103-13.033 1.552-4.034 4.034-7.758 6.827-10.55l121.639-121.642c5.896-5.896 13.653-8.996 22.031-8.996s16.135 3.1 22.031 8.996c5.896 5.896 8.999 13.656 8.999 22.035s-3.103 16.136-8.999 22.032l-70.438 70.439h557.614c175.011 0 317.44 142.429 317.44 317.44 0 17.067-13.964 31.030-31.030 31.030h0.31zM47.477 404.244c17.067 0 31.030 13.964 31.030 31.030v4.658c0 140.878 114.502 255.378 255.378 255.378h556.994l-68.577-68.576c-5.896-5.896-8.999-13.652-8.999-22.030s3.103-16.138 8.999-22.036c11.792-11.792 32.272-11.792 43.753 0l121.328 121.331c3.103 2.793 5.275 6.205 6.827 10.239 3.103 7.447 3.103 15.826 0 23.583-1.552 4.034-4.034 7.449-6.827 10.242l-121.639 121.636c-12.102 12.102-31.651 12.102-43.753 0-5.896-5.896-8.999-13.652-8.999-22.030s3.103-16.135 8.999-22.031l68.577-68.579h-556.994c-175.010 0-317.439-142.428-317.439-317.438v-4.658c0-17.067 13.964-31.030 31.030-31.030l0.311 0.31z" fill="#1D1D1D" />

    </g>
</svg>