<?xml version="1.0" encoding="iso-8859-1"?>
<!DOCTYPE svg PUBLIC "-//W3C//DTD SVG 1.1//EN" "http://www.w3.org/Graphics/SVG/1.1/DTD/svg11.dtd">
<svg version="1.1" xmlns="http://www.w3.org/2000/svg" xmlns:xlink="http://www.w3.org/1999/xlink" x="0px"
	y="0px" width="511.626px" height="511.627px" viewBox="0 0 1100 1100"
	style="enable-background:new 0 0 1100 1100;" xml:space="preserve">
	<g>
		

<path transform="rotate(180 500 500) scale(0.9)" d="M921.323 884.722h-95.204v30.443c0 15.222-12.454 27.676-27.676 27.676s-27.676-12.454-27.676-27.676v-30.443h-525.008v30.443c0 15.222-12.454 27.676-27.676 27.676s-27.676-12.454-27.676-27.676v-30.443h-95.204c-45.665 0-83.027-37.362-83.027-83.027v-768c0-45.665 37.362-83.027 83.027-83.027h826.119c45.665 0 83.027 37.362 83.027 83.027v768c0 45.665-37.362 83.027-83.027 83.027zM218.084 757.691c15.222 0 27.676 12.454 27.676 27.676v44.004h525.008v-44.004c0-15.222 12.454-27.676 27.676-27.676s27.676 12.454 27.676 27.676v44.004h95.204c15.222 0 27.676-12.454 27.676-27.676v-768c0-15.222-12.454-27.676-27.676-27.676h-826.119c-15.222 0-27.676 12.454-27.676 27.676v768c0 15.222 12.454 27.676 27.676 27.676h95.204v-44.004c0-15.222 12.454-27.676 27.676-27.676zM427.589 401.228c17.989-11.901 38.746-17.989 62.27-17.989 6.089 0 11.901 0.277 17.436 1.107l-90.499-178.785h96.588l95.758 192.623c1.661 2.768 3.044 5.812 4.428 8.856l3.598 8.026c7.749 17.989 13.561 36.255 17.712 54.521 4.151 18.543 6.365 36.255 6.365 52.861 0 29.89-5.258 56.182-15.498 78.045-10.517 22.417-26.292 39.853-46.772 51.754-20.203 11.624-44.281 17.713-71.957 17.713s-52.030-5.812-72.234-17.159c-20.48-11.624-36.255-29.059-47.049-51.2-10.24-21.587-15.498-47.602-15.498-77.769 0-27.122 4.705-51.2 14.115-72.234 9.686-21.31 23.524-38.192 41.237-50.093v-0.277zM460.523 526.045c0 19.65 4.151 34.595 12.454 44.281 7.749 9.133 18.819 13.838 33.764 13.838s25.738-4.428 33.488-13.838c8.303-9.963 12.454-24.631 12.454-44.004 0-20.203-4.151-35.702-12.454-45.942-7.749-9.41-18.543-14.115-33.488-14.115s-26.015 4.705-33.764 14.115c-8.303 10.24-12.454 25.462-12.454 45.942v-0.277z" fill="#1D1D1D" />

    </g>
</svg>