<?xml version="1.0" encoding="iso-8859-1"?>
<!DOCTYPE svg PUBLIC "-//W3C//DTD SVG 1.1//EN" "http://www.w3.org/Graphics/SVG/1.1/DTD/svg11.dtd">
<svg version="1.1" xmlns="http://www.w3.org/2000/svg" xmlns:xlink="http://www.w3.org/1999/xlink" x="0px"
	y="0px" width="511.626px" height="511.627px" viewBox="0 0 1100 1100"
	style="enable-background:new 0 0 1100 1100;" xml:space="preserve">
	<g>
		

<path transform="rotate(180 500 500) scale(0.9)" d="M938.046 335.36c-45.925-15.825-92.781-23.893-139.947-23.893-236.141 0-428.218 192.078-428.218 428.219 0 47.166 8.068 94.022 23.893 139.947 4.034 11.481 0.931 23.58-7.447 31.958s-20.79 11.174-32.272 7.451c-197.352-68.267-329.851-254.45-329.851-462.974 0-270.274 220.005-490.279 490.278-490.279 208.524 0 394.705 132.499 462.972 329.852 3.724 11.171 0.931 23.583-7.447 31.961s-20.79 11.171-31.961 7.447v0.31zM514.482 27.85c-236.14 0-428.217 192.078-428.217 428.218 0 160.737 89.678 306.579 231.175 379.811-6.516-31.961-9.929-64.232-9.929-96.193 0-270.275 220.004-490.279 490.278-490.279 32.272 0 64.543 3.413 96.194 9.93-73.232-141.498-219.074-231.176-379.811-231.176l0.31-0.31zM988.318 602.221h-129.707v129.707c0 17.067-13.964 31.030-31.030 31.030s-31.030-13.964-31.030-31.030v-129.707h-129.707c-17.067 0-31.030-13.964-31.030-31.030s13.964-31.030 31.030-31.030h129.707v-129.707c0-17.067 13.964-31.030 31.030-31.030s31.030 13.964 31.030 31.030v129.707h129.707c17.067 0 31.030 13.964 31.030 31.030s-13.964 31.030-31.030 31.030zM462.662 769.163h71.059v-70.75c0-17.067 13.964-31.030 31.030-31.030s31.030 13.964 31.030 31.030v70.75h70.749c17.067 0 31.030 13.964 31.030 31.030s-13.964 31.030-31.030 31.030h-70.749v71.060c0 17.067-13.964 31.030-31.030 31.030s-31.030-13.964-31.030-31.030v-71.060h-71.059c-17.067 0-31.030-13.964-31.030-31.030s13.964-31.030 31.030-31.030z" fill="#1D1D1D" />

    </g>
</svg>