<?xml version="1.0" encoding="iso-8859-1"?>
<!DOCTYPE svg PUBLIC "-//W3C//DTD SVG 1.1//EN" "http://www.w3.org/Graphics/SVG/1.1/DTD/svg11.dtd">
<svg version="1.1" xmlns="http://www.w3.org/2000/svg" xmlns:xlink="http://www.w3.org/1999/xlink" x="0px"
	y="0px" width="511.626px" height="511.627px" viewBox="0 0 1100 1100"
	style="enable-background:new 0 0 1100 1100;" xml:space="preserve">
	<g>
		

<path transform="rotate(180 500 500) scale(0.9)" d="M932.394 605.751h-152.216v244.377c0 14.391-11.624 26.291-26.292 26.291h-672.796v33.488c0 15.222-12.454 27.676-27.676 27.676s-27.676-12.454-27.676-27.676v-936.822c0-15.222 12.454-27.676 27.676-27.676s27.676 12.454 27.676 27.676v35.978h564.584c13.838 0 25.185 11.347 25.185 25.185v244.376h261.535c15.222 0 27.676 12.454 27.676 27.676v272.052c0 15.222-12.454 27.676-27.676 27.676v-0.277zM81.366 59.157v219.191h539.399v-219.191h-539.399zM728.147 823.836v-218.085h-646.504v218.085h646.504zM83.027 333.699v216.701h821.968v-216.701h-821.968z" fill="#1D1D1D" />

    </g>
</svg>