<?xml version="1.0" encoding="iso-8859-1"?>
<!DOCTYPE svg PUBLIC "-//W3C//DTD SVG 1.1//EN" "http://www.w3.org/Graphics/SVG/1.1/DTD/svg11.dtd">
<svg version="1.1" xmlns="http://www.w3.org/2000/svg" xmlns:xlink="http://www.w3.org/1999/xlink" x="0px"
	y="0px" width="511.626px" height="511.627px" viewBox="0 0 1100 1100"
	style="enable-background:new 0 0 1100 1100;" xml:space="preserve">
	<g>
		

<path transform="rotate(180 500 500) scale(0.9)" d="M907.381 193.138c17.636 29.013 26.738 61.724 26.738 95.858 0 102.969-83.63 186.596-186.598 186.596s-186.596-83.627-186.596-186.596c0-34.133 9.102-66.844 26.738-95.858-32.711-25.316-59.164-58.314-76.8-95.292-17.636 37.262-44.089 70.261-76.8 95.292 17.636 29.013 26.738 62.009 26.738 95.858 0 102.969-83.627 186.596-186.594 186.596-102.969 0-186.596-83.627-186.596-186.596 0-33.849 9.102-66.844 26.738-95.858-64.569-49.778-102.684-126.293-102.684-207.644 0-19.627 15.929-35.556 35.555-35.556s35.556 15.929 35.556 35.556c0 61.44 29.298 118.329 79.36 154.453 64.569-48.924 159.857-48.924 224.426 0 49.778-36.124 79.076-93.298 79.076-154.453 0-23.040 23.324-41.244 45.511-34.133 22.756-7.111 45.511 11.093 45.511 34.133 0 61.44 29.298 118.329 79.076 154.453 64.569-48.924 159.858-48.924 224.427 0 49.778-36.124 79.078-93.298 79.078-154.453 0-19.627 15.929-35.556 35.556-35.556 19.624 0 35.556 15.929 35.556 35.556 0 81.351-38.118 157.867-102.687 207.644h-0.282zM863.007 288.996c0-63.716-51.772-115.484-115.487-115.484s-115.484 51.769-115.484 115.484c0 63.716 51.769 115.484 115.484 115.484s115.487-51.769 115.487-115.484zM389.12 288.996c0-63.716-51.769-115.484-115.484-115.484s-115.484 51.769-115.484 115.484c0 63.716 51.769 115.484 115.484 115.484s115.484-51.769 115.484-115.484zM10.809 461.369c0-19.627 15.929-35.556 35.555-35.556s35.556 15.929 35.556 35.556c0 61.44 29.298 118.329 79.076 154.453 64.569-48.924 159.858-48.924 224.711 0 49.778-36.124 79.076-93.298 79.076-154.453 0-23.040 23.324-41.244 45.511-34.133 22.756-7.111 45.511 11.093 45.511 34.133 0 61.44 29.298 118.329 79.076 154.453 64.569-48.924 159.858-48.924 224.427 0 49.778-36.124 79.076-93.298 79.076-154.453 0-19.627 15.929-35.556 35.556-35.556s35.556 15.929 35.556 35.556c0 81.351-38.116 157.867-102.684 207.644 17.636 29.014 26.738 61.725 26.738 95.858 0 102.969-83.627 186.594-186.596 186.594s-186.596-83.625-186.596-186.594c0-34.133 9.102-66.844 26.738-95.858-32.711-25.316-59.164-58.311-76.8-95.289-17.636 37.262-44.089 69.973-76.8 95.289 17.636 29.014 26.738 62.009 26.738 95.858 0 102.969-83.627 186.594-186.596 186.594s-186.596-83.625-186.596-186.594c0-33.849 9.102-66.844 26.738-95.858-64.569-49.778-102.684-126.293-102.684-207.644h-0.285zM157.866 764.871c0 63.716 51.769 115.483 115.484 115.483s115.485-51.767 115.485-115.483c0-63.716-51.769-115.485-115.485-115.485s-115.484 51.769-115.484 115.485zM631.751 764.871c0 63.716 51.769 115.483 115.484 115.483s115.484-51.767 115.484-115.483c0-63.716-51.769-115.485-115.484-115.485s-115.484 51.769-115.484 115.485z" fill="#1D1D1D" />

    </g>
</svg>