<?xml version="1.0" encoding="iso-8859-1"?>
<!DOCTYPE svg PUBLIC "-//W3C//DTD SVG 1.1//EN" "http://www.w3.org/Graphics/SVG/1.1/DTD/svg11.dtd">
<svg version="1.1" xmlns="http://www.w3.org/2000/svg" xmlns:xlink="http://www.w3.org/1999/xlink" x="0px"
	y="0px" width="511.626px" height="511.627px" viewBox="0 0 1100 1100"
	style="enable-background:new 0 0 1100 1100;" xml:space="preserve">
	<g>
		

<path transform="rotate(180 500 500) scale(0.9)" d="M851.304 285.267c-52.584 0-101.57-24.631-133.397-66.145l-371.961 183.213c4.705 15.775 7.196 32.104 7.196 48.432 0 14.945-2.214 30.166-6.365 44.835l371.961 185.704c31.827-40.96 80.536-65.315 132.566-65.315 92.437 0 167.715 75.278 167.715 167.715s-75.278 167.715-167.715 167.715c-92.437 0-167.715-75.278-167.715-167.715 0-14.945 2.214-29.89 6.089-44.558l-371.961-185.704c-31.827 40.96-80.536 65.038-132.566 65.038-92.437 0-167.714-75.278-167.714-167.715s75.278-167.715 167.714-167.715c50.646 0 98.525 22.971 130.076 62.27l373.622-184.32c-3.875-14.391-5.812-29.059-5.812-43.728 0-92.437 75.278-167.715 167.715-167.715s167.715 75.278 167.715 167.715c0 92.437-75.278 167.715-167.715 167.715l0.554 0.277zM851.304 14.322c-56.735 0-103.23 46.218-103.23 103.23s46.218 103.23 103.23 103.23c57.012 0 103.23-46.218 103.23-103.23s-46.218-103.23-103.23-103.23zM288.657 450.768c0-56.735-46.218-103.23-103.23-103.23s-103.231 46.218-103.231 103.23c0 57.012 46.219 103.23 103.231 103.23s103.23-46.218 103.23-103.23zM748.627 783.706c0 56.735 46.218 103.23 103.23 103.23s103.23-46.218 103.23-103.23c0-57.012-46.218-102.954-103.23-102.954s-103.23 46.218-103.23 102.954z" fill="#1D1D1D" />

    </g>
</svg>