<?xml version="1.0" encoding="iso-8859-1"?>
<!DOCTYPE svg PUBLIC "-//W3C//DTD SVG 1.1//EN" "http://www.w3.org/Graphics/SVG/1.1/DTD/svg11.dtd">
<svg version="1.1" xmlns="http://www.w3.org/2000/svg" xmlns:xlink="http://www.w3.org/1999/xlink" x="0px"
	y="0px" width="511.626px" height="511.627px" viewBox="0 0 1100 1100"
	style="enable-background:new 0 0 1100 1100;" xml:space="preserve">
	<g>
		

<path transform="rotate(180 500 500) scale(0.9)" d="M129.798 851.236c-10.794 10.794-28.229 10.794-39.023 0s-10.794-28.229 0-39.023l120.943-120.943c-67.252-33.488-127.585-76.385-178.785-127.86-10.793-10.794-10.793-28.229 0-39.023 10.517-10.517 28.783-10.517 39.023 0 51.754 51.754 112.64 94.095 180.999 125.646l68.914-68.913c-69.744-27.399-132.291-68.079-185.428-121.493-10.794-10.794-10.794-28.229 0-39.023s28.229-10.794 39.022 0c53.691 53.691 117.623 92.988 189.857 117.065l93.544-93.544c-76.662-12.731-147.788-49.263-202.864-104.061-10.794-10.794-10.794-28.229 0-39.023s28.23-10.794 39.024 0c57.289 57.289 133.12 90.223 213.933 92.99l340.134-340.131c5.258-5.258 12.177-8.029 19.65-8.029s14.391 2.77 19.65 8.029c10.794 10.794 10.794 28.229 0 39.023l-758.591 758.312zM520.579 77.423c63.585 0 115.131 51.546 115.131 115.131s-51.546 115.131-115.131 115.131c-63.585 0-115.131-51.546-115.131-115.131s51.546-115.131 115.131-115.131zM520.577 618.76c-26.569 0-54.521-2.491-85.518-7.196l-26.845-4.151 48.432-48.434 6.642 0.83c21.31 2.491 40.13 3.598 57.565 3.598 130.352 0 252.956-50.646 345.116-143.083 5.258-5.258 12.177-8.026 19.65-8.026s14.391 2.768 19.65 8.026c10.794 10.794 10.794 28.229 0 39.023-102.677 102.677-239.118 159.136-384.415 159.136l-0.277 0.277zM1008.778 563.41c-182.659 182.658-449.73 247.419-697.15 169.097l-21.864-6.919 43.728-43.727 7.749 2.214c223.343 65.315 464.121 4.151 627.961-159.967 5.258-5.258 12.177-8.026 19.65-8.026s14.391 2.768 19.65 8.026c10.794 10.794 10.794 28.229 0 39.023l0.277 0.28zM746.136 300.765c5.258-5.258 12.177-8.026 19.65-8.026s14.391 2.768 19.65 8.026c10.794 10.794 10.794 28.229 0 39.023-46.772 46.772-105.444 80.259-170.205 97.142l-49.263 12.731 80.813-80.813 4.151-2.768c35.978-16.052 68.082-38.192 95.204-65.315z" fill="#1D1D1D" />

    </g>
</svg>