<?xml version="1.0" encoding="iso-8859-1"?>
<!DOCTYPE svg PUBLIC "-//W3C//DTD SVG 1.1//EN" "http://www.w3.org/Graphics/SVG/1.1/DTD/svg11.dtd">
<svg version="1.1" xmlns="http://www.w3.org/2000/svg" xmlns:xlink="http://www.w3.org/1999/xlink" x="0px"
	y="0px" width="511.626px" height="511.627px" viewBox="0 0 1100 1100"
	style="enable-background:new 0 0 1100 1100;" xml:space="preserve">
	<g>
		

<path transform="rotate(180 500 500) scale(0.9)" d="M1020.587-13.938l2.56 611.271-0.569 4.551c-0.284 2.56-1.138 4.836-2.276 7.396-0.853 1.991-1.138 1.991-0.853 1.707l-2.276 3.982c-1.422 1.991-3.129 3.413-4.551 4.267l-484.693 296.961c-9.102 5.689-20.48 5.404-29.582 0l-481.281-294.401c0 0-2.559-1.707-3.981-2.844l-6.259-5.973v-1.422c-2.56-4.267-3.698-9.102-3.698-14.222v-612.409c0 0 0.854-1.422 0.854-2.276v-3.698l6.542-10.237h1.991c1.991-1.991 4.551-3.416 7.111-4.554 3.413-1.707 7.111-2.557 10.809-2.557h963.982c3.982 0 7.68 0.85 11.378 2.273l2.56 1.425c1.707 0.853 3.413 2.273 5.404 3.979l6.542 9.102v7.68l-12.231 1.991 12.231-1.707 0.284-0.284zM612.693 276.764l304.64-258.844h-807.538l308.623 258.844h194.276zM668.16 304.356l298.098 234.382v-487.538l-298.098 253.156zM613.262 333.653h-195.413l-336.213 260.838 431.502 263.962 431.787-264.249-331.662-260.551zM362.667 304.356l-302.649-253.722v488.673l302.649-234.951zM1020.587-14.222l1.991-0.284v0.284l-1.991 0.284v-0.284z" fill="#1D1D1D" />

    </g>
</svg>