<?xml version="1.0" encoding="iso-8859-1"?>
<!DOCTYPE svg PUBLIC "-//W3C//DTD SVG 1.1//EN" "http://www.w3.org/Graphics/SVG/1.1/DTD/svg11.dtd">
<svg version="1.1" xmlns="http://www.w3.org/2000/svg" xmlns:xlink="http://www.w3.org/1999/xlink" x="0px"
	y="0px" width="511.626px" height="511.627px" viewBox="0 0 1100 1100"
	style="enable-background:new 0 0 1100 1100;" xml:space="preserve">
	<g>
		

<path transform="rotate(180 500 500) scale(0.9)" d="M244.479 921.6c-124.16 0-225.6-101.119-225.6-225.279s101.12-225.6 225.6-225.6c124.481 0 225.601 101.12 225.601 225.6s-101.12 225.279-225.601 225.279zM82.879 696.32c0 88.96 72.32 161.279 161.6 161.279s161.601-72.319 161.601-161.279c0-88.96-72.32-161.6-161.601-161.6s-161.6 72.32-161.6 161.6zM768 470.72c124.16 0 225.6 101.12 225.6 225.6s-101.12 225.279-225.6 225.279c-124.48 0-225.28-101.119-225.28-225.279s101.12-225.6 225.28-225.6zM768 857.6c88.96 0 161.6-72.319 161.6-161.279s-72.32-161.6-161.6-161.6c-89.28 0-161.28 72.32-161.28 161.6s72.32 161.279 161.28 161.279zM244.479 409.92c-124.16 0-225.6-101.12-225.6-225.6s101.12-225.28 225.6-225.28c124.481 0 225.601 101.12 225.601 225.28s-101.12 225.6-225.601 225.6zM82.879 184.32c0 88.96 72.32 161.6 161.6 161.6s161.601-72.32 161.601-161.6c0-89.28-72.32-161.28-161.601-161.28s-161.6 72.32-161.6 161.28zM768 409.92c-124.16 0-225.28-101.12-225.28-225.6s101.12-225.28 225.28-225.28c124.16 0 225.6 101.12 225.6 225.28s-101.12 225.6-225.6 225.6zM768 345.92c88.96 0 161.6-72.32 161.6-161.6s-72.32-161.28-161.6-161.28c-89.28 0-161.28 72.32-161.28 161.28s72.32 161.6 161.28 161.6z" fill="#1D1D1D" />

    </g>
</svg>