<?xml version="1.0" encoding="iso-8859-1"?>
<!DOCTYPE svg PUBLIC "-//W3C//DTD SVG 1.1//EN" "http://www.w3.org/Graphics/SVG/1.1/DTD/svg11.dtd">
<svg version="1.1" xmlns="http://www.w3.org/2000/svg" xmlns:xlink="http://www.w3.org/1999/xlink" x="0px"
	y="0px" width="511.626px" height="511.627px" viewBox="0 0 1100 1100"
	style="enable-background:new 0 0 1100 1100;" xml:space="preserve">
	<g>
		

<path transform="rotate(180 500 500) scale(0.9)" d="M520.856 942.287c-273.435 0-496.224-222.512-496.224-496.224s222.512-496.225 496.224-496.225c273.712 0 496.225 222.512 496.225 496.225s-222.512 496.224-496.225 496.224zM520.856 886.936c242.992 0 440.874-197.604 440.874-440.873s-197.881-440.874-440.874-440.874c-242.992 0-440.873 197.604-440.873 440.874s197.604 440.873 440.873 440.873zM319.377 244.861c10.517-10.517 28.783-10.517 39.023 0l162.179 162.179 162.179-162.179c5.258-5.258 12.177-8.026 19.65-8.026s14.391 2.768 19.65 8.026c10.794 10.794 10.794 28.229 0 39.023l-162.179 162.179 162.179 162.179c10.794 10.794 10.794 28.229 0 39.023s-28.229 10.794-39.023 0l-162.179-162.179-162.182 162.179c-10.794 10.794-28.229 10.794-39.023 0s-10.794-28.229 0-39.023l162.182-162.179-162.182-162.179c-10.794-10.794-10.794-28.229 0-39.023h-0.274z" fill="#1D1D1D" />

    </g>
</svg>