<?xml version="1.0" encoding="iso-8859-1"?>
<!DOCTYPE svg PUBLIC "-//W3C//DTD SVG 1.1//EN" "http://www.w3.org/Graphics/SVG/1.1/DTD/svg11.dtd">
<svg version="1.1" xmlns="http://www.w3.org/2000/svg" xmlns:xlink="http://www.w3.org/1999/xlink" x="0px"
	y="0px" width="511.626px" height="511.627px" viewBox="0 0 1100 1100"
	style="enable-background:new 0 0 1100 1100;" xml:space="preserve">
	<g>
		

<path transform="rotate(180 500 500) scale(0.9)" d="M706.844 834.561h-504.606c-29.867 0-54.044-24.179-54.044-54.045v-816.356c0-11.093 6.542-21.049 16.782-25.316 3.413-1.422 7.111-2.276 10.809-2.276 7.111 0 14.222 2.844 19.342 7.964l259.414 256.284 259.413-256.569c7.964-7.68 19.627-9.956 29.867-5.689s16.782 14.222 16.782 25.316v816.355c0 29.867-24.178 54.045-54.044 54.045l0.284 0.285zM203.092 29.867l-0.853 749.512 503.468 0.852v-750.364l-232.107 229.262c-10.24 10.24-28.16 10.24-38.684 0l-232.108-229.262h0.284zM811.233 955.45h-504.603c-15.076 0-27.591-12.232-27.591-27.592s12.231-27.591 27.591-27.591l503.466 0.852v-816.355c0-15.076 12.231-27.591 27.591-27.591s27.591 12.231 27.591 27.591v816.355c0 29.867-24.178 54.045-54.044 54.045v0.285z" fill="#1D1D1D" />

    </g>
</svg>