<?xml version="1.0" encoding="iso-8859-1"?>
<!DOCTYPE svg PUBLIC "-//W3C//DTD SVG 1.1//EN" "http://www.w3.org/Graphics/SVG/1.1/DTD/svg11.dtd">
<svg version="1.1" xmlns="http://www.w3.org/2000/svg" xmlns:xlink="http://www.w3.org/1999/xlink" x="0px"
	y="0px" width="511.626px" height="511.627px" viewBox="0 0 1100 1100"
	style="enable-background:new 0 0 1100 1100;" xml:space="preserve">
	<g>
		

<path transform="rotate(180 500 500) scale(0.9)" d="M914.237 810.879h-363.837v106.883c0 17.6-14.083 32-31.363 32s-31.36-14.4-31.36-32v-106.883h-363.839c-51.52 0-93.439-43.2-93.439-96v-544.319c0-52.8 41.919-96 93.439-96h147.52l-80-81.28c-12.16-12.16-12.16-32.32-0.32-44.8s32.961-12.48 44.801-0.32l124.479 126.4h316.8l122.24-126.4c6.080-6.080 14.080-9.6 22.4-9.6s16.32 3.52 22.4 9.6c12.16 12.48 12.16 32.64 0 44.8l-78.72 81.277h148.8c51.52 0 93.44 43.2 93.44 96v544.322c0 52.8-41.92 96-93.44 96v0.32zM123.838 746.879h790.399c16.64 0 30.403-14.4 30.403-32v-544.319c0-17.6-13.763-32-30.403-32h-790.399c-16.64 0-30.4 14.4-30.4 32v544.319c0 17.6 13.76 32 30.4 32zM233.277 234.237c17.28 0 31.361 14.4 31.361 32v176.643c0 17.6-14.081 32-31.361 32s-31.359-14.4-31.359-32v-176.643c0-17.6 14.079-32 31.359-32zM519.040 234.237c17.28 0 31.36 14.4 31.36 32v294.403c0 17.6-14.080 32-31.36 32s-31.36-14.4-31.36-32v-294.403c0-17.6 14.080-32 31.36-32zM806.4 234.237c17.28 0 31.36 14.4 31.36 32v387.525c0 17.6-14.080 32-31.36 32s-31.36-14.4-31.36-32v-387.525c0-17.6 14.080-32 31.36-32z" fill="#1D1D1D" />

    </g>
</svg>