<?xml version="1.0" encoding="iso-8859-1"?>
<!DOCTYPE svg PUBLIC "-//W3C//DTD SVG 1.1//EN" "http://www.w3.org/Graphics/SVG/1.1/DTD/svg11.dtd">
<svg version="1.1" xmlns="http://www.w3.org/2000/svg" xmlns:xlink="http://www.w3.org/1999/xlink" x="0px"
	y="0px" width="511.626px" height="511.627px" viewBox="0 0 1100 1100"
	style="enable-background:new 0 0 1100 1100;" xml:space="preserve">
	<g>
		

<path transform="rotate(180 500 500) scale(0.9)" d="M974.972 12.955h-103.641v823.545c0 51.2-41.891 93.091-93.091 93.091h-489.349c-51.2 0-93.091-41.891-93.091-93.091v-823.545h-139.016c-17.067 0-31.030-13.964-31.030-31.030s13.964-31.030 31.030-31.030h918.498c17.067 0 31.030 13.964 31.030 31.030s-13.964 31.030-31.030 31.030h-0.31zM288.581 867.53h489.349c17.067 0 31.030-13.964 31.030-31.030v-823.545h-551.41v823.545c0 17.067 13.964 31.030 31.030 31.030zM718.969 393.387c25.755 0 46.856 21.101 46.856 46.856s-21.101 46.856-46.856 46.856c-25.755 0-46.856-21.101-46.856-46.856s21.101-46.856 46.856-46.856z" fill="#1D1D1D" />

    </g>
</svg>