<?xml version="1.0" encoding="iso-8859-1"?>
<!DOCTYPE svg PUBLIC "-//W3C//DTD SVG 1.1//EN" "http://www.w3.org/Graphics/SVG/1.1/DTD/svg11.dtd">
<svg version="1.1" xmlns="http://www.w3.org/2000/svg" xmlns:xlink="http://www.w3.org/1999/xlink" x="0px"
	y="0px" width="511.626px" height="511.627px" viewBox="0 0 1100 1100"
	style="enable-background:new 0 0 1100 1100;" xml:space="preserve">
	<g>
		

<path transform="rotate(180 500 500) scale(0.9)" d="M477.129 434.992c46.495 34.595 74.448 88.839 74.448 147.788 0 101.846-82.75 184.597-184.597 184.597-101.845 0-184.596-82.75-184.596-184.597 0-59.225 27.952-113.47 74.448-147.788-138.102-46.772-231.922-175.741-231.922-323.529 0-15.222 12.454-27.676 27.676-27.676s27.676 12.454 27.676 27.676c0 158.305 128.692 286.997 286.719 286.997s286.997-128.692 286.997-286.997c0-15.222 12.454-27.676 27.676-27.676s27.676 12.454 27.676 27.676c0 148.065-93.821 276.757-231.922 323.529h-0.277zM366.703 712.302c71.403 0 129.245-58.119 129.245-129.245s-58.119-129.245-129.245-129.245c-71.126 0-129.245 58.119-129.245 129.245s58.118 129.245 129.245 129.245zM989.408 652.799h-119.836v119.836c0 15.222-12.454 27.676-27.676 27.676s-27.676-12.454-27.676-27.676v-119.836h-119.836c-15.222 0-27.676-12.454-27.676-27.676s12.454-27.676 27.676-27.676h119.836v-119.835c0-15.222 12.454-27.676 27.676-27.676s27.676 12.454 27.676 27.676v119.835h119.836c15.222 0 27.676 12.454 27.676 27.676s-12.454 27.676-27.676 27.676z" fill="#1D1D1D" />

    </g>
</svg>