<?xml version="1.0" encoding="iso-8859-1"?>
<!DOCTYPE svg PUBLIC "-//W3C//DTD SVG 1.1//EN" "http://www.w3.org/Graphics/SVG/1.1/DTD/svg11.dtd">
<svg version="1.1" xmlns="http://www.w3.org/2000/svg" xmlns:xlink="http://www.w3.org/1999/xlink" x="0px"
	y="0px" width="511.626px" height="511.627px" viewBox="0 0 1100 1100"
	style="enable-background:new 0 0 1100 1100;" xml:space="preserve">
	<g>
		

<path transform="rotate(180 500 500) scale(0.9)" d="M987.387 14.196l-230.558 235.83c63.612 75.714 98.366 170.667 98.366 269.033 0 231.177-188.044 419.221-419.219 419.221-231.174 0-419.218-188.044-419.218-419.221s188.044-419.219 419.218-419.219c102.71 0 200.769 37.239 277.414 105.506l229.621-234.592c5.896-5.896 13.653-9.312 22.342-9.312s15.825 3.106 21.721 9.002c12.102 12.102 12.412 31.651 0.621 43.753h-0.307zM435.976 161.901c-197.041 0-357.158 160.116-357.158 357.159s160.117 357.16 357.158 357.16c197.042 0 357.159-160.117 357.159-357.16 0-93.401-35.685-181.838-100.848-248.553-67.956-69.818-158.875-108.296-256.31-108.296v-0.31z" fill="#1D1D1D" />

    </g>
</svg>