<?xml version="1.0" encoding="iso-8859-1"?>
<!DOCTYPE svg PUBLIC "-//W3C//DTD SVG 1.1//EN" "http://www.w3.org/Graphics/SVG/1.1/DTD/svg11.dtd">
<svg version="1.1" xmlns="http://www.w3.org/2000/svg" xmlns:xlink="http://www.w3.org/1999/xlink" x="0px"
	y="0px" width="511.626px" height="511.627px" viewBox="0 0 1100 1100"
	style="enable-background:new 0 0 1100 1100;" xml:space="preserve">
	<g>
		

<path transform="rotate(180 500 500) scale(0.9)" d="M989.959 476.506l-358.954 195.667v149.449c0 33.764-13.008 65.038-36.532 88.285-22.971 22.971-55.075 36.255-87.732 36.255-68.636 0-124.541-55.905-124.541-124.541v-151.663l-355.632-193.453c-8.856-4.982-14.391-14.115-14.391-24.355v-91.883c0-8.579 4.151-16.605 10.794-21.864 6.642-4.982 14.668-7.196 24.078-4.982l335.152 89.392v-192.623l-70.019-42.897c-8.303-4.982-13.284-14.115-13.284-24.078l2.214-182.383c0-9.963 5.535-19.096 14.391-23.801 8.579-4.705 19.373-4.428 27.676 0.554l165.224 100.739 165.224-100.739c4.428-2.768 9.41-4.151 14.391-4.151 4.705 0 9.41 1.107 13.284 3.321 8.579 4.705 14.115 13.838 14.391 23.801l2.214 182.383c0 9.686-4.982 18.819-13.284 23.801l-73.341 44.835v191.516l338.75-90.499c8.579-2.214 17.159 0 23.801 4.982 6.919 5.258 10.794 13.284 10.794 21.864v91.883c0 10.24-5.535 19.373-14.391 24.355l-0.277 0.83zM355.632 30.651l-1.384 118.175 70.019 42.897 2.491 1.937c0 0 2.768 2.214 4.151 3.875 1.107 1.384 1.937 2.768 3.044 4.151l2.214 4.705c0.554 1.661 0.83 3.598 0.83 4.151l0.554 2.768v248.251l-1.661 6.642c-0.83 2.491-1.937 4.428-2.491 5.258l-2.768 3.875c-1.661 1.937-3.044 3.044-4.705 4.151l-3.321 2.214c-2.214 1.107-4.428 1.661-5.812 2.214-1.384 0.277-3.044 0.83-2.214 0.554l-4.705 0.83c-1.384 0-2.768 0-3.598-0.277l-338.75-89.946v39.299l355.632 193.73 3.321 2.214c0 0 2.491 1.937 4.151 3.875l5.258 8.856c0.83 2.214 1.107 3.875 1.107 4.428l0.83 172.973c0 38.192 30.997 69.189 69.189 69.189 18.266 0 35.978-7.472 48.986-20.203s20.203-30.166 20.203-48.986v-166.054l1.937-9.686c0.554-1.661 1.384-3.044 2.491-4.982l2.768-3.875c1.661-1.661 3.044-3.044 3.321-3.044l362.828-198.435v-39.299l-338.75 90.499c-1.661 0.277-3.044 0.554-2.768 0.277l-4.151 0.554c-1.937 0-3.321-0.277-2.491-0.277l-3.875-0.83c-1.661-0.277-3.875-1.107-6.089-2.214l-3.321-2.214c-1.384-1.107-3.321-2.491-4.982-4.428l-2.491-3.598c0 0-1.384-2.214-1.937-3.875l-1.384-3.875c-0.554-1.937-0.277-2.768 0-2.491l-0.554-247.144v-1.384l0.277-1.661c0-1.937 0.554-3.598 1.384-5.812 0.554-1.661 1.107-3.044 2.214-4.705l2.768-4.151c1.661-2.214 3.044-3.044 3.044-2.768l76.662-47.602-1.384-118.175-137.271 83.581c-4.151 2.491-8.856 3.875-13.008 3.875-0.554 0-1.107 0-1.384 0-5.812 0.277-11.347-0.83-16.052-3.875l-137.271-83.857-1.107-0.277z" fill="#1D1D1D" />

    </g>
</svg>