<?xml version="1.0" encoding="iso-8859-1"?>
<!DOCTYPE svg PUBLIC "-//W3C//DTD SVG 1.1//EN" "http://www.w3.org/Graphics/SVG/1.1/DTD/svg11.dtd">
<svg version="1.1" xmlns="http://www.w3.org/2000/svg" xmlns:xlink="http://www.w3.org/1999/xlink" x="0px"
	y="0px" width="511.626px" height="511.627px" viewBox="0 0 1100 1100"
	style="enable-background:new 0 0 1100 1100;" xml:space="preserve">
	<g>
		

<path transform="rotate(180 500 500) scale(0.9)" d="M628.8 935.359h-212.48c-66.24 0-120.32-50.24-120.32-112v-308.159c0-8.96 7.040-16 16-16s16 7.040 16 16v308.159c0 44.16 39.68 80 88.32 80h212.48c48.64 0 88.32-35.84 88.32-80v-308.159c0-8.96 7.040-16 16-16s16 7.040 16 16v308.159c0 61.76-54.080 112-120.32 112zM733.12 483.52c-17.6 0-32 14.4-32 32v308.16c0 35.2-32.32 64-72.32 64h-212.48c-40 0-72.32-28.8-72.32-64v-308.16c0-17.6-14.4-32-32-32s-32 14.4-32 32v308.16c0 70.72 61.12 128 136.32 128h212.48c75.2 0 136.32-57.28 136.32-128v-308.16c0-17.6-14.4-32-32-32zM416.32 919.68c-57.6 0-104.32-43.2-104.32-96 0 52.8 46.72 96 104.32 96h212.48c57.6 0 104.32-43.2 104.32-96 0 52.8-46.72 96-104.32 96h-212.48zM732.48 391.040c-8.96 0-16-7.040-16-16v-309.44c0-44.16-39.36-80-88-80h-211.839c-48.64 0-88 35.84-88 80v309.44c0 8.96-7.040 16-16 16s-16-7.040-16-16v-309.44c0-61.76 53.76-112 120-112h211.839c66.24 0 120 50.24 120 112v309.44c0 8.96-7.040 16-16 16zM628.48-62.4h-211.839c-74.88 0-136 57.28-136 128v309.44c0 17.6 14.4 32 32 32s32-14.4 32-32v-309.44c0-35.2 32.32-64 72-64h211.839c39.68 0 72 28.8 72 64v309.44c0 17.6 14.4 32 32 32s32-14.4 32-32v-309.44c0-70.72-61.12-128-136-128zM312.641 65.6c0-52.8 46.72-96 104-96h211.839c57.28 0 104 43.2 104 96 0-52.8-46.72-96-104-96h-211.839c-57.28 0-104 43.2-104 96zM732.8 391.040v0zM538.559 234.237v420.482c0 8.96-7.040 16-16 16s-16-7.040-16-16v-420.482c0-8.96 7.040-16 16-16s16 7.040 16 16zM522.559 202.237c-17.6 0-32 14.4-32 32v420.482c0 17.6 14.4 32 32 32s32-14.4 32-32v-420.482c0-17.6-14.4-32-32-32z" fill="#1D1D1D" />

    </g>
</svg>