<?xml version="1.0" encoding="iso-8859-1"?>
<!DOCTYPE svg PUBLIC "-//W3C//DTD SVG 1.1//EN" "http://www.w3.org/Graphics/SVG/1.1/DTD/svg11.dtd">
<svg version="1.1" xmlns="http://www.w3.org/2000/svg" xmlns:xlink="http://www.w3.org/1999/xlink" x="0px"
	y="0px" width="511.626px" height="511.627px" viewBox="0 0 1100 1100"
	style="enable-background:new 0 0 1100 1100;" xml:space="preserve">
	<g>
		

<path transform="rotate(180 500 500) scale(0.9)" d="M503.122 957.612c-193.535 0-351.23-157.697-351.23-351.234 0-181.589 137.898-331.776 317.098-349.184v-268.629c0-18.773 15.359-34.133 34.132-34.133s34.133 15.36 34.133 34.133v268.629c179.2 17.408 317.099 167.595 317.099 349.184 0 193.536-157.696 351.234-351.232 351.234zM503.122 889.346c155.989 0 282.965-126.977 282.965-282.967s-126.976-282.965-282.965-282.965c-155.988 0-282.964 126.976-282.964 282.965s126.975 282.967 282.964 282.967z" fill="#1D1D1D" />

    </g>
</svg>