<?xml version="1.0" encoding="iso-8859-1"?>
<!DOCTYPE svg PUBLIC "-//W3C//DTD SVG 1.1//EN" "http://www.w3.org/Graphics/SVG/1.1/DTD/svg11.dtd">
<svg version="1.1" xmlns="http://www.w3.org/2000/svg" xmlns:xlink="http://www.w3.org/1999/xlink" x="0px"
	y="0px" width="511.626px" height="511.627px" viewBox="0 0 1100 1100"
	style="enable-background:new 0 0 1100 1100;" xml:space="preserve">
	<g>
		

<path transform="rotate(180 500 500) scale(0.9)" d="M518.824 929.902c-269.653 0-489.346-219.385-489.346-489.349s219.383-489.348 489.346-489.348c269.964 0 489.348 219.384 489.348 489.348s-219.384 489.349-489.348 489.349zM518.824 867.841c235.52 0 427.287-191.768 427.287-427.288s-191.767-427.287-427.287-427.287c-235.52 0-427.286 191.767-427.286 427.287s191.766 427.288 427.286 427.288zM518.827 409.522h288.272c17.067 0 31.030 13.964 31.030 31.030s-13.964 31.030-31.030 31.030h-257.241v294.167c0 17.067-13.964 31.030-31.030 31.030s-31.030-13.964-31.030-31.030v-325.197c0-17.067 13.964-31.030 31.030-31.030z" fill="#1D1D1D" />

    </g>
</svg>