<?xml version="1.0" encoding="iso-8859-1"?>
<!DOCTYPE svg PUBLIC "-//W3C//DTD SVG 1.1//EN" "http://www.w3.org/Graphics/SVG/1.1/DTD/svg11.dtd">
<svg version="1.1" xmlns="http://www.w3.org/2000/svg" xmlns:xlink="http://www.w3.org/1999/xlink" x="0px"
	y="0px" width="511.626px" height="511.627px" viewBox="0 0 1100 1100"
	style="enable-background:new 0 0 1100 1100;" xml:space="preserve">
	<g>
		

<path transform="rotate(180 500 500) scale(0.9)" d="M851.027 217.738c30.997 27.122 48.709 65.868 48.709 107.658 0 79.706-64.761 144.744-144.744 144.744s-144.744-64.761-144.744-144.744c0-41.79 17.989-80.536 48.709-107.658-61.163-24.078-110.979-70.296-139.762-129.245-28.506 58.396-77.769 103.784-138.378 127.585 30.72 27.122 48.432 65.315 48.432 106.828 0 79.429-64.484 143.914-143.914 143.914s-143.914-64.484-143.914-143.914c0-41.514 17.712-79.983 48.432-107.105-98.249-39.023-164.946-134.781-164.946-242.162 0-15.222 12.454-27.676 27.676-27.676s27.676 12.454 27.676 27.676c0 113.194 92.159 205.077 205.076 205.077s205.077-92.16 205.077-205.077c0-14.391 11.070-26.015 26.569-27.399h3.321c15.222-0.277 27.676 12.177 27.676 27.399 0 114.024 92.714 206.737 206.737 206.737s206.737-92.714 206.737-206.737c0-15.222 12.454-27.676 27.676-27.676s27.676 12.454 27.676 27.676c0 107.935-66.975 204.523-166.054 243.546l0.277 0.554zM755.269 414.789c49.263 0 89.392-40.13 89.392-89.392s-40.13-89.392-89.392-89.392c-49.263 0-89.392 40.13-89.392 89.392s40.13 89.392 89.392 89.392zM285.89 411.745c48.709 0 88.562-39.853 88.562-88.562s-39.853-88.562-88.562-88.562c-48.709 0-88.562 39.853-88.562 88.562s39.854 88.562 88.562 88.562zM52.858 414.236c15.222 0 27.676 12.454 27.676 27.676 0 113.747 92.714 206.461 206.46 206.461s206.463-92.714 206.463-206.461c0-15.222 12.454-27.676 27.676-27.676 7.472 0 14.665 3.044 19.647 8.026 5.535 5.258 8.579 12.454 8.579 19.926 0 113.747 92.437 206.184 206.184 206.184s206.184-92.437 206.184-206.184c0-15.222 12.454-27.676 27.676-27.676s27.676 12.454 27.676 27.676c0 107.935-66.975 204.246-165.777 243.269 30.997 27.122 48.712 65.592 48.712 107.382 0 79.706-64.764 144.467-144.47 144.467s-144.464-64.761-144.464-144.467c0-41.79 17.712-80.26 48.709-107.382-60.333-23.801-109.596-69.189-138.378-127.308-28.783 57.842-78.045 103.23-138.378 127.032 30.997 27.122 48.706 65.868 48.706 107.658 0 79.706-64.761 144.467-144.467 144.467-79.705 0-144.467-64.761-144.467-144.467 0-41.79 17.713-80.536 48.709-107.658-99.079-39.023-166.054-135.611-166.054-243.269 0-15.222 12.454-27.676 27.676-27.676h-0.277zM286.994 882.231c49.263 0 89.118-40.13 89.118-89.116s-40.132-89.116-89.118-89.116c-48.985 0-89.114 40.13-89.114 89.116s40.129 89.116 89.114 89.116zM755.543 882.231c48.986 0 89.118-39.853 89.118-89.116s-39.856-89.116-89.118-89.116c-49.263 0-89.113 39.853-89.113 89.116s39.85 89.116 89.113 89.116z" fill="#1D1D1D" />

    </g>
</svg>