<?xml version="1.0" encoding="iso-8859-1"?>
<!DOCTYPE svg PUBLIC "-//W3C//DTD SVG 1.1//EN" "http://www.w3.org/Graphics/SVG/1.1/DTD/svg11.dtd">
<svg version="1.1" xmlns="http://www.w3.org/2000/svg" xmlns:xlink="http://www.w3.org/1999/xlink" x="0px"
	y="0px" width="511.626px" height="511.627px" viewBox="0 0 1100 1100"
	style="enable-background:new 0 0 1100 1100;" xml:space="preserve">
	<g>
		

<path transform="rotate(180 500 500) scale(0.9)" d="M507.966 865.356c-269.654 0-489.349-219.381-489.349-489.343 0-3.413 0.621-6.83 1.862-10.243v-237.999c0-51.2 41.891-93.091 93.091-93.091h47.787c51.2 0 93.091 41.891 93.091 93.091v187.11c0 51.2-41.891 93.091-93.091 93.091h-78.817c16.136 223.107 200.145 395.635 425.426 395.635s409.29-172.528 425.425-395.635h-78.817c-51.2 0-93.091-41.891-93.091-93.091v-187.11c0-51.2 41.891-93.091 93.091-93.091h47.787c51.2 0 93.091 41.891 93.091 93.091v237.999c1.241 3.413 1.862 6.83 1.862 10.243 0 269.652-219.384 489.343-489.348 489.343zM854.575 345.6h78.817v-218.143c0-17.067-13.964-31.030-31.030-31.030h-47.787c-17.067 0-31.030 13.964-31.030 31.030v187.113c0 17.067 13.964 31.030 31.030 31.030zM192.387 127.457c0-17.067-13.964-31.030-31.030-31.030h-47.787c-17.067 0-31.030 13.964-31.030 31.030v218.143h78.817c17.067 0 31.030-13.964 31.030-31.030v-187.113z" fill="#1D1D1D" />

    </g>
</svg>