<?xml version="1.0" encoding="iso-8859-1"?>
<!DOCTYPE svg PUBLIC "-//W3C//DTD SVG 1.1//EN" "http://www.w3.org/Graphics/SVG/1.1/DTD/svg11.dtd">
<svg version="1.1" xmlns="http://www.w3.org/2000/svg" xmlns:xlink="http://www.w3.org/1999/xlink" x="0px"
	y="0px" width="511.626px" height="511.627px" viewBox="0 0 1100 1100"
	style="enable-background:new 0 0 1100 1100;" xml:space="preserve">
	<g>
		

<path transform="rotate(180 500 500) scale(0.9)" d="M740.38 849.53c-76.335 68.267-174.701 99.921-277.721 88.439-163.84-17.997-295.408-150.187-313.095-314.027-10.24-94.953 16.757-188.044 76.335-261.896 48.718-60.509 74.472-130.017 74.472-201.076 0-17.067 13.964-31.030 31.030-31.030h343.505c17.067 0 31.030 13.964 31.030 31.030 0 71.37 25.445 141.498 71.68 197.663 52.131 63.302 80.989 143.67 80.989 225.59 0 101.158-43.132 197.664-118.536 265l0.31 0.307zM360.88 192c-6.516 74.473-36.305 146.463-86.885 209.144-49.028 60.819-71.371 137.771-62.992 216.278 14.584 135.293 123.191 244.213 258.172 259.107 85.023 9.619 166.322-16.449 229.624-72.924 62.061-55.544 97.745-135.6 97.745-218.762 0-67.956-23.893-134.051-67.025-186.182-48.407-58.647-78.196-131.568-84.713-206.352h-284.237l0.311-0.31zM674.906 102.633c-17.067 0-31.030-13.964-31.030-31.030v-49.648h-281.755v49.648c0 17.067-13.964 31.030-31.030 31.030s-31.030-13.964-31.030-31.030v-80.679c0-17.067 13.964-31.030 31.030-31.030h343.815c17.067 0 31.030 13.964 31.030 31.030v80.679c0 17.067-13.964 31.030-31.030 31.030zM736.036 664.28c-67.025 171.908-213.488 177.803-232.727 177.803h-1.241c-17.067-0.621-30.41-15.202-29.789-32.269 0.621-16.136 14.277-29.171 32.895-29.792 0.931 0.31 117.291 4.966 173.146-138.394 4.655-12.102 16.136-19.859 28.858-19.859 4.034 0 7.761 0.621 11.174 2.172 7.758 3.103 13.653 8.999 17.067 16.446 3.41 7.758 3.41 16.135 0.618 23.892z" fill="#1D1D1D" />

    </g>
</svg>