<?xml version="1.0" encoding="iso-8859-1"?>
<!DOCTYPE svg PUBLIC "-//W3C//DTD SVG 1.1//EN" "http://www.w3.org/Graphics/SVG/1.1/DTD/svg11.dtd">
<svg version="1.1" xmlns="http://www.w3.org/2000/svg" xmlns:xlink="http://www.w3.org/1999/xlink" x="0px"
	y="0px" width="511.626px" height="511.627px" viewBox="0 0 1100 1100"
	style="enable-background:new 0 0 1100 1100;" xml:space="preserve">
	<g>
		

<path transform="rotate(180 500 500) scale(0.9)" d="M963.048 556.739l-32.914 32.914c-18.042 18.042-28.038 41.935-28.038 67.535v46.568c0 79.482-64.61 144.336-144.335 144.336h-46.568c-25.6 0-49.493 9.996-67.535 28.038l-32.914 32.915c-27.307 27.307-63.39 42.179-101.912 42.179s-74.85-15.116-101.912-42.179l-32.914-32.915c-18.042-18.042-41.935-28.038-67.535-28.038h-46.568c-79.482 0-144.335-64.61-144.335-144.336v-46.568c0-25.6-9.996-49.493-28.038-67.535l-32.914-32.914c-27.307-27.307-42.179-63.39-42.179-101.912s15.116-74.85 42.179-101.912l32.914-32.914c18.042-18.042 28.038-41.935 28.038-67.535v-46.568c0-79.482 64.61-144.335 144.335-144.335h46.568c25.356 0 49.493-9.996 67.535-28.038l32.914-32.914c27.307-27.307 63.39-42.179 101.912-42.179s74.85 15.116 101.912 42.179l32.914 32.914c18.042 18.042 41.935 28.038 67.535 28.038h46.568c79.482 0 144.335 64.61 144.335 144.335v46.568c0 25.6 9.996 49.493 28.038 67.535l32.914 32.914c27.307 27.307 42.179 63.39 42.179 101.912s-15.116 74.606-42.179 101.912zM853.333 252.221v-46.568c0-52.663-42.91-95.573-95.573-95.573h-46.568c-38.522 0-74.606-15.116-101.912-42.179l-32.914-32.914c-36.084-36.084-98.987-36.084-135.070 0l-32.914 32.914c-27.307 27.307-63.39 42.179-101.912 42.179h-46.568c-52.663 0-95.573 42.91-95.573 95.573v46.568c0 38.522-15.116 74.606-42.179 101.912l-32.914 32.914c-18.042 18.042-28.038 41.935-28.038 67.535s9.996 49.493 28.038 67.535l32.914 32.914c27.307 27.307 42.179 63.39 42.179 101.912v46.568c0 52.663 42.91 95.574 95.573 95.574h46.568c38.522 0 74.85 15.116 101.912 42.179l32.914 32.914c36.084 36.084 98.987 36.084 135.070 0l32.914-32.914c27.307-27.307 63.39-42.179 101.912-42.179h46.568c52.663 0 95.573-42.91 95.573-95.574v-46.568c0-38.522 15.116-74.606 42.179-101.912l32.914-32.914c18.042-18.042 28.038-41.935 28.038-67.535s-9.996-49.493-28.038-67.535l-32.914-32.914c-27.307-27.307-42.179-63.39-42.179-101.912zM687.543 622.324c-6.583-0.488-12.434-3.657-16.579-8.533l-221.867-265.021-103.375 117.029c-8.777 9.996-24.381 10.971-34.377 2.194-9.996-9.021-10.971-24.381-2.194-34.377l122.149-138.24c4.632-5.364 11.215-8.29 18.53-8.29 7.070 0 13.897 3.17 18.286 8.777l239.909 286.72c8.533 10.24 7.314 25.6-2.926 34.377-4.876 4.145-10.971 6.339-17.798 5.608l0.244-0.244z" fill="#1D1D1D" />

    </g>
</svg>