<?xml version="1.0" encoding="iso-8859-1"?>
<!DOCTYPE svg PUBLIC "-//W3C//DTD SVG 1.1//EN" "http://www.w3.org/Graphics/SVG/1.1/DTD/svg11.dtd">
<svg version="1.1" xmlns="http://www.w3.org/2000/svg" xmlns:xlink="http://www.w3.org/1999/xlink" x="0px"
	y="0px" width="511.626px" height="511.627px" viewBox="0 0 1100 1100"
	style="enable-background:new 0 0 1100 1100;" xml:space="preserve">
	<g>
		

<path transform="rotate(180 500 500) scale(0.9)" d="M541.12 641.281c82.24 0 149.12 66.877 149.12 149.117s-66.88 149.121-149.12 149.121c-82.24 0-149.12-66.881-149.12-149.121s66.88-149.117 149.12-149.117zM541.12 875.52c47.040 0 85.12-38.081 85.12-85.121s-38.080-85.117-85.12-85.117c-47.040 0-85.12 38.077-85.12 85.117s38.080 85.121 85.12 85.121zM625.28 430.397h2.88c119.040 2.88 232.32 177.28 237.12 184.32s6.4 15.68 4.48 24c-1.92 8.32-6.72 15.361-14.080 20.161-14.72 9.6-34.56 5.122-44.16-9.598-38.4-59.2-122.56-153.923-185.6-155.203-20.8-0.96-40.64 10.88-58.88 36.48-69.44 96.96-141.44 143.361-213.76 136.641-110.4-8.96-173.76-135.681-176.32-141.121-7.68-16-1.28-34.88 14.4-42.88 7.68-3.84 16.32-4.477 24.32-1.597s14.72 8.64 18.56 16c0.64 0.96 50.56 99.517 124.16 105.597 47.040 3.2 97.92-30.717 150.721-102.077v-375.68c0-62.4-50.88-113.28-113.28-113.28h-55.36c-17.6 0-32-14.4-32-32s14.4-32 32-32h55.36c97.92 0 177.28 79.68 177.28 177.28v88.32h52.48c51.52-0.64 93.76-43.203 93.76-94.723v-104.32c0-36.48 29.76-66.237 66.24-66.237h23.040c17.6 0 32 14.4 32 32s-14.4 32-32 32h-23.040c0 0-2.24 0.957-2.24 2.237v104.32c0 86.72-70.4 157.763-157.12 158.403h-53.12v165.117c16.64-8.32 33.92-12.48 52.16-12.48v0.32z" fill="#1D1D1D" />

    </g>
</svg>