<?xml version="1.0" encoding="iso-8859-1"?>
<!DOCTYPE svg PUBLIC "-//W3C//DTD SVG 1.1//EN" "http://www.w3.org/Graphics/SVG/1.1/DTD/svg11.dtd">
<svg version="1.1" xmlns="http://www.w3.org/2000/svg" xmlns:xlink="http://www.w3.org/1999/xlink" x="0px"
	y="0px" width="511.626px" height="511.627px" viewBox="0 0 1100 1100"
	style="enable-background:new 0 0 1100 1100;" xml:space="preserve">
	<g>
		

<path transform="rotate(180 500 500) scale(0.9)" d="M990.512 474.292c-15.222 0-27.676-12.454-27.676-27.676v-401.574l-889.772 889.773c-10.794 10.794-28.23 10.794-39.024 0s-10.794-28.229 0-39.023l889.773-889.773h-401.574c-15.222 0-27.676-12.454-27.676-27.676s12.454-27.676 27.676-27.676h468.549c4.705 0 9.41 1.384 14.115 4.151l2.491 1.661c4.151 3.044 7.196 6.919 8.856 11.070l1.107 3.321c0.83 2.491 1.107 4.982 1.107 7.472v468.549c0 15.222-12.454 27.676-27.676 27.676l-0.277-0.277z" fill="#1D1D1D" />

    </g>
</svg>