<?xml version="1.0" encoding="iso-8859-1"?>
<!DOCTYPE svg PUBLIC "-//W3C//DTD SVG 1.1//EN" "http://www.w3.org/Graphics/SVG/1.1/DTD/svg11.dtd">
<svg version="1.1" xmlns="http://www.w3.org/2000/svg" xmlns:xlink="http://www.w3.org/1999/xlink" x="0px"
	y="0px" width="511.626px" height="511.627px" viewBox="0 0 1100 1100"
	style="enable-background:new 0 0 1100 1100;" xml:space="preserve">
	<g>
		

<path transform="rotate(180 500 500) scale(0.9)" d="M409.046 767.932h-366.149c-15.222 0-27.676-12.454-27.676-27.676v-580.361c0-15.222 12.454-27.676 27.676-27.676h366.149c15.222 0 27.676 12.454 27.676 27.676v580.361c0 15.222-12.454 27.676-27.676 27.676zM381.371 712.581v-525.009h-310.798v525.009h310.798zM511.446 946.162c-15.222 0-27.676-12.454-27.676-27.676v-936.822c0-15.222 12.454-27.676 27.676-27.676s27.676 12.454 27.676 27.676v936.822c0 15.222-12.454 27.676-27.676 27.676zM125.648 412.575c20.757 0 37.362 16.879 37.362 37.359s-16.882 37.365-37.362 37.365c-20.48 0-37.362-16.885-37.362-37.365s16.882-37.359 37.362-37.359zM978.889 767.932h-366.149c-15.222 0-27.676-12.454-27.676-27.676v-580.361c0-15.222 12.454-27.676 27.676-27.676h366.149c15.222 0 27.676 12.454 27.676 27.676v580.361c0 15.222-12.454 27.676-27.676 27.676zM951.213 712.581v-525.009h-310.798v525.009h310.798zM695.213 412.575c20.757 0 37.362 16.879 37.362 37.359s-16.882 37.365-37.362 37.365c-20.48 0-37.362-16.885-37.362-37.365s16.882-37.359 37.362-37.359z" fill="#1D1D1D" />

    </g>
</svg>