<?xml version="1.0" encoding="iso-8859-1"?>
<!DOCTYPE svg PUBLIC "-//W3C//DTD SVG 1.1//EN" "http://www.w3.org/Graphics/SVG/1.1/DTD/svg11.dtd">
<svg version="1.1" xmlns="http://www.w3.org/2000/svg" xmlns:xlink="http://www.w3.org/1999/xlink" x="0px"
	y="0px" width="511.626px" height="511.627px" viewBox="0 0 1100 1100"
	style="enable-background:new 0 0 1100 1100;" xml:space="preserve">
	<g>
		

<path transform="rotate(180 500 500) scale(0.9)" d="M137.281 623.359h308.159c17.6 0 32 14.4 32 32s-14.4 32-32 32h-308.159c-70.72 0-128-61.12-128-136.32v-212.479c0-75.2 57.28-136.323 128-136.323h308.159c17.6 0 32 14.4 32 32s-14.4 32-32 32h-308.159c-35.2 0-64 32.323-64 72.323v212.479c0 40 28.8 72.32 64 72.32zM895.043 686.719h-309.443c-17.6 0-32-14.4-32-32s14.4-32 32-32h309.443c35.2 0 64-32.32 64-72v-211.839c0-39.68-28.8-72-64-72h-309.443c-17.6 0-32-14.4-32-32s14.4-32 32-32h309.443c70.72 0 128 61.12 128 136v211.839c0 74.88-57.28 136-128 136z" fill="#1D1D1D" />

    </g>
</svg>