<?xml version="1.0" encoding="iso-8859-1"?>
<!DOCTYPE svg PUBLIC "-//W3C//DTD SVG 1.1//EN" "http://www.w3.org/Graphics/SVG/1.1/DTD/svg11.dtd">
<svg version="1.1" xmlns="http://www.w3.org/2000/svg" xmlns:xlink="http://www.w3.org/1999/xlink" x="0px"
	y="0px" width="511.626px" height="511.627px" viewBox="0 0 1100 1100"
	style="enable-background:new 0 0 1100 1100;" xml:space="preserve">
	<g>
		

<path transform="rotate(180 500 500) scale(0.9)" d="M967.818 469.31h-106.275c-3.044 27.676-26.569 49.263-55.075 49.263h-251.018c-28.506 0-52.030-21.587-55.075-49.263h-263.472v334.876c0 42.897 34.872 78.045 78.045 78.045s78.045-34.871 78.045-78.045c0-15.222 12.454-27.676 27.676-27.676s27.676 12.454 27.676 27.676c0 73.617-59.779 133.397-133.397 133.397s-133.397-59.78-133.397-133.397v-334.876h-150.833c-15.222 0-27.676-12.454-27.676-27.676v-133.674c0-119.836 69.743-227.494 178.509-277.034v-57.842c0-15.222 12.454-27.676 27.676-27.676s27.676 12.454 27.676 27.676v38.746c23.248-5.535 46.772-8.303 70.573-8.303h383.585c23.801 0 47.602 2.768 70.573 8.303v-38.746c0-15.222 12.454-27.676 27.676-27.676s27.676 12.454 27.676 27.676v57.842c108.765 49.539 178.508 157.198 178.508 277.034v133.674c0 15.222-12.454 27.676-27.676 27.676zM527.775 236.004h306.37c15.222 0 27.676 12.454 27.676 27.676v150.279h78.322v-105.998c0-137.271-111.81-249.081-249.081-249.081h-383.585c-137.272 0-249.081 111.81-249.081 249.081v105.998h441.704v-150.279c0-15.222 12.454-27.676 27.676-27.676zM555.451 291.356v171.866h251.018v-171.866h-251.018z" fill="#1D1D1D" />

    </g>
</svg>