<?xml version="1.0" encoding="iso-8859-1"?>
<!DOCTYPE svg PUBLIC "-//W3C//DTD SVG 1.1//EN" "http://www.w3.org/Graphics/SVG/1.1/DTD/svg11.dtd">
<svg version="1.1" xmlns="http://www.w3.org/2000/svg" xmlns:xlink="http://www.w3.org/1999/xlink" x="0px"
	y="0px" width="511.626px" height="511.627px" viewBox="0 0 1100 1100"
	style="enable-background:new 0 0 1100 1100;" xml:space="preserve">
	<g>
		

<path transform="rotate(180 500 500) scale(0.9)" d="M119.56 881.954h111.533c15.222 0 27.676 12.454 27.676 27.676s-12.454 27.676-27.676 27.676h-178.232c-2.491 0-4.705-0.276-7.196-1.106h-2.491l-2.768-1.938c-3.598-1.937-6.642-4.428-9.409-8.026l-1.938-2.768c-2.491-4.428-3.874-9.133-3.874-13.838v-183.213c0-15.222 12.454-27.676 27.676-27.676s27.676 12.454 27.676 27.676v116.238l318.823-318.824c5.258-5.258 12.177-8.026 19.65-8.026s14.391 2.768 19.65 8.026c10.794 10.794 10.794 28.229 0 39.023l-319.099 319.1zM1012.656 923.468l-1.937 2.768c-3.044 4.151-6.919 7.196-10.24 8.579l-3.598 1.66h-1.107c-2.214 0.554-4.428 0.83-6.642 0.83h-178.231c-15.222 0-27.676-12.454-27.676-27.676s12.454-27.676 27.676-27.676h111.533l-318.824-318.824c-10.794-10.794-10.794-28.229 0-39.023 5.258-5.258 12.177-8.026 19.65-8.026s14.391 2.768 19.65 8.026l319.101 318.824v-116.237c0-15.222 12.454-27.676 27.676-27.676s27.676 12.454 27.676 27.676v183.213c0 4.705-1.384 9.133-3.875 13.838l-0.83-0.277zM399.36 359.438l-318.823-319.101v116.238c0 15.222-12.454 27.676-27.676 27.676s-27.676-12.454-27.676-27.676v-183.213c0-4.705 1.383-9.41 3.874-13.838l1.938-2.768c3.044-4.151 6.919-7.196 11.347-8.856 3.321-1.384 6.919-2.214 10.517-2.214h178.232c15.222 0 27.676 12.454 27.676 27.676s-12.454 27.676-27.676 27.676h-111.533l319.099 319.101c10.794 10.794 10.794 28.229 0 39.023s-28.229 10.794-39.023 0l-0.277 0.277zM988.855 184.251c-15.222 0-27.676-12.454-27.676-27.676v-116.238l-319.101 319.101c-10.794 10.794-28.229 10.794-39.023 0s-10.794-28.229 0-39.023l319.101-319.101h-111.533c-15.222 0-27.676-12.454-27.676-27.676s12.454-27.676 27.676-27.676h178.231c3.598 0 7.193 0.83 10.514 2.214 4.428 1.661 8.026 4.705 11.347 8.856l1.937 2.768c2.768 4.705 3.877 9.133 3.877 13.838v183.213c0 15.222-12.454 27.676-27.676 27.676v-0.277z" fill="#1D1D1D" />

    </g>
</svg>