<?xml version="1.0" encoding="iso-8859-1"?>
<!DOCTYPE svg PUBLIC "-//W3C//DTD SVG 1.1//EN" "http://www.w3.org/Graphics/SVG/1.1/DTD/svg11.dtd">
<svg version="1.1" xmlns="http://www.w3.org/2000/svg" xmlns:xlink="http://www.w3.org/1999/xlink" x="0px"
	y="0px" width="511.626px" height="511.627px" viewBox="0 0 1100 1100"
	style="enable-background:new 0 0 1100 1100;" xml:space="preserve">
	<g>
		

<path transform="rotate(180 500 500) scale(0.9)" d="M964.16 952.32h-168.96c-17.6 0-32-14.4-32-32v-411.204h-714.88c-17.6 0-32-14.4-32-32 0-178.24 143.040-329.597 340.16-381.757v-124.157c0-17.6 14.4-32 32-32h234.24c17.6 0 32 14.4 32 32v123.837c197.76 51.52 341.44 203.197 341.44 382.077v443.204c0 17.6-14.4 32-32 32zM827.2 888.32h104.96v-379.204h-104.96v379.204zM590.72 3.523h-170.24v79.36c27.84-4.16 56.64-6.406 85.76-6.406s56.96 2.566 84.48 6.406v-79.36zM506.24 140.477c-221.12 0-403.52 134.080-424 304.96h848.32c-20.48-170.88-202.88-304.96-424-304.96h-0.32zM46.72 592.64h625.28c16.96 0 30.72 13.76 30.72 30.72s-13.76 30.718-30.72 30.718h-625.28c-16.96 0-30.72-13.759-30.72-30.718s13.76-30.72 30.72-30.72z" fill="#1D1D1D" />

    </g>
</svg>