<?xml version="1.0" encoding="iso-8859-1"?>
<!DOCTYPE svg PUBLIC "-//W3C//DTD SVG 1.1//EN" "http://www.w3.org/Graphics/SVG/1.1/DTD/svg11.dtd">
<svg version="1.1" xmlns="http://www.w3.org/2000/svg" xmlns:xlink="http://www.w3.org/1999/xlink" x="0px"
	y="0px" width="511.626px" height="511.627px" viewBox="0 0 1100 1100"
	style="enable-background:new 0 0 1100 1100;" xml:space="preserve">
	<g>
		

<path transform="rotate(180 500 500) scale(0.9)" d="M958.685 829.095h-302.495c-55.905 0-107.935-28.505-138.378-74.724-30.443 45.942-82.474 74.724-138.378 74.724h-302.494c-30.443 0-55.351-24.908-55.351-55.351v-525.838c0-30.443 24.908-55.351 55.351-55.351h287.549c58.396 0 98.802-32.657 127.585-102.954l1.384-3.321 0.83-0.554c1.937-3.044 4.151-5.812 6.365-7.196l2.491-1.937c3.044-1.937 6.089-3.321 9.41-3.875 1.661-0.277 3.598-0.554 5.535-0.554l5.258 0.554c3.321 0.554 6.642 1.937 10.794 4.705 3.044 2.214 5.258 4.705 7.472 8.026l2.214 3.875c28.783 70.296 69.189 102.954 127.585 102.954h287.55c30.443 0 55.351 24.908 55.351 55.351v525.839c0 30.443-24.908 55.351-55.351 55.351l-0.277 0.276zM77.215 247.905v525.838h302.496c61.163 0 110.703-49.539 110.703-110.703v-467.166c-33.764 34.595-75.831 52.030-125.648 52.030h-287.551zM656.467 773.743h302.495v-525.838h-287.55c-49.816 0-91.883-17.436-125.648-52.030v467.166c0 61.163 49.539 110.703 110.703 110.703z" fill="#1D1D1D" />

    </g>
</svg>