<?xml version="1.0" encoding="iso-8859-1"?>
<!DOCTYPE svg PUBLIC "-//W3C//DTD SVG 1.1//EN" "http://www.w3.org/Graphics/SVG/1.1/DTD/svg11.dtd">
<svg version="1.1" xmlns="http://www.w3.org/2000/svg" xmlns:xlink="http://www.w3.org/1999/xlink" x="0px"
	y="0px" width="511.626px" height="511.627px" viewBox="0 0 1100 1100"
	style="enable-background:new 0 0 1100 1100;" xml:space="preserve">
	<g>
		

<path transform="rotate(180 500 500) scale(0.9)" d="M872 647.037c-0.96 3.52-2.24 7.040-4.48 10.24l-256.64 269.121h-0.64c-3.2 2.56-6.72 4.159-10.24 5.439-1.28 0.32-2.56 0.641-3.52 0.961l-425.281 0.959c-17.6 0-32-14.4-32-32v-589.761c0-17.6 14.4-32 32-32s32 14.4 32 32v557.761h355.841v-230.081c0-17.6 14.4-32 32-32h218.88v-295.68c0-17.6 14.4-32 32-32s32 14.4 32 32v327.68l-1.28 7.681-0.64-0.32zM622.4 671.357v150.4l144-150.4h-144zM415.039 247.997h-43.2l-40-68.48c-10.88-18.56-18.24-32-26.56-49.28h-1.28c-7.68 15.68-16 30.4-26.88 49.28l-38.72 68.48h-43.84l85.76-144.32-89.28-147.84h43.2l35.2 64.32c15.040 25.6 23.36 41.283 31.68 58.243h0.96c8.96-16.96 18.56-32.96 33.92-57.6l37.44-64.643h43.84l-91.2 150.080 88.96 142.080v-0.32zM498.56 247.997h-37.76v-292.16h162.56v31.36h-124.8v260.8zM752.96 121.277c-40.32 15.68-58.24 29.12-58.24 56.32 0 19.84 15.040 43.84 55.040 43.84 26.56 0 46.080-8.64 55.36-13.76l10.56 30.723c-13.12 7.36-34.56 14.4-64.64 14.4-56.96 0-94.4-33.923-94.4-79.363 0-41.28 29.44-65.917 77.12-82.877 39.36-15.040 55.037-30.723 55.037-58.243 0-29.44-22.397-49.917-61.117-49.917-25.92 0-50.88 8.637-67.52 19.197l-9.6-31.68c15.68-10.56 46.4-18.56 74.56-18.56 68.8 0 102.4 39.040 102.4 84.16s-25.28 66.88-74.56 85.76z" fill="#1D1D1D" />

    </g>
</svg>