<?xml version="1.0" encoding="iso-8859-1"?>
<!DOCTYPE svg PUBLIC "-//W3C//DTD SVG 1.1//EN" "http://www.w3.org/Graphics/SVG/1.1/DTD/svg11.dtd">
<svg version="1.1" xmlns="http://www.w3.org/2000/svg" xmlns:xlink="http://www.w3.org/1999/xlink" x="0px"
	y="0px" width="511.626px" height="511.627px" viewBox="0 0 1100 1100"
	style="enable-background:new 0 0 1100 1100;" xml:space="preserve">
	<g>
		

<path transform="rotate(180 500 500) scale(0.9)" d="M976.213 940.455h-916.634c-17.067 0-31.030-13.964-31.030-31.030v-783.516c0-17.067 13.964-31.030 31.030-31.030h111.088v-103.638c0-17.067 13.964-31.030 31.030-31.030s31.030 13.964 31.030 31.030v103.638h570.336v-103.638c0-17.067 13.964-31.030 31.030-31.030s31.030 13.964 31.030 31.030v103.638h111.088c17.067 0 31.030 13.964 31.030 31.030v783.516c0 17.067-13.964 31.030-31.030 31.030zM945.183 686.008h-95.573v101.776c0 8.688-6.827 15.515-15.515 15.515h-632.397c-8.688 0-15.515-6.827-15.515-15.515v-540.544c0-8.688 6.827-15.515 15.515-15.515h632.397c8.688 0 15.515 6.827 15.515 15.515v102.397h95.573v-193.008h-854.573v721.455h854.573v-192.076zM818.579 686.008h-34.444c-17.067 0-31.030-13.964-31.030-31.030s13.964-31.029 31.030-31.029h34.444v-212.25h-34.444c-17.067 0-31.030-13.964-31.030-31.030s13.964-31.030 31.030-31.030h34.444v-86.882h-601.366v509.514h601.366v-86.261zM849.61 623.948h95.573v-212.25h-95.573v212.25zM429.77 412.629c58.027 0 104.882 47.166 104.882 104.882s-47.166 104.882-104.882 104.882c-57.716 0-104.882-47.166-104.882-104.882s47.166-104.882 104.882-104.882zM429.77 591.363c40.65 0 73.852-33.202 73.852-73.852s-33.202-73.852-73.852-73.852c-40.65 0-73.852 33.202-73.852 73.852s33.202 73.852 73.852 73.852z" fill="#1D1D1D" />

    </g>
</svg>