<?xml version="1.0" encoding="iso-8859-1"?>
<!DOCTYPE svg PUBLIC "-//W3C//DTD SVG 1.1//EN" "http://www.w3.org/Graphics/SVG/1.1/DTD/svg11.dtd">
<svg version="1.1" xmlns="http://www.w3.org/2000/svg" xmlns:xlink="http://www.w3.org/1999/xlink" x="0px"
	y="0px" width="511.626px" height="511.627px" viewBox="0 0 1100 1100"
	style="enable-background:new 0 0 1100 1100;" xml:space="preserve">
	<g>
		

<path transform="rotate(180 500 500) scale(0.9)" d="M933.777 946.162h-647.888c-45.664 0-83.026-37.362-83.026-83.027v-95.204h-150.556c-15.222 0-27.676-12.454-27.676-27.676s12.454-27.676 27.676-27.676h150.556v-235.52h-150.556c-15.222 0-27.676-12.454-27.676-27.676s12.454-27.676 27.676-27.676h150.556v-233.859h-150.556c-15.222 0-27.676-12.454-27.676-27.676s12.454-27.676 27.676-27.676h150.556v-95.204c0-45.665 37.362-83.027 83.026-83.027h647.888c45.665 0 83.027 37.362 83.027 83.027v825.842c0 45.665-37.085 83.027-83.027 83.027zM285.89 890.811h647.888c15.222 0 27.676-12.454 27.676-27.676v-826.119c0-15.222-12.454-27.676-27.676-27.676h-647.888c-15.221 0-27.675 12.454-27.675 27.676v826.119c0 15.222 12.454 27.676 27.675 27.676zM363.935 182.867c15.222 0 27.676 12.454 27.676 27.676 0 125.094 102.123 226.941 227.771 226.941s227.771-101.846 227.771-226.941c0-15.222 12.454-27.676 27.676-27.676s27.676 12.454 27.676 27.676c0 115.961-72.234 219.745-178.785 262.089 47.325 33.488 76.385 88.562 76.385 147.511 0 99.633-81.090 180.999-180.999 180.999s-180.999-81.090-180.999-180.999c0-58.672 29.336-113.747 76.385-147.511-106.551-42.344-178.785-146.128-178.785-262.089 0-15.222 12.454-27.676 27.676-27.676h0.554zM619.382 494.495c-69.189 0-125.648 56.182-125.648 125.648s56.458 125.648 125.648 125.648c69.189 0 125.648-56.458 125.648-125.648s-56.458-125.648-125.648-125.648z" fill="#1D1D1D" />

    </g>
</svg>