<?xml version="1.0" encoding="iso-8859-1"?>
<!DOCTYPE svg PUBLIC "-//W3C//DTD SVG 1.1//EN" "http://www.w3.org/Graphics/SVG/1.1/DTD/svg11.dtd">
<svg version="1.1" xmlns="http://www.w3.org/2000/svg" xmlns:xlink="http://www.w3.org/1999/xlink" x="0px"
	y="0px" width="511.626px" height="511.627px" viewBox="0 0 1100 1100"
	style="enable-background:new 0 0 1100 1100;" xml:space="preserve">
	<g>
		

<path transform="rotate(180 500 500) scale(0.9)" d="M805.547 636.973h-745.66c-17.067 0-31.030-13.964-31.030-31.030s13.964-31.030 31.030-31.030h745.66c77.265 0 140.254-62.992 140.874-139.947 0-37.857-14.274-73.231-40.96-99.916s-62.058-41.581-99.914-41.581h-549.859c-45.615 0-82.54 36.929-82.54 82.542 0 45.615 36.925 82.538 82.54 82.538h494.312c13.343 0 24.207-10.858 24.517-24.201 0-6.516-2.486-12.725-7.14-17.689-4.655-4.655-10.861-7.447-17.377-7.447l-404.011-1.864c-8.378 0-16.139-3.411-22.035-9.307s-8.996-13.652-8.996-22.030c0-17.067 13.964-31.029 31.030-31.029l404.011 1.859c23.273 0 44.997 9.308 61.443 26.064s25.135 38.788 24.824 62.061c-0.931 46.856-39.722 85.333-86.578 85.333h-494.312c-79.748 0-144.6-64.851-144.6-144.599 0-79.749 64.852-144.602 144.6-144.602h549.859c54.303 0 105.503 21.098 143.981 59.885 38.478 38.478 59.265 89.68 58.954 144.293-0.621 111.399-91.536 201.697-202.935 201.697h0.31z" fill="#1D1D1D" />

    </g>
</svg>