<?xml version="1.0" encoding="iso-8859-1"?>
<!DOCTYPE svg PUBLIC "-//W3C//DTD SVG 1.1//EN" "http://www.w3.org/Graphics/SVG/1.1/DTD/svg11.dtd">
<svg version="1.1" xmlns="http://www.w3.org/2000/svg" xmlns:xlink="http://www.w3.org/1999/xlink" x="0px"
	y="0px" width="511.626px" height="511.627px" viewBox="0 0 1100 1100"
	style="enable-background:new 0 0 1100 1100;" xml:space="preserve">
	<g>
		

<path transform="rotate(180 500 500) scale(0.9)" d="M992.726 477.336l-381.648 292.255c-8.303 6.365-19.65 7.473-29.059 2.768s-15.498-14.391-15.498-24.908v-82.751h-527.498c-15.222 0-27.676-12.454-27.676-27.676v-363.658c0-15.222 12.454-27.676 27.676-27.676h527.498v-82.75c0-10.517 6.089-20.203 15.498-24.908 3.875-1.937 8.026-2.768 12.177-2.768 6.089 0 11.901 1.937 16.882 5.812l381.648 292.255c6.642 4.982 10.517 13.284 10.517 21.864s-3.875 16.882-10.517 21.864v0.277zM621.872 219.122v54.244c0 15.222-12.454 27.676-27.676 27.676h-527.498v308.307h527.498c15.222 0 27.676 12.454 27.676 27.676v54.245l308.584-236.074-308.584-236.074z" fill="#1D1D1D" />

    </g>
</svg>