<?xml version="1.0" encoding="iso-8859-1"?>
<!DOCTYPE svg PUBLIC "-//W3C//DTD SVG 1.1//EN" "http://www.w3.org/Graphics/SVG/1.1/DTD/svg11.dtd">
<svg version="1.1" xmlns="http://www.w3.org/2000/svg" xmlns:xlink="http://www.w3.org/1999/xlink" x="0px"
	y="0px" width="511.626px" height="511.627px" viewBox="0 0 1100 1100"
	style="enable-background:new 0 0 1100 1100;" xml:space="preserve">
	<g>
		

<path transform="rotate(180 500 500) scale(0.9)" d="M993.646 908.799c0 3.291-0.731 6.217-1.097 8.777v2.196l-2.194 4.022-2.194 3.656c-1.829 2.926-4.389 5.85-6.949 8.045-3.291 2.926-6.217 4.39-8.777 5.853-2.56 1.097-4.754 1.831-7.68 2.563l-208.091 3.656c-20.114 0-36.206-16.091-36.571-36.205 0-9.874 3.657-19.020 10.606-25.969s16.091-10.969 25.6-10.969l113.371-1.098-240.64-240.638c-67.291 55.589-151.406 85.942-238.446 85.942-207.359 0-376.319-168.961-376.319-376.321s168.96-376.324 376.319-376.324c207.36 0 376.32 168.964 376.32 376.324 0 87.040-30.354 171.154-85.943 238.446l240.64 240.639 1.097-113.37c0-20.114 16.457-36.205 36.937-36.205 20.114 0 36.571 16.823 36.206 36.937l-2.194 200.411v-0.366zM390.583 645.12c167.131 0 303.177-136.046 303.177-303.178s-136.046-303.173-303.177-303.173c-167.131 0-303.177 136.042-303.177 303.173s136.046 303.178 303.177 303.178z" fill="#1D1D1D" />

    </g>
</svg>