<?xml version="1.0" encoding="iso-8859-1"?>
<!DOCTYPE svg PUBLIC "-//W3C//DTD SVG 1.1//EN" "http://www.w3.org/Graphics/SVG/1.1/DTD/svg11.dtd">
<svg version="1.1" xmlns="http://www.w3.org/2000/svg" xmlns:xlink="http://www.w3.org/1999/xlink" x="0px"
	y="0px" width="511.626px" height="511.627px" viewBox="0 0 1100 1100"
	style="enable-background:new 0 0 1100 1100;" xml:space="preserve">
	<g>
		

<path transform="rotate(180 500 500) scale(0.9)" d="M639.997 384.317v434.878c0 36.16-14.080 70.721-40.32 96.961-26.239 25.6-60.48 40-96.64 40-75.52 0-136.959-61.441-136.959-136.961v-434.878c-64.64-44.16-104.641-119.36-104.641-198.4 0-133.12 108.48-241.6 241.6-241.6s241.603 108.48 241.603 241.6c0 79.040-40.003 154.24-104.643 198.4zM414.078 338.874c9.92 5.76 16 16.32 16 27.84v353.283h72.959c8.96 0 16 7.040 16 16s-7.040 16-16 16h-72.959v51.199h72.959c8.96 0 16 7.040 16 16s-7.040 16-16 16h-71.039c7.36 32.64 36.479 56.961 71.039 56.961 19.2 0 37.762-7.681 51.522-21.121 13.76-14.080 21.439-32.64 21.439-51.84v-452.482c0-11.52 6.079-22.080 15.999-27.84 54.72-31.040 88.643-89.597 88.643-152.957 0-97.92-79.683-177.6-177.603-177.6s-177.6 79.68-177.6 177.6c0 63.36 33.921 121.917 88.641 152.957zM503.037 60.477c63.040 0 113.923 51.197 113.923 113.917 0 57.28-42.883 104.64-97.923 112.32v368.962c0 8.96-7.040 16-16 16s-16-7.040-16-16v-368.962c-55.36-8-97.92-55.040-97.92-112.32 0-63.040 51.2-113.917 113.92-113.917zM503.037 224.637c27.52 0 49.922-22.403 49.922-49.923s-22.402-49.917-49.922-49.917c-27.52 0-49.92 22.397-49.92 49.917s22.4 49.923 49.92 49.923z" fill="#1D1D1D" />

    </g>
</svg>