<?xml version="1.0" encoding="iso-8859-1"?>
<!DOCTYPE svg PUBLIC "-//W3C//DTD SVG 1.1//EN" "http://www.w3.org/Graphics/SVG/1.1/DTD/svg11.dtd">
<svg version="1.1" xmlns="http://www.w3.org/2000/svg" xmlns:xlink="http://www.w3.org/1999/xlink" x="0px"
	y="0px" width="511.626px" height="511.627px" viewBox="0 0 1100 1100"
	style="enable-background:new 0 0 1100 1100;" xml:space="preserve">
	<g>
		

<path transform="rotate(180 500 500) scale(0.9)" d="M507.966 940.455c-269.654 0-489.349-219.385-489.349-489.348s219.384-489.348 489.349-489.348c269.964 0 489.348 219.384 489.348 489.348s-219.384 489.348-489.348 489.348zM80.678 451.106c0 235.52 191.767 427.288 427.288 427.288s427.287-191.768 427.287-427.288c0-235.52-191.767-427.287-427.287-427.287s-427.288 191.767-427.288 427.287zM304.096 462.898c40.030 0 72.612 32.582 72.612 72.611s-32.582 72.614-72.612 72.614c-40.029 0-72.611-32.585-72.611-72.614s32.582-72.611 72.611-72.611zM711.525 462.898c40.029 0 72.611 32.582 72.611 72.611s-32.582 72.614-72.611 72.614c-40.029 0-72.611-32.585-72.611-72.614s32.582-72.611 72.611-72.611zM273.066 279.201c0-17.067 13.964-31.030 31.030-31.030h407.738c17.067 0 31.030 13.964 31.030 31.030s-13.964 31.030-31.030 31.030h-407.738c-17.067 0-31.030-13.964-31.030-31.030z" fill="#1D1D1D" />

    </g>
</svg>