<?xml version="1.0" encoding="iso-8859-1"?>
<!DOCTYPE svg PUBLIC "-//W3C//DTD SVG 1.1//EN" "http://www.w3.org/Graphics/SVG/1.1/DTD/svg11.dtd">
<svg version="1.1" xmlns="http://www.w3.org/2000/svg" xmlns:xlink="http://www.w3.org/1999/xlink" x="0px"
	y="0px" width="511.626px" height="511.627px" viewBox="0 0 1100 1100"
	style="enable-background:new 0 0 1100 1100;" xml:space="preserve">
	<g>
		

<path transform="rotate(180 500 500) scale(0.9)" d="M975.628 929.28c-90.394 0-166.665-63.913-183.261-151.129h-708.326c-14.477 0-27.188-8.474-32.485-21.892-5.65-13.418-2.473-28.6 7.767-38.487l740.458-740.458c6.709-6.709 15.537-10.24 25.070-10.24 4.59 0 9.181 1.059 13.418 2.825 13.418 5.65 21.892 18.361 21.892 32.486v740.457c0 63.912 51.906 115.819 115.818 115.819 19.421 0 35.31 15.89 35.31 35.31s-15.89 35.311-35.31 35.311h-0.353zM789.19 707.53v-619.696l-620.050 619.696h620.050zM242.229 268.98c31.426 0 56.849 25.42 56.849 56.846s-25.423 56.85-56.849 56.85c-31.426 0-56.849-25.423-56.849-56.85s25.423-56.846 56.849-56.846zM408.191 103.371c31.394 0 56.846 25.452 56.846 56.85s-25.452 56.85-56.846 56.85c-31.398 0-56.851-25.452-56.851-56.85s25.453-56.85 56.851-56.85zM85.099 111.846c31.397 0 56.851 25.452 56.851 56.85 0 31.394-25.454 56.85-56.851 56.85s-56.849-25.455-56.849-56.85c0-31.398 25.452-56.85 56.849-56.85zM251.41 59.939c-31.426 0-56.849-25.423-56.849-56.85s25.423-56.85 56.849-56.85c31.426 0 56.849 25.423 56.849 56.85s-25.423 56.85-56.849 56.85z" fill="#1D1D1D" />

    </g>
</svg>