<?xml version="1.0" encoding="iso-8859-1"?>
<!DOCTYPE svg PUBLIC "-//W3C//DTD SVG 1.1//EN" "http://www.w3.org/Graphics/SVG/1.1/DTD/svg11.dtd">
<svg version="1.1" xmlns="http://www.w3.org/2000/svg" xmlns:xlink="http://www.w3.org/1999/xlink" x="0px"
	y="0px" width="511.626px" height="511.627px" viewBox="0 0 1100 1100"
	style="enable-background:new 0 0 1100 1100;" xml:space="preserve">
	<g>
		

<path transform="rotate(180 500 500) scale(0.9)" d="M853.138 221.845c23.991 26.917 37.452 61.44 37.452 97.719 0 67.291-45.641 125.806-110.007 142.775-7.607 99.182-69.925 187.249-160.329 227.915 23.991 26.917 37.446 61.439 37.446 97.718 0 81.627-66.414 148.043-148.041 148.043s-148.041-66.415-148.041-148.043c0-36.279 13.461-70.801 37.452-97.718-90.112-40.373-152.724-128.44-160.331-227.329-65.829-16.091-112.639-74.606-112.639-143.36 0-36.279 13.459-70.51 37.45-97.719-97.426-43.301-161.5-140.431-161.5-248.39 0-20.187 16.384-36.571 36.571-36.571s36.571 16.384 36.571 36.571c0 107.959 84.552 195.145 192.803 198.363 3.803-0.585 7.608-0.878 12.289 0 97.719-3.218 179.637-78.119 191.047-174.961-0.585-7.899-1.167-15.503-1.167-23.403 0-19.31 14.918-35.109 35.691-36.279h3.511c20.187-0.293 36.571 16.091 36.571 36.279 0 7.899-0.582 15.796-1.167 23.403 11.41 96.841 93.327 172.035 191.339 174.961 3.803-0.585 7.61-0.878 12.291 0 107.959-3.511 192.509-90.7 192.509-198.659 0-20.187 16.384-36.571 36.571-36.571s36.571 16.384 36.571 36.571c0 107.666-64.070 204.8-161.497 248.393l0.582 0.293zM349.333 319.564c0-38.619-30.43-71.387-70.219-74.021-3.218 0-5.559 0.293-10.532 0-38.912 2.926-69.339 35.401-69.339 74.313 0 41.253 33.646 74.901 74.898 74.901 41.254 0 74.899-33.649 74.899-74.901l0.293-0.293zM422.476 319.564c0 67.584-45.641 125.806-110.007 142.775 9.947 97.719 91.865 174.958 191.631 177.883 3.803-0.585 7.61-0.585 12.291 0 99.182-3.218 180.809-80.165 191.049-177.591-65.243-16.091-112.64-75.483-112.64-143.067 0-36.279 13.455-70.802 37.446-97.719-51.493-23.113-94.79-61.733-123.755-110.299-28.672 48.567-72.265 87.479-123.758 110.299 23.991 26.917 37.449 61.44 37.449 97.719h0.293zM514.636 713.657c-3.218 0-5.562 0.293-10.535 0-38.912 2.926-69.339 35.402-69.339 74.314 0 41.253 33.646 74.9 74.898 74.9s74.898-33.647 74.898-74.9c0-38.619-30.425-71.388-70.214-74.021l0.293-0.293zM817.447 319.564c0-38.619-30.43-71.387-70.22-74.021-3.218 0-5.556 0.293-10.53 0-38.912 2.926-69.339 35.401-69.339 74.313 0 41.253 33.646 74.901 74.898 74.901s74.898-33.649 74.898-74.901l0.293-0.293z" fill="#1D1D1D" />

    </g>
</svg>