<?xml version="1.0" encoding="iso-8859-1"?>
<!DOCTYPE svg PUBLIC "-//W3C//DTD SVG 1.1//EN" "http://www.w3.org/Graphics/SVG/1.1/DTD/svg11.dtd">
<svg version="1.1" xmlns="http://www.w3.org/2000/svg" xmlns:xlink="http://www.w3.org/1999/xlink" x="0px"
	y="0px" width="511.626px" height="511.627px" viewBox="0 0 1100 1100"
	style="enable-background:new 0 0 1100 1100;" xml:space="preserve">
	<g>
		

<path transform="rotate(180 500 500) scale(0.9)" d="M1001.28 767.679c-11.52 5.76-25.28 4.16-35.52-4.16l-239.040-204.16-185.917 283.521c-11.52 17.6-41.923 17.6-53.443 0l-190.080-289.602-237.119 202.24c-9.92 8.32-23.679 9.92-35.519 3.84-11.52-6.080-18.241-18.239-17.281-31.359l58.881-665.919c0.96-9.28 5.76-17.92 13.44-23.36s17.601-7.040 26.881-4.8c271.039 73.92 544.639 73.92 813.119 0 2.88-0.96 5.76-1.28 8.64-1.28 6.4 0 12.8 1.92 18.24 5.76 8 5.44 12.8 14.080 13.44 23.36l58.24 673.919c1.28 13.12-5.757 25.281-17.277 31.041l0.317 0.959zM127.040 105.92l-48.639 550.079 205.119-175.039c7.040-5.76 16.001-8.32 25.281-7.36 8.96 1.28 17.282 6.4 22.082 14.080l183.037 279.358 179.2-273.278c5.12-7.68 13.12-12.8 22.72-14.080 8.96-0.96 17.923 1.597 24.963 7.357l207.357 176.963-48-558.079c-255.68 64-515.52 63.68-772.8 0h-0.32zM513.277 482.56c-55.040 0-99.84-43.2-99.84-96.32 0-1.92 18.56-201.92 99.84-201.92s100.16 199.68 100.16 201.92c0 53.12-44.8 96.32-100.16 96.32zM513.277 419.84c19.84 0 36.16-15.040 36.16-33.92 0-36.48-22.080-106.88-35.84-132.16-14.080 25.28-36.16 95.68-36.16 132.16 0 18.56 16 33.92 35.84 33.92z" fill="#1D1D1D" />

    </g>
</svg>