<?xml version="1.0" encoding="iso-8859-1"?>
<!DOCTYPE svg PUBLIC "-//W3C//DTD SVG 1.1//EN" "http://www.w3.org/Graphics/SVG/1.1/DTD/svg11.dtd">
<svg version="1.1" xmlns="http://www.w3.org/2000/svg" xmlns:xlink="http://www.w3.org/1999/xlink" x="0px"
	y="0px" width="511.626px" height="511.627px" viewBox="0 0 1100 1100"
	style="enable-background:new 0 0 1100 1100;" xml:space="preserve">
	<g>
		

<path transform="rotate(180 500 500) scale(0.9)" d="M780.412 388.115c42.822 58.958 65.474 128.158 65.474 201.39 0 189.905-154.531 344.435-344.436 344.435s-344.436-154.53-344.436-344.435c0-73.232 22.652-142.432 65.474-201.39-137.464-93.091-218.764-245.757-218.764-412.079 0-21.411 17.377-38.788 38.788-38.788s38.788 17.377 38.788 38.788c0 142.429 74.162 277.098 194.56 354.053 62.992-54.924 142.429-85.023 225.59-85.023s162.909 30.099 225.901 85.023c120.087-76.955 194.25-211.624 194.25-354.053 0-21.411 17.377-38.788 38.788-38.788s38.788 17.377 38.788 38.788c0 166.322-81.299 318.988-218.764 412.079zM768.31 589.504c0-147.084-119.777-266.864-266.861-266.864s-266.861 119.78-266.861 266.864c0 147.083 119.777 266.859 266.861 266.859s266.861-119.776 266.861-266.859z" fill="#1D1D1D" />

    </g>
</svg>