<?xml version="1.0" encoding="iso-8859-1"?>
<!DOCTYPE svg PUBLIC "-//W3C//DTD SVG 1.1//EN" "http://www.w3.org/Graphics/SVG/1.1/DTD/svg11.dtd">
<svg version="1.1" xmlns="http://www.w3.org/2000/svg" xmlns:xlink="http://www.w3.org/1999/xlink" x="0px"
	y="0px" width="511.626px" height="511.627px" viewBox="0 0 1100 1100"
	style="enable-background:new 0 0 1100 1100;" xml:space="preserve">
	<g>
		

<path transform="rotate(180 500 500) scale(0.9)" d="M909.082 196.833c17.636 29.013 26.738 61.724 26.738 95.858 0 93.013-69.404 171.804-160.427 184.604-5.689 73.956-42.667 142.791-101.547 188.018 17.636 29.013 26.738 62.009 26.738 95.857 0 102.969-83.627 186.594-186.596 186.594s-186.596-83.625-186.596-186.594c0-33.849 9.105-66.844 26.741-95.857-58.596-45.227-95.859-113.778-101.548-187.733-92.729-11.378-163.84-90.453-163.84-185.173 0-34.133 9.103-66.844 26.738-95.858-64.569-49.778-102.684-126.293-102.684-207.644 0-19.627 15.929-35.556 35.556-35.556s35.556 15.929 35.556 35.556c0 61.44 29.298 118.329 79.076 154.453 64.569-48.924 159.856-48.924 224.425 0 49.778-36.124 79.36-93.298 79.36-154.453 0-23.040 23.040-40.96 45.511-34.133 22.471-7.111 45.511 11.093 45.511 34.133 0 61.44 29.301 118.329 79.078 154.453 64.569-48.924 159.855-48.924 224.424 0 49.778-36.124 79.076-93.298 79.076-154.453 0-19.627 15.929-35.556 35.556-35.556s35.556 15.929 35.556 35.556c0 81.351-38.113 157.867-102.682 207.644l0.282 0.284zM390.824 292.69c0-63.716-51.769-115.484-115.484-115.484s-115.484 51.769-115.484 115.484c0 63.716 51.769 115.484 115.484 115.484s115.484-51.769 115.484-115.484zM461.935 292.69c0 84.764-57.742 158.72-138.809 180.338 4.551 55.467 32.996 106.382 78.222 139.378 64.569-48.64 159.858-48.64 224.427 0 44.942-32.711 73.671-83.342 78.222-138.524-83.058-20.48-141.938-94.72-141.938-181.191 0-33.849 9.105-66.844 26.741-95.858-32.711-25.316-59.167-58.314-76.803-95.292-17.636 37.262-44.089 69.976-76.8 95.292 17.636 29.013 26.738 61.724 26.738 95.858zM513.704 645.683c-63.716 0-115.484 51.771-115.484 115.487s51.769 115.482 115.484 115.482c63.716 0 115.484-51.767 115.484-115.482s-51.769-115.487-115.484-115.487zM864.427 292.69c0-63.716-51.772-115.484-115.487-115.484s-115.484 51.769-115.484 115.484c0 63.716 51.769 115.484 115.484 115.484s115.487-51.769 115.487-115.484z" fill="#1D1D1D" />

    </g>
</svg>