<?xml version="1.0" encoding="iso-8859-1"?>
<!DOCTYPE svg PUBLIC "-//W3C//DTD SVG 1.1//EN" "http://www.w3.org/Graphics/SVG/1.1/DTD/svg11.dtd">
<svg version="1.1" xmlns="http://www.w3.org/2000/svg" xmlns:xlink="http://www.w3.org/1999/xlink" x="0px"
	y="0px" width="511.626px" height="511.627px" viewBox="0 0 1100 1100"
	style="enable-background:new 0 0 1100 1100;" xml:space="preserve">
	<g>
		

<path transform="rotate(180 500 500) scale(0.9)" d="M1014.867 692.378v0 3.598l-0.554 0.831c-0.554 3.598-1.937 6.919-4.151 9.963l-7.472 8.027c0 0-1.937 1.105-2.768 1.382l-470.763 163.287c-5.812 1.937-12.454 1.937-18.266 0l-467.718-161.902-3.321-1.659c0 0-1.938-0.832-3.045-1.662l-7.196-8.027c-1.937-3.044-3.044-6.365-3.875-9.686l-0.83-3.321 4.705-471.868c0-11.347 7.196-21.59 17.989-25.741l462.183-174.634c3.044-1.107 6.365-1.661 9.686-1.661s6.642 0.554 9.686 1.661l468.549 177.124c10.794 4.151 17.712 14.391 17.712 26.015l-1.384 467.721 0.83 0.551zM960.899 243.756l-412.921-156.091v408.493l411.814 156.091 1.107-408.494zM492.627 496.158v-408.493l-407.109 153.88-4.151 410.705 411.26-156.091zM547.978 555.384v259.598l358.123-123.986-358.123-135.612zM492.627 814.983v-259.598l-358.123 135.889 358.123 123.709zM640.138 296.34c3.321 0 6.642 0.551 9.686 1.658l242.162 91.886c14.391 5.535 21.587 21.308 16.052 35.699-5.258 14.115-21.31 21.313-35.702 16.055l-242.439-91.886c-6.919-2.491-12.454-7.746-15.498-14.389s-3.321-14.391-0.554-21.31c4.151-10.794 14.391-17.989 26.015-17.989l0.277 0.277z" fill="#1D1D1D" />

    </g>
</svg>