<?xml version="1.0" encoding="iso-8859-1"?>
<!DOCTYPE svg PUBLIC "-//W3C//DTD SVG 1.1//EN" "http://www.w3.org/Graphics/SVG/1.1/DTD/svg11.dtd">
<svg version="1.1" xmlns="http://www.w3.org/2000/svg" xmlns:xlink="http://www.w3.org/1999/xlink" x="0px"
	y="0px" width="511.626px" height="511.627px" viewBox="0 0 1100 1100"
	style="enable-background:new 0 0 1100 1100;" xml:space="preserve">
	<g>
		

<path transform="rotate(180 500 500) scale(0.9)" d="M544.996 900.55c-238.649 0-433.493-178.915-456.533-413.013l-27.875 27.876c-11.093 11.093-29.014 11.093-40.108 0s-11.093-29.013 0-40.107l73.672-73.671c10.809-10.809 29.581-10.809 40.106 0l73.672 73.671c5.404 5.404 8.248 12.516 8.248 20.196s-2.844 14.791-8.248 20.196c-10.809 10.809-29.582 10.809-40.106 0l-21.050-21.049c25.884 198.827 194.276 349.297 398.507 349.297 221.867 0 402.489-180.621 402.489-402.488s-180.622-402.489-402.489-402.489c-107.52 0-208.498 41.813-284.444 117.76-11.093 11.093-29.012 11.093-40.106 0-5.404-5.404-8.25-12.516-8.25-20.196s2.846-14.791 8.25-20.196c86.755-86.756 202.239-134.542 324.835-134.542 253.44 0 459.378 205.938 459.378 459.378s-205.938 459.377-459.378 459.377h-0.569zM378.311 234.098l186.88 186.88c5.404 5.404 8.249 12.516 8.249 20.196v298.097c0 15.644-12.8 28.444-28.444 28.444s-28.444-12.8-28.444-28.444v-286.435l-178.631-178.631c-11.093-11.093-11.093-29.013 0-40.107 5.404-5.404 12.516-8.249 20.196-8.249s14.791 2.844 20.196 8.249z" fill="#1D1D1D" />

    </g>
</svg>