<?xml version="1.0" encoding="iso-8859-1"?>
<!DOCTYPE svg PUBLIC "-//W3C//DTD SVG 1.1//EN" "http://www.w3.org/Graphics/SVG/1.1/DTD/svg11.dtd">
<svg version="1.1" xmlns="http://www.w3.org/2000/svg" xmlns:xlink="http://www.w3.org/1999/xlink" x="0px"
	y="0px" width="511.626px" height="511.627px" viewBox="0 0 1100 1100"
	style="enable-background:new 0 0 1100 1100;" xml:space="preserve">
	<g>
		

<path transform="rotate(180 500 500) scale(0.9)" d="M554.341 955.573h-514.213c-15.222 0-27.676-12.454-27.676-27.676v-936.822c0-15.222 12.454-27.676 27.676-27.676h514.213c15.222 0 27.676 12.454 27.676 27.676v936.822c0 15.222-12.454 27.676-27.676 27.676zM526.665 900.221v-881.471h-458.861v881.471h458.861zM115.405 721.99h363.658c15.222 0 27.676 12.454 27.676 27.676s-12.454 27.676-27.676 27.676h-363.658c-15.222 0-27.676-12.454-27.676-27.676s12.454-27.676 27.676-27.676zM398.53 640.346h-202.587c-15.222 0-27.676-12.454-27.676-27.676s12.454-27.676 27.676-27.676h202.587c15.222 0 27.676 12.454 27.676 27.676s-12.454 27.676-27.676 27.676zM297.237 259.252c-49.54 0-89.946-40.406-89.946-89.946s40.406-89.946 89.946-89.946c49.539 0 89.946 40.406 89.946 89.946s-40.406 89.946-89.946 89.946zM297.237 203.901c19.096 0 34.595-15.498 34.595-34.595s-15.498-34.595-34.595-34.595c-19.096 0-34.595 15.498-34.595 34.595s15.499 34.595 34.595 34.595z" fill="#1D1D1D" />

    </g>
</svg>