<?xml version="1.0" encoding="iso-8859-1"?>
<!DOCTYPE svg PUBLIC "-//W3C//DTD SVG 1.1//EN" "http://www.w3.org/Graphics/SVG/1.1/DTD/svg11.dtd">
<svg version="1.1" xmlns="http://www.w3.org/2000/svg" xmlns:xlink="http://www.w3.org/1999/xlink" x="0px"
	y="0px" width="511.626px" height="511.627px" viewBox="0 0 1100 1100"
	style="enable-background:new 0 0 1100 1100;" xml:space="preserve">
	<g>
		

<path transform="rotate(180 500 500) scale(0.9)" d="M547.148 840.995c-61.163 60.056-141.699 92.713-228.048 91.33-172.419-2.768-312.736-150.002-312.736-328.234v-20.203c0-15.222 13.285-28.506 28.507-28.506h87.177c15.222 0 28.507 13.284 28.507 28.506v19.373c0 92.714 65.591 170.482 152.216 180.722 50.646 5.812 99.079-9.133 136.441-42.621 37.085-32.934 58.396-80.259 58.396-129.799 0-29.059-23.801-52.861-52.861-52.861h-236.626c-111.533 0-202.034-90.776-202.034-202.032v-389.12c0-15.222 12.454-27.676 27.676-27.676h580.36c15.222 0 27.676 12.454 27.676 27.676v646.781c0 85.795-33.764 166.331-94.928 226.387l0.277 0.277zM552.96 611.563c0 65.315-27.952 127.585-76.938 171.036s-114.301 63.931-179.892 56.182c-112.363-13.284-197.604-110.703-200.925-228.048h-33.488c3.321 145.297 117.899 264.026 258.215 266.24 71.126 1.107 137.825-25.462 188.195-75.278 50.646-49.816 78.322-116.238 78.322-187.088v-619.105h-525.008v361.444c0 80.813 65.869 146.681 146.682 146.681h236.626c59.503 0 108.212 48.432 108.212 108.212v-0.277zM450.004 219.122h-251.294c-22.927 0-41.514-18.587-41.514-41.514v-10.24c0-22.927 18.586-41.514 41.514-41.514h251.294c22.929 0 41.514 18.587 41.514 41.514v10.24c0 22.927-18.584 41.514-41.514 41.514z" fill="#1D1D1D" />

    </g>
</svg>