<?xml version="1.0" encoding="iso-8859-1"?>
<!DOCTYPE svg PUBLIC "-//W3C//DTD SVG 1.1//EN" "http://www.w3.org/Graphics/SVG/1.1/DTD/svg11.dtd">
<svg version="1.1" xmlns="http://www.w3.org/2000/svg" xmlns:xlink="http://www.w3.org/1999/xlink" x="0px"
	y="0px" width="511.626px" height="511.627px" viewBox="0 0 1100 1100"
	style="enable-background:new 0 0 1100 1100;" xml:space="preserve">
	<g>
		

<path transform="rotate(180 500 500) scale(0.9)" d="M663.109 722.265c-126.755 0-238.564-68.359-296.683-179.892-38.469 35.425-87.455 54.522-140.316 54.522-115.961 0-210.335-95.204-210.335-212.272v-19.373c0-102.954 83.857-186.811 186.811-186.811h608.588c102.123 0 185.704 82.75 186.811 184.597v1.107c0.277 6.642 0.554 13.561 0.554 20.48 0 186.258-150.556 337.642-335.429 337.642zM949.276 364.143c-0.554-75.555-62.27-136.995-138.102-136.995h-608.588c-76.108 0-138.102 61.994-138.102 138.102v19.373c0 90.223 72.51 163.563 161.626 163.563 45.942 0 89.392-19.651 119.836-54.245-11.901-35.147-18.266-71.956-18.266-109.318 0-13.561 10.794-24.355 24.355-24.355s24.355 11.070 24.355 24.355c0 36.532 6.642 71.957 19.65 105.445 43.451 111.533 148.342 183.49 267.070 183.49 158.028 0 286.72-129.522 286.72-288.935 0-5.812 0-11.347-0.554-17.436v-3.044z" fill="#1D1D1D" />

    </g>
</svg>