<?xml version="1.0" encoding="iso-8859-1"?>
<!DOCTYPE svg PUBLIC "-//W3C//DTD SVG 1.1//EN" "http://www.w3.org/Graphics/SVG/1.1/DTD/svg11.dtd">
<svg version="1.1" xmlns="http://www.w3.org/2000/svg" xmlns:xlink="http://www.w3.org/1999/xlink" x="0px"
	y="0px" width="511.626px" height="511.627px" viewBox="0 0 1100 1100"
	style="enable-background:new 0 0 1100 1100;" xml:space="preserve">
	<g>
		

<path transform="rotate(180 500 500) scale(0.9)" d="M61.439 228.923h745.969c17.067 0 31.030 13.964 31.030 31.030 0 77.886 63.612 141.191 141.498 141.191 17.067 0 31.030 13.964 31.030 31.030v324.886c0 17.067-13.964 31.030-31.030 31.030h-421.392c-141.188 0-273.687-54.923-373.604-154.53-99.607-99.607-154.532-232.419-154.532-373.607 0-17.067 13.964-31.030 31.030-31.030zM948.907 460.722c-88.126-13.343-156.703-81.923-170.046-169.739h-685.148c7.447 112.64 55.233 218.148 135.292 298.516 88.126 87.816 205.11 136.53 329.542 136.53h390.361v-265.308zM980.865 174.316h-920.357c-17.067 0-31.030-13.964-31.030-31.030s13.964-31.030 31.030-31.030h920.357c17.067 0 31.030 13.964 31.030 31.030s-13.964 31.030-31.030 31.030zM617.5 491.443h227.762c17.067 0 31.030 13.964 31.030 31.030v127.224c0 17.067-13.964 31.030-31.030 31.030h-100.538c-87.195 0-158.255-71.059-158.255-158.254 0-17.067 13.964-31.030 31.030-31.030zM814.232 553.504h-160.427c13.033 38.167 49.338 65.163 90.919 65.163h69.508v-65.163z" fill="#1D1D1D" />

    </g>
</svg>