<?xml version="1.0" encoding="iso-8859-1"?>
<!DOCTYPE svg PUBLIC "-//W3C//DTD SVG 1.1//EN" "http://www.w3.org/Graphics/SVG/1.1/DTD/svg11.dtd">
<svg version="1.1" xmlns="http://www.w3.org/2000/svg" xmlns:xlink="http://www.w3.org/1999/xlink" x="0px"
	y="0px" width="511.626px" height="511.627px" viewBox="0 0 1100 1100"
	style="enable-background:new 0 0 1100 1100;" xml:space="preserve">
	<g>
		

<path transform="rotate(180 500 500) scale(0.9)" d="M348.437 945.331c-151.663 2.214-285.059-102.123-317.44-249.081-4.982-22.693 0.554-45.941 15.222-63.93 14.668-18.266 36.532-28.783 60.056-28.783 35.425 0 66.698 24.631 74.171 58.396 17.159 75.831 83.304 128.692 161.073 128.692 89.946 0 162.179-70.297 164.947-160.519v-2.491c-1.661-63.931-54.798-115.682-118.729-115.682h-206.184c-87.178 0-157.752-70.852-157.752-157.754v-373.345c0-15.222 12.454-27.676 27.676-27.676h580.359c15.222 0 27.676 12.454 27.676 27.676v637.371c0 176.571-139.485 323.528-310.521 327.403l-0.554-0.277zM181.275 456.582h206.184c96.035 0 174.357 78.319 174.357 174.354 0 1.937 0 3.875-0.277 3.875-4.982 118.452-101.846 211.165-220.298 211.165-103.784 0-192.069-70.572-215.040-171.866-3.321-14.945-26.845-19.926-37.085-7.196-3.875 4.982-5.535 11.347-4.151 17.437 26.292 119.836 133.95 205.905 257.107 205.905 1.661 0 3.321 0 4.982 0 141.423-3.044 256.554-125.093 256.554-272.051v-609.695h-525.008v345.669c0 56.458 45.942 102.403 102.4 102.403h0.276zM206.184 98.456h270.114c33.488 0 60.61 27.125 60.61 60.612s-27.122 60.607-60.61 60.607h-270.114c-33.488 0-60.61-27.119-60.61-60.607s27.122-60.612 60.61-60.612z" fill="#1D1D1D" />

    </g>
</svg>