<?xml version="1.0" encoding="iso-8859-1"?>
<!DOCTYPE svg PUBLIC "-//W3C//DTD SVG 1.1//EN" "http://www.w3.org/Graphics/SVG/1.1/DTD/svg11.dtd">
<svg version="1.1" xmlns="http://www.w3.org/2000/svg" xmlns:xlink="http://www.w3.org/1999/xlink" x="0px"
	y="0px" width="511.626px" height="511.627px" viewBox="0 0 1100 1100"
	style="enable-background:new 0 0 1100 1100;" xml:space="preserve">
	<g>
		

<path transform="rotate(180 500 500) scale(0.9)" d="M784.384 867.548h-129.024c-36.571 42.423-90.112 66.705-148.334 66.705s-111.762-24.282-148.333-66.705h-129.025c-31.89 0-57.929-25.162-57.929-55.882v-808.082c0-30.72 26.038-55.881 57.929-55.881h554.716c31.89 0 57.929 25.161 57.929 55.881v808.082c0 30.72-26.039 55.882-57.929 55.882zM229.668 810.203h95.671c-6.144-17.554-9.070-35.693-9.070-54.125 0-15.799 12.873-28.673 28.671-28.673h324.17c15.799 0 28.672 12.874 28.672 28.673 0 18.725-3.218 36.863-9.362 54.418l96.549 1.17v-808.082l-0.585 1.463-555.3-1.463 0.584 806.619zM507.026 876.909c62.61 0 115.273-38.618 129.609-92.159h-259.218c14.336 53.541 66.999 92.159 129.609 92.159zM665.597 601.6h-317.147c-16.091 0-29.257-13.166-29.257-29.257s13.166-29.257 29.257-29.257h317.147c16.091 0 29.257 13.166 29.257 29.257s-13.166 29.257-29.257 29.257zM665.597 491.886h-317.147c-16.091 0-29.257-13.166-29.257-29.257s13.166-29.257 29.257-29.257h317.147c16.091 0 29.257 13.166 29.257 29.257s-13.166 29.257-29.257 29.257z" fill="#1D1D1D" />

    </g>
</svg>