<?xml version="1.0" encoding="iso-8859-1"?>
<!DOCTYPE svg PUBLIC "-//W3C//DTD SVG 1.1//EN" "http://www.w3.org/Graphics/SVG/1.1/DTD/svg11.dtd">
<svg version="1.1" xmlns="http://www.w3.org/2000/svg" xmlns:xlink="http://www.w3.org/1999/xlink" x="0px"
	y="0px" width="511.626px" height="511.627px" viewBox="0 0 1100 1100"
	style="enable-background:new 0 0 1100 1100;" xml:space="preserve">
	<g>
		

<path transform="rotate(180 500 500) scale(0.9)" d="M851.911 419.274c28.16 41.813 43.236 90.453 43.236 141.084 0 139.378-113.209 252.587-252.587 252.587-38.969 0-75.947-8.533-108.942-25.031-10.524-3.982-18.204-13.083-21.333-23.607-41.813 30.435-92.729 48.639-148.196 48.639-139.379 0-252.587-113.209-252.587-252.587 0-50.63 15.075-98.986 43.235-141.084-95.573-67.982-152.463-177.209-152.463-294.969 0-19.627 15.929-35.556 35.556-35.556s35.556 15.929 35.556 35.556c0 97.564 48.356 187.164 129.991 241.209 75.093-62.009 180.623-76.516 272.499-31.573 17.351 8.533 33.564 19.342 48.64 31.573 81.636-54.329 129.991-143.644 129.991-241.209 0-19.627 15.929-35.556 35.556-35.556s35.556 15.929 35.556 35.556c0 69.689-20.196 136.252-56.32 193.141 5.404-3.129 11.378-5.407 17.92-5.407 2.56 0 5.12 0 7.396 0.853 39.253 8.249 76.516 26.453 108.658 52.907 81.636-54.329 130.276-143.929 130.276-241.493 0-19.627 15.929-35.556 35.556-35.556s35.556 15.929 35.556 35.556c0 117.76-56.604 226.702-152.178 294.684l-0.569 0.284zM545.28 560.358c0-100.124-81.351-181.475-181.476-181.475s-181.476 81.351-181.476 181.475c0 100.124 81.351 181.476 181.476 181.476s181.476-81.351 181.476-181.476zM573.156 419.274c28.444 41.813 43.236 90.169 43.236 141.084 0 61.156-21.902 117.477-58.311 161.281 1.422 0.569 2.844 0.855 4.267 1.424 24.747 12.516 51.769 18.771 80.213 18.771 100.124 0 181.476-81.351 181.476-181.476 0-46.648-17.92-91.303-50.062-125.436-25.6-26.738-58.027-44.661-94.151-52.341-9.387-1.991-17.351-7.393-22.471-15.357-4.836-7.396-6.542-16.501-5.12-25.318-22.187 29.298-48.356 55.751-79.076 77.369z" fill="#1D1D1D" />

    </g>
</svg>