<?xml version="1.0" encoding="iso-8859-1"?>
<!DOCTYPE svg PUBLIC "-//W3C//DTD SVG 1.1//EN" "http://www.w3.org/Graphics/SVG/1.1/DTD/svg11.dtd">
<svg version="1.1" xmlns="http://www.w3.org/2000/svg" xmlns:xlink="http://www.w3.org/1999/xlink" x="0px"
	y="0px" width="511.626px" height="511.627px" viewBox="0 0 1100 1100"
	style="enable-background:new 0 0 1100 1100;" xml:space="preserve">
	<g>
		

<path transform="rotate(180 500 500) scale(0.9)" d="M669.437 540.16c4.8-0.96 10.56-1.6 17.6-1.6 18.88 0 36.16 4.8 51.2 14.4 32.32 20.16 52.163 58.24 58.563 113.601 3.84 32.64 13.757 55.68 27.837 64.32s31.36 2.879 31.36 2.879c16.32-6.080 34.88 2.241 41.28 18.561 6.080 16.32-2.24 34.879-18.88 41.279-7.68 2.88-48 15.36-86.72-8-32.32-19.52-52.16-57.28-58.56-111.68-4.16-33.92-14.4-57.6-28.8-66.88-12.8-8-27.517-3.84-27.517-3.84-16.32 5.76-34.883-2.88-40.963-19.52-0.96-2.88-1.28-6.080-1.28-8.96l-220.16 224.001c-7.68 7.68-18.56 11.199-29.12 8.959s-19.52-9.28-23.36-19.52l-315.839-790.080c-4.8-11.84-1.919-25.28 6.721-34.24 6.080-6.080 14.399-9.6 22.719-9.6 3.84 0 7.681 0.64 11.201 1.92l252.798 95.68c3.52 0.64 7.040 1.92 10.56 3.84l354.56 134.080c7.040 0 13.76 2.24 20.48 8l156.8 59.52c10.24 3.84 17.6 12.48 19.84 23.040s-0.96 21.44-8.32 29.44l-225.28 229.44 1.28 0.96zM190.078 185.6l87.039-88.64-144-54.72 57.281 143.040-0.32 0.32zM464.637 168.32l-122.24-46.4-126.399 128.64 48.641 121.6 200.322-203.84h-0.323zM646.397 237.12l-116.48-44.16-239.679 243.84 46.079 115.52 309.76-315.52 0.32 0.32zM711.677 261.76l-349.44 355.52 40.643 102.080 411.197-418.56-102.72-38.72 0.32-0.32zM559.68 689.279h0.32c17.28 0 31.68 14.082 32 31.682l2.56 182.398c0 8.64-3.2 16.641-8.96 22.721-6.080 6.080-14.080 9.6-23.040 9.6-17.28 0-31.68-14.080-32-31.68l-2.56-182.4c0-8.64 3.2-16.639 8.96-22.719 6.080-6.080 14.080-9.602 22.4-9.602h0.32zM996.8 398.72c-4.16 7.36-10.88 12.8-19.2 15.36l-110.72 31.68c-8 2.56-16.64 1.6-24.32-2.56s-13.12-10.88-15.36-19.2c-2.24-8.32-1.28-16.96 2.88-24.32s10.88-12.8 19.2-15.36l110.72-31.68c2.88-0.96 5.76-1.28 8.96-1.28 14.080 0 26.88 9.6 30.72 23.040 2.24 8.32 1.28 16.96-2.88 24.32zM801.597 550.72c-3.52-7.68-4.157-16.32-0.957-24.32 4.48-12.8 16.64-21.123 30.080-21.123 3.84 0 7.357 0.64 10.877 1.92l135.363 48.963c8 2.88 14.397 8.64 18.237 16.64 3.52 7.68 4.16 16.317 1.28 24.317s-8.64 14.403-16.64 18.243c-7.68 3.52-16.32 4.16-24.32 0.96l-135.36-48.96c-8-2.88-14.4-8.64-18.24-16.64h-0.32z" fill="#1D1D1D" />

    </g>
</svg>