<?xml version="1.0" encoding="iso-8859-1"?>
<!DOCTYPE svg PUBLIC "-//W3C//DTD SVG 1.1//EN" "http://www.w3.org/Graphics/SVG/1.1/DTD/svg11.dtd">
<svg version="1.1" xmlns="http://www.w3.org/2000/svg" xmlns:xlink="http://www.w3.org/1999/xlink" x="0px"
	y="0px" width="511.626px" height="511.627px" viewBox="0 0 1100 1100"
	style="enable-background:new 0 0 1100 1100;" xml:space="preserve">
	<g>
		

<path transform="rotate(180 500 500) scale(0.9)" d="M888.64 647.678c-0.96 3.84-2.56 7.361-4.8 10.561l-254.080 265.92c-3.84 3.84-8.64 6.4-14.4 8.32-1.28 0.32-2.88 0.639-2.56 0.639l-425.601 0.961c-17.6 0-32-14.4-32-32v-589.761c0-17.6 14.4-32 32-32s32 14.4 32 32v557.761h355.841v-230.081c0-17.6 14.4-32 32-32h218.88v-295.68c0-17.6 14.4-32 32-32s32 14.4 32 32v327.68l-1.28 8.001v-0.32zM639.040 671.678v150.4l144-150.4h-144zM279.681 55.677c0-57.28-19.84-72.32-53.76-72.32-12.48 0-24 2.56-31.68 5.76l-5.76-30.717c9.6-3.84 26.56-7.043 40.32-7.043 50.24 0 88.32 24.003 88.32 101.443v195.517h-37.76v-192.64h0.32zM452.8 250.237c-30.4 0-54.080-2.557-72.32-5.757v-288.643h37.76v117.123c8.64-2.24 19.2-2.56 30.399-2.56 36.8 0 69.44 10.88 89.28 32 14.72 15.040 22.4 35.84 22.4 62.4s-9.6 47.357-25.6 61.117c-17.28 15.68-44.8 24.32-81.92 24.32zM449.28 100.8c-12.48 0-23.040 0.957-31.36 2.877v113.6c6.4 1.6 19.2 2.88 35.52 2.88 41.6 0 68.8-18.557 68.8-57.277s-27.84-62.4-73.28-62.4l0.32 0.32zM736.957 79.037h59.52v-87.040c-8.64-4.48-25.6-7.68-50.24-7.68-68.16 0-112.64 43.843-112.64 118.083s46.4 117.437 117.44 117.437c29.44 0 48.96-5.76 64.64-12.48l8.96 30.72c-12.48 6.080-39.040 13.44-72.96 13.44-97.92 0-157.76-63.677-158.4-151.037 0-45.44 15.68-84.483 40.64-108.803 28.48-27.2 64.96-38.717 109.44-38.717 39.36 0 72.96 9.92 89.6 16v140.477h-96.32v-30.4h0.32z" fill="#1D1D1D" />

    </g>
</svg>