<?xml version="1.0" encoding="iso-8859-1"?>
<!DOCTYPE svg PUBLIC "-//W3C//DTD SVG 1.1//EN" "http://www.w3.org/Graphics/SVG/1.1/DTD/svg11.dtd">
<svg version="1.1" xmlns="http://www.w3.org/2000/svg" xmlns:xlink="http://www.w3.org/1999/xlink" x="0px"
	y="0px" width="511.626px" height="511.627px" viewBox="0 0 1100 1100"
	style="enable-background:new 0 0 1100 1100;" xml:space="preserve">
	<g>
		

<path transform="rotate(180 500 500) scale(0.9)" d="M989.12 958.398h-945.28c-17.6 0-32-14.4-32-32v-945.278c0-17.6 14.4-32 32-32s32 14.4 32 32v104.957h881.28v-104.957c0-17.6 14.4-32 32-32s32 14.4 32 32v945.278c0 17.6-14.4 32-32 32zM75.84 894.398h424.64v-743.998h-424.64v743.998zM532.48 150.4v743.998h424.64v-743.998h-424.64zM402.24 595.52c-40.32 0-73.28-32.963-73.28-73.283s32.96-73.277 73.28-73.277c40.32 0 73.28 32.957 73.28 73.277s-32.96 73.283-73.28 73.283zM402.24 481.28c-22.72 0-41.28 18.56-41.28 41.28s18.56 41.28 41.28 41.28c22.72 0 41.28-18.56 41.28-41.28s-18.56-41.28-41.28-41.28zM633.6 595.52c-40.32 0-73.28-32.963-73.28-73.283s32.96-73.277 73.28-73.277c40.32 0 73.28 32.957 73.28 73.277s-32.96 73.283-73.28 73.283zM633.6 481.28c-22.72 0-41.28 18.56-41.28 41.28s18.56 41.28 41.28 41.28c22.72 0 41.28-18.56 41.28-41.28s-18.56-41.28-41.28-41.28z" fill="#1D1D1D" />

    </g>
</svg>