<?xml version="1.0" encoding="iso-8859-1"?>
<!DOCTYPE svg PUBLIC "-//W3C//DTD SVG 1.1//EN" "http://www.w3.org/Graphics/SVG/1.1/DTD/svg11.dtd">
<svg version="1.1" xmlns="http://www.w3.org/2000/svg" xmlns:xlink="http://www.w3.org/1999/xlink" x="0px"
	y="0px" width="511.626px" height="511.627px" viewBox="0 0 1100 1100"
	style="enable-background:new 0 0 1100 1100;" xml:space="preserve">
	<g>
		

<path transform="rotate(180 500 500) scale(0.9)" d="M842.806 234.951c23.609 26.453 36.978 60.302 36.978 95.573 0 79.644-64.853 144.498-144.498 144.498s-144.495-64.853-144.495-144.498c0-35.556 13.082-69.12 36.975-95.573-50.631-22.471-93.298-60.587-121.458-108.373-28.16 47.787-70.824 85.902-121.455 108.373 23.609 26.453 36.978 60.302 36.978 95.573 0 79.644-64.856 144.498-144.499 144.498s-144.498-64.853-144.498-144.498c0-35.556 13.084-69.12 36.977-95.573-95.573-42.382-158.151-137.387-158.151-242.916 0-19.627 15.929-35.556 35.555-35.556s35.556 15.929 35.556 35.556c0 105.813 82.774 191.147 189.156 194.276 3.698-0.569 7.111-0.569 11.946 0 95.857-3.129 176.071-76.516 187.164-171.52-0.569-7.68-1.135-15.36-1.135-23.040 0-18.773 14.504-34.133 34.699-35.271h3.413c19.627-0.284 35.556 15.644 35.556 35.271 0 7.68-0.569 15.36-1.138 23.040 11.093 94.72 91.591 168.391 187.733 171.236 3.698-0.569 7.114-0.569 11.95 0 105.813-3.413 188.584-88.747 188.584-194.56 0-19.627 15.929-35.556 35.556-35.556s35.556 15.929 35.556 35.556c0 105.529-62.578 200.533-158.151 242.916l-0.853 0.569zM741.544 243.487l-1.991 14.222c-1.422 0-3.126 0-4.548 0s-3.129-0.003-5.404-0.287c-38.116 2.844-67.985 34.987-67.985 72.818 0 40.391 32.998 73.384 73.39 73.384s73.384-32.993 73.384-73.384c0-38.116-29.864-69.973-67.979-72.818l1.135-14.222v0.287zM283.306 243.487l-1.991 14.222c-1.422 0-3.13 0-4.552 0s-3.129-0.003-5.404-0.287c-38.116 2.844-67.981 34.987-67.981 72.818 0 40.391 32.994 73.384 73.386 73.384s73.386-32.993 73.386-73.384c0-38.116-29.867-69.973-67.982-72.818l1.139-14.222v0.287zM46.363 426.382c19.627 0 35.556 15.929 35.556 35.556 0 105.813 82.774 191.144 189.156 194.273 3.698-0.569 7.111-0.569 11.946 0 95.859-3.129 176.073-76.513 187.166-171.517-0.569-7.68-1.141-15.36-1.141-23.040 0-18.773 14.51-34.133 34.705-35.271h3.413c19.627-0.284 35.556 15.644 35.556 35.271 0 7.68-0.572 15.36-1.141 23.040 11.093 94.72 91.594 168.394 187.736 171.238 3.698-0.569 7.108-0.569 11.944 0 105.813-3.413 188.587-88.75 188.587-194.563 0-19.627 15.929-35.556 35.556-35.556s35.556 15.929 35.556 35.556c0 105.529-62.578 200.533-158.151 242.916 23.609 26.453 36.978 60.302 36.978 95.573 0 79.644-64.853 144.496-144.498 144.496s-144.495-64.852-144.495-144.496c0-35.556 13.082-69.12 36.975-95.573-50.631-22.471-93.298-60.587-121.458-108.374-28.16 47.787-70.824 85.903-121.455 108.374 23.609 26.453 36.978 60.302 36.978 95.573 0 79.644-64.856 144.496-144.499 144.496s-144.498-64.852-144.498-144.496c0-35.556 13.084-69.12 36.977-95.573-95.573-42.383-158.151-137.387-158.151-242.916 0-19.627 15.929-35.556 35.555-35.556l-0.852 0.569zM203.092 800.427c0 40.391 32.994 73.386 73.386 73.386s73.386-32.994 73.386-73.386c0-38.116-29.867-69.975-68.834-72.819-3.129 0-5.404 0.284-10.239 0-38.116 2.844-67.983 34.988-67.983 72.819h0.285zM661.33 800.427c0 40.391 32.998 73.386 73.39 73.386s73.384-32.994 73.384-73.386c0-38.116-29.867-69.975-68.836-72.819-3.129 0-5.404 0.284-10.24 0-38.116 2.844-67.982 34.988-67.982 72.819h0.284z" fill="#1D1D1D" />

    </g>
</svg>