<?xml version="1.0" encoding="iso-8859-1"?>
<!DOCTYPE svg PUBLIC "-//W3C//DTD SVG 1.1//EN" "http://www.w3.org/Graphics/SVG/1.1/DTD/svg11.dtd">
<svg version="1.1" xmlns="http://www.w3.org/2000/svg" xmlns:xlink="http://www.w3.org/1999/xlink" x="0px"
	y="0px" width="511.626px" height="511.627px" viewBox="0 0 1100 1100"
	style="enable-background:new 0 0 1100 1100;" xml:space="preserve">
	<g>
		

<path transform="rotate(180 500 500) scale(0.9)" d="M507.706 300.016c76.622 0 138.735 62.112 138.735 138.734s-62.114 138.738-138.735 138.738c-76.622 0-138.735-62.116-138.735-138.738s62.114-138.734 138.735-138.734zM140.056 300.016c76.621 0 138.735 62.112 138.735 138.734s-62.114 138.738-138.735 138.738c-76.622 0-138.736-62.116-138.736-138.738s62.114-138.734 138.736-138.734zM875.025 577.488c-76.635 0-138.735-62.103-138.735-138.738s62.101-138.734 138.735-138.734c76.635 0 138.735 62.099 138.735 138.734s-62.101 138.738-138.735 138.738z" fill="#1D1D1D" />

    </g>
</svg>