<?xml version="1.0" encoding="iso-8859-1"?>
<!DOCTYPE svg PUBLIC "-//W3C//DTD SVG 1.1//EN" "http://www.w3.org/Graphics/SVG/1.1/DTD/svg11.dtd">
<svg version="1.1" xmlns="http://www.w3.org/2000/svg" xmlns:xlink="http://www.w3.org/1999/xlink" x="0px"
	y="0px" width="511.626px" height="511.627px" viewBox="0 0 1100 1100"
	style="enable-background:new 0 0 1100 1100;" xml:space="preserve">
	<g>
		

<path transform="rotate(180 500 500) scale(0.9)" d="M505.919 320.64c74.227 0 134.4 60.173 134.4 134.4s-60.173 134.4-134.4 134.4c-74.227 0-134.4-60.173-134.4-134.4s60.173-134.4 134.4-134.4zM505.919 676.801c74.227 0 134.4 60.172 134.4 134.399s-60.173 134.402-134.4 134.402c-74.227 0-134.4-60.175-134.4-134.402s60.173-134.399 134.4-134.399zM505.919 233.28c-74.24 0-134.4-60.16-134.4-134.4s60.16-134.4 134.4-134.4c74.24 0 134.4 60.16 134.4 134.4s-60.16 134.4-134.4 134.4z" fill="#1D1D1D" />

    </g>
</svg>