<?xml version="1.0" encoding="iso-8859-1"?>
<!DOCTYPE svg PUBLIC "-//W3C//DTD SVG 1.1//EN" "http://www.w3.org/Graphics/SVG/1.1/DTD/svg11.dtd">
<svg version="1.1" xmlns="http://www.w3.org/2000/svg" xmlns:xlink="http://www.w3.org/1999/xlink" x="0px"
	y="0px" width="511.626px" height="511.627px" viewBox="0 0 1100 1100"
	style="enable-background:new 0 0 1100 1100;" xml:space="preserve">
	<g>
		

<path transform="rotate(180 500 500) scale(0.9)" d="M661.44 941.441c-185.6 0-336.64-151.041-336.64-336.641 0-26.88 3.52-54.4 10.24-81.6l-308.479-308.48c-6.080-6.080-9.281-13.76-9.281-22.4l-1.92-201.28c0-8.32 3.201-16.96 9.281-22.72 6.080-6.080 14.399-9.6 22.719-9.6h175.361c17.6 0 32 14.4 32 32v81.28h37.439c17.6 0 32 14.4 32 32v28.48h11.52c17.6 0 32 14.4 32 32v1.597h40.64c17.6 0 32 14.4 32 32v88.643l36.8 36.8c54.4-35.84 119.36-55.68 184.64-55.68 185.6 0 336.64 151.040 336.64 336.64s-151.040 336.641-336.64 336.641l-0.32 0.32zM464.96 396.16l-5.12-1.6c-2.56-1.28-4.16-2.56-4.48-2.88l-69.76-68.8c-6.080-6.080-9.28-14.080-9.28-22.72v-70.083h-40.64c-17.6 0-32-14.4-32-32v-1.597h-11.52c-17.6 0-32-14.4-32-32v-28.48h-37.439c-17.6 0-32-14.4-32-32v-81.28h-111.041l1.6 156.16 312.641 312.32c3.84 3.84 6.4 8.643 8 14.723l0.64 3.517c0.32 3.52 0.32 6.72-0.32 10.56v1.28l-0.96 2.88c-8 26.24-12.16 53.44-12.16 80.96 0 150.401 122.24 272.642 272.64 272.642s272.64-122.241 272.64-272.642c0-150.4-122.24-272.64-272.64-272.64-61.12 0-120.96 20.8-168.32 58.24l-9.6 5.12c-2.88 0.96-5.12 1.28-6.72 1.28h-5.12c-2.88 0-5.12-0.64-7.040-1.28v0.32zM712.32 543.36c61.76 0 112.32 50.24 112.32 112.32s-50.24 112.32-112.32 112.32c-62.080 0-112.32-50.24-112.32-112.32s50.24-112.32 112.32-112.32zM712.32 704c26.56 0 48.32-21.76 48.32-48.32s-21.76-48.32-48.32-48.32c-26.56 0-48.32 21.76-48.32 48.32s21.76 48.32 48.32 48.32z" fill="#1D1D1D" />

    </g>
</svg>