<?xml version="1.0" encoding="iso-8859-1"?>
<!DOCTYPE svg PUBLIC "-//W3C//DTD SVG 1.1//EN" "http://www.w3.org/Graphics/SVG/1.1/DTD/svg11.dtd">
<svg version="1.1" xmlns="http://www.w3.org/2000/svg" xmlns:xlink="http://www.w3.org/1999/xlink" x="0px"
	y="0px" width="511.626px" height="511.627px" viewBox="0 0 1100 1100"
	style="enable-background:new 0 0 1100 1100;" xml:space="preserve">
	<g>
		

<path transform="rotate(180 500 500) scale(0.9)" d="M522.237 945.885c-273.435 0-496.224-222.51-496.224-496.222s222.512-496.228 496.224-496.228 496.225 222.515 496.225 496.228c0 273.711-222.512 496.222-496.225 496.222zM522.237 890.534c242.992 0 440.874-197.602 440.874-440.87s-197.881-440.876-440.874-440.876-440.872 197.607-440.872 440.876c0 243.268 197.603 440.87 440.872 440.87zM452.221 426.413l-82.75-211.165c-3.321-8.579-2.214-17.989 3.044-25.738 5.258-7.472 13.838-11.901 22.694-11.901h282.292c9.41 0 18.266 4.702 23.248 12.728s5.812 17.992 1.661 26.571l-99.079 213.656c47.325 27.676 77.492 79.429 77.492 134.781 0 86.348-70.296 156.645-156.644 156.645s-156.921-70.297-156.921-156.645c0-57.842 33.488-112.086 84.688-138.932h0.277zM524.454 666.638c55.905 0 101.293-45.388 101.293-101.293 0-43.174-27.122-81.643-68.082-95.758l-9.963-6.365c-1.661-1.661-2.768-3.044-3.875-4.705-0.83-1.384-1.661-2.491-2.214-4.151l-2.214-10.24c0-2.214 0.277-4.149 0.554-4.979l94.097-206.463h-198.435l77.215 197.051 1.937 7.749c0 0 0.554 3.324 0.277 5.261l-2.768 10.24c-0.83 1.937-1.937 3.318-3.044 4.702-0.554 0.83-1.661 2.491-3.321 3.875l-10.794 6.089c-42.621 12.731-72.51 52.584-72.51 97.418 0 55.905 45.665 101.293 101.57 101.293l0.277 0.277z" fill="#1D1D1D" />

    </g>
</svg>