<?xml version="1.0" encoding="iso-8859-1"?>
<!DOCTYPE svg PUBLIC "-//W3C//DTD SVG 1.1//EN" "http://www.w3.org/Graphics/SVG/1.1/DTD/svg11.dtd">
<svg version="1.1" xmlns="http://www.w3.org/2000/svg" xmlns:xlink="http://www.w3.org/1999/xlink" x="0px"
	y="0px" width="511.626px" height="511.627px" viewBox="0 0 1100 1100"
	style="enable-background:new 0 0 1100 1100;" xml:space="preserve">
	<g>
		

<path transform="rotate(180 500 500) scale(0.9)" d="M998.4 786.879c0 34.24-13.44 66.242-37.44 90.562-23.040 23.040-56 36.481-90.56 36.481-34.24 0-67.2-13.441-90.56-36.481l-756.8-756.801c-6.080-6.080-9.6-14.72-9.6-23.36s3.52-17.283 9.6-23.043c62.72-62.72 145.92-96.957 234.56-96.957s172.16 34.557 234.56 96.957l296 296c12.8 12.8 12.8 33.603 0 46.403l-53.76 53.76 226.56 226.561c24 24 37.44 56.319 37.44 90.559v-0.641zM914.56 743.039l-226.56-226.559-88 88 226.56 226.559c11.2 11.2 27.2 17.602 44.16 17.602s32.96-6.402 44.16-17.602c11.84-11.84 18.24-27.2 18.24-44.16s-6.4-32.32-18.24-43.84h-0.32zM718.72 393.28l-272.64-272.64c-95.36-95.36-247.040-103.68-352-21.76l459.52 459.52 165.12-165.12zM701.44 648c-16.32 0-29.44-13.121-29.44-29.44s13.12-29.44 29.44-29.44 29.44 13.12 29.44 29.44c0 16.319-13.12 29.44-29.44 29.44zM862.080 750.078c16.259 0 29.44 13.182 29.44 29.442s-13.181 29.441-29.44 29.441c-16.259 0-29.44-13.182-29.44-29.441s13.181-29.442 29.44-29.442z" fill="#1D1D1D" />

    </g>
</svg>