<?xml version="1.0" encoding="iso-8859-1"?>
<!DOCTYPE svg PUBLIC "-//W3C//DTD SVG 1.1//EN" "http://www.w3.org/Graphics/SVG/1.1/DTD/svg11.dtd">
<svg version="1.1" xmlns="http://www.w3.org/2000/svg" xmlns:xlink="http://www.w3.org/1999/xlink" x="0px"
	y="0px" width="511.626px" height="511.627px" viewBox="0 0 1100 1100"
	style="enable-background:new 0 0 1100 1100;" xml:space="preserve">
	<g>
		

<path transform="rotate(180 500 500) scale(0.9)" d="M874.744 915.936c-3.103 13.964-15.822 24.204-30.407 24.204h-662.189c-14.274 0-27.306-10.241-30.409-24.204l-128.155-574.677c-2.172-9.309 0-18.621 6.206-26.069 5.896-7.447 14.583-11.792 24.203-11.792h428.217v-281.445h-166.943c-17.067 0-31.030-13.964-31.030-31.030s13.964-31.030 31.030-31.030h394.395c17.067 0 31.030 13.964 31.030 31.030s-13.964 31.030-31.030 31.030h-165.081v281.445h262.516v-69.508c0-17.067 13.967-31.030 31.030-31.030 17.067 0 31.030 13.964 31.030 31.030v69.508h103.641c9.309 0 18.308 4.344 24.204 11.792s8.071 17.070 6.209 26.069l-128.155 574.677h-0.313zM819.51 878.080l114.195-512.62h-840.923l114.191 512.62h612.538z" fill="#1D1D1D" />

    </g>
</svg>