<?xml version="1.0" encoding="iso-8859-1"?>
<!DOCTYPE svg PUBLIC "-//W3C//DTD SVG 1.1//EN" "http://www.w3.org/Graphics/SVG/1.1/DTD/svg11.dtd">
<svg version="1.1" xmlns="http://www.w3.org/2000/svg" xmlns:xlink="http://www.w3.org/1999/xlink" x="0px"
	y="0px" width="511.626px" height="511.627px" viewBox="0 0 1100 1100"
	style="enable-background:new 0 0 1100 1100;" xml:space="preserve">
	<g>
		

<path transform="rotate(180 500 500) scale(0.9)" d="M1002.279 515.025c0 64.233-52.131 116.364-116.364 116.364s-116.364-52.131-116.364-116.364v-153.29h-230.552c-94.953 0-171.908-77.262-171.908-171.905v-202.631c0-17.067 13.964-31.030 31.030-31.030h572.816c17.067 0 31.030 13.964 31.030 31.030v343.505c0 0 0 0.31 0 0.621 0 0 0 0.31 0 0.621v183.389l0.31-0.31zM831.926 515.025c0 29.789 24.204 54.303 54.303 54.303s54.303-24.204 54.303-54.303v-152.359h-108.296v152.359h-0.31zM940.218 17.92h-510.756v171.598c0 60.509 49.338 109.847 109.847 109.847h400.908v-281.445zM387.258 617.115c0-23.893 19.239-43.129 43.132-43.129s43.132 19.236 43.132 43.129c0 0.31 0 0.621 0 0.931h60.199c12.102 0 22.962 7.14 28.238 18.001 4.965 10.861 3.413 23.89-4.655 33.199l-97.125 114.5c-6.827 84.402-76.645 151.117-162.598 151.117h-109.849c-90.298 0-163.839-73.539-163.839-163.837v-783.516c0-17.067 13.964-31.030 31.030-31.030h170.045c17.067 0 31.030 13.964 31.030 31.030s-13.964 31.030-31.030 31.030h-139.015v752.486c0 56.165 45.614 101.777 101.778 101.777h109.849c52.751 0 95.572-40.338 100.848-91.848l-94.952-111.708c-7.758-9.309-9.62-22.028-4.655-33.199s16.136-18.001 28.238-18.001h60.199c0 0 0-0.621 0-0.931zM430.39 722.618l36.305-42.512h-72.301l36.305 42.512h-0.31z" fill="#1D1D1D" />

    </g>
</svg>