<?xml version="1.0" encoding="iso-8859-1"?>
<!DOCTYPE svg PUBLIC "-//W3C//DTD SVG 1.1//EN" "http://www.w3.org/Graphics/SVG/1.1/DTD/svg11.dtd">
<svg version="1.1" xmlns="http://www.w3.org/2000/svg" xmlns:xlink="http://www.w3.org/1999/xlink" x="0px"
	y="0px" width="511.626px" height="511.627px" viewBox="0 0 1100 1100"
	style="enable-background:new 0 0 1100 1100;" xml:space="preserve">
	<g>
		

<path transform="rotate(180 500 500) scale(0.9)" d="M824.96 863.357c-105.92 105.92-278.4 105.92-384.64 0l-319.359-319.36c-6.72-6.72-10.242-15.68-9.922-24.96l8.641-312.32-99.199-99.2c-13.12-13.44-13.12-34.88 0-48.32 6.4-6.4 15.040-9.917 24-9.917s17.6 3.517 24 9.917l99.199 99.2 313.6-8.637c8.96 0 17.6 3.517 24 9.917l319.36 319.36c105.92 105.92 105.92 278.4 0 384.64l0.32-0.32zM179.84 506.237l308.8 308.8c38.4 38.4 89.6 59.52 144 59.52 42.88 0 83.52-13.437 117.76-37.437l-564.16-564.159-6.4 233.277zM467.84 218.237l-233.279 6.4 202.239 202.24h239.68l-208.64-208.64zM744.96 495.357h-239.68l293.44 293.442c24.32-34.24 37.44-74.882 37.44-117.762 0-54.4-21.12-105.6-59.52-144l-31.68-31.68zM819.2 311.677c-97.6 0-176.957-79.363-176.957-176.963s79.357-176.957 176.957-176.957c97.6 0 176.963 79.357 176.963 176.957s-79.363 176.963-176.963 176.963zM819.2 0.957c-73.6 0-133.76 59.837-133.76 133.757s59.84 133.763 133.76 133.763c73.92 0 133.763-59.843 133.763-133.763s-59.843-133.757-133.763-133.757zM909.443 203.837c-8.32 8.32-22.080 8-30.72-0.32l-85.76-88-32.32 39.677c-7.36 9.28-21.12 10.56-30.4 3.2-9.28-7.68-10.563-21.117-3.203-30.397l47.683-58.24c3.84-4.8 9.6-7.68 16-8h0.64c5.76 0 11.52 2.24 15.36 6.4l102.72 105.28c4.16 4.16 6.080 9.6 6.080 15.36s-2.243 11.2-6.403 15.36l0.323-0.32z" fill="#1D1D1D" />

    </g>
</svg>