<?xml version="1.0" encoding="iso-8859-1"?>
<!DOCTYPE svg PUBLIC "-//W3C//DTD SVG 1.1//EN" "http://www.w3.org/Graphics/SVG/1.1/DTD/svg11.dtd">
<svg version="1.1" xmlns="http://www.w3.org/2000/svg" xmlns:xlink="http://www.w3.org/1999/xlink" x="0px"
	y="0px" width="511.626px" height="511.627px" viewBox="0 0 1100 1100"
	style="enable-background:new 0 0 1100 1100;" xml:space="preserve">
	<g>
		

<path transform="rotate(180 500 500) scale(0.9)" d="M453.353 271.441h-298.822c-34.133 0-62.061 31.334-62.061 70.122v206.043c0 38.788 27.927 70.129 62.061 70.129h298.822c17.067 0 31.030 13.964 31.030 31.030s-13.964 31.030-31.030 31.030h-298.822c-68.577 0-124.121-59.268-124.121-132.189v-206.043c0-72.921 55.544-132.183 124.121-132.183h298.822c17.067 0 31.030 13.964 31.030 31.030s-13.964 31.030-31.030 31.030zM889.328 679.485h-300.063c-17.067 0-31.030-13.964-31.030-31.030s13.964-31.030 31.030-31.030h300.063c34.133 0 62.061-31.341 62.061-69.818v-205.419c0-38.478-27.927-69.818-62.061-69.818h-300.063c-17.067 0-31.030-13.964-31.030-31.030s13.964-31.030 31.030-31.030h300.063c68.577 0 124.121 59.268 124.121 131.879v205.419c0 72.611-55.544 131.879-124.121 131.879zM287.030 444.587c0-17.067 13.964-31.030 31.030-31.030h407.738c17.067 0 31.030 13.964 31.030 31.030s-13.964 31.030-31.030 31.030h-407.738c-17.067 0-31.030-13.964-31.030-31.030z" fill="#1D1D1D" />

    </g>
</svg>