<?xml version="1.0" encoding="iso-8859-1"?>
<!DOCTYPE svg PUBLIC "-//W3C//DTD SVG 1.1//EN" "http://www.w3.org/Graphics/SVG/1.1/DTD/svg11.dtd">
<svg version="1.1" xmlns="http://www.w3.org/2000/svg" xmlns:xlink="http://www.w3.org/1999/xlink" x="0px"
	y="0px" width="511.626px" height="511.627px" viewBox="0 0 1100 1100"
	style="enable-background:new 0 0 1100 1100;" xml:space="preserve">
	<g>
		

<path transform="rotate(180 500 500) scale(0.9)" d="M1001.038 120.63l-108.296 410.531c-1.552 40.029-17.067 79.748-47.787 110.468-19.549 19.551-30.41 45.62-30.41 73.236 0 91.229-74.162 165.697-165.702 165.697-27.617 0-53.682 10.86-73.232 30.409-64.543 64.543-169.736 64.543-234.279 0-19.549-19.549-45.614-30.409-73.231-30.409-91.229 0-165.703-74.157-165.703-165.697 0-27.617-10.86-53.686-30.409-73.236-64.543-64.543-64.543-169.736 0-234.279 19.239-19.239 30.409-45.922 30.409-73.228 0-91.229 74.163-165.705 165.703-165.705 27.617 0 53.682-10.858 73.231-30.407 32.272-32.272 74.783-48.41 116.984-48.41s84.713 16.139 116.984 48.41c19.549 19.549 45.615 30.407 73.232 30.407 39.719 0 75.714 14.584 104.262 38.167l-21.721-89.674c-7.758-32.582-5.585-63.926 6.827-90.612 22.652-49.648 72.611-81.607 127.224-81.607 43.753 0 84.092 19.859 111.088 54.613 26.686 34.754 35.685 78.814 24.514 121.325h0.31zM801.202 451.109c-30.72-30.72-48.407-73.545-48.407-116.987 0-57.096-46.545-103.644-103.641-103.644-44.373 0-85.954-17.377-116.984-48.407-40.339-40.339-106.124-40.339-146.463 0-31.341 31.341-72.921 48.407-116.985 48.407-57.096 0-103.64 46.549-103.64 103.644 0 43.442-17.687 86.267-48.407 116.987-40.339 40.339-40.339 106.121 0 146.46 31.341 31.341 48.407 72.923 48.407 116.986 0 57.096 46.545 103.636 103.64 103.636 44.374 0 85.955 17.379 116.985 48.409 20.17 20.17 46.545 30.409 73.232 30.409s53.062-10.239 73.232-30.409c31.341-31.341 72.921-48.409 116.984-48.409 57.096 0 103.641-46.54 103.641-103.636 0-44.063 17.377-85.955 48.407-116.986 19.549-19.549 29.479-44.994 30.099-70.749l-12.412-51.203c-4.655-8.688-10.24-17.060-17.687-24.508zM927.496 37.162c-14.895-19.239-37.547-30.41-61.75-30.41-30.41 0-58.337 17.998-71.059 45.301-6.206 13.653-7.447 31.347-2.793 49.965l71.68 295.709 77.265-293.233c6.206-23.583 1.241-48.094-13.653-67.643l0.31 0.31zM394.705 735.341c-69.508 0-144.599-55.231-144.599-144.598 0-17.067 13.964-31.030 31.030-31.030s31.032 13.964 31.032 31.030c0 57.096 48.404 82.538 82.538 82.538 17.067 0 31.030 13.964 31.030 31.030s-13.964 31.030-31.030 31.030zM638.29 488.029c-17.067 0-31.030-13.964-31.030-31.030 0-57.096-48.407-82.544-82.541-82.544-17.067 0-31.030-13.964-31.030-31.030s13.964-31.030 31.030-31.030c69.508 0 144.601 55.237 144.601 144.604 0 17.067-13.964 31.030-31.030 31.030z" fill="#1D1D1D" />

    </g>
</svg>