<?xml version="1.0" encoding="iso-8859-1"?>
<!DOCTYPE svg PUBLIC "-//W3C//DTD SVG 1.1//EN" "http://www.w3.org/Graphics/SVG/1.1/DTD/svg11.dtd">
<svg version="1.1" xmlns="http://www.w3.org/2000/svg" xmlns:xlink="http://www.w3.org/1999/xlink" x="0px"
	y="0px" width="511.626px" height="511.627px" viewBox="0 0 1100 1100"
	style="enable-background:new 0 0 1100 1100;" xml:space="preserve">
	<g>
		

<path transform="rotate(180 500 500) scale(0.9)" d="M506.725 933.314c-196.732 0-362.744-165.081-362.744-360.262 0-258.793 326.438-603.229 340.402-617.813 5.585-5.896 13.964-9.616 22.342-9.616s16.446 3.41 22.342 9.306c14.274 14.584 348.16 359.955 340.713 619.058-5.585 194.869-171.908 359.328-362.744 359.328h-0.31zM506.725 871.254c158.565 0 296.029-137.154 300.684-299.132 5.585-196.732-228.693-470.419-300.684-549.857-70.748 79.438-300.994 353.125-300.994 550.788 0 158.876 140.568 298.202 300.684 298.202h0.31zM664.669 619.908c0 87.196-71.059 157.944-157.944 157.944s-157.945-71.058-157.945-157.944c0-86.885 71.060-157.944 157.945-157.944s157.944 71.059 157.944 157.944zM410.53 619.908c0 53.063 43.133 95.884 95.884 95.884s95.884-43.131 95.884-95.884c0-52.752-43.132-95.884-95.884-95.884s-95.884 43.132-95.884 95.884z" fill="#1D1D1D" />

    </g>
</svg>