<?xml version="1.0" encoding="iso-8859-1"?>
<!DOCTYPE svg PUBLIC "-//W3C//DTD SVG 1.1//EN" "http://www.w3.org/Graphics/SVG/1.1/DTD/svg11.dtd">
<svg version="1.1" xmlns="http://www.w3.org/2000/svg" xmlns:xlink="http://www.w3.org/1999/xlink" x="0px"
	y="0px" width="511.626px" height="511.627px" viewBox="0 0 1100 1100"
	style="enable-background:new 0 0 1100 1100;" xml:space="preserve">
	<g>
		

<path transform="rotate(180 500 500) scale(0.9)" d="M889.92 685.762h-169.92v56c0 55.36-21.44 107.519-60.8 146.879-39.040 39.36-91.2 61.121-147.2 61.121-114.56 0-208-93.44-208-208v-56h-167.359c-70.72 0-128-57.278-128-127.998v-490.883c0-70.72 57.28-128 128-128h753.279c70.72 0 128 57.28 128 128v490.883c0 70.72-57.28 127.998-128 127.998zM512 885.762c38.72 0 74.88-15.042 101.76-41.922 27.2-27.52 42.24-63.678 42.24-102.078v-56h-288v56c0 79.36 64.64 144 144 144zM72.641 66.88v490.883c0 35.2 28.8 64 64 64h753.279c35.2 0 64-28.8 64-64v-490.883c0-35.2-28.8-64-64-64h-753.279c-35.2 0-64 28.8-64 64zM480.003 249.6v-167.040c0-17.6 14.4-32 32-32s32 14.4 32 32v167.040c58.56 14.72 101.437 67.84 101.437 128.96 0 73.6-59.837 133.44-133.437 133.44s-133.44-59.84-133.44-133.44c0-61.12 42.56-114.24 101.44-128.96zM512.003 448c38.4 0 69.437-31.040 69.437-69.44s-31.037-69.44-69.437-69.44c-38.4 0-69.44 31.040-69.44 69.44s31.040 69.44 69.44 69.44z" fill="#1D1D1D" />

    </g>
</svg>