<?xml version="1.0" encoding="iso-8859-1"?>
<!DOCTYPE svg PUBLIC "-//W3C//DTD SVG 1.1//EN" "http://www.w3.org/Graphics/SVG/1.1/DTD/svg11.dtd">
<svg version="1.1" xmlns="http://www.w3.org/2000/svg" xmlns:xlink="http://www.w3.org/1999/xlink" x="0px"
	y="0px" width="511.626px" height="511.627px" viewBox="0 0 1100 1100"
	style="enable-background:new 0 0 1100 1100;" xml:space="preserve">
	<g>
		

<path transform="rotate(180 500 500) scale(0.9)" d="M1017.635 155.189h0.277l-1.937 0.277 1.661-0.277zM1018.185 752.985l-0.551 1.66v1.66l-2.217 6.642-1.104 1.106c-1.384 2.214-3.047 4.152-4.708 5.813-0.554 0.554-1.661 1.66-2.768 2.49l-3.875 2.769c-2.491 1.384-4.982 1.661-6.642 1.938l-2.491 1.106-945.4-0.829c-0.83 0-1.66-0.278-3.044-0.831l-6.642-3.321c0 0-2.214-1.385-3.321-2.492l-3.598-4.427c-1.107-1.661-2.767-3.875-3.321-5.813l-1.108-2.767c-0.554-1.661-0.829-3.321-0.829-5.258v-597.519c0-1.107 0.276-2.214 0.552-3.321v-17.71l9.411 3.321c1.661-1.384 3.598-2.491 5.535-3.598 3.321-1.661 7.195-2.494 11.9-2.494h936.82c3.875 0 7.475 0.83 13.287 3.598 1.937 1.107 3.595 2.214 5.256 3.875l6.645 9.41v6.919l-11.901 1.937 11.901-1.661 2.211 594.751v3.046zM521.96 421.705l-387.736 300.835h775.195l-387.459-300.835zM420.391 430.562l84.688-65.868c9.963-7.749 24.078-7.749 34.041 0l87.178 67.529 289.214-245.76h-785.714l290.593 244.099zM962.834 693.204v-474.362l-290.041 246.59 290.041 227.771zM81.365 218.292v475.466l294.471-228.325-294.471-247.141z" fill="#1D1D1D" />

    </g>
</svg>