<?xml version="1.0" encoding="iso-8859-1"?>
<!DOCTYPE svg PUBLIC "-//W3C//DTD SVG 1.1//EN" "http://www.w3.org/Graphics/SVG/1.1/DTD/svg11.dtd">
<svg version="1.1" xmlns="http://www.w3.org/2000/svg" xmlns:xlink="http://www.w3.org/1999/xlink" x="0px"
	y="0px" width="511.626px" height="511.627px" viewBox="0 0 1100 1100"
	style="enable-background:new 0 0 1100 1100;" xml:space="preserve">
	<g>
		

<path transform="rotate(180 500 500) scale(0.9)" d="M787.236 940.761h-547.993c-119.777 0-217.212-97.435-217.212-217.212v-415.496c0-51.2 41.891-93.091 93.091-93.091h267.482l-13.967-111.709c0-79.748 64.853-144.601 144.601-144.601 38.478 0 74.473 14.895 101.779 42.201 27.617 27.617 42.822 64.853 42.512 106.434l-13.964 107.675h267.481c51.2 0 93.091 41.891 93.091 93.091v415.496c0 119.777-97.435 217.212-217.212 217.212h0.31zM448.388 241.338l0.928 6.516-0.618 2.172c0 1.552-0.624 3.724-1.244 6.516-0.621 1.862-1.548 3.413-2.479 5.275l-3.416 4.965c0 0-2.79 2.793-4.651 4.034l-4.968 3.103c-1.862 0.931-3.721 1.548-4.341 1.548s-2.175 0.934-5.278 1.244l-306.889 0.621c-17.067 0-31.030 13.964-31.030 31.030v110.775h858.298v-110.775c0-17.067-13.964-31.030-31.030-31.030h-304.718l-6.516-1.552c-1.862-0.621-3.724-1.241-5.585-1.862l-8.999-7.137c-1.552-1.862-2.793-3.413-3.724-4.965l-2.482-5.589c-0.621-1.862-0.928-3.717-0.928-4.338s-0.624-2.175-0.624-5.589v-1.552l18.001-140.878c0-45.615-36.929-82.541-82.544-82.541s-82.541 36.926-82.851 78.507l18.001 142.119-0.31-0.621zM717.107 622.39c17.067 0 31.030 13.964 31.030 31.030v224.97h39.098c85.644 0 155.152-69.508 155.152-155.152v-242.657h-858.296v242.657c0 85.644 69.508 155.152 155.152 155.152h446.835v-224.97c0-17.067 13.964-31.030 31.030-31.030z" fill="#1D1D1D" />

    </g>
</svg>