<?xml version="1.0" encoding="iso-8859-1"?>
<!DOCTYPE svg PUBLIC "-//W3C//DTD SVG 1.1//EN" "http://www.w3.org/Graphics/SVG/1.1/DTD/svg11.dtd">
<svg version="1.1" xmlns="http://www.w3.org/2000/svg" xmlns:xlink="http://www.w3.org/1999/xlink" x="0px"
	y="0px" width="511.626px" height="511.627px" viewBox="0 0 1100 1100"
	style="enable-background:new 0 0 1100 1100;" xml:space="preserve">
	<g>
		

<path transform="rotate(180 500 500) scale(0.9)" d="M1014.316 597.723c-0.277 2.214-1.107 4.705-2.214 7.196-0.277 1.107-0.83 1.94-0.83 1.94l-2.214 3.598c-1.384 1.661-2.768 3.044-4.151 4.151l-471.594 289.209c-8.856 5.258-19.926 5.535-28.783 0l-468.551-286.718c0 0-0.276-0.003-0.553-0.28h-3.874l-3.045-6.086c-3.875-4.982-6.089-10.794-6.089-17.159v-591.152c0-15.222 12.454-27.676 27.676-27.676h936.823c15.222 0 27.676 12.454 27.676 27.676v591.152l-0.554 4.425 0.277-0.277zM411.817 282.223l213.93-0.554c4.428 0 8.856 1.107 13.008 3.598l320.764 251.295v-506.465h-881.471v507.016l321.592-249.355 8.026-4.151c2.214-0.83 4.151-1.107 4.428-1.107l-0.277-0.277zM616.34 337.021h-190.409l-327.127 253.783 419.841 256.832 420.117-257.106-322.422-253.509z" fill="#1D1D1D" />

    </g>
</svg>