<?xml version="1.0" encoding="iso-8859-1"?>
<!DOCTYPE svg PUBLIC "-//W3C//DTD SVG 1.1//EN" "http://www.w3.org/Graphics/SVG/1.1/DTD/svg11.dtd">
<svg version="1.1" xmlns="http://www.w3.org/2000/svg" xmlns:xlink="http://www.w3.org/1999/xlink" x="0px"
	y="0px" width="511.626px" height="511.627px" viewBox="0 0 1100 1100"
	style="enable-background:new 0 0 1100 1100;" xml:space="preserve">
	<g>
		

<path transform="rotate(180 500 500) scale(0.9)" d="M1013.76 763.777l-1.937 2.769c-1.937 2.491-4.151 4.704-6.642 6.365l-6.365 3.875h-0.83c-2.768 0.83-5.535 1.383-8.303 1.383h-937.098c-2.768 0-5.536-0.553-8.304-1.383l-7.471-3.875c-2.491-1.661-4.429-3.874-6.367-6.365l-1.936-2.769c-2.491-4.428-3.598-8.579-3.598-13.007v-591.43c0-15.222 12.454-27.676 27.676-27.676h937.098c15.222 0 27.676 12.454 27.676 27.676v591.43c0 4.428-1.107 9.132-3.598 13.284v-0.277zM521.133 421.705l-387.736 300.835h775.472l-387.736-300.835zM538.015 364.97l423.991 329.065v-507.297h-881.746v507.297l423.991-329.065c9.963-7.749 24.078-7.749 34.041 0h-0.277z" fill="#1D1D1D" />

    </g>
</svg>