<?xml version="1.0" encoding="iso-8859-1"?>
<!DOCTYPE svg PUBLIC "-//W3C//DTD SVG 1.1//EN" "http://www.w3.org/Graphics/SVG/1.1/DTD/svg11.dtd">
<svg version="1.1" xmlns="http://www.w3.org/2000/svg" xmlns:xlink="http://www.w3.org/1999/xlink" x="0px"
	y="0px" width="511.626px" height="511.627px" viewBox="0 0 1100 1100"
	style="enable-background:new 0 0 1100 1100;" xml:space="preserve">
	<g>
		

<path transform="rotate(180 500 500) scale(0.9)" d="M711.525 182.691h-172.839v111.709c162.909 15.825 288.272 152.359 288.272 317.44 0 175.943-143.36 319.3-319.302 319.3s-319.302-143.357-319.302-319.3c0-165.081 125.363-301.615 288.272-317.44v-111.709h-172.839c-17.067 0-31.030-13.964-31.030-31.030s13.964-31.030 31.030-31.030h172.839v-140.878c0-17.067 13.964-31.030 31.030-31.030s31.030 13.964 31.030 31.030v140.878h172.839c17.067 0 31.030 13.964 31.030 31.030s-13.964 31.030-31.030 31.030zM250.415 611.84c0 141.809 115.433 257.24 257.241 257.24s257.241-115.43 257.241-257.24c0-141.808-115.433-257.241-257.241-257.241s-257.241 115.433-257.241 257.241z" fill="#1D1D1D" />

    </g>
</svg>