<?xml version="1.0" encoding="iso-8859-1"?>
<!DOCTYPE svg PUBLIC "-//W3C//DTD SVG 1.1//EN" "http://www.w3.org/Graphics/SVG/1.1/DTD/svg11.dtd">
<svg version="1.1" xmlns="http://www.w3.org/2000/svg" xmlns:xlink="http://www.w3.org/1999/xlink" x="0px"
	y="0px" width="511.626px" height="511.627px" viewBox="0 0 1100 1100"
	style="enable-background:new 0 0 1100 1100;" xml:space="preserve">
	<g>
		

<path transform="rotate(180 500 500) scale(0.9)" d="M213.657 600.216c94.373 0 171.038 76.662 171.038 171.035s-76.664 171.036-171.038 171.036c-94.374 0-171.035-76.661-171.035-171.036s76.661-171.035 171.035-171.035zM213.657 886.936c63.653 0 115.686-51.754 115.686-115.684s-52.033-115.684-115.686-115.684c-63.654 0-115.684 52.030-115.684 115.684s52.030 115.684 115.684 115.684zM374.729 529.92c-24.631 28.783-60.33 45.111-98.247 45.111h-125.924c-37.916 0-73.617-16.605-98.248-45.111-24.631-28.783-35.425-66.698-29.613-104.061l70.85-452.497c2.214-13.561 13.561-23.524 27.399-23.524h185.428c13.838 0 25.185 9.963 27.399 23.524l70.85 452.497c5.812 37.362-4.982 75.278-29.613 104.061h-0.28zM144.468 5.466l-66.975 428.973c-3.321 21.31 2.767 43.174 16.882 59.503s34.595 26.015 56.182 26.015h125.924c21.588 0 42.068-9.41 56.183-26.015 14.115-16.329 20.203-38.192 16.882-59.503l-66.975-428.973h-138.103z" fill="#1D1D1D" />

    </g>
</svg>