<?xml version="1.0" encoding="iso-8859-1"?>
<!DOCTYPE svg PUBLIC "-//W3C//DTD SVG 1.1//EN" "http://www.w3.org/Graphics/SVG/1.1/DTD/svg11.dtd">
<svg version="1.1" xmlns="http://www.w3.org/2000/svg" xmlns:xlink="http://www.w3.org/1999/xlink" x="0px"
	y="0px" width="511.626px" height="511.627px" viewBox="0 0 1100 1100"
	style="enable-background:new 0 0 1100 1100;" xml:space="preserve">
	<g>
		

<path transform="rotate(180 500 500) scale(0.9)" d="M979.006 927.726c-11.171 4.965-24.204 3.106-33.202-4.962l-284.858-251.659-284.858 251.659c0 0-2.793 2.171-4.034 2.792-0.931 0.931-2.482 1.55-4.034 2.481l-4.034 0.932c-4.965 1.241-9.93 1.552-15.515 0.311h-2.793l-316.198-276.481c-6.516-5.897-10.551-14.275-10.551-23.274v-650.082c0-12.102 7.138-23.273 18.309-28.238 10.861-4.965 24.204-2.793 33.203 4.965l284.858 251.656 285.168-251.656c0 0 2.793-2.172 3.724-2.793l7.137-3.416c3.103-0.931 6.206-1.548 9.309-1.548s6.516 0.618 9.619 1.548l316.509 276.17c6.516 5.896 10.55 14.274 10.55 23.273v650.089c0 12.102-7.137 23.27-18.308 28.235zM386.327 263.37v567.232l243.588-215.038v-567.234l-243.588 215.040zM935.253 830.601v-567.232l-243.588-215.040v567.234l243.588 215.038zM324.267 830.601v-567.232l-243.589-215.040v567.234l243.589 215.038z" fill="#1D1D1D" />

    </g>
</svg>