<?xml version="1.0" encoding="iso-8859-1"?>
<!DOCTYPE svg PUBLIC "-//W3C//DTD SVG 1.1//EN" "http://www.w3.org/Graphics/SVG/1.1/DTD/svg11.dtd">
<svg version="1.1" xmlns="http://www.w3.org/2000/svg" xmlns:xlink="http://www.w3.org/1999/xlink" x="0px"
	y="0px" width="511.626px" height="511.627px" viewBox="0 0 1100 1100"
	style="enable-background:new 0 0 1100 1100;" xml:space="preserve">
	<g>
		

<path transform="rotate(180 500 500) scale(0.9)" d="M890.002 579.365h-33.938v55.879c0 10.825-6.144 20.776-15.506 25.75-205.385 107.959-420.718 107.959-640.147 0.293-9.947-4.974-16.384-15.218-16.384-26.336v-55.879h-33.352c-70.802 0-128.439-57.633-128.439-128.437v-15.799c0-70.802 57.637-128.442 128.439-128.442h33.352v-55.881c0-10.825 6.145-21.062 15.8-26.036 106.203-55.001 212.991-82.798 320.073-82.798s214.162 27.502 320.366 82.798c9.655 4.974 15.799 14.918 15.799 26.036v55.881h33.938c71.095 0 128.731 57.639 128.731 128.734v15.214c0 71.095-57.637 128.729-128.731 128.729v0.293zM150.675 365.202c-38.619 0-69.925 31.308-69.925 69.927v15.799c0 38.621 31.305 69.923 69.925 69.923h33.352v-155.649h-33.352zM797.55 268.943c-186.661-91.867-368.64-91.867-555.009 0v347.872c192.805 89.819 374.785 90.113 555.009 0.586v-348.458zM960.219 435.422c0-38.619-31.598-70.22-70.217-70.22h-33.938v155.649h33.938c38.619 0 70.217-31.595 70.217-70.215v-15.214zM712.119 471.407h-384.439c-16.091 0-29.257-13.167-29.257-29.259s13.166-29.257 29.257-29.257h384.439c16.091 0 29.257 13.166 29.257 29.257s-13.166 29.259-29.257 29.259zM703.634 362.277c-121.71-36.571-245.175-36.571-367.47 0-15.506 4.681-31.89-4.099-36.279-19.605s4.096-31.89 19.602-36.279c66.706-19.895 133.705-29.845 200.704-29.845s133.998 9.95 200.411 29.845c15.506 4.681 24.283 21.065 19.602 36.571s-21.065 24.286-36.571 19.605v-0.293zM336.457 522.023c122.295 37.449 245.76 37.449 367.177 0 2.926-0.878 5.854-1.171 8.487-1.171 12.581 0 23.988 8.191 28.084 20.771 4.681 15.506-3.801 31.89-19.307 36.571-132.827 40.96-267.998 40.96-401.411 0-15.506-4.681-24.281-21.065-19.307-36.571 4.681-15.506 21.065-24.281 36.571-19.307l-0.295-0.293z" fill="#1D1D1D" />

    </g>
</svg>