<?xml version="1.0" encoding="iso-8859-1"?>
<!DOCTYPE svg PUBLIC "-//W3C//DTD SVG 1.1//EN" "http://www.w3.org/Graphics/SVG/1.1/DTD/svg11.dtd">
<svg version="1.1" xmlns="http://www.w3.org/2000/svg" xmlns:xlink="http://www.w3.org/1999/xlink" x="0px"
	y="0px" width="511.626px" height="511.627px" viewBox="0 0 1100 1100"
	style="enable-background:new 0 0 1100 1100;" xml:space="preserve">
	<g>
		

<path transform="rotate(180 500 500) scale(0.9)" d="M106.746 255.926h822.615c17.067 0 31.030 13.964 31.030 31.030 0 192.078-121.328 359.637-303.166 419.836-11.171 54.613-58.958 94.333-115.433 94.333h-51.2c-56.785 0-104.882-40.338-115.433-95.572-179.667-61.44-299.754-228.381-299.754-418.597 0-17.067 13.964-31.030 31.030-31.030h0.311zM139.018 317.986c15.825 197.041 179.356 349.397 379.191 349.397s363.365-152.045 379.19-349.397h-758.382zM490.902 739.375h51.2c14.274 0 27.307-5.274 37.236-14.273-42.512 6.206-83.472 5.895-126.293-0.621 10.24 9.309 23.583 14.894 37.857 14.894zM976.524 155.077h-916.944c-17.067 0-31.030-13.964-31.030-31.030s13.964-31.030 31.030-31.030h916.944c17.067 0 31.030 13.964 31.030 31.030s-13.964 31.030-31.030 31.030z" fill="#1D1D1D" />

    </g>
</svg>