<?xml version="1.0" encoding="iso-8859-1"?>
<!DOCTYPE svg PUBLIC "-//W3C//DTD SVG 1.1//EN" "http://www.w3.org/Graphics/SVG/1.1/DTD/svg11.dtd">
<svg version="1.1" xmlns="http://www.w3.org/2000/svg" xmlns:xlink="http://www.w3.org/1999/xlink" x="0px"
	y="0px" width="511.626px" height="511.627px" viewBox="0 0 1100 1100"
	style="enable-background:new 0 0 1100 1100;" xml:space="preserve">
	<g>
		

<path transform="rotate(180 500 500) scale(0.9)" d="M110.721 240.32h793.919c0 0 0.96 0 1.28 0h0.96c16.64 1.28 29.76 15.040 29.76 32 0 225.92-173.12 410.88-396.8 427.2v10.242h37.44c17.6 0 32 14.4 32 32s-14.4 32-32 32h-138.88c-17.6 0-32-14.4-32-32s14.4-32 32-32h37.44v-10.242c-223.68-16.32-396.801-201.279-396.801-427.2 0-17.6 14.4-32 32-32h-0.318zM144.641 304.32c16.32 188.16 172.799 332.801 363.199 332.801s346.88-144.961 363.2-332.801h-726.399zM981.12 188.8h-946.878c-17.6 0-32-14.4-32-32s14.4-32 32-32h946.878c17.6 0 32 14.4 32 32s-14.4 32-32 32z" fill="#1D1D1D" />

    </g>
</svg>