<?xml version="1.0" encoding="iso-8859-1"?>
<!DOCTYPE svg PUBLIC "-//W3C//DTD SVG 1.1//EN" "http://www.w3.org/Graphics/SVG/1.1/DTD/svg11.dtd">
<svg version="1.1" xmlns="http://www.w3.org/2000/svg" xmlns:xlink="http://www.w3.org/1999/xlink" x="0px"
	y="0px" width="511.626px" height="511.627px" viewBox="0 0 1100 1100"
	style="enable-background:new 0 0 1100 1100;" xml:space="preserve">
	<g>
		

<path transform="rotate(180 500 500) scale(0.9)" d="M910.429 659.32l-842.162 189.905c-8.999 2.172-19.24-0.002-26.377-5.898-7.447-5.896-11.792-14.896-11.792-24.205v-758.068c0-9.619 4.345-18.308 11.792-24.207 7.447-5.896 17.688-8.065 26.066-5.893l419.53 94.329v-34.133c0-34.133 27.927-62.061 62.061-62.061h226.211c34.133 0 62.061 27.927 62.061 62.061v113.264l72.611 16.446c57.096 12.722 96.815 62.678 96.815 121.015v196.425c0 58.336-39.719 108.296-96.815 121.018zM775.758 190.138v-99.297h-226.211v48.1l226.211 51.197zM92.159 99.533v680.491l681.116-153.598v-373.296l-681.116-153.597zM835.336 612.464l61.44-13.966c28.548-6.516 48.407-31.339 48.407-60.507v-196.425c0-29.168-19.859-53.993-48.407-60.509l-61.44-13.961v345.367z" fill="#1D1D1D" />

    </g>
</svg>