<?xml version="1.0" encoding="iso-8859-1"?>
<!DOCTYPE svg PUBLIC "-//W3C//DTD SVG 1.1//EN" "http://www.w3.org/Graphics/SVG/1.1/DTD/svg11.dtd">
<svg version="1.1" xmlns="http://www.w3.org/2000/svg" xmlns:xlink="http://www.w3.org/1999/xlink" x="0px"
	y="0px" width="511.626px" height="511.627px" viewBox="0 0 1100 1100"
	style="enable-background:new 0 0 1100 1100;" xml:space="preserve">
	<g>
		

<path transform="rotate(180 500 500) scale(0.9)" d="M862.953 663.040c-0.931 4.034-2.793 7.448-4.344 10.241l-248.863 260.345h-0.621c-3.103 2.482-6.516 4.033-10.861 5.275-1.241 0.31-2.482 0.932-2.482 0.621l-412.702 0.93c-17.067 0-31.030-13.963-31.030-31.030v-918.187c0-17.067 13.964-31.030 31.030-31.030h650.395c17.067 0 31.030 13.964 31.030 31.030v664.048l-1.241 7.758h-0.31zM620.916 686.312v145.843l139.636-145.843h-139.636zM213.799 878.39h345.057v-223.108c0-17.066 13.964-31.030 31.030-31.030h212.247v-601.988h-588.334v856.126zM655.984 427.52h-296.34c-17.067 0-31.030-13.964-31.030-31.030s13.964-31.030 31.030-31.030h296.34c17.067 0 31.030 13.964 31.030 31.030s-13.964 31.030-31.030 31.030z" fill="#1D1D1D" />

    </g>
</svg>