<?xml version="1.0" encoding="iso-8859-1"?>
<!DOCTYPE svg PUBLIC "-//W3C//DTD SVG 1.1//EN" "http://www.w3.org/Graphics/SVG/1.1/DTD/svg11.dtd">
<svg version="1.1" xmlns="http://www.w3.org/2000/svg" xmlns:xlink="http://www.w3.org/1999/xlink" x="0px"
	y="0px" width="511.626px" height="511.627px" viewBox="0 0 1100 1100"
	style="enable-background:new 0 0 1100 1100;" xml:space="preserve">
	<g>
		

<path transform="rotate(180 500 500) scale(0.9)" d="M935.874 944.174h-856.126c-34.133 0-62.061-27.927-62.061-62.061v-600.126c0-34.133 27.927-62.061 62.061-62.061h397.188v-190.836h-173.769c-17.067 0-31.030-13.964-31.030-31.030s13.964-31.030 31.030-31.030h407.738c17.067 0 31.030 13.964 31.030 31.030s-13.964 31.030-31.030 31.030h-171.908v190.836h397.188c34.133 0 62.061 27.927 62.061 62.061v600.126c0 34.133-27.927 62.061-62.061 62.061h-0.31zM935.874 281.988v0zM935.874 281.988h-856.126v86.264h856.436v-86.264h-0.31zM935.874 882.114v-451.491h-856.126v451.491h856.126zM79.438 897.629v0z" fill="#1D1D1D" />

    </g>
</svg>