<?xml version="1.0" encoding="iso-8859-1"?>
<!DOCTYPE svg PUBLIC "-//W3C//DTD SVG 1.1//EN" "http://www.w3.org/Graphics/SVG/1.1/DTD/svg11.dtd">
<svg version="1.1" xmlns="http://www.w3.org/2000/svg" xmlns:xlink="http://www.w3.org/1999/xlink" x="0px"
	y="0px" width="511.626px" height="511.627px" viewBox="0 0 1100 1100"
	style="enable-background:new 0 0 1100 1100;" xml:space="preserve">
	<g>
		

<path transform="rotate(180 500 500) scale(0.9)" d="M52.028 566.729h119.282v-383.585h-58.118c-15.222 0-27.676-12.454-27.676-27.676s12.454-27.676 27.676-27.676h817.538c15.222 0 27.676 12.454 27.676 27.676s-12.454 27.676-27.676 27.676h-58.119v383.585h117.898c12.177 0 23.248 8.303 26.569 20.203s-1.661 24.631-12.177 30.997l-469.103 286.721c-8.856 5.535-19.926 5.535-28.783 0l-469.102-286.721c-10.517-6.365-15.498-19.096-12.177-30.997s14.392-20.203 26.569-20.203h-0.277zM150.276 622.080l370.854 226.665 370.854-226.665h-741.708zM816.983 566.729v-383.585h-114.301v383.585h114.301zM647.331 566.729v-383.585h-251.295v383.585h251.295zM340.685 566.729v-383.585h-114.3v383.585h114.3zM990.512 29.821h-938.482c-15.222 0-27.676-12.454-27.676-27.676s12.454-27.676 27.676-27.676h938.482c15.222 0 27.676 12.454 27.676 27.676s-12.454 27.676-27.676 27.676z" fill="#1D1D1D" />

    </g>
</svg>