<?xml version="1.0" encoding="iso-8859-1"?>
<!DOCTYPE svg PUBLIC "-//W3C//DTD SVG 1.1//EN" "http://www.w3.org/Graphics/SVG/1.1/DTD/svg11.dtd">
<svg version="1.1" xmlns="http://www.w3.org/2000/svg" xmlns:xlink="http://www.w3.org/1999/xlink" x="0px"
	y="0px" width="511.626px" height="511.627px" viewBox="0 0 1100 1100"
	style="enable-background:new 0 0 1100 1100;" xml:space="preserve">
	<g>
		

<path transform="rotate(180 500 500) scale(0.9)" d="M939.287 321.396c-45.925-15.825-93.091-23.893-139.947-23.893-236.141 0-428.218 192.078-428.218 428.217 0 47.166 8.068 94.022 23.893 139.947l20.79 60.511-60.509-20.792c-197.352-68.267-329.852-254.45-329.852-462.975 0-270.274 220.005-490.276 490.279-490.276 208.524 0 394.705 132.499 462.972 329.852l20.79 60.509-60.509-20.787 0.31-0.313zM318.681 821.917c-6.516-31.961-9.619-64.236-9.619-96.197 0-270.272 220.005-490.277 490.278-490.277 32.272 0 64.543 3.413 96.194 9.93-73.232-141.498-219.074-231.176-379.811-231.176-236.14 0-428.218 192.074-428.218 428.215 0 160.737 89.678 306.584 231.175 379.816v-0.311z" fill="#1D1D1D" />

    </g>
</svg>