<?xml version="1.0" encoding="iso-8859-1"?>
<!DOCTYPE svg PUBLIC "-//W3C//DTD SVG 1.1//EN" "http://www.w3.org/Graphics/SVG/1.1/DTD/svg11.dtd">
<svg version="1.1" xmlns="http://www.w3.org/2000/svg" xmlns:xlink="http://www.w3.org/1999/xlink" x="0px"
	y="0px" width="511.626px" height="511.627px" viewBox="0 0 1100 1100"
	style="enable-background:new 0 0 1100 1100;" xml:space="preserve">
	<g>
		

<path transform="rotate(180 500 500) scale(0.9)" d="M571.578 938.898h-98.676c-170.977 0-310.303-139.326-310.303-310.304v-358.087c0-170.977 139.326-310.303 310.303-310.303h98.676c170.977 0 310.303 139.326 310.303 310.303v358.087c0 170.979-139.326 310.304-310.303 310.304zM472.902 876.837h15.205v-282.685h-263.448v34.441c0 136.845 111.399 248.244 248.243 248.244zM819.821 532.092v-261.585c0-136.844-111.399-248.242-248.242-248.242h-98.676c-136.844 0-248.243 111.399-248.243 248.242v261.585h595.162zM550.167 876.837h21.411c136.844 0 248.242-111.399 248.242-248.244v-34.441h-269.653v282.685z" fill="#1D1D1D" />

    </g>
</svg>