<?xml version="1.0" encoding="iso-8859-1"?>
<!DOCTYPE svg PUBLIC "-//W3C//DTD SVG 1.1//EN" "http://www.w3.org/Graphics/SVG/1.1/DTD/svg11.dtd">
<svg version="1.1" xmlns="http://www.w3.org/2000/svg" xmlns:xlink="http://www.w3.org/1999/xlink" x="0px"
	y="0px" width="511.626px" height="511.627px" viewBox="0 0 1100 1100"
	style="enable-background:new 0 0 1100 1100;" xml:space="preserve">
	<g>
		

<path transform="rotate(180 500 500) scale(0.9)" d="M822.212 954.882c-106.616 0-121.374-130.108-123.181-202.993-35.238-2.108-68.668-9.635-98.485-23.791-79.812-37.948-128.602-121.979-116.254-200.284 5.722-35.539 22.588-67.159 39.153-97.578 5.421-9.939 10.842-19.878 15.661-29.816 16.264-32.527 31.624-79.212 13.553-115.655-20.781-41.864-75.294-56.32-124.988-66.56l-214.739-44.273c-29.515-6.024-62.645-12.951-89.149-34.033-27.708-21.986-44.875-64.753-25.901-98.184 2.711-4.819 7.831-7.529 13.252-7.529 2.409 0 5.12 0.602 7.228 1.807 7.228 3.915 9.939 13.252 5.722 20.48-10.842 19.275 1.205 46.080 18.372 59.934 21.082 16.565 50.597 22.892 76.498 28.314l214.74 44.27c40.96 8.433 116.856 24.094 145.769 82.824 18.673 37.647 13.854 87.040-13.553 142.456-5.12 10.24-10.541 20.48-16.264 30.72-15.962 29.515-31.021 57.224-35.84 87.944-10.24 64.151 32.527 136.434 99.388 168.058 25.6 12.047 54.513 18.972 85.233 20.779 0-232.508 90.353-626.146 94.268-642.71l29.214-126.792 29.214 126.792c3.915 16.565 94.268 410.504 94.268 643.012 0 57.525 0 232.809-123.482 232.809h0.301zM822.212 232.059c-27.106 137.035-62.946 345.751-63.247 487.304 21.685-3.012 43.972-8.132 66.56-15.662 3.614-1.205 7.228-0.903 10.541 0.603 0-12.649-2.409-22.891-7.228-27.709-1.205-1.205-5.421-5.422-18.974-0.603-6.024 2.108-12.348-0.903-14.456-6.926s0.904-12.348 6.927-14.456c7.228-2.409 13.252-3.614 18.673-3.614 11.445 0 18.974 4.521 23.793 9.339 34.033 33.732-3.614 152.394-11.746 175.886-2.108 6.024-8.433 9.035-14.456 7.228-6.024-2.108-9.035-8.432-7.228-14.456 9.638-28.612 18.974-65.659 22.588-96.68-25.299 8.433-50.296 13.856-74.692 16.868 3.313 96.075 24.094 145.166 62.645 145.166 15.661 0 63.247 0.001 63.247-172.574 0-141.553-36.141-352.075-63.247-490.014l0.301 0.301z" fill="#1D1D1D" />

    </g>
</svg>