<?xml version="1.0" encoding="iso-8859-1"?>
<!DOCTYPE svg PUBLIC "-//W3C//DTD SVG 1.1//EN" "http://www.w3.org/Graphics/SVG/1.1/DTD/svg11.dtd">
<svg version="1.1" xmlns="http://www.w3.org/2000/svg" xmlns:xlink="http://www.w3.org/1999/xlink" x="0px"
	y="0px" width="511.626px" height="511.627px" viewBox="0 0 1100 1100"
	style="enable-background:new 0 0 1100 1100;" xml:space="preserve">
	<g>
		

<path transform="rotate(180 500 500) scale(0.9)" d="M518.824 936.417c-269.653 0-489.346-219.385-489.346-489.348s219.383-489.348 489.346-489.348c269.964 0 489.348 219.384 489.348 489.348s-219.384 489.348-489.348 489.348zM518.824 874.356c235.52 0 427.287-191.768 427.287-427.287s-191.767-427.287-427.287-427.287c-235.52 0-427.286 191.767-427.286 427.287s191.766 427.287 427.286 427.287zM314.958 458.861c40.029 0 72.608 32.579 72.608 72.608s-32.579 72.614-72.608 72.614c-40.030 0-72.613-32.585-72.613-72.614s32.582-72.608 72.613-72.608zM722.385 458.861c40.029 0 72.608 32.579 72.608 72.608s-32.579 72.614-72.608 72.614c-40.029 0-72.614-32.585-72.614-72.614s32.585-72.608 72.614-72.608z" fill="#1D1D1D" />

    </g>
</svg>