<?xml version="1.0" encoding="iso-8859-1"?>
<!DOCTYPE svg PUBLIC "-//W3C//DTD SVG 1.1//EN" "http://www.w3.org/Graphics/SVG/1.1/DTD/svg11.dtd">
<svg version="1.1" xmlns="http://www.w3.org/2000/svg" xmlns:xlink="http://www.w3.org/1999/xlink" x="0px"
	y="0px" width="511.626px" height="511.627px" viewBox="0 0 1100 1100"
	style="enable-background:new 0 0 1100 1100;" xml:space="preserve">
	<g>
		

<path transform="rotate(180 500 500) scale(0.9)" d="M989.405 730.015h-298.344v70.296c0 45.665-31.827 83.027-71.126 83.027h-198.158c-39.299 0-71.126-37.362-71.126-83.027v-70.296h-298.344c-15.222 0-27.676-12.454-27.676-27.676v-665.877c0-15.222 12.454-27.676 27.676-27.676h936.821c15.222 0 27.676 12.454 27.676 27.676v665.877c0 15.222-12.454 27.676-27.676 27.676h0.277zM421.777 827.986h198.158c7.196 0 15.775-12.454 15.775-27.676v-70.296h-229.431v70.296c0 15.222 8.579 27.676 15.775 27.676h-0.277zM961.73 395.97v-331.831h-881.471v331.831c292.255-174.080 589.215-174.080 881.471 0zM80.259 460.731v214.21h881.471v-214.21c-292.532-185.981-589.215-185.981-881.471 0zM689.401 445.232c0 15.222-12.454 27.676-27.676 27.676h-280.908c-15.222 0-27.676-12.454-27.676-27.676s12.454-27.676 27.676-27.676h280.908c15.222 0 27.676 12.454 27.676 27.676z" fill="#1D1D1D" />

    </g>
</svg>