<?xml version="1.0" encoding="iso-8859-1"?>
<!DOCTYPE svg PUBLIC "-//W3C//DTD SVG 1.1//EN" "http://www.w3.org/Graphics/SVG/1.1/DTD/svg11.dtd">
<svg version="1.1" xmlns="http://www.w3.org/2000/svg" xmlns:xlink="http://www.w3.org/1999/xlink" x="0px"
	y="0px" width="511.626px" height="511.627px" viewBox="0 0 1100 1100"
	style="enable-background:new 0 0 1100 1100;" xml:space="preserve">
	<g>
		

<path transform="rotate(180 500 500) scale(0.9)" d="M997.547 587.378c-10.809 14.222-27.307 22.188-45.227 22.188h-56.32v14.222c0 31.289-25.6 56.889-56.889 56.889h-379.164l-78.222 93.010c-10.809 12.516-26.738 19.913-43.52 19.913h-274.204c-31.289 0-56.889-25.6-56.889-56.889v-582.827c0-31.289 25.316-56.889 56.889-56.889h781.938c25.6 0 48.356 17.351 54.898 42.098l106.667 398.792c4.551 17.351 1.138 35.271-9.956 49.493zM427.52 631.181c1.707-1.422 3.413-2.841 5.404-3.979l1.991-1.139c3.698-1.707 7.68-2.559 11.662-2.559h392.533v-14.222h-659.627c-25.6 0-48.356-17.354-54.898-42.101l-60.302-226.132v395.378h274.489l87.324-103.823 1.707-1.705-0.284 0.281zM845.938 153.884h-773.12l106.667 398.793h773.12l-106.667-398.793z" fill="#1D1D1D" />

    </g>
</svg>