<?xml version="1.0" encoding="iso-8859-1"?>
<!DOCTYPE svg PUBLIC "-//W3C//DTD SVG 1.1//EN" "http://www.w3.org/Graphics/SVG/1.1/DTD/svg11.dtd">
<svg version="1.1" xmlns="http://www.w3.org/2000/svg" xmlns:xlink="http://www.w3.org/1999/xlink" x="0px"
	y="0px" width="511.626px" height="511.627px" viewBox="0 0 1100 1100"
	style="enable-background:new 0 0 1100 1100;" xml:space="preserve">
	<g>
		

<path transform="rotate(180 500 500) scale(0.9)" d="M987.52 206.72l-160.32 160.32c-17.28 17.28-42.24 27.52-67.84 27.52s-50.56-9.92-67.84-27.52l-87.68-87.68-250.24 250.243 87.68 87.68c18.24 18.24 28.16 42.239 28.16 67.839s-9.92 49.6-28.16 67.84l-160 160c-36.16 36.16-99.52 36.16-136 0l-68.16-68.16c-34.56-34.56-53.44-80.321-53.12-129.281v-4.801c1.28-420.8 344.32-763.2 766.72-762.88 47.68 0 94.080 19.523 127.36 53.443l69.76 70.717c37.12 37.44 36.8 98.24-0.32 135.36v-0.64zM88.32 710.72v4.801c0 31.36 12.48 61.76 34.56 83.84l68.16 68.16c6.080 6.080 14.080 9.281 22.72 9.281s16.641-3.201 22.721-9.281l159.999-160c6.080-6.080 9.28-14.079 9.28-22.719s-3.2-16.643-9.28-22.723l-87.68-87.679c-24.96-24.96-24.96-65.6 0-90.56l250.24-250.237c24.64-24.64 65.92-24.64 90.56 0l87.68 87.68c11.84 11.84 33.28 11.84 45.44 0l160.32-160.32c12.48-12.48 12.48-32.643 0-45.123l-69.76-70.717c-21.44-21.76-51.52-34.243-83.2-34.243-385.6 0-700.16 313.6-701.12 699.199l-0.64 0.641zM589.76 480.96c8.64 0 16.64 3.197 22.72 9.277l222.080 222.084v-141.12c0-17.6 14.4-32 32-32s32 14.4 32 32v218.241c0 4.16-0.96 8.32-2.56 12.16-3.2 8-9.6 14.077-17.28 17.277-3.84 1.6-8 2.562-12.16 2.562h-218.24c-17.6 0-32-14.4-32-32s14.4-32 32-32h141.12l-222.080-222.081c-12.48-12.48-12.48-32.643 0-45.123 6.080-6.080 14.080-9.277 22.72-9.277h-0.32z" fill="#1D1D1D" />

    </g>
</svg>