<?xml version="1.0" encoding="iso-8859-1"?>
<!DOCTYPE svg PUBLIC "-//W3C//DTD SVG 1.1//EN" "http://www.w3.org/Graphics/SVG/1.1/DTD/svg11.dtd">
<svg version="1.1" xmlns="http://www.w3.org/2000/svg" xmlns:xlink="http://www.w3.org/1999/xlink" x="0px"
	y="0px" width="511.626px" height="511.627px" viewBox="0 0 1100 1100"
	style="enable-background:new 0 0 1100 1100;" xml:space="preserve">
	<g>
		

<path transform="rotate(180 500 500) scale(0.9)" d="M734.644 313.71c-16.091 0-29.257-13.166-29.257-29.257v-182.269c0-16.091-13.166-29.257-29.257-29.257h-61.733v777.359c0 10.24-1.755 20.481-5.266 29.843h66.999c16.091 0 29.257-13.166 29.257-29.257v-181.979c0-16.093 13.166-29.259 29.257-29.259s29.257 13.166 29.257 29.259v181.979c0 48.274-39.497 87.771-87.771 87.771h-538.915c-23.406 0-45.348-9.070-62.025-25.747-11.996-11.995-20.188-27.21-23.991-44.764-1.17-5.559-1.755-11.41-1.755-17.554v-755.423c0-44.178 33.061-81.625 76.947-87.183l389.411-47.985c3.511-0.585 7.314-0.582 10.825-0.582 21.358 0 42.13 7.899 58.222 21.943 9.947 8.777 17.85 19.895 22.823 32.768h68.166c48.274 0 87.771 39.497 87.771 87.771v182.272c0 16.091-13.166 29.257-29.257 29.257l0.293 0.293zM107.957 850.871c0 16.091 13.166 29.257 29.257 29.257l389.704-0.586c16.091 0 29.257-13.166 29.257-29.257v-802.813c0-8.485-3.511-16.384-9.947-21.943-6.144-5.559-14.626-7.905-22.818-7.028l-389.414 47.985c-14.629 1.755-25.747 14.336-25.747 28.965v755.42h-0.293zM968.119 497.152l-108.251 108.251c-11.41 11.41-29.842 11.41-41.253 0s-11.41-29.842 0-41.253l58.222-58.222h-190.171c-16.091 0-29.257-13.166-29.257-29.257s13.166-29.257 29.257-29.257h190.171l-58.222-58.222c-11.41-11.41-11.41-29.845 0-41.255 5.559-5.559 12.873-8.482 20.773-8.482s15.214 2.923 20.773 8.482l108.251 108.254c11.41 11.41 11.41 29.839 0 41.25l-0.293-0.29z" fill="#1D1D1D" />

    </g>
</svg>