<?xml version="1.0" encoding="iso-8859-1"?>
<!DOCTYPE svg PUBLIC "-//W3C//DTD SVG 1.1//EN" "http://www.w3.org/Graphics/SVG/1.1/DTD/svg11.dtd">
<svg version="1.1" xmlns="http://www.w3.org/2000/svg" xmlns:xlink="http://www.w3.org/1999/xlink" x="0px"
	y="0px" width="511.626px" height="511.627px" viewBox="0 0 1100 1100"
	style="enable-background:new 0 0 1100 1100;" xml:space="preserve">
	<g>
		

<path transform="rotate(180 500 500) scale(0.9)" d="M507.345 936.417c-270.583 0-490.588-220.005-490.588-490.589s220.005-490.589 490.588-490.589c270.584 0 490.589 220.005 490.589 490.589s-220.005 490.589-490.589 490.589zM507.345 17.299c-236.45 0-428.527 192.388-428.527 428.528s192.388 428.528 428.527 428.528c236.141 0 428.528-192.388 428.528-428.528s-192.388-428.528-428.528-428.528zM521.002 733.168h-130.327c-30.41 0-55.234-24.825-55.234-55.235v-481.9c0-20.79 16.756-37.547 37.547-37.547s37.547 16.756 37.547 37.547v202.318h110.468c142.739 0 198.594 79.127 198.594 166.633 0 94.022-63.612 168.184-198.594 168.184zM521.002 460.102h-110.468v193.629c0 9.619 7.758 17.377 17.377 17.377h93.091c85.644 0 121.949-39.719 121.949-106.434s-36.305-104.572-121.949-104.572z" fill="#1D1D1D" />

    </g>
</svg>