<?xml version="1.0" encoding="iso-8859-1"?>
<!DOCTYPE svg PUBLIC "-//W3C//DTD SVG 1.1//EN" "http://www.w3.org/Graphics/SVG/1.1/DTD/svg11.dtd">
<svg version="1.1" xmlns="http://www.w3.org/2000/svg" xmlns:xlink="http://www.w3.org/1999/xlink" x="0px"
	y="0px" width="511.626px" height="511.627px" viewBox="0 0 1100 1100"
	style="enable-background:new 0 0 1100 1100;" xml:space="preserve">
	<g>
		

<path transform="rotate(180 500 500) scale(0.9)" d="M833.784 282.922c-79.127 0-145.532-56.168-160.116-133.123h-404.946c-50.269 0-97.745 19.549-133.12 54.924s-55.234 82.851-55.544 133.12c0 50.579 19.549 98.056 55.234 133.741s83.161 55.544 133.43 55.544h525.654c54.303 0 105.193 21.101 143.67 59.268 38.478 38.478 59.578 89.677 59.578 143.98 0 112.019-91.229 203.25-203.248 203.25h-744.418c-17.067 0-31.030-13.964-31.030-31.030s13.964-31.030 31.030-31.030h744.418c77.886 0 141.188-63.303 141.188-141.189 0-37.857-14.584-73.231-41.581-99.917-26.686-26.686-62.061-41.27-99.607-41.27h-525.654c-67.025 0-130.017-26.062-177.493-73.539s-73.542-110.781-73.231-177.807c0.31-66.715 26.376-129.396 73.852-176.562s110.158-72.921 176.873-72.921h404.636c14.584-76.645 81.299-132.81 160.116-132.81 90.298 0 163.84 73.542 163.84 163.84s-73.542 163.837-163.84 163.837l0.31-0.304zM833.784 220.861c56.165 0 101.779-45.618 101.779-101.782s-45.615-101.779-101.779-101.779c-56.165 0-101.779 45.615-101.779 101.779s45.615 101.782 101.779 101.782z" fill="#1D1D1D" />

    </g>
</svg>