<?xml version="1.0" encoding="iso-8859-1"?>
<!DOCTYPE svg PUBLIC "-//W3C//DTD SVG 1.1//EN" "http://www.w3.org/Graphics/SVG/1.1/DTD/svg11.dtd">
<svg version="1.1" xmlns="http://www.w3.org/2000/svg" xmlns:xlink="http://www.w3.org/1999/xlink" x="0px"
	y="0px" width="511.626px" height="511.627px" viewBox="0 0 1100 1100"
	style="enable-background:new 0 0 1100 1100;" xml:space="preserve">
	<g>
		

<path transform="rotate(180 500 500) scale(0.9)" d="M889.92 656.961c-0.96 3.52-2.24 6.718-4.48 9.918l-256.96 269.121h-0.64c-3.2 2.56-6.72 4.161-10.88 5.441-1.28 0.32-2.56 0.957-2.56 0.637l-425.599 0.961c-17.6 0-32-14.4-32-32v-589.759c0-17.6 14.4-32 32-32s32 14.4 32 32v557.759h355.839v-230.078c0-17.601 14.4-32.001 32-32.001h218.88v-295.68c0-17.6 14.4-32 32-32s32 14.4 32 32v327.681l-1.28 8h-0.32zM640.32 680.961v150.398l144-150.398h-144zM252.16 259.84c-30.4 0-54.080-2.563-72.32-5.763v-288.637h37.76v117.12c8.64-2.24 19.2-2.56 30.4-2.56 36.8 0 69.44 10.88 89.28 32 14.72 15.040 22.4 35.84 22.4 62.4s-9.6 47.36-25.6 61.12c-17.28 15.68-44.8 24.32-81.92 24.32zM248.64 110.4c-12.48 0-23.040 0.96-31.36 2.88v113.6c6.4 1.6 19.2 2.883 35.52 2.883 41.6 0 68.8-18.563 68.8-57.283s-27.84-62.403-73.28-62.403l0.32 0.323zM490.24 259.84c-30.080 0-57.28-2.557-80.32-6.077v-287.363c19.2-2.24 41.6-3.52 68.48-3.52 56.96 0 101.76 14.72 129.28 41.92 27.2 26.88 41.92 65.92 41.92 113.6s-15.040 80.96-41.28 104.96c-25.6 24-64.32 36.48-118.4 36.48h0.32zM485.76-6.72c-14.72 0-28.48 0.32-38.080 2.24v230.717c9.92 2.24 24.64 3.84 44.16 3.84 79.68 0 118.72-43.837 118.4-112.637 0-79.040-43.84-124.16-124.48-124.16zM698.88-34.56h37.76v132.16h110.4v31.36h-110.4v96.963h119.68v31.677h-157.44v-292.16z" fill="#1D1D1D" />

    </g>
</svg>