<?xml version="1.0" encoding="iso-8859-1"?>
<!DOCTYPE svg PUBLIC "-//W3C//DTD SVG 1.1//EN" "http://www.w3.org/Graphics/SVG/1.1/DTD/svg11.dtd">
<svg version="1.1" xmlns="http://www.w3.org/2000/svg" xmlns:xlink="http://www.w3.org/1999/xlink" x="0px"
	y="0px" width="511.626px" height="511.627px" viewBox="0 0 1100 1100"
	style="enable-background:new 0 0 1100 1100;" xml:space="preserve">
	<g>
		

<path transform="rotate(180 500 500) scale(0.9)" d="M983.357 724.802l-201.6 201.598c-12.16 12.16-33.28 12.16-45.12 0l-656.319-656.32-3.201-4.157c-1.6-2.24-2.88-4.483-3.84-7.363l-51.84-256.957c-1.92-10.56 1.281-21.44 8.641-28.8 6.080-6.080 14.081-9.283 22.721-9.283l258.238 50.88 4.801 1.6c2.56 0.96 5.123 2.24 7.043 3.52l4.157 0.96 2.24 4.483 654.4 654.397c6.080 6.080 9.283 14.079 9.283 22.719s-3.203 16.643-9.283 22.723h-0.32zM128.318 212.16l50.879-6.397v-59.203c0-17.6 14.4-32 32-32h66.24l-3.199-41.917-181.121-36.163 35.201 175.68zM215.357 265.923l-43.84 5.437 470.72 470.719 156.48-156.476-455.68-455.68 0.96 14.397c0.64 8.96-2.24 17.603-8.32 24.323-6.080 6.4-14.72 10.237-23.359 10.237h-68.801v55.36c0 16-12.16 29.763-28.16 31.683zM843.837 630.72l-156.48 156.48 71.68 71.68 156.48-156.48-71.68-71.68z" fill="#1D1D1D" />

    </g>
</svg>