<?xml version="1.0" encoding="iso-8859-1"?>
<!DOCTYPE svg PUBLIC "-//W3C//DTD SVG 1.1//EN" "http://www.w3.org/Graphics/SVG/1.1/DTD/svg11.dtd">
<svg version="1.1" xmlns="http://www.w3.org/2000/svg" xmlns:xlink="http://www.w3.org/1999/xlink" x="0px"
	y="0px" width="511.626px" height="511.627px" viewBox="0 0 1100 1100"
	style="enable-background:new 0 0 1100 1100;" xml:space="preserve">
	<g>
		

<path transform="rotate(180 500 500) scale(0.9)" d="M518.255 451.413c56.036 38.969 90.738 103.822 90.738 172.942 0 116.338-94.436 210.773-210.773 210.773s-210.771-94.436-210.771-210.773c0-69.119 34.702-133.973 90.738-172.942-160.427-51.769-273.637-203.947-273.637-374.613 0-15.644 12.8-28.444 28.444-28.444s28.444 12.8 28.444 28.444c0 185.742 151.041 336.782 336.782 336.782s336.785-151.040 336.785-336.782c0-15.644 12.8-28.444 28.444-28.444s28.444 12.8 28.444 28.444c0 170.667-113.212 322.844-273.638 374.613zM244.337 624.355c0 84.764 69.118 153.885 153.882 153.885s153.884-69.12 153.884-153.885c0-84.764-69.12-153.884-153.884-153.884s-153.882 69.12-153.882 153.884zM747.802 451.413c56.036 38.969 90.738 103.822 90.738 172.942 0 116.338-94.436 210.773-210.773 210.773-15.644 0-28.444-12.8-28.444-28.444s12.8-28.444 28.444-28.444c84.764 0 153.884-69.12 153.884-153.885s-69.12-153.884-153.884-153.884c-15.644 0-28.444-12.8-28.444-28.444s12.8-28.444 28.444-28.444c185.742 0 336.782-151.040 336.782-336.782 0-15.644 12.8-28.444 28.444-28.444s28.444 12.8 28.444 28.444c0 170.667-113.209 322.844-273.636 374.613z" fill="#1D1D1D" />

    </g>
</svg>