<?xml version="1.0" encoding="iso-8859-1"?>
<!DOCTYPE svg PUBLIC "-//W3C//DTD SVG 1.1//EN" "http://www.w3.org/Graphics/SVG/1.1/DTD/svg11.dtd">
<svg version="1.1" xmlns="http://www.w3.org/2000/svg" xmlns:xlink="http://www.w3.org/1999/xlink" x="0px"
	y="0px" width="511.626px" height="511.627px" viewBox="0 0 1100 1100"
	style="enable-background:new 0 0 1100 1100;" xml:space="preserve">
	<g>
		

<path transform="rotate(180 500 500) scale(0.9)" d="M651.762 451.044c78.876 46.772 128.141 131.459 128.141 225.003 0 144.468-117.624 261.812-261.815 261.812s-261.81-117.621-261.81-261.812c0-93.544 49.264-178.231 128.139-225.003-212.273-59.503-362.276-254.339-362.276-477.682 0-15.222 12.454-27.676 27.676-27.676s27.676 12.454 27.676 27.676c0 242.992 197.604 440.874 440.872 440.874s440.874-197.604 440.874-440.874c0-15.222 12.454-27.676 27.676-27.676s27.676 12.454 27.676 27.676c0 223.343-150.276 418.179-362.272 477.682h-0.556zM518.089 882.508c114.024 0 206.463-92.713 206.463-206.461s-92.716-206.461-206.463-206.461c-113.747 0-206.458 92.714-206.458 206.461s92.711 206.461 206.458 206.461z" fill="#1D1D1D" />

    </g>
</svg>