<?xml version="1.0" encoding="iso-8859-1"?>
<!DOCTYPE svg PUBLIC "-//W3C//DTD SVG 1.1//EN" "http://www.w3.org/Graphics/SVG/1.1/DTD/svg11.dtd">
<svg version="1.1" xmlns="http://www.w3.org/2000/svg" xmlns:xlink="http://www.w3.org/1999/xlink" x="0px"
	y="0px" width="511.626px" height="511.627px" viewBox="0 0 1100 1100"
	style="enable-background:new 0 0 1100 1100;" xml:space="preserve">
	<g>
		

<path transform="rotate(180 500 500) scale(0.9)" d="M763.345 931.144h-514.482c-34.133 0-62.061-27.927-62.061-62.061v-857.99c0-34.133 27.927-62.061 62.061-62.061h514.482c34.133 0 62.061 27.927 62.061 62.061v857.99c0 34.133-27.927 62.061-62.061 62.061zM248.864 11.093v857.99h514.482v-857.99h-514.482zM619.985 90.221h-227.142c-15.515 0-28.238-12.719-28.238-28.234s12.722-28.238 28.238-28.238h227.142c15.515 0 28.238 12.722 28.238 28.238s-12.722 28.234-28.238 28.234zM506.104 774.441c23.993 0 43.442 19.449 43.442 43.441s-19.45 43.443-43.442 43.443c-23.993 0-43.441-19.451-43.441-43.443s19.449-43.441 43.441-43.441z" fill="#1D1D1D" />

    </g>
</svg>