<?xml version="1.0" encoding="iso-8859-1"?>
<!DOCTYPE svg PUBLIC "-//W3C//DTD SVG 1.1//EN" "http://www.w3.org/Graphics/SVG/1.1/DTD/svg11.dtd">
<svg version="1.1" xmlns="http://www.w3.org/2000/svg" xmlns:xlink="http://www.w3.org/1999/xlink" x="0px"
	y="0px" width="511.626px" height="511.627px" viewBox="0 0 1100 1100"
	style="enable-background:new 0 0 1100 1100;" xml:space="preserve">
	<g>
		

<path transform="rotate(180 500 500) scale(0.9)" d="M501.757 937.306c-131.183 0-254.892-50.923-348.435-143.36l-4.705-4.704c-92.437-93.544-143.083-217.255-143.083-348.161 0-273.436 222.512-496.225 496.223-496.225 209.782 0 397.423 133.12 466.612 329.341l3.321 8.579c17.436 51.754 26.292 104.891 26.292 158.028 0 273.435-222.512 496.224-496.225 496.224v0.277zM474.082 880.571v-372.515l-263.472 263.472c73.34 64.761 166.054 103.231 263.472 109.319v-0.277zM171.588 732.23l310.522-310.522h0.551c1.661-1.937 3.321-3.044 4.705-3.875l420.394-146.404c-68.359-162.733-229.708-270.945-406.279-270.945-242.992 0-440.872 197.604-440.872 440.874 0 107.382 39.299 210.058 110.703 291.149l0.277-0.277zM926.579 323.459l-397.146 137.548v419.84c232.752-14.391 413.198-204.8 413.198-439.49 0-39.853-5.258-79.429-16.052-117.622v-0.277z" fill="#1D1D1D" />

    </g>
</svg>