<?xml version="1.0" encoding="iso-8859-1"?>
<!DOCTYPE svg PUBLIC "-//W3C//DTD SVG 1.1//EN" "http://www.w3.org/Graphics/SVG/1.1/DTD/svg11.dtd">
<svg version="1.1" xmlns="http://www.w3.org/2000/svg" xmlns:xlink="http://www.w3.org/1999/xlink" x="0px"
	y="0px" width="511.626px" height="511.627px" viewBox="0 0 1100 1100"
	style="enable-background:new 0 0 1100 1100;" xml:space="preserve">
	<g>
		

<path transform="rotate(180 500 500) scale(0.9)" d="M243.267 644.221c-14.668-4.151-23.248-19.373-19.096-34.041 30.443-109.043 30.443-219.745 0-329.064-4.151-14.668 4.428-29.89 19.096-34.041 2.491-0.83 4.982-1.107 7.473-1.107 12.177 0 23.248 8.029 26.57 20.206 33.488 119.005 33.488 239.671 0 358.675-4.152 14.668-19.375 23.246-34.043 19.095v0.277zM963.944 241.816c33.211 135.611 33.211 272.605 0 408.218 34.041 13.838 58.393 47.325 58.393 86.071 0 51.2-41.788 92.99-92.988 92.99-38.746 0-72.236-24.077-86.074-57.841-214.486 62.547-431.464 62.547-645.949 0-13.838 34.041-47.048 57.841-86.071 57.841-51.2 0-92.992-41.79-92.992-92.99 0-39.023 24.356-72.51 58.674-86.348-33.211-135.335-33.211-272.33 0-407.941-34.318-13.561-58.674-47.046-58.674-86.345 0-51.2 41.792-92.996 92.992-92.996 40.683 0 75.001 26.571 87.731 63.103 106.827-30.997 213.932-46.772 321.313-46.772s214.763 15.775 321.315 46.772c12.454-36.532 46.775-63.103 87.735-63.103 51.2 0 92.988 41.796 92.988 92.996 0 39.576-23.798 72.508-58.393 86.345zM929.349 117.826c-20.757 0-37.642 16.888-37.642 37.644 0 0.83-0.274 1.381-0.551 2.211 0.554 3.875 0.274 8.023-0.833 11.898-4.705 14.668-20.203 22.697-34.871 17.992-222.512-71.126-448.069-71.126-670.581 0-14.668 4.705-30.167-3.324-34.872-17.992-1.384-4.151-1.383-8.023-0.829-11.898 0-0.83-0.554-1.381-0.554-2.211 0-20.757-16.882-37.644-37.638-37.644s-37.639 16.888-37.639 37.644c0 20.757 16.882 37.636 37.639 37.636 0.554 0 0.83 0 1.384 0.277 1.937 0 3.598 0 5.535 0.83 0.554 0 0.83 0.554 1.106 0.554 3.044 0.83 5.536 2.214 8.027 4.151 0 0 0.552 0.277 0.552 0.554 6.365 4.982 10.794 12.731 10.794 21.587 0 4.151-1.106 8.026-2.767 11.347-39.023 141.699-39.023 285.059 0 426.759 1.661 3.598 2.767 7.474 2.767 11.348 0 8.856-4.429 16.326-10.794 21.585 0 0-0.552 0.277-0.552 0.554-2.491 1.937-5.259 3.322-8.027 4.152-0.554 0-0.83 0.554-1.106 0.554-0.83 0-1.938 0-2.769 0-1.384 0-2.49 0.831-4.15 0.831-20.757 0-37.639 16.882-37.639 37.638s16.882 37.639 37.639 37.639c20.757 0 37.638-16.605 37.638-37.639 0-1.384 0.554-2.768 0.831-4.152 0-1.384-0.001-2.768 0.552-4.152 0-0.277 0.554-0.551 0.554-1.105 0.83-1.937 1.66-3.599 2.767-5.26 0.83-1.384 1.661-2.768 2.768-4.152s2.767-2.214 4.151-3.321c1.384-1.107 2.768-2.214 4.429-3.044 1.384-0.554 3.043-0.832 4.427-1.385 1.937-0.554 3.876-1.105 6.090-1.105 0.277 0 0.829 0 1.106 0 1.384 0 2.768 0.554 3.875 0.831 1.384 0 3.043-0.003 4.427 0.551 222.512 71.126 448.071 71.126 670.584 0 2.768-0.83 5.535-1.382 8.303-1.382 3.321 0 6.639 0.829 9.684 1.936 1.107 0.277 1.94 0.832 2.77 1.385 1.937 1.107 3.872 2.214 5.532 3.598 0.83 0.83 1.661 1.66 2.491 2.49 1.384 1.661 2.491 3.323 3.598 5.26 0.554 1.107 1.107 1.937 1.661 3.044 0 0.554 0.556 0.828 0.556 1.382 0.554 1.384-0.003 2.768 0.551 4.152 0 1.384 0.833 2.768 0.833 4.152 0 20.757 16.879 37.639 37.636 37.639s37.639-16.605 37.639-37.639c0-21.034-16.326-37.362-37.083-37.638-1.107 0-2.214-0.554-3.321-0.831-1.107 0-2.491 0-3.598-0.277-0.554 0-1.107-0.554-1.661-0.831-1.937-0.554-3.321-1.659-4.982-2.49-1.384-0.831-2.77-1.66-4.154-2.767s-2.214-2.491-3.321-4.152c-1.107-1.384-1.937-2.769-2.768-4.429s-1.107-3.042-1.661-4.98c-0.554-1.937-0.83-3.6-1.107-5.537 0-0.554-0.277-1.382-0.277-1.936 0-1.384 0.556-2.214 0.833-3.598 0-1.107 0-2.214 0-3.598 40.406-144.19 40.406-290.595 0-434.785-0.277-1.107 0-2.214 0-3.598 0-1.107-0.833-2.214-0.833-3.598 0-0.554 0.277-1.384 0.277-1.937 0-1.937 0.554-3.598 1.107-5.535 0.554-1.661 0.83-3.321 1.661-4.982s1.661-3.044 2.768-4.428c1.107-1.384 2.214-2.768 3.321-4.151 1.384-1.107 2.77-1.937 4.154-2.768 1.661-1.107 3.321-1.937 4.982-2.491 0.554 0 1.107-0.83 1.661-0.83 2.214-0.554 4.149-0.83 6.363-0.83 0 0 0.556 0 0.833 0 20.757-0.277 37.083-16.882 37.083-37.639s-16.882-37.639-37.639-37.639l0.28 0.551z" fill="#1D1D1D" />

    </g>
</svg>