<?xml version="1.0" encoding="iso-8859-1"?>
<!DOCTYPE svg PUBLIC "-//W3C//DTD SVG 1.1//EN" "http://www.w3.org/Graphics/SVG/1.1/DTD/svg11.dtd">
<svg version="1.1" xmlns="http://www.w3.org/2000/svg" xmlns:xlink="http://www.w3.org/1999/xlink" x="0px"
	y="0px" width="511.626px" height="511.627px" viewBox="0 0 1100 1100"
	style="enable-background:new 0 0 1100 1100;" xml:space="preserve">
	<g>
		

<path transform="rotate(180 500 500) scale(0.9)" d="M476.625 481.516v-357.782c0-17.067 13.964-31.030 31.030-31.030s31.030 13.964 31.030 31.030v357.782c114.502 15.205 203.252 113.261 203.252 232.105 0 129.396-105.196 234.28-234.282 234.28s-234.277-105.194-234.277-234.28c0-118.845 88.745-216.901 203.247-232.105zM507.656 885.841c94.953 0 172.221-77.267 172.221-172.22 0-94.951-77.269-172.22-172.221-172.22s-172.215 77.269-172.215 172.22c0 94.953 77.262 172.22 172.215 172.22zM628.674 271.754c-17.067 1.552-31.961-11.487-33.202-28.554s11.481-31.955 28.548-33.196c222.798-16.446 312.475-72.301 312.475-92.781 0-29.168-146.153-97.128-429.149-97.128s-429.149 67.959-429.149 97.128c0 20.48 89.988 76.335 312.475 92.781 17.067 1.241 29.789 16.13 28.548 33.196s-16.136 30.106-33.202 28.554c-86.885-6.516-370.191-36.616-370.191-154.841 0-109.227 254.758-159.189 491.209-159.189s491.21 49.962 491.21 159.189c0 118.225-283.307 148.325-370.192 154.841h0.621z" fill="#1D1D1D" />

    </g>
</svg>