<?xml version="1.0" encoding="iso-8859-1"?>
<!DOCTYPE svg PUBLIC "-//W3C//DTD SVG 1.1//EN" "http://www.w3.org/Graphics/SVG/1.1/DTD/svg11.dtd">
<svg version="1.1" xmlns="http://www.w3.org/2000/svg" xmlns:xlink="http://www.w3.org/1999/xlink" x="0px"
	y="0px" width="511.626px" height="511.627px" viewBox="0 0 1100 1100"
	style="enable-background:new 0 0 1100 1100;" xml:space="preserve">
	<g>
		

<path transform="rotate(180 500 500) scale(0.9)" d="M1020.587 575.659c0 18.091-7.168 35.499-20.139 48.129l-307.883 307.883c-26.283 26.283-70.315 26.283-96.597 0l-290.133-290.133c-96.256 16.043-189.099-2.391-263.168-52.567-0.683-0.683-1.365-1.024-2.048-1.707l-8.533-10.923c-1.024-2.048-1.707-4.096-2.389-5.803l-1.365-6.827c0-2.048 0-4.096 0-6.485l1.365-6.144c0.683-2.048 1.365-4.437 1.707-4.437 0-0.683 1.024-2.731 2.389-5.12l263.851-264.875-141.312-141.312c-13.312-13.312-13.312-34.813 0-48.125s35.499-12.971 48.128 0l141.311 141.309 259.072-259.072c0 0 1.707-1.707 2.731-2.389l7.851-4.779c4.779-2.389 9.557-3.41 14.336-3.41s9.557 1.021 14.677 3.41c1.707 0.683 2.731 1.707 4.096 2.389 1.024 0.683 3.413 2.048 5.803 4.096l4.096 5.12c49.835 73.728 68.267 166.574 52.224 262.83l290.133 290.133c12.971 12.971 20.139 30.034 20.139 48.125l-0.341 0.683zM642.389 231.595c11.605-65.536 4.779-127.659-20.139-181.931l-503.466 503.467c53.931 24.917 116.395 31.747 181.589 20.142 12.971-7.168 29.355-4.782 40.277 5.799l304.127 304.128 307.883-307.883-304.128-304.128c-10.581-10.923-12.629-26.965-5.803-39.936l-0.341 0.341z" fill="#1D1D1D" />

    </g>
</svg>