<?xml version="1.0" encoding="iso-8859-1"?>
<!DOCTYPE svg PUBLIC "-//W3C//DTD SVG 1.1//EN" "http://www.w3.org/Graphics/SVG/1.1/DTD/svg11.dtd">
<svg version="1.1" xmlns="http://www.w3.org/2000/svg" xmlns:xlink="http://www.w3.org/1999/xlink" x="0px"
	y="0px" width="511.626px" height="511.627px" viewBox="0 0 1100 1100"
	style="enable-background:new 0 0 1100 1100;" xml:space="preserve">
	<g>
		

<path transform="rotate(180 500 500) scale(0.9)" d="M837.194 584.533l118.536 118.536c26.686 26.686 41.27 61.75 40.96 98.987 0 36.616-14.895 72.611-40.96 98.676-54.303 54.303-143.050 54.303-197.353 0l-120.087-120.087-435.355 128.465c-10.861 3.103-22.652 0-30.72-7.758l-72.921-72.922c-6.827-6.827-9.931-16.135-8.689-26.065 0.931-6.827 4.035-13.033 9-17.998 1.862-1.862 3.722-3.414 6.515-4.965l336.681-194.87-152.672-152.669-89.368 21.411c-10.55 2.482-22.030-0.621-29.477-8.378l-142.741-146.463c-7.758-8.068-10.55-19.549-7.447-30.41 1.552-4.965 4.344-9.619 7.758-13.343 4.034-4.034 9-6.827 14.585-8.378l211.006-51.2 51.199-210.696c1.241-5.585 4.034-10.55 8.068-14.584 3.724-3.724 8.378-6.516 13.342-8.068 2.793-0.931 5.585-1.241 8.378-1.241 8.068 0 15.829 3.103 21.721 8.688l146.463 142.739c7.758 7.758 11.171 18.928 8.378 29.479l-22.649 93.712 151.735 151.738 196.732-340.092c1.241-2.172 3.103-4.344 4.965-6.206 4.965-4.965 11.171-8.068 17.998-8.688 9.309-1.241 19.242 2.172 26.069 8.688l72.918 72.921c8.068 8.068 11.171 19.859 7.758 30.72l-129.396 439.699-0.931 0.621zM285.477 251.888l-175.322 42.512 92.472 94.642 89.057-21.411 1.551-0.621h2.172c2.172 0 4.032 0 6.205 0s3.724 0.621 5.896 1.241l5.587 2.172c1.862 0.931 3.413 2.172 3.723 2.482l202.005 201.387 2.793 5.585c0.621 1.862 1.241 3.413 1.241 4.655l0.931 4.655c0 2.793 0 4.965-0.621 7.758l-0.928 4.034c-0.931 2.793-2.175 4.965-2.796 6.206-0.931 1.552-1.862 3.103-1.552 2.172l-3.1 4.344c0 0-3.416 2.482-2.486 1.862l-340.402 197.663 31.341 31.341 435.668-128.465 4.651-0.621c1.862 0 3.724-0.31 5.896-0.31l11.171 2.793c2.482 1.241 4.344 2.482 4.344 2.792l137.464 136.534c30.099 30.099 79.441 30.41 109.85 0 14.274-14.274 22.649-34.444 22.649-54.924s-7.754-40.029-22.649-54.924l-131.879-131.878-5.589-8.378c-0.931-1.862-1.241-3.724-1.862-5.896l-0.931-5.585c0-2.482 0-4.655 0-4.965l130.33-444.975-31.344-31.341-196.732 340.092c-1.241 1.862-2.172 3.103-2.172 2.793l-2.479 3.413c-2.172 2.172-2.796 2.482-2.486 1.862l-3.724 2.482c-1.552 0.931-4.031 2.482-7.134 3.413l-3.724 0.931c-2.172 0.31-4.658 0.621-7.45 0.621l-4.965-0.931c0 0-3.1-0.621-5.272-1.552l-3.416-1.552c-1.862-1.241-3.1-2.172-2.479-2.172l-196.735-195.801-2.172-2.793c0 0-2.482-3.103-3.413-5.275-0.931-1.862-1.862-4.034-2.172-5.585l-1.238-5.896c0-2.172 0-4.344 0-4.344v-3.103l22.959-95.573-94.639-92.47-42.513 175.011c-1.552 5.896-4.655 11.481-8.379 14.584-4.344 4.965-9.62 8.378-15.826 9.93l0.621-0.621z" fill="#1D1D1D" />

    </g>
</svg>