<?xml version="1.0" encoding="iso-8859-1"?>
<!DOCTYPE svg PUBLIC "-//W3C//DTD SVG 1.1//EN" "http://www.w3.org/Graphics/SVG/1.1/DTD/svg11.dtd">
<svg version="1.1" xmlns="http://www.w3.org/2000/svg" xmlns:xlink="http://www.w3.org/1999/xlink" x="0px"
	y="0px" width="511.626px" height="511.627px" viewBox="0 0 1100 1100"
	style="enable-background:new 0 0 1100 1100;" xml:space="preserve">
	<g>
		

<path transform="rotate(180 500 500) scale(0.9)" d="M1007.244 608.114v153.606c0 17.067-13.964 31.030-31.030 31.030h-916.634c-17.067 0-31.030-13.964-31.030-31.030v-650.712c0-17.067 13.964-31.030 31.030-31.030h916.634c17.067 0 31.030 13.964 31.030 31.030v153.606c0 17.067-13.964 31.030-31.030 31.030s-31.030-13.964-31.030-31.030v-122.576h-854.573v588.651h854.573v-122.576c0-17.067 13.964-31.030 31.030-31.030s31.030 13.964 31.030 31.030zM748.141 597.879c-9.619 5.585-21.411 5.585-31.030 0s-15.515-15.829-15.515-27v-269.652c0-11.171 5.896-21.414 15.515-26.999 4.655-2.793 10.24-4.031 15.515-4.031s10.861 1.548 15.825 4.341l229.314 134.675c9.619 5.585 15.205 15.829 15.205 26.689s-5.896 21.098-15.205 26.683l-229.314 134.674-0.31 0.621zM763.345 355.84v161.047l137.154-80.675-137.154-80.682v0.31z" fill="#1D1D1D" />

    </g>
</svg>