<?xml version="1.0" encoding="iso-8859-1"?>
<!DOCTYPE svg PUBLIC "-//W3C//DTD SVG 1.1//EN" "http://www.w3.org/Graphics/SVG/1.1/DTD/svg11.dtd">
<svg version="1.1" xmlns="http://www.w3.org/2000/svg" xmlns:xlink="http://www.w3.org/1999/xlink" x="0px"
	y="0px" width="511.626px" height="511.627px" viewBox="0 0 1100 1100"
	style="enable-background:new 0 0 1100 1100;" xml:space="preserve">
	<g>
		

<path transform="rotate(180 500 500) scale(0.9)" d="M903.292 758.614h-40.029v140.568c0 17.067-13.964 31.030-31.030 31.030h-652.257c-17.067 0-31.030-13.964-31.030-31.030v-140.568h-40.029c-51.2 0-93.091-41.891-93.091-93.091v-514.48c0-17.067 13.964-31.030 31.030-31.030h140.878v-140.881c0-17.067 13.964-31.030 31.030-31.030h574.681c17.067 0 31.030 13.964 31.030 31.030v140.881h140.878c17.067 0 31.030 13.964 31.030 31.030v514.48c0 51.2-41.891 93.091-93.091 93.091zM801.202 868.152v-109.538h-590.196v109.538h590.196zM249.794 10.162v226.214h512.62v-226.214h-512.62zM793.445 298.437h-574.681c-17.067 0-31.030-13.964-31.030-31.030v-85.333h-109.847v483.449c0 17.067 13.964 31.030 31.030 31.030h794.375c17.067 0 31.030-13.964 31.030-31.030v-483.449h-109.847v85.333c0 17.067-13.964 31.030-31.030 31.030zM793.445 383.457c30.677 0 55.544 24.868 55.544 55.544s-24.868 55.544-55.544 55.544c-30.677 0-55.544-24.868-55.544-55.544s24.868-55.544 55.544-55.544z" fill="#1D1D1D" />

    </g>
</svg>