<?xml version="1.0" encoding="iso-8859-1"?>
<!DOCTYPE svg PUBLIC "-//W3C//DTD SVG 1.1//EN" "http://www.w3.org/Graphics/SVG/1.1/DTD/svg11.dtd">
<svg version="1.1" xmlns="http://www.w3.org/2000/svg" xmlns:xlink="http://www.w3.org/1999/xlink" x="0px"
	y="0px" width="511.626px" height="511.627px" viewBox="0 0 1100 1100"
	style="enable-background:new 0 0 1100 1100;" xml:space="preserve">
	<g>
		

<path transform="rotate(180 500 500) scale(0.9)" d="M522.237 938.137c-273.435 0-496.224-222.513-496.224-496.225s222.512-496.225 496.224-496.225c273.712 0 496.225 222.512 496.225 496.225s-222.512 496.225-496.225 496.225zM522.237 882.785c242.992 0 440.874-197.605 440.874-440.874 0-102.4-35.425-200.372-100.463-279.248-13.561 132.843-103.23 245.483-229.985 288.381 46.495 34.595 74.448 88.839 74.448 147.788 0 101.847-82.75 184.597-184.597 184.597s-184.594-82.75-184.594-184.597c0-59.226 27.952-113.47 74.448-147.788-126.755-42.897-216.425-155.537-229.986-288.381-65.038 78.876-100.463 176.848-100.463 279.248 0 242.993 197.605 440.874 440.875 440.874h-0.556zM651.483 599.109c0-71.403-58.119-129.245-129.245-129.245s-129.243 58.119-129.243 129.245c0 71.126 58.116 129.246 129.243 129.246s129.245-58.119 129.245-129.246zM235.242 127.516c0 158.305 128.691 286.997 286.719 286.997s286.997-128.692 286.997-286.997v-19.373c-80.259-68.912-181.829-107.105-286.997-107.105s-206.737 37.916-286.719 107.105v19.373z" fill="#1D1D1D" />

    </g>
</svg>