<?xml version="1.0" encoding="iso-8859-1"?>
<!DOCTYPE svg PUBLIC "-//W3C//DTD SVG 1.1//EN" "http://www.w3.org/Graphics/SVG/1.1/DTD/svg11.dtd">
<svg version="1.1" xmlns="http://www.w3.org/2000/svg" xmlns:xlink="http://www.w3.org/1999/xlink" x="0px"
	y="0px" width="511.626px" height="511.627px" viewBox="0 0 1100 1100"
	style="enable-background:new 0 0 1100 1100;" xml:space="preserve">
	<g>
		

<path transform="rotate(180 500 500) scale(0.9)" d="M975.568 0.484h-909.146v139.209l260.705 264.026 162.179-136.718c5.812-4.982 13.838-7.472 21.31-6.365 7.472 0.83 14.668 4.982 19.096 11.070l408.77 562.093c8.856 12.454 6.089 29.614-6.089 38.747-6.089 4.428-13.284 6.088-20.757 4.981-7.196-1.107-13.838-4.982-17.989-11.071l-391.334-538.015-159.135 133.95c-11.070 9.133-27.399 8.579-37.639-1.661l-239.394-242.162v691.338c0 15.222-12.454 27.676-27.676 27.676s-27.676-12.454-27.676-27.676v-936.822c0-15.222 12.454-27.676 27.676-27.676h936.821c15.222 0 27.676 12.454 27.676 27.676s-12.454 27.676-27.676 27.676l0.277-0.277z" fill="#1D1D1D" />

    </g>
</svg>