<?xml version="1.0" encoding="iso-8859-1"?>
<!DOCTYPE svg PUBLIC "-//W3C//DTD SVG 1.1//EN" "http://www.w3.org/Graphics/SVG/1.1/DTD/svg11.dtd">
<svg version="1.1" xmlns="http://www.w3.org/2000/svg" xmlns:xlink="http://www.w3.org/1999/xlink" x="0px"
	y="0px" width="511.626px" height="511.627px" viewBox="0 0 1100 1100"
	style="enable-background:new 0 0 1100 1100;" xml:space="preserve">
	<g>
		

<path transform="rotate(180 500 500) scale(0.9)" d="M894.914 438.378c17.998 0 35.375-5.893 50.269-16.753 9.619-7.137 22.032-8.065 32.582-2.79s17.067 15.822 17.067 27.614v281.445c0 17.067-13.964 31.030-31.030 31.030h-225.28c1.241 7.758 2.172 15.826 2.172 23.894 0 80.989-65.784 146.773-146.773 146.773s-146.773-65.784-146.773-146.773c0-8.068 0.621-16.136 2.172-23.894h-225.28c-17.067 0-31.030-13.964-31.030-31.030v-225.591c-8.999 1.862-17.687 2.482-26.686 2.482-80.989 0-146.773-65.784-146.773-146.773s65.784-146.773 146.773-146.773c8.999 0 17.998 0.931 26.686 2.482v-234.279c0-17.067 13.964-31.030 31.030-31.030h740.383c17.067 0 31.030 13.964 31.030 31.030v281.445c0 11.792-6.516 22.342-17.067 27.617s-22.962 4.344-32.582-2.793c-14.895-11.171-32.272-16.756-50.269-16.756-46.856 0-84.713 38.167-84.713 84.713s38.167 84.71 84.713 84.71h-0.621zM932.461 10.473h-678.322v247.932c0 11.171-5.896 21.411-15.515 26.996-9.619 5.275-21.721 5.275-31.030 0-13.653-7.758-27.617-11.792-42.201-11.792-46.856 0-84.712 38.167-84.712 84.713s38.167 84.713 84.712 84.713c14.584 0 28.858-4.034 42.201-11.792 9.619-5.585 21.411-5.585 31.030 0s15.515 15.825 15.515 26.996v238.934h238.002c10.861 0 21.101 5.895 26.686 15.205s5.896 21.1 0.621 30.72c-7.137 13.033-10.861 26.687-10.861 40.030 0 46.856 38.167 84.712 84.713 84.712s84.713-38.167 84.713-84.712c0-13.653-3.724-26.998-10.55-40.030-5.275-9.619-4.965-21.411 0.621-30.72s15.825-15.205 26.686-15.205h238.002v-201.388c-12.102 3.413-24.824 4.965-37.547 4.965-80.989 0-146.773-65.784-146.773-146.773s65.784-146.773 146.773-146.773c12.722 0 25.445 1.552 37.547 4.965v-201.387l-0.31-0.31z" fill="#1D1D1D" />

    </g>
</svg>