<?xml version="1.0" encoding="iso-8859-1"?>
<!DOCTYPE svg PUBLIC "-//W3C//DTD SVG 1.1//EN" "http://www.w3.org/Graphics/SVG/1.1/DTD/svg11.dtd">
<svg version="1.1" xmlns="http://www.w3.org/2000/svg" xmlns:xlink="http://www.w3.org/1999/xlink" x="0px"
	y="0px" width="511.626px" height="511.627px" viewBox="0 0 1100 1100"
	style="enable-background:new 0 0 1100 1100;" xml:space="preserve">
	<g>
		

<path transform="rotate(180 500 500) scale(0.9)" d="M218.084 754.645h-178.231c-15.222 0-27.676-12.454-27.676-27.676v-178.231c0-15.222 12.454-27.676 27.676-27.676s27.676 12.454 27.676 27.676v150.555h150.556c15.222 0 27.676 12.454 27.676 27.676s-12.454 27.676-27.676 27.676zM976.675 754.645h-178.231c-15.222 0-27.676-12.454-27.676-27.676s12.454-27.676 27.676-27.676h150.556v-150.555c0-15.222 12.454-27.676 27.676-27.676s27.676 12.454 27.676 27.676v178.231c0 15.222-12.454 27.676-27.676 27.676zM976.675 352.796c-15.222 0-27.676-12.454-27.676-27.676v-150.556h-150.556c-15.222 0-27.676-12.454-27.676-27.676s12.454-27.676 27.676-27.676h178.231c15.222 0 27.676 12.454 27.676 27.676v178.231c0 15.222-12.454 27.676-27.676 27.676zM218.084 174.288h-150.556v150.556c0 15.222-12.454 27.676-27.676 27.676s-27.676-12.454-27.676-27.676v-178.231c0-15.222 12.454-27.676 27.676-27.676h178.231c15.222 0 27.676 12.454 27.676 27.676s-12.454 27.676-27.676 27.676zM326.573 646.434c-15.222 0-27.676-12.454-27.676-27.676v-363.658c0-15.222 12.454-27.676 27.676-27.676s27.676 12.454 27.676 27.676v363.658c0 15.222-12.454 27.676-27.676 27.676zM508.402 645.327c-15.222 0-27.676-12.454-27.676-27.676v-363.658c0-15.222 12.454-27.676 27.676-27.676s27.676 12.454 27.676 27.676v363.658c0 15.222-12.454 27.676-27.676 27.676zM690.231 645.327c-15.222 0-27.676-12.454-27.676-27.676v-363.658c0-15.222 12.454-27.676 27.676-27.676s27.676 12.454 27.676 27.676v363.658c0 15.222-12.454 27.676-27.676 27.676z" fill="#1D1D1D" />

    </g>
</svg>