<?xml version="1.0" encoding="iso-8859-1"?>
<!DOCTYPE svg PUBLIC "-//W3C//DTD SVG 1.1//EN" "http://www.w3.org/Graphics/SVG/1.1/DTD/svg11.dtd">
<svg version="1.1" xmlns="http://www.w3.org/2000/svg" xmlns:xlink="http://www.w3.org/1999/xlink" x="0px"
	y="0px" width="511.626px" height="511.627px" viewBox="0 0 1100 1100"
	style="enable-background:new 0 0 1100 1100;" xml:space="preserve">
	<g>
		

<path transform="rotate(180 500 500) scale(0.9)" d="M974.263 556.739l-32.914 32.914c-18.042 18.042-28.038 41.935-28.038 67.535v46.568c0 79.482-64.61 144.336-144.335 144.336h-46.568c-25.6 0-49.493 9.996-67.535 28.038l-32.914 32.915c-27.307 27.307-63.39 42.179-101.912 42.179s-74.85-15.116-101.912-42.179l-32.914-32.915c-18.042-18.042-41.935-28.038-67.535-28.038h-46.568c-79.483 0-144.336-64.61-144.336-144.336v-46.568c0-25.6-9.996-49.493-28.038-67.535l-32.914-32.914c-27.307-27.307-42.179-63.39-42.179-101.912s15.116-74.85 42.179-101.912l32.914-32.914c18.042-18.042 28.038-41.935 28.038-67.535v-46.568c0-79.482 64.609-144.335 144.336-144.335h46.568c25.6 0 49.493-9.996 67.535-28.038l32.914-32.914c27.307-27.307 63.39-42.179 101.912-42.179s74.85 15.116 101.912 42.179l32.914 32.914c18.042 18.042 41.935 28.038 67.535 28.038h46.568c79.482 0 144.335 64.61 144.335 144.335v46.568c0 25.6 9.996 49.493 28.038 67.535l32.914 32.914c27.307 27.307 42.179 63.39 42.179 101.912s-15.116 74.85-42.179 101.912zM864.549 252.221v-46.568c0-52.663-42.91-95.573-95.573-95.573h-46.568c-38.522 0-74.85-15.116-101.912-42.179l-32.914-32.914c-36.084-36.084-98.987-36.084-135.070 0l-32.914 32.914c-27.307 27.307-63.39 42.179-101.912 42.179h-46.568c-52.664 0-95.574 42.91-95.574 95.573v46.568c0 38.522-15.116 74.606-42.179 101.912l-32.915 32.914c-18.042 18.042-27.794 41.935-27.794 67.535s9.996 49.493 27.794 67.535l32.915 32.914c27.307 27.307 42.179 63.39 42.179 101.912v46.568c0 52.663 42.91 95.574 95.574 95.574h46.568c38.522 0 74.85 15.116 101.912 42.179l32.914 32.914c36.084 36.084 98.987 36.084 135.070 0l32.914-32.914c27.307-27.307 63.39-42.179 101.912-42.179h46.568c52.663 0 95.573-42.91 95.573-95.574v-46.568c0-38.522 15.116-74.606 42.179-101.912l32.914-32.914c18.042-18.042 28.038-41.935 28.038-67.535s-9.996-49.493-28.038-67.535l-32.914-32.914c-27.307-27.307-42.179-63.39-42.179-101.912zM539.55 324.632h-26.819c-20.197 0-36.571-16.374-36.571-36.571v-31.695c0-20.197 16.374-36.571 36.571-36.571h26.819c20.2 0 36.571 16.374 36.571 36.571v31.695c0 20.197-16.372 36.571-36.571 36.571zM666.331 612.815c-31.939 50.956-78.994 77.044-140.434 77.044-43.886 0-82.408-14.141-114.103-42.179-25.844-22.674-42.667-52.663-50.712-88.99-2.194-9.752 0-19.749 5.364-28.038 5.608-8.29 14.385-14.141 24.137-15.848l22.674-4.145c18.53-3.413 37.303 8.777 41.935 27.794 9.752 40.472 29.501 59.49 62.171 59.49 15.848 0 28.282-4.632 38.034-13.897 9.509-9.265 14.141-21.699 14.141-38.278 0-21.943-13.653-43.886-40.96-64.61-21.211-16.335-34.621-28.77-41.204-38.278-7.314-10.484-10.971-24.381-10.971-41.448v-19.017c0-20.236 16.335-36.571 36.571-36.571h14.872c18.773 0 34.865 14.629 36.328 33.158 0.731 8.777 1.707 12.19 2.194 12.922 0.731 1.95 3.413 6.583 12.19 12.922 30.964 22.674 50.956 38.278 60.952 47.787 10.484 9.996 19.992 23.893 27.794 41.448 15.116 33.158 16.091 69.973 2.926 109.714-0.975 3.17-2.682 6.339-4.389 9.021h0.488z" fill="#1D1D1D" />

    </g>
</svg>