<?xml version="1.0" encoding="iso-8859-1"?>
<!DOCTYPE svg PUBLIC "-//W3C//DTD SVG 1.1//EN" "http://www.w3.org/Graphics/SVG/1.1/DTD/svg11.dtd">
<svg version="1.1" xmlns="http://www.w3.org/2000/svg" xmlns:xlink="http://www.w3.org/1999/xlink" x="0px"
	y="0px" width="511.626px" height="511.627px" viewBox="0 0 1100 1100"
	style="enable-background:new 0 0 1100 1100;" xml:space="preserve">
	<g>
		

<path transform="rotate(180 500 500) scale(0.9)" d="M458.032 465.159c46.495 34.595 74.448 88.839 74.448 147.788 0 101.846-82.75 184.597-184.597 184.597s-184.598-82.75-184.598-184.597c0-59.226 27.953-113.471 74.448-147.788-138.102-46.772-231.922-175.741-231.922-323.529 0-15.222 12.454-27.676 27.676-27.676s27.676 12.454 27.676 27.676c0 158.028 128.692 286.72 286.998 286.72s286.72-128.692 286.72-286.72c0-15.222 12.454-27.676 27.676-27.676s27.676 12.454 27.676 27.676c0 148.065-93.821 276.757-231.922 323.529h-0.277zM347.606 483.702c-71.404 0-129.246 58.119-129.246 129.246s58.119 129.245 129.246 129.245c71.126 0 129.245-58.119 129.245-129.245s-58.119-129.246-129.245-129.246zM603.053 714.24h367.256c15.222 0 27.676 12.454 27.676 27.676s-12.454 27.676-27.676 27.676h-367.256c-15.222 0-27.676-12.454-27.676-27.676s12.454-27.676 27.676-27.676zM970.032 654.737h-367.256c-15.222 0-27.676-12.454-27.676-27.676s12.454-27.676 27.676-27.676h367.256c15.222 0 27.676 12.454 27.676 27.676s-12.454 27.676-27.676 27.676zM970.032 539.884h-367.256c-15.222 0-27.676-12.454-27.676-27.676s12.454-27.676 27.676-27.676h367.256c15.222 0 27.676 12.454 27.676 27.676s-12.454 27.676-27.676 27.676z" fill="#1D1D1D" />

    </g>
</svg>