<?xml version="1.0" encoding="iso-8859-1"?>
<!DOCTYPE svg PUBLIC "-//W3C//DTD SVG 1.1//EN" "http://www.w3.org/Graphics/SVG/1.1/DTD/svg11.dtd">
<svg version="1.1" xmlns="http://www.w3.org/2000/svg" xmlns:xlink="http://www.w3.org/1999/xlink" x="0px"
	y="0px" width="511.626px" height="511.627px" viewBox="0 0 1100 1100"
	style="enable-background:new 0 0 1100 1100;" xml:space="preserve">
	<g>
		

<path transform="rotate(180 500 500) scale(0.9)" d="M833.164 881.182l-108.296 50.273c-4.034 1.862-8.378 2.788-13.033 2.788h-317.439c-17.067 0-31.030-13.964-31.030-31.030s13.964-31.030 31.030-31.030h83.472v-95.568h-141.808c-17.067 0-31.030-13.964-31.030-31.030v-140.567c-69.818-58.027-114.502-145.846-114.502-243.591v-372.674c0-17.067 13.963-31.030 31.030-31.030h574.681c17.067 0 31.030 13.964 31.030 31.030v372.674c0 7.137-0.621 14.271-0.931 21.098 0.31 1.862 0.931 3.42 0.931 5.281 0 4.344-0.931 8.685-2.793 12.409-10.24 82.851-52.131 155.775-113.571 206.044v139.326c0 17.067-13.964 31.030-31.030 31.030h-139.947v95.568h165.081l102.090-47.167c4.344-1.862 8.688-2.788 13.033-2.788 11.792 0 22.962 6.511 28.238 17.992 7.137 15.515 0.31 34.136-15.205 41.273v-0.311zM765.207 185.794h-226.211v170.667h226.211v-170.667zM758.381 418.521h-250.415c-17.067 0-31.030-13.964-31.030-31.030v-232.727c0-17.067 13.964-31.030 31.030-31.030h257.241v-104.265h-512.62v341.647c0 140.567 114.191 254.756 254.758 254.756h3.103c120.708 0 221.867-84.396 247.932-197.036v-0.313zM648.844 645.356c-41.891 20.48-88.747 32.265-138.395 32.265h-3.103c-50.27 0-97.745-12.096-140.256-33.196v69.507h281.755v-68.576z" fill="#1D1D1D" />

    </g>
</svg>