<?xml version="1.0" encoding="iso-8859-1"?>
<!DOCTYPE svg PUBLIC "-//W3C//DTD SVG 1.1//EN" "http://www.w3.org/Graphics/SVG/1.1/DTD/svg11.dtd">
<svg version="1.1" xmlns="http://www.w3.org/2000/svg" xmlns:xlink="http://www.w3.org/1999/xlink" x="0px"
	y="0px" width="511.626px" height="511.627px" viewBox="0 0 1100 1100"
	style="enable-background:new 0 0 1100 1100;" xml:space="preserve">
	<g>
		

<path transform="rotate(180 500 500) scale(0.9)" d="M784.679 937.179h-555.010c-32.475 0-58.805-26.624-58.805-59.392v-883.565c0-11.703 7.021-22.235 17.554-27.209 10.532-4.681 23.114-2.633 31.891 4.974l288.768 258.633 285.257-258.341c5.559-4.974 12.581-7.607 19.895-7.607 4.096 0 8.192 0.878 11.995 2.633 10.825 4.681 17.554 15.506 17.554 27.209v883.565c0 32.768-26.331 59.392-58.807 59.392l-0.293-0.293zM784.387 877.787v-816.859l-255.415 231.424c-11.118 10.24-28.090 10.24-39.5 0l-259.217-232.009v817.737l554.131-0.293z" fill="#1D1D1D" />

    </g>
</svg>