<?xml version="1.0" encoding="iso-8859-1"?>
<!DOCTYPE svg PUBLIC "-//W3C//DTD SVG 1.1//EN" "http://www.w3.org/Graphics/SVG/1.1/DTD/svg11.dtd">
<svg version="1.1" xmlns="http://www.w3.org/2000/svg" xmlns:xlink="http://www.w3.org/1999/xlink" x="0px"
	y="0px" width="511.626px" height="511.627px" viewBox="0 0 1100 1100"
	style="enable-background:new 0 0 1100 1100;" xml:space="preserve">
	<g>
		

<path transform="rotate(180 500 500) scale(0.9)" d="M1005.12 157.12l-726.718 456.958c5.76 15.040 8.64 30.402 8.64 46.082 0 74.24-60.16 134.399-134.4 134.399s-134.399-60.159-134.399-134.399c0-74.24 60.159-134.398 134.399-134.398 33.28 0 65.28 12.799 89.92 35.199l212.802-133.761-199.361-124.8c-25.28 30.72-63.040 48.96-103.36 48.96-74.24 0-134.399-60.16-134.399-134.4s60.159-134.4 134.399-134.4c74.24 0 134.4 60.16 134.4 134.4 0 8.64-0.96 17.92-3.2 27.52l231.678 144.96 455.68-286.4c14.4-9.28 34.88-4.8 44.16 9.92 9.28 15.040 4.8 34.56-10.24 44.16zM152.322 287.36c38.72 0 70.399-31.68 70.399-70.4s-31.679-70.4-70.399-70.4c-38.72 0-70.4 31.68-70.4 70.4s31.68 70.4 70.4 70.4zM152.322 730.559c38.72 0 70.399-31.679 70.399-70.399s-31.679-70.398-70.399-70.398c-38.72 0-70.4 31.678-70.4 70.398s31.68 70.399 70.4 70.399zM579.523 435.52c6.080 0 11.843 1.603 16.963 4.803l410.557 257.28c15.040 9.28 19.52 29.12 10.24 44.16-4.48 7.36-11.84 12.158-20.16 14.078s-16.96 0.32-24-4.16l-410.56-257.282c-15.040-9.28-19.52-29.12-10.24-44.16 5.76-9.28 16-15.040 27.2-15.040v0.32zM585.283 453.123v0z" fill="#1D1D1D" />

    </g>
</svg>