<?xml version="1.0" encoding="iso-8859-1"?>
<!DOCTYPE svg PUBLIC "-//W3C//DTD SVG 1.1//EN" "http://www.w3.org/Graphics/SVG/1.1/DTD/svg11.dtd">
<svg version="1.1" xmlns="http://www.w3.org/2000/svg" xmlns:xlink="http://www.w3.org/1999/xlink" x="0px"
	y="0px" width="511.626px" height="511.627px" viewBox="0 0 1100 1100"
	style="enable-background:new 0 0 1100 1100;" xml:space="preserve">
	<g>
		

<path transform="rotate(180 500 500) scale(0.9)" d="M42.51 170.589c7.758-2.793 16.136-2.486 23.583 0.928 1.862 0.931 197.353 88.439 436.287-0.928 79.127-29.479 161.044-44.687 243.895-44.687 137.464 0 229.938 40.96 239.867 45.615 15.515 7.137 22.339 25.758 15.202 40.963-3.413 7.447-9.619 13.343-17.377 16.136s-16.133 2.479-23.89-0.934c-1.862-0.931-199.215-87.813-436.286 0.934-263.759 98.676-475.075 3.1-484.074-0.934-15.515-7.137-22.341-25.755-15.204-41.27 3.413-7.447 9.619-13.34 17.687-16.133l0.311 0.31zM960.388 98.282c-1.862-0.931-198.284-88.123-436.286 0.934-262.827 98.366-475.074 3.1-484.073-0.934-15.515-7.137-22.343-25.752-15.206-41.267s25.446-22.342 41.271-15.205c1.862 0.931 197.352 88.436 436.286-0.931 79.127-29.479 161.047-44.687 243.898-44.687 137.464 0 229.935 40.963 239.864 45.618 15.515 7.137 22.342 25.752 15.205 40.957-7.137 15.515-25.445 22.342-41.27 15.205l0.31 0.31zM56.475 308.671c135.602-0.931 241.105 97.742 306.269 181.834 25.755 33.202 49.028 68.577 71.99 103.021 37.547 56.475 76.335 114.814 124.121 161.67 45.925 44.994 119.156 96.193 206.972 84.712 54.303-6.827 103.952-40.029 130.638-85.023-18.308-0.621-34.754-2.792-39.408-3.413-37.236-6.827-72.921-26.065-100.228-53.992-48.407-49.648-74.783-128.468-70.128-210.699 5.275-95.573 57.096-200.763 160.116-220.933 9.619-1.862 19.239-2.793 28.858-2.793 47.166 0 92.47 22.342 117.605 58.337 4.655 6.827 6.516 14.895 5.275 23.273-1.552 8.068-5.896 15.202-12.722 20.167-6.827 4.655-14.895 6.516-23.273 5.275-8.068-1.552-15.205-5.896-20.17-12.722-17.067-24.204-51.51-36.926-84.092-30.41-70.439 13.653-106.124 91.85-110.158 163.53-3.724 65.164 15.825 126.606 52.441 163.842 18.308 18.928 42.201 31.652 65.784 35.996 6.206 0.621 61.13 1.238 68.577 0.928 4.965-1.241 9.619-1.241 14.584 0 16.756 3.724 26.996 20.482 23.273 37.239-20.48 89.367-102.71 160.735-199.525 173.148-112.64 14.584-202.628-47.478-258.482-102.091-52.441-51.51-93.091-112.638-132.499-171.905-22.032-33.202-44.994-67.649-69.198-99.299-56.786-73.542-147.704-160.737-254.448-157.944-8.378 0.931-16.136-1.548-22.342-6.824-6.516-5.896-10.551-14.274-10.861-23.273-0.31-17.067 13.342-31.341 30.409-31.651h0.621z" fill="#1D1D1D" />

    </g>
</svg>