<?xml version="1.0" encoding="iso-8859-1"?>
<!DOCTYPE svg PUBLIC "-//W3C//DTD SVG 1.1//EN" "http://www.w3.org/Graphics/SVG/1.1/DTD/svg11.dtd">
<svg version="1.1" xmlns="http://www.w3.org/2000/svg" xmlns:xlink="http://www.w3.org/1999/xlink" x="0px"
	y="0px" width="511.626px" height="511.627px" viewBox="0 0 1100 1100"
	style="enable-background:new 0 0 1100 1100;" xml:space="preserve">
	<g>
		

<path transform="rotate(180 500 500) scale(0.9)" d="M889.015 741.857c-1.241 16.136-14.584 28.86-32.272 28.86l-8.688-0.621c-124.742 0-241.726 55.234-320.853 151.738-11.481 13.964-36.305 13.964-47.787 0-79.437-96.504-196.421-151.738-320.852-151.738h-10.55c-17.067-0.931-29.169-12.103-30.099-28.239-7.137-101.779 3.103-202.007 30.41-298.512 72.611-256 242.347-408.048 336.988-476.005 5.275-3.724 11.481-5.896 17.998-5.896s12.722 1.862 17.998 5.896c94.642 67.646 264.378 219.695 337.299 476.005 27.307 96.194 37.547 196.732 30.41 298.512zM177.801 708.656c123.19 4.965 240.175 58.026 325.197 146.773 85.333-89.057 202.318-141.808 325.198-146.773 3.103-84.404-7.137-167.875-29.789-248.244-63.612-224.349-208.524-363.055-295.408-429.149-86.884 66.095-231.795 204.8-295.407 429.149-22.962 80.368-32.892 163.84-29.789 248.244zM490.586 592.291c-10.55-4.965-17.687-15.515-17.687-27.927v-285.479c0-17.067 13.964-31.030 31.030-31.030s31.030 13.964 31.030 31.030v285.479c0 12.412-7.447 22.652-17.687 27.927 11.792 5.275 19.859 16.756 19.859 30.41 0 18.308-14.895 33.201-33.202 33.201s-33.202-14.893-33.202-33.201c0-13.653 8.378-25.135 19.859-30.41z" fill="#1D1D1D" />

    </g>
</svg>