<?xml version="1.0" encoding="iso-8859-1"?>
<!DOCTYPE svg PUBLIC "-//W3C//DTD SVG 1.1//EN" "http://www.w3.org/Graphics/SVG/1.1/DTD/svg11.dtd">
<svg version="1.1" xmlns="http://www.w3.org/2000/svg" xmlns:xlink="http://www.w3.org/1999/xlink" x="0px"
	y="0px" width="511.626px" height="511.627px" viewBox="0 0 1100 1100"
	style="enable-background:new 0 0 1100 1100;" xml:space="preserve">
	<g>
		

<path transform="rotate(180 500 500) scale(0.9)" d="M948.169 466.543h-331.831c-15.222 0-27.676-12.454-27.676-27.676s12.454-27.676 27.676-27.676h331.831v-228.601h-881.746v228.601h328.51c15.222 0 27.676 12.454 27.676 27.676s-12.454 27.676-27.676 27.676h-328.51c-30.443 0-55.351-24.908-55.351-55.351v-228.601c0-30.443 24.908-55.351 55.351-55.351h881.746c30.443 0 55.351 24.908 55.351 55.351v228.601c0 30.443-24.908 55.351-55.351 55.351zM440.874 653.63l38.746 32.934v-247.697c0-15.222 12.454-27.676 27.676-27.676s27.676 12.454 27.676 27.676v247.697l38.469-33.764c11.070-9.686 29.613-8.302 39.023 2.491 4.982 5.535 7.196 12.731 6.919 19.926-0.554 7.472-3.875 14.114-9.41 19.096l-83.857 73.341c-4.705 4.151-10.517 6.365-16.329 6.919h-2.491c-3.321 0-5.812-0.554-8.303-1.384-4.982-1.661-9.41-4.705-11.070-6.919l-83.027-70.573c-11.624-9.963-13.008-27.399-3.044-39.023s27.399-13.008 39.023-3.044zM871.23 296.891c0 31.274-25.462 56.735-56.735 56.735s-56.735-25.462-56.735-56.735c0-31.274 25.462-56.735 56.735-56.735s56.735 25.462 56.735 56.735z" fill="#1D1D1D" />

    </g>
</svg>