<?xml version="1.0" encoding="iso-8859-1"?>
<!DOCTYPE svg PUBLIC "-//W3C//DTD SVG 1.1//EN" "http://www.w3.org/Graphics/SVG/1.1/DTD/svg11.dtd">
<svg version="1.1" xmlns="http://www.w3.org/2000/svg" xmlns:xlink="http://www.w3.org/1999/xlink" x="0px"
	y="0px" width="511.626px" height="511.627px" viewBox="0 0 1100 1100"
	style="enable-background:new 0 0 1100 1100;" xml:space="preserve">
	<g>
		

<path transform="rotate(180 500 500) scale(0.9)" d="M691.2 852.18c-15.36 6.024-32.828-1.206-39.153-16.566s1.205-32.83 16.565-39.154c157.515-63.849 259.313-214.433 259.313-384.296 0-228.593-186.127-414.723-414.72-414.723s-414.719 186.13-414.719 414.723c0 169.562 101.797 320.447 259.312 384.296 15.36 6.325 22.889 23.794 16.565 39.154s-23.793 22.891-39.153 16.566c-180.404-73.186-296.959-245.758-296.959-440.017 0-261.722 212.931-474.958 474.955-474.958s474.955 212.935 474.955 474.958c0 194.259-116.555 367.132-296.96 440.017zM513.205 492.273c16.565 0 30.118 13.553 30.118 30.118v399.359c0 16.565-13.553 30.118-30.118 30.118s-30.118-13.553-30.118-30.118v-399.359c0-16.565 13.553-30.118 30.118-30.118z" fill="#1D1D1D" />

    </g>
</svg>