<?xml version="1.0" encoding="iso-8859-1"?>
<!DOCTYPE svg PUBLIC "-//W3C//DTD SVG 1.1//EN" "http://www.w3.org/Graphics/SVG/1.1/DTD/svg11.dtd">
<svg version="1.1" xmlns="http://www.w3.org/2000/svg" xmlns:xlink="http://www.w3.org/1999/xlink" x="0px"
	y="0px" width="511.626px" height="511.627px" viewBox="0 0 1100 1100"
	style="enable-background:new 0 0 1100 1100;" xml:space="preserve">
	<g>
		

<path transform="rotate(180 500 500) scale(0.9)" d="M1008.778 1.868l-936.823 936.822c-10.794 10.794-28.229 10.794-39.023 0s-10.793-28.229 0-39.023l213.103-213.103c-5.535-19.927-8.303-40.13-8.303-60.056v-201.479c0-57.012-23.801-111.533-67.252-153.6l-68.082-66.145c-19.096-18.543-24.632-44.835-14.945-68.636 10.517-25.738 35.978-42.344 65.314-42.344h212.274c12.731-75.278 78.876-132.566 155.814-132.566s143.083 57.289 155.814 132.566h161.349l131.736-131.736c5.258-5.258 12.177-8.026 19.65-8.026s14.391 2.768 19.647 8.026c10.794 10.794 10.794 28.229 0 39.023l-0.274 0.277zM520.856 14.322c-49.263 0-91.056 33.488-102.68 80.259h205.356c-11.624-46.772-53.414-80.259-102.677-80.259zM785.712 146.889h-632.944c-8.026 0-14.668 3.875-17.159 9.686-0.554 1.661-2.49 6.089 3.045 11.624l68.082 66.145c53.414 52.030 83.028 119.836 83.028 190.962v201.479c0 4.982 0 10.24 0.83 15.498l495.118-495.395zM328.784 739.978c32.657 43.174 81.923 73.341 138.658 85.241h1.381c35.425 7.472 69.466 7.472 105.168 0 104.614-22.141 177.678-103.784 177.678-198.988v-201.479c0-71.126 29.613-138.932 83.027-190.962l68.082-66.145c5.535-5.258 3.598-9.963 3.875-9.963l11.070-8.303-12.728 5.812-4.984-9.133 36.532-36.532 9.41 13.008c3.044 4.151 6.091 8.579 8.303 13.838 9.689 23.801 3.875 50.37-14.945 68.636l-68.082 66.145c-43.448 42.067-67.252 96.588-67.252 153.6v201.479c0 112.086-81.366 211.442-198.711 244.93-5.258 42.067-40.96 75.001-84.411 75.001s-79.152-32.657-84.411-75.001c-58.949-16.605-110.703-50.924-146.958-97.142l-7.472-9.687 37.085-37.085 9.686 12.731zM495.669 882.231c6.089 7.196 14.945 11.901 25.185 11.901s19.096-4.705 25.185-11.901c-17.156 1.384-32.931 1.384-50.090 0h-0.28z" fill="#1D1D1D" />

    </g>
</svg>