<?xml version="1.0" encoding="iso-8859-1"?>
<!DOCTYPE svg PUBLIC "-//W3C//DTD SVG 1.1//EN" "http://www.w3.org/Graphics/SVG/1.1/DTD/svg11.dtd">
<svg version="1.1" xmlns="http://www.w3.org/2000/svg" xmlns:xlink="http://www.w3.org/1999/xlink" x="0px"
	y="0px" width="511.626px" height="511.627px" viewBox="0 0 1100 1100"
	style="enable-background:new 0 0 1100 1100;" xml:space="preserve">
	<g>
		

<path transform="rotate(180 500 500) scale(0.9)" d="M990.968 930.6c-12.883 12.883-33.693 12.883-46.575 0l-499.448-499.447c-73.992 54.173-177.713 50.866-247.411-9.913l-171.768-150.293c-6.937-5.946-10.901-14.534-11.231-23.783s3.303-18.168 9.579-24.444l258.643-258.643c6.276-6.276 14.534-9.579 24.444-9.579 9.249 0 17.837 4.294 23.783 11.231l150.297 171.768c60.779 69.698 64.413 173.416 9.91 247.408l499.448 499.449c12.883 12.883 12.883 33.694 0 46.577l0.33-0.331zM370.622 148.397c5.946 6.606 8.919 15.195 8.258 23.783-0.33 8.919-4.294 16.843-10.901 22.789-13.543 12.222-34.354 10.904-46.575-2.639l-82.25-91.499-65.074 65.070 133.12 118.259c6.606 5.946 10.57 13.874 11.231 22.792s-2.312 17.173-8.258 23.78c-5.946 6.606-13.874 10.574-22.792 10.904-8.588 0.33-17.177-2.312-23.783-8.258l-136.093-120.898-31.711 31.708 145.012 127.177c52.191 45.585 131.468 42.942 180.355-5.946l4.294-4.294c48.888-48.888 51.53-128.165 5.946-180.356l-127.174-145.012-18.498 18.495 84.562 94.145h0.33z" fill="#1D1D1D" />

    </g>
</svg>