<?xml version="1.0" encoding="iso-8859-1"?>
<!DOCTYPE svg PUBLIC "-//W3C//DTD SVG 1.1//EN" "http://www.w3.org/Graphics/SVG/1.1/DTD/svg11.dtd">
<svg version="1.1" xmlns="http://www.w3.org/2000/svg" xmlns:xlink="http://www.w3.org/1999/xlink" x="0px"
	y="0px" width="511.626px" height="511.627px" viewBox="0 0 1100 1100"
	style="enable-background:new 0 0 1100 1100;" xml:space="preserve">
	<g>
		

<path transform="rotate(180 500 500) scale(0.9)" d="M40.377 479.598l464.604-237.861c4.096-2.048 8.777-3.218 13.166-3.218s9.067 1.17 13.455 3.218l464.603 237.861c9.658 4.974 15.802 14.921 15.802 26.039s-6.144 21.065-15.802 26.039l-464.603 237.861c-8.192 4.096-18.137 4.096-26.621 0l-464.604-237.861c-9.947-4.974-15.798-14.921-15.798-26.039s6.143-21.065 15.798-26.039zM117.909 505.637l400.238 204.8 400.238-204.8-400.238-204.8-400.238 204.8zM969.588 393.289l-451.148-230.839-451.144 230.839c-14.629 7.314-31.89 1.463-39.496-12.873-7.314-14.336-1.463-31.89 12.873-39.205l464.604-237.568c4.096-2.048 8.774-3.218 13.163-3.218s9.070 1.17 13.458 3.218l464.606 237.568c14.336 7.314 20.187 25.161 12.873 39.497s-24.869 20.187-39.497 12.873l-0.293-0.293z" fill="#1D1D1D" />

    </g>
</svg>