<?xml version="1.0" encoding="iso-8859-1"?>
<!DOCTYPE svg PUBLIC "-//W3C//DTD SVG 1.1//EN" "http://www.w3.org/Graphics/SVG/1.1/DTD/svg11.dtd">
<svg version="1.1" xmlns="http://www.w3.org/2000/svg" xmlns:xlink="http://www.w3.org/1999/xlink" x="0px"
	y="0px" width="511.626px" height="511.627px" viewBox="0 0 1100 1100"
	style="enable-background:new 0 0 1100 1100;" xml:space="preserve">
	<g>
		

<path transform="rotate(180 500 500) scale(0.9)" d="M983.661 939.519c-17.067 0-31.030-13.964-31.030-31.030v-276.476h-276.48c-17.067 0-31.030-13.964-31.030-31.030v-276.483h-276.48c-17.067 0-31.030-13.964-31.030-31.030v-276.48h-276.481c-17.067 0-31.030-13.964-31.030-31.030s13.964-31.030 31.030-31.030h307.511c17.067 0 31.030 13.964 31.030 31.030v276.48h276.48c17.067 0 31.030 13.964 31.030 31.030v276.483h276.48c17.067 0 31.030 13.964 31.030 31.030v307.506c0 17.067-13.964 31.030-31.030 31.030zM86.885 297.813c8.378 0 16.447 3.413 22.343 9.619l470.729 488.726v-55.542c0-17.067 13.964-31.030 31.030-31.030s31.030 13.964 31.030 31.030v135.602c-0.621 2.482-0.931 4.034-1.241 4.034l-2.482 7.136c0 0-1.552 3.104-2.793 4.655l-5.896 5.583c0 0-3.724 2.793-6.827 4.034l-140.257 2.17c-17.067 0-31.030-13.964-31.030-31.030s13.964-31.030 31.030-31.030h55.855l-473.521-491.518c-5.896-5.896-9-13.964-8.689-22.032s3.413-16.139 9.619-21.724c5.896-5.585 13.343-8.685 21.411-8.685h-0.311z" fill="#1D1D1D" />

    </g>
</svg>