<?xml version="1.0" encoding="iso-8859-1"?>
<!DOCTYPE svg PUBLIC "-//W3C//DTD SVG 1.1//EN" "http://www.w3.org/Graphics/SVG/1.1/DTD/svg11.dtd">
<svg version="1.1" xmlns="http://www.w3.org/2000/svg" xmlns:xlink="http://www.w3.org/1999/xlink" x="0px"
	y="0px" width="511.626px" height="511.627px" viewBox="0 0 1100 1100"
	style="enable-background:new 0 0 1100 1100;" xml:space="preserve">
	<g>
		

<path transform="rotate(180 500 500) scale(0.9)" d="M979.006 578.634l-464.524 259.413c-9.619 5.275-20.79 5.275-30.099 0l-467.936-259.413c-9.93-5.585-16.136-15.825-16.136-27.307s6.207-21.721 16.136-27.307l102.4-56.785v-125.673c0-116.984 171.287-208.834 389.74-208.834 68.267 0 134.672 9.619 193.319 27.927v-61.437c0-17.067 13.964-31.030 31.030-31.030s31.030 13.964 31.030 31.030v85.644c85.023 40.339 133.741 98.673 133.741 161.354v132.81l81.299 45.304c9.93 5.585 15.825 15.825 15.825 26.996s-6.206 21.721-15.825 26.996v0.311zM860.781 511.922l-8.068 13.030-119.777-67.025-220.315 120.708c-14.895 8.068-33.823 2.796-42.201-12.409-4.034-7.137-4.965-15.515-2.482-23.583s7.758-14.587 14.895-18.621l186.182-102.087-169.425-94.646-404.014 224.039 404.014 224.042 400.601-224.042-46.856-26.376 7.447-13.65v0.621zM180.907 433.416l303.476-168.187c8.999-4.965 20.79-5.275 30.099 0l187.423 104.572v-143.36c-56.785-20.17-125.052-31.030-193.319-31.030-174.39 0-327.679 68.577-327.679 146.773v91.232zM763.966 254.681v149.873l71.68 40.032v-98.059c0-32.272-25.755-64.85-71.68-91.847z" fill="#1D1D1D" />

    </g>
</svg>