<?xml version="1.0" encoding="iso-8859-1"?>
<!DOCTYPE svg PUBLIC "-//W3C//DTD SVG 1.1//EN" "http://www.w3.org/Graphics/SVG/1.1/DTD/svg11.dtd">
<svg version="1.1" xmlns="http://www.w3.org/2000/svg" xmlns:xlink="http://www.w3.org/1999/xlink" x="0px"
	y="0px" width="511.626px" height="511.627px" viewBox="0 0 1100 1100"
	style="enable-background:new 0 0 1100 1100;" xml:space="preserve">
	<g>
		

<path transform="rotate(180 500 500) scale(0.9)" d="M934.852 878.986c-78.005 77.402-274.974 65.956-381.289 28.61-26.202-9.336-53.911-9.336-80.414 0-106.014 36.744-302.381 47.587-379.783-29.515-63.849-63.548-72.885-170.164-24.396-285.514 47.586-112.339 77.403-218.052 91.257-322.56 13.252-98.786 48.489-188.238 105.11-266.243 32.226-44.273 66.259-62.946 101.195-54.814 38.852 8.734 95.774 50.293 143.661 308.101 0.301 2.108 2.108 2.415 5.12 3.921 2.409 0 4.216-1.512 4.518-3.921 47.887-257.807 104.809-299.366 143.661-308.101 5.12-1.205 10.541-1.801 15.661-1.801 29.515 0 58.127 18.968 85.534 56.615 50.899 70.174 84.932 150.284 100.593 237.926 21.082 115.953 46.984 239.137 94.871 354.789 47.586 114.145 37.948 219.862-25.299 283.109v-0.603zM904.734 619.068c-50.296-120.772-77.101-247.868-98.485-367.134-14.155-78.607-44.574-150.29-90.052-213.236-18.673-25.6-32.527-32.518-39.153-31.313-5.12 1.205-52.706 18.67-97.581 260.515-5.722 30.72-32.527 53.007-64.151 53.007h-0.904c-31.021 0-57.525-22.588-62.946-53.007-44.875-241.845-92.461-259.31-97.581-260.515-6.626-1.205-20.48 6.014-39.153 31.313-50.598 69.572-82.221 149.992-94.268 238.839-14.758 110.231-46.080 220.762-95.473 338.221-38.852 91.558-34.635 173.78 11.445 219.257 56.32 56.019 228.593 46.381 317.741 15.36 39.454-13.854 81.016-13.553 120.169 0 89.449 31.624 262.325 41.857 318.946-14.463 45.478-45.176 49.995-126.493 12.348-217.146l-0.904 0.301zM777.333 761.222c-176.489-102.099-348.458-102.099-525.852 0-14.456 8.132-32.829 3.317-41.261-11.14s-3.313-32.832 11.144-41.265c97.582-56.018 195.462-84.021 293.344-84.021s195.765 28.003 292.744 84.021c14.456 8.433 19.275 26.808 11.144 41.265-8.433 14.456-26.805 19.271-41.261 11.14z" fill="#1D1D1D" />

    </g>
</svg>