<?xml version="1.0" encoding="iso-8859-1"?>
<!DOCTYPE svg PUBLIC "-//W3C//DTD SVG 1.1//EN" "http://www.w3.org/Graphics/SVG/1.1/DTD/svg11.dtd">
<svg version="1.1" xmlns="http://www.w3.org/2000/svg" xmlns:xlink="http://www.w3.org/1999/xlink" x="0px"
	y="0px" width="511.626px" height="511.627px" viewBox="0 0 1100 1100"
	style="enable-background:new 0 0 1100 1100;" xml:space="preserve">
	<g>
		

<path transform="rotate(180 500 500) scale(0.9)" d="M1013.44 935.68c-9.92 11.2-26.56 14.078-40 6.398l-802.559-466.879c-12.48-7.36-18.56-22.080-14.72-36.16 3.84-13.76 16.64-23.68 31.040-23.68h155.199l-310.399-421.757c-8.96-12.16-8-29.12 1.92-40.32 6.080-6.72 14.72-10.563 23.68-10.563 5.76 0 11.2 1.6 16.32 4.48l800.319 469.12c12.16 7.36 18.24 21.76 14.72 35.84-3.52 13.76-16 23.68-30.4 24l-155.52 2.56 312 416.64c8.96 12.16 8.32 29.12-1.6 40.32zM611.2 433.603c5.44-10.88 16-17.923 28.16-17.923l104-1.6-567.999-332.797 255.679 347.517c7.040 9.6 8.32 22.72 2.88 33.28-5.44 10.88-16.32 17.6-28.48 17.6h-99.839l563.839 328-255.36-340.8c-7.36-9.6-8.32-22.397-3.2-33.277h0.32z" fill="#1D1D1D" />

    </g>
</svg>