<?xml version="1.0" encoding="iso-8859-1"?>
<!DOCTYPE svg PUBLIC "-//W3C//DTD SVG 1.1//EN" "http://www.w3.org/Graphics/SVG/1.1/DTD/svg11.dtd">
<svg version="1.1" xmlns="http://www.w3.org/2000/svg" xmlns:xlink="http://www.w3.org/1999/xlink" x="0px"
	y="0px" width="511.626px" height="511.627px" viewBox="0 0 1100 1100"
	style="enable-background:new 0 0 1100 1100;" xml:space="preserve">
	<g>
		

<path transform="rotate(180 500 500) scale(0.9)" d="M518.645 942.287c-273.437 0-496.226-222.512-496.226-496.224s222.512-496.225 496.226-496.225c273.712 0 496.225 222.512 496.225 496.225s-222.512 496.224-496.225 496.224zM518.645 886.936c242.992 0 440.874-197.604 440.874-440.873s-197.881-440.874-440.874-440.874c-242.994 0-440.875 197.604-440.875 440.874s197.604 440.873 440.875 440.873zM398.809 278.071c4.982-5.535 11.901-8.856 20.757-9.41 6.919 0 13.558 2.491 18.54 7.196l354.528 322.975c11.347 10.24 12.175 27.952 1.935 39.023-10.24 11.347-27.676 12.177-39.023 1.937l-334.043-304.156-134.504 151.109c-4.982 5.535-11.625 8.856-19.098 9.133-7.749 0.277-14.391-2.214-19.926-6.919-5.535-4.982-8.856-11.624-9.133-19.096-0.554-7.472 1.937-14.391 6.919-19.926l153.048-172.143v0.277z" fill="#1D1D1D" />

    </g>
</svg>