<?xml version="1.0" encoding="iso-8859-1"?>
<!DOCTYPE svg PUBLIC "-//W3C//DTD SVG 1.1//EN" "http://www.w3.org/Graphics/SVG/1.1/DTD/svg11.dtd">
<svg version="1.1" xmlns="http://www.w3.org/2000/svg" xmlns:xlink="http://www.w3.org/1999/xlink" x="0px"
	y="0px" width="511.626px" height="511.627px" viewBox="0 0 1100 1100"
	style="enable-background:new 0 0 1100 1100;" xml:space="preserve">
	<g>
		

<path transform="rotate(180 500 500) scale(0.9)" d="M379.19 610.599c0 92.16-53.679 164.462-122.257 164.462s-122.259-72.302-122.259-164.462c0-92.16 53.682-164.464 122.259-164.464s122.257 72.304 122.257 164.464zM196.735 610.599c0 60.509 31.651 102.401 60.199 102.401s60.196-42.203 60.196-102.401c0-60.199-31.648-102.403-60.196-102.403s-60.199 42.204-60.199 102.403zM808.339 469.721h-116.364c-17.067 0-31.030-13.964-31.030-31.030s13.964-31.030 31.030-31.030h116.364c17.067 0 31.030 13.964 31.030 31.030s-13.964 31.030-31.030 31.030zM1010.967 440.553v169.736h0.31c0 175.321-101.779 317.749-227.142 317.749 0 0-0.31 0-0.621 0h-526.583c-125.052 0-226.833-142.429-226.833-317.439s101.781-317.44 226.833-317.44h164.77v-220.625c0-10.861 5.585-21.101 14.895-26.686l105.503-63.302c4.965-3.103 10.55-4.344 16.136-4.344s10.861 1.552 15.825 4.344l89.678 52.752 89.678-52.752c9.619-5.896 21.721-5.585 31.341 0l90.919 53.372 89.367-46.545c9.619-4.965 21.101-4.655 30.41 0.931s14.895 15.515 14.895 26.376l0.621 420.461c0 0 0.31 0.931 0.31 1.552s0 0.931-0.31 1.552v0.31zM92.159 610.909c0 138.395 75.405 255.379 164.773 255.379s164.77-116.984 164.77-255.379c0-138.395-75.404-255.379-164.77-255.379s-164.773 116.984-164.773 255.379zM391.292 355.53c11.171 11.481 21.411 23.893 30.72 37.857v-37.857h-30.72zM889.018 99.219c-9.619 4.965-20.79 4.655-30.099-0.621l-89.988-52.752-89.678 52.752c-9.619 5.896-21.721 5.896-31.341 0l-89.367-52.752-74.473 44.994v317.44h91.539c17.067 0 31.030 13.964 31.030 31.030s-13.964 31.030-31.030 31.030h-91.539v140.878c0 104.883-36.616 197.663-92.781 255.379h393.154c0 0 0 0 0.31 0 89.057-0.31 164.461-116.983 164.461-255.069v-140.878h-47.476c-17.067 0-31.030-13.964-31.030-31.030s13.964-31.030 31.030-31.030h47.166l-0.621-339.782-59.268 31.030v-0.621z" fill="#1D1D1D" />

    </g>
</svg>