<?xml version="1.0" encoding="iso-8859-1"?>
<!DOCTYPE svg PUBLIC "-//W3C//DTD SVG 1.1//EN" "http://www.w3.org/Graphics/SVG/1.1/DTD/svg11.dtd">
<svg version="1.1" xmlns="http://www.w3.org/2000/svg" xmlns:xlink="http://www.w3.org/1999/xlink" x="0px"
	y="0px" width="511.626px" height="511.627px" viewBox="0 0 1100 1100"
	style="enable-background:new 0 0 1100 1100;" xml:space="preserve">
	<g>
		

<path transform="rotate(180 500 500) scale(0.9)" d="M966.907 807.33h-99.918c-0.931 25.135-9.619 48.718-25.135 66.405-8.378 9.619-18.928 17.377-31.030 23.273-0.931 0.621-1.555 0.932-2.486 1.242-1.552 0.621-2.479 1.55-4.031 2.17-7.447 2.793-15.515 4.035-23.893 4.655-1.862 0-3.413 0.311-5.275 0.311h-534.343c-49.338 0-89.678-43.754-91.85-98.057h-100.538c-17.067 0-31.030-13.964-31.030-31.030s13.964-31.030 31.030-31.030h100.228v-584.61c0-17.067 13.964-31.030 31.030-31.030h83.472v-112.33c0-17.067 13.964-31.030 31.030-31.030h542.1c17.067 0 31.030 13.964 31.030 31.030v727.97h99.607c17.067 0 31.030 13.964 31.030 31.030s-13.964 31.030-31.030 31.030zM774.209 843.015l8.999-1.549c4.344-1.862 8.378-4.655 11.792-8.379 5.585-6.516 8.688-15.828 9.619-25.757h-58.647c1.552 19.239 13.653 35.065 28.238 35.685zM210.698 802.985c0 22.342 13.653 40.341 30.099 40.341h449.94c-4.655-12.412-7.447-26.067-7.447-40.341v-357.467h-472.592v357.467zM210.698 383.457h472.592v-191.767h-472.592v191.767zM805.239 48.33h-480.039v81.299h389.12c17.064 0 31.030 13.964 31.030 31.030v584.61h59.888v-696.939z" fill="#1D1D1D" />

    </g>
</svg>