<?xml version="1.0" encoding="iso-8859-1"?>
<!DOCTYPE svg PUBLIC "-//W3C//DTD SVG 1.1//EN" "http://www.w3.org/Graphics/SVG/1.1/DTD/svg11.dtd">
<svg version="1.1" xmlns="http://www.w3.org/2000/svg" xmlns:xlink="http://www.w3.org/1999/xlink" x="0px"
	y="0px" width="511.626px" height="511.627px" viewBox="0 0 1100 1100"
	style="enable-background:new 0 0 1100 1100;" xml:space="preserve">
	<g>
		

<path transform="rotate(180 500 500) scale(0.9)" d="M965.663 805.78h-918.496c-17.067 0-31.030-13.964-31.030-31.030s13.964-31.030 31.030-31.030h103.641v-690.425c0-51.2 41.891-93.091 93.091-93.091h526.584c51.2 0 93.091 41.891 93.091 93.091v690.425h101.779c17.067 0 31.030 13.964 31.030 31.030s-13.964 31.030-31.030 31.030h0.31zM801.823 743.72v-690.425c0-17.067-13.964-31.030-31.030-31.030h-526.584c-17.067 0-31.030 13.964-31.030 31.030v690.425h588.645zM219.386 876.53h576.544c17.067 0 31.030 13.964 31.030 31.030s-13.964 31.030-31.030 31.030h-576.544c-17.067 0-31.030-13.964-31.030-31.030s13.964-31.030 31.030-31.030zM393.778 93.016c17.067 0 31.030 13.964 31.030 31.030v497.102c0 17.067-13.964 31.029-31.030 31.029s-31.030-13.962-31.030-31.029v-497.102c0-17.067 13.964-31.030 31.030-31.030zM621.227 93.016c17.067 0 31.030 13.964 31.030 31.030v497.102c0 17.067-13.964 31.029-31.030 31.029s-31.030-13.962-31.030-31.029v-497.102c0-17.067 13.964-31.030 31.030-31.030z" fill="#1D1D1D" />

    </g>
</svg>