<?xml version="1.0" encoding="iso-8859-1"?>
<!DOCTYPE svg PUBLIC "-//W3C//DTD SVG 1.1//EN" "http://www.w3.org/Graphics/SVG/1.1/DTD/svg11.dtd">
<svg version="1.1" xmlns="http://www.w3.org/2000/svg" xmlns:xlink="http://www.w3.org/1999/xlink" x="0px"
	y="0px" width="511.626px" height="511.627px" viewBox="0 0 1100 1100"
	style="enable-background:new 0 0 1100 1100;" xml:space="preserve">
	<g>
		

<path transform="rotate(180 500 500) scale(0.9)" d="M1008.502 433.609c-26.845 94.928-94.374 169.652-180.999 199.819-7.196 2.491-14.668 4.428-22.141 6.089v153.877c0 52.030-37.362 94.374-83.027 94.374h-614.954c-45.665 0-83.027-42.344-83.027-94.374v-632.389c0-15.222 12.454-27.676 27.676-27.676h126.478c5.258-66.145 60.887-118.452 128.692-118.452s123.157 52.307 128.692 118.452h281.462c5.258-66.145 60.886-118.452 128.692-118.452s123.157 52.307 128.692 118.452h14.668c15.222 0 27.676 12.454 27.676 27.676v220.022c0 15.222-2.768 32.934-8.303 52.861l-0.277-0.277zM750.011 230.192c-10.517-11.901-19.096-26.015-24.631-41.514h-297.79c-18.543 50.093-66.698 84.134-120.389 84.134s-101.846-34.041-120.389-84.134h-107.105v604.714c0 21.034 12.731 39.023 27.676 39.023h614.954c14.945 0 27.676-17.989 27.676-39.023v-563.2zM307.2 217.462c40.683 0 73.617-32.934 73.617-73.617s-32.934-73.617-73.617-73.617c-40.683 0-73.617 32.934-73.617 73.617s32.934 73.617 73.617 73.617zM845.769 272.813c-13.838 0-27.122-2.214-40.406-6.919v316.333c0 0 2.768-0.83 4.151-1.384 69.466-24.078 123.71-84.688 145.851-162.456 4.151-14.668 6.365-27.399 6.365-37.639v-180.999c-21.31 44.004-66.145 73.064-115.684 73.064h-0.277zM845.769 217.462c40.683 0 73.617-32.934 73.617-73.617s-32.934-73.617-73.617-73.617c-40.683 0-73.617 32.934-73.617 73.617s32.934 73.617 73.617 73.617z" fill="#1D1D1D" />

    </g>
</svg>