<?xml version="1.0" encoding="iso-8859-1"?>
<!DOCTYPE svg PUBLIC "-//W3C//DTD SVG 1.1//EN" "http://www.w3.org/Graphics/SVG/1.1/DTD/svg11.dtd">
<svg version="1.1" xmlns="http://www.w3.org/2000/svg" xmlns:xlink="http://www.w3.org/1999/xlink" x="0px"
	y="0px" width="511.626px" height="511.627px" viewBox="0 0 1100 1100"
	style="enable-background:new 0 0 1100 1100;" xml:space="preserve">
	<g>
		

<path transform="rotate(180 500 500) scale(0.9)" d="M966.258 667.306h-385.422l217.884 215.040c5.404 5.404 8.533 12.516 8.533 19.911 0 7.68-2.844 14.791-8.249 20.195s-12.516 8.533-20.196 8.533c-7.68 0-14.507-2.844-19.911-8.249l-247.182-243.769-242.631 242.631c-11.093 11.093-29.014 11.093-40.108 0s-11.093-29.013 0-40.106l214.187-214.187h-382.578c-31.289 0-56.889-25.6-56.889-56.889v-581.973c0-31.289 25.6-56.889 56.889-56.889h905.956c31.289 0 56.889 25.6 56.889 56.889v581.973c0 31.289-25.6 56.889-56.889 56.889h-0.284zM60.302 610.418h905.956v-581.973h-905.956v581.973zM858.166 560.64c-15.644 0-28.444-12.8-28.444-28.444v-401.351c0-15.644 12.8-28.444 28.444-28.444s28.444 12.8 28.444 28.444v401.351c0 15.644-12.8 28.444-28.444 28.444z" fill="#1D1D1D" />

    </g>
</svg>