<?xml version="1.0" encoding="iso-8859-1"?>
<!DOCTYPE svg PUBLIC "-//W3C//DTD SVG 1.1//EN" "http://www.w3.org/Graphics/SVG/1.1/DTD/svg11.dtd">
<svg version="1.1" xmlns="http://www.w3.org/2000/svg" xmlns:xlink="http://www.w3.org/1999/xlink" x="0px"
	y="0px" width="511.626px" height="511.627px" viewBox="0 0 1100 1100"
	style="enable-background:new 0 0 1100 1100;" xml:space="preserve">
	<g>
		

<path transform="rotate(180 500 500) scale(0.9)" d="M944.873-8.45h-762.413l213.487 328.611 222.177-146.463c4.344-2.793 9.619-4.344 14.895-4.344 8.999 0 17.687 4.655 22.652 12.102 47.166 71.37 63.302 156.703 46.235 240.485-17.377 83.782-66.095 155.769-137.464 202.625-71.37 47.166-157.013 63.306-240.485 46.239-83.781-17.067-155.771-66.095-202.627-137.465-4.034-6.206-5.275-13.346-4.034-20.483s5.585-13.34 11.792-17.064l221.555-145.846-233.036-358.707h-89.367c-14.895 0-27.307-12.102-27.307-27.307s12.102-27.307 27.307-27.307h916.634c14.895 0 27.307 12.102 27.307 27.307s-12.102 27.307-27.307 27.307v0.31zM183.079 525.582c38.478 47.166 92.16 79.745 152.358 92.157 69.508 14.274 140.567 0.621 199.835-38.478s99.607-98.673 114.192-168.181c12.412-60.199 3.724-122.259-24.514-176.252l-441.871 290.754zM812.066 660.561c48.407 0 87.505 39.411 87.505 87.508s-39.408 87.504-87.505 87.504c-48.097 0-87.505-39.407-87.505-87.504s39.408-87.508 87.505-87.508zM812.066 804.542c31.030 0 56.475-25.443 56.475-56.473s-25.445-56.477-56.475-56.477c-31.030 0-56.475 25.447-56.475 56.477s25.445 56.473 56.475 56.473zM812.063 847.674c8.688 0 15.515 6.827 15.515 15.515v53.371c0 8.688-6.827 15.515-15.515 15.515s-15.515-6.827-15.515-15.515v-53.371c0-8.688 6.827-15.515 15.515-15.515zM643.258 732.553h53.682c8.688 0 15.515 6.827 15.515 15.515s-6.827 15.515-15.515 15.515h-53.682c-8.688 0-15.515-6.827-15.515-15.515s6.827-15.515 15.515-15.515zM796.548 632.633v-53.372c0-8.688 6.827-15.515 15.515-15.515s15.515 6.827 15.515 15.515v53.372c0 8.688-6.827 15.515-15.515 15.515s-15.515-6.827-15.515-15.515zM980.868 763.583h-53.682c-8.688 0-15.515-6.827-15.515-15.515s6.827-15.515 15.515-15.515h53.682c8.688 0 15.515 6.827 15.515 15.515s-6.827 15.515-15.515 15.515zM895.227 815.713c4.034 0 8.068 1.552 10.861 4.655l17.687 17.685c6.206 6.206 6.206 15.828 0 22.034s-15.825 6.206-22.032 0l-17.687-17.689c-6.206-6.206-6.206-15.824 0-22.030 3.103-3.103 7.137-4.655 10.861-4.655h0.31zM717.731 820.058c3.103-3.103 7.137-4.655 10.861-4.655s8.068 1.552 10.861 4.655c6.206 5.896 6.206 15.824 0 22.030l-17.687 17.689c-6.206 6.206-15.825 6.206-22.032 0-6.206-5.896-6.206-15.824 0-22.030l17.687-17.689h0.31zM717.731 671.111l-17.687-17.686c-5.896-6.207-5.896-15.824 0-22.030 3.103-3.103 7.137-4.655 10.861-4.655s8.068 1.552 10.861 4.655l17.687 17.684c5.896 6.207 5.896 15.825 0 22.031s-15.825 6.206-22.032 0h0.31zM884.367 675.766c-6.206-6.206-6.206-15.824 0-22.030l17.687-17.686c3.103-3.103 7.137-4.655 10.861-4.655s8.068 1.552 10.861 4.655c6.206 6.206 6.206 15.825 0 22.031l-17.687 17.685c-6.206 6.206-15.825 6.206-22.032 0h0.31z" fill="#1D1D1D" />

    </g>
</svg>