<?xml version="1.0" encoding="iso-8859-1"?>
<!DOCTYPE svg PUBLIC "-//W3C//DTD SVG 1.1//EN" "http://www.w3.org/Graphics/SVG/1.1/DTD/svg11.dtd">
<svg version="1.1" xmlns="http://www.w3.org/2000/svg" xmlns:xlink="http://www.w3.org/1999/xlink" x="0px"
	y="0px" width="511.626px" height="511.627px" viewBox="0 0 1100 1100"
	style="enable-background:new 0 0 1100 1100;" xml:space="preserve">
	<g>
		

<path transform="rotate(180 500 500) scale(0.9)" d="M872.806 640.151h-491.219v116.254c0 74.692 60.838 135.529 135.529 135.529 36.442 0 70.475-14.153 95.774-39.452 25.6-25.901 39.755-59.936 39.755-96.077v-28.309c0-16.565 13.553-30.118 30.118-30.118s30.118 13.553 30.118 30.118v28.309c0 52.104-20.176 101.194-57.221 138.239-36.744 37.045-85.838 57.526-138.544 57.526-107.821 0-195.765-87.944-195.765-195.765v-116.254h-157.514c-66.56 0-120.471-53.911-120.471-120.471v-462.005c0-66.56 53.911-120.471 120.471-120.471h708.968c66.56 0 120.471 53.911 120.471 120.471v462.005c0 66.56-53.911 120.471-120.471 120.471zM163.838 579.915h708.968c33.129 0 60.235-27.106 60.235-60.235v-462.005c0-33.129-27.106-60.235-60.235-60.235h-708.968c-33.129 0-60.235 27.106-60.235 60.235v462.005c0 33.129 27.106 60.235 60.235 60.235zM487.304 229.346v-157.214c0-16.565 13.553-30.118 30.118-30.118s30.118 13.553 30.118 30.118v157.214c55.115 13.854 95.473 63.849 95.473 121.374 0 69.271-56.32 125.588-125.591 125.588s-125.591-56.317-125.591-125.588c0-57.525 40.056-107.821 95.473-121.374zM517.421 416.072c36.141 0 65.355-29.211 65.355-65.352s-29.214-65.355-65.355-65.355c-36.141 0-65.355 29.214-65.355 65.355s29.214 65.352 65.355 65.352z" fill="#1D1D1D" />

    </g>
</svg>