<?xml version="1.0" encoding="iso-8859-1"?>
<!DOCTYPE svg PUBLIC "-//W3C//DTD SVG 1.1//EN" "http://www.w3.org/Graphics/SVG/1.1/DTD/svg11.dtd">
<svg version="1.1" xmlns="http://www.w3.org/2000/svg" xmlns:xlink="http://www.w3.org/1999/xlink" x="0px"
	y="0px" width="511.626px" height="511.627px" viewBox="0 0 1100 1100"
	style="enable-background:new 0 0 1100 1100;" xml:space="preserve">
	<g>
		

<path transform="rotate(180 500 500) scale(0.9)" d="M1069.662 756.861l-49.263 171.313c-1.937 7.196-6.916 13.007-13.282 16.605s-13.838 4.428-21.034 2.214l-171.312-49.263c-7.196-1.937-13.010-6.642-16.605-13.284-3.598-6.365-4.428-13.838-2.214-21.034 1.937-7.196 6.916-13.007 13.282-16.605 6.642-3.598 13.841-4.428 21.036-2.214l107.932 30.997-269.838-532.203-228.598 228.601c-6.089 6.089-14.391 9.133-22.694 8.026-8.303-0.83-15.775-5.535-20.203-12.454l-366.151-570.672c-8.303-12.731-4.428-29.89 8.303-38.192 4.428-2.768 9.687-4.428 14.945-4.428 9.41 0 18.266 4.705 23.247 12.731l347.608 541.89 231.092-231.092c6.089-6.089 14.945-9.133 24.078-7.749 8.856 1.384 16.326 6.919 20.2 14.945l285.613 563.2 30.723-106.275c4.151-14.391 21.034-22.971 34.318-19.096 7.196 1.937 13.008 6.642 16.605 13.285 3.598 6.365 4.428 13.838 2.491 21.034l-0.28-0.277z" fill="#1D1D1D" />

    </g>
</svg>