<?xml version="1.0" encoding="iso-8859-1"?>
<!DOCTYPE svg PUBLIC "-//W3C//DTD SVG 1.1//EN" "http://www.w3.org/Graphics/SVG/1.1/DTD/svg11.dtd">
<svg version="1.1" xmlns="http://www.w3.org/2000/svg" xmlns:xlink="http://www.w3.org/1999/xlink" x="0px"
	y="0px" width="511.626px" height="511.627px" viewBox="0 0 1100 1100"
	style="enable-background:new 0 0 1100 1100;" xml:space="preserve">
	<g>
		

<path transform="rotate(180 500 500) scale(0.9)" d="M970.030 476.229c-15.222 0-27.676-12.454-27.676-27.676v-399.36c0-22.971-18.543-41.514-41.514-41.514h-798.442c-22.971 0-41.514 18.543-41.514 41.514v399.36c0 15.222-12.454 27.676-27.676 27.676s-27.676-12.454-27.676-27.676v-427.036c0-38.192 30.997-69.189 69.189-69.189h853.793c38.192 0 69.189 30.997 69.189 69.189v427.036c0 15.222-12.454 27.676-27.676 27.676zM395.206 776.51l78.876 78.876v-507.849c0-15.222 12.454-27.676 27.676-27.676s27.676 12.454 27.676 27.676v507.849l78.876-78.876c10.517-10.517 28.783-10.517 39.023 0 10.794 10.794 10.794 28.229 0 39.023l-126.201 126.201c-10.517 10.517-28.506 10.517-39.023 0l-125.924-126.201c-10.794-10.794-10.794-28.229 0-39.023 10.517-10.517 28.783-10.517 39.023 0z" fill="#1D1D1D" />

    </g>
</svg>