<?xml version="1.0" encoding="iso-8859-1"?>
<!DOCTYPE svg PUBLIC "-//W3C//DTD SVG 1.1//EN" "http://www.w3.org/Graphics/SVG/1.1/DTD/svg11.dtd">
<svg version="1.1" xmlns="http://www.w3.org/2000/svg" xmlns:xlink="http://www.w3.org/1999/xlink" x="0px"
	y="0px" width="511.626px" height="511.627px" viewBox="0 0 1100 1100"
	style="enable-background:new 0 0 1100 1100;" xml:space="preserve">
	<g>
		

<path transform="rotate(180 500 500) scale(0.9)" d="M861.401 662.729c-0.931 3.724-2.482 6.827-4.655 10.241l-246.070 257.862-3.103 2.794c-3.103 2.482-6.516 4.033-10.861 5.275l-415.497 1.551c-17.067 0-31.030-13.963-31.030-31.030v-918.187c0-17.067 13.964-31.030 31.030-31.030h650.396c17.067 0 31.030 13.964 31.030 31.030v664.048l-1.241 7.447zM759.001 686.312h-139.636v145.843l139.636-145.843zM212.246 878.39h345.058v-223.108c0-17.066 13.964-31.030 31.030-31.030h212.247v-601.988h-588.335v856.126zM527.515 554.434c-5.896 5.896-13.653 9.309-22.032 9.309s-16.136-3.103-21.721-8.688l-82.231-80.058c-12.102-11.792-12.412-31.651-0.62-43.753 11.792-12.412 31.65-12.412 43.752-0.621l27.929 27.307v-210.385c0-17.067 13.964-31.030 31.030-31.030s31.030 13.964 31.030 31.030v210.385l27.307-28.238c11.478-11.792 31.961-12.102 43.753-0.621 12.102 11.792 12.412 31.651 0.621 43.753l-79.127 81.299 0.31 0.31z" fill="#1D1D1D" />

    </g>
</svg>