<?xml version="1.0" encoding="iso-8859-1"?>
<!DOCTYPE svg PUBLIC "-//W3C//DTD SVG 1.1//EN" "http://www.w3.org/Graphics/SVG/1.1/DTD/svg11.dtd">
<svg version="1.1" xmlns="http://www.w3.org/2000/svg" xmlns:xlink="http://www.w3.org/1999/xlink" x="0px"
	y="0px" width="511.626px" height="511.627px" viewBox="0 0 1100 1100"
	style="enable-background:new 0 0 1100 1100;" xml:space="preserve">
	<g>
		

<path transform="rotate(180 500 500) scale(0.9)" d="M921.323 768.761h-792.355c-33.764 0-61.44 27.676-61.44 61.44s27.676 61.44 61.44 61.44h847.706c15.222 0 27.676 12.454 27.676 27.676s-12.454 27.676-27.676 27.676h-847.706c-64.484 0-116.791-52.307-116.791-116.791v-792.355c0-45.665 37.362-83.027 83.027-83.027h826.119c45.665 0 83.027 37.362 83.027 83.027v647.888c0 45.665-37.362 83.027-83.027 83.027zM67.529 37.846v693.276c18.266-11.347 39.576-17.435 61.44-17.435h792.355c15.222 0 27.676-12.454 27.676-27.676v-647.888c0-15.222-12.454-27.676-27.676-27.676h-826.119c-15.222 0-27.676 12.454-27.676 27.676v-0.277zM786.543 345.323h76.108c19.373 0 35.148 15.775 35.148 35.148s-15.775 35.148-35.148 35.148h-76.108c-19.373 0-35.148-15.775-35.148-35.148s15.775-35.148 35.148-35.148z" fill="#1D1D1D" />

    </g>
</svg>