<?xml version="1.0" encoding="iso-8859-1"?>
<!DOCTYPE svg PUBLIC "-//W3C//DTD SVG 1.1//EN" "http://www.w3.org/Graphics/SVG/1.1/DTD/svg11.dtd">
<svg version="1.1" xmlns="http://www.w3.org/2000/svg" xmlns:xlink="http://www.w3.org/1999/xlink" x="0px"
	y="0px" width="511.626px" height="511.627px" viewBox="0 0 1100 1100"
	style="enable-background:new 0 0 1100 1100;" xml:space="preserve">
	<g>
		

<path transform="rotate(180 500 500) scale(0.9)" d="M749.692 935.485h-494.313c-94.332 0-170.667-76.645-170.667-170.667v-778.549c0-17.067 13.964-31.030 31.030-31.030h773.896c17.067 0 31.030 13.964 31.030 31.030v778.549c0 94.332-76.645 170.667-170.667 170.667h-0.31zM255.379 873.424h494.313c59.888 0 108.606-48.718 108.606-108.606v-747.519h-711.835v747.519c0 59.888 48.718 108.606 108.606 108.606h0.31zM502.381 120.010c148.325 0 269.033 120.705 269.033 269.030 0 12.412-7.447 23.586-18.928 28.551-11.481 4.655-24.514 2.479-33.513-5.899-4.034-3.724-98.056-90.608-195.491 0-139.326 130.327-279.272 0.931-280.513 0-6.206-5.896-9.619-13.964-9.619-22.342 0-148.325 120.708-269.033 269.032-269.033v-0.307zM502.381 182.070c-107.985 0-199.214 85.954-206.351 192.698 29.168 22.032 105.813 65.471 185.251-8.381 83.472-77.886 167.874-61.75 218.764-39.098-26.686-84.713-106.434-144.912-197.353-144.912l-0.31-0.307zM341.334 587.016c59.577 0 107.674 48.407 107.674 107.674s-48.407 107.678-107.674 107.678-107.675-48.41-107.675-107.678c0-59.266 48.407-107.674 107.675-107.674zM341.334 740.617c25.135 0 45.615-20.483 45.615-45.617s-20.48-45.613-45.615-45.613c-25.135 0-45.615 20.479-45.615 45.613s20.48 45.617 45.615 45.617zM597.023 663.97h137.775c17.067 0 31.030 13.964 31.030 31.030s-13.964 31.030-31.030 31.030h-137.775c-17.067 0-31.030-13.964-31.030-31.030s13.964-31.030 31.030-31.030z" fill="#1D1D1D" />

    </g>
</svg>