<?xml version="1.0" encoding="iso-8859-1"?>
<!DOCTYPE svg PUBLIC "-//W3C//DTD SVG 1.1//EN" "http://www.w3.org/Graphics/SVG/1.1/DTD/svg11.dtd">
<svg version="1.1" xmlns="http://www.w3.org/2000/svg" xmlns:xlink="http://www.w3.org/1999/xlink" x="0px"
	y="0px" width="511.626px" height="511.627px" viewBox="0 0 1100 1100"
	style="enable-background:new 0 0 1100 1100;" xml:space="preserve">
	<g>
		

<path transform="rotate(180 500 500) scale(0.9)" d="M522.237 936.753c-273.435 0-496.224-222.514-496.224-496.226s222.512-496.225 496.224-496.225c273.712 0 496.225 222.512 496.225 496.225s-222.512 496.226-496.225 496.226zM82.748 468.203c11.901 190.685 146.405 351.481 329.619 398.807-58.672-82.197-95.484-228.878-99.082-398.807h-230.538zM675.837 412.852c-5.812-244.099-84.411-413.198-153.6-413.198s-147.788 168.822-153.6 413.198h307.2zM961.727 412.852c-11.901-190.685-146.402-351.761-329.615-398.809 58.672 82.197 95.478 228.881 99.076 398.809h230.538zM961.727 468.203h-230.538c-3.598 169.929-40.68 316.333-99.076 398.807 183.213-47.049 317.714-208.121 329.615-398.807zM675.837 468.203h-307.2c5.812 244.099 84.411 413.199 153.6 413.199s147.788-168.823 153.6-413.199zM412.368 14.043c-183.214 47.049-317.719 208.124-329.619 398.809h230.538c3.598-169.929 40.686-316.612 99.082-398.809z" fill="#1D1D1D" />

    </g>
</svg>