<?xml version="1.0" encoding="iso-8859-1"?>
<!DOCTYPE svg PUBLIC "-//W3C//DTD SVG 1.1//EN" "http://www.w3.org/Graphics/SVG/1.1/DTD/svg11.dtd">
<svg version="1.1" xmlns="http://www.w3.org/2000/svg" xmlns:xlink="http://www.w3.org/1999/xlink" x="0px"
	y="0px" width="511.626px" height="511.627px" viewBox="0 0 1100 1100"
	style="enable-background:new 0 0 1100 1100;" xml:space="preserve">
	<g>
		

<path transform="rotate(180 500 500) scale(0.9)" d="M996.324 588.316c-130.076 130.076-303.602 201.755-487.922 201.755s-357.846-71.679-487.922-201.755c-10.794-10.794-10.794-28.229 0-39.023s28.229-10.794 39.023 0c247.42 247.421 650.378 247.421 897.799 0 5.258-5.258 12.177-8.026 19.65-8.026s14.391 2.768 19.65 8.026c10.794 10.794 10.794 28.229 0 39.023h-0.277zM508.402 643.667c-145.021 0-281.738-56.458-384.138-159.135-10.794-10.794-10.794-28.229 0-39.023s28.229-10.794 39.023 0c92.16 92.16 214.763 143.083 345.115 143.083s252.956-50.646 345.116-143.083c5.258-5.258 12.177-8.026 19.65-8.026s14.391 2.768 19.65 8.026c10.794 10.794 10.794 28.229 0 39.023-102.677 102.677-239.118 159.135-384.415 159.135zM243.823 364.973c-10.794-10.794-10.794-28.229 0-39.023s28.229-10.794 39.022 0c60.056 60.056 140.316 93.267 225.557 93.267s165.224-33.211 225.557-93.267c5.258-5.258 12.177-8.026 19.65-8.026s14.391 2.768 19.65 8.026c10.794 10.794 10.794 28.229 0 39.023-145.851 145.851-383.308 145.851-529.158 0h-0.277zM508.402 102.608c63.585 0 115.131 51.546 115.131 115.131s-51.546 115.131-115.131 115.131c-63.585 0-115.131-51.546-115.131-115.131s51.546-115.131 115.131-115.131z" fill="#1D1D1D" />

    </g>
</svg>