<?xml version="1.0" encoding="iso-8859-1"?>
<!DOCTYPE svg PUBLIC "-//W3C//DTD SVG 1.1//EN" "http://www.w3.org/Graphics/SVG/1.1/DTD/svg11.dtd">
<svg version="1.1" xmlns="http://www.w3.org/2000/svg" xmlns:xlink="http://www.w3.org/1999/xlink" x="0px"
	y="0px" width="511.626px" height="511.627px" viewBox="0 0 1100 1100"
	style="enable-background:new 0 0 1100 1100;" xml:space="preserve">
	<g>
		

<path transform="rotate(180 500 500) scale(0.9)" d="M921.6 935.795h-805.858c-51.2 0-93.091-41.891-93.091-93.091v-805.856c0-51.2 41.891-93.091 93.091-93.091h805.858c51.2 0 93.091 41.891 93.091 93.091v805.856c0 51.2-41.891 93.091-93.091 93.091zM487.796 408.902v-402.773h-371.743c-17.067 0-31.030 13.964-31.030 31.030v371.743h402.774zM116.053 873.735h371.743v-402.772h-402.774v371.742c0 17.067 13.964 31.030 31.030 31.030zM952.941 408.902v-371.743c0-17.067-13.964-31.030-31.030-31.030h-371.743v402.773h402.773zM550.167 873.735h371.743c17.067 0 31.030-13.964 31.030-31.030v-371.742h-402.773v402.772z" fill="#1D1D1D" />

    </g>
</svg>