<?xml version="1.0" encoding="iso-8859-1"?>
<!DOCTYPE svg PUBLIC "-//W3C//DTD SVG 1.1//EN" "http://www.w3.org/Graphics/SVG/1.1/DTD/svg11.dtd">
<svg version="1.1" xmlns="http://www.w3.org/2000/svg" xmlns:xlink="http://www.w3.org/1999/xlink" x="0px"
	y="0px" width="511.626px" height="511.627px" viewBox="0 0 1100 1100"
	style="enable-background:new 0 0 1100 1100;" xml:space="preserve">
	<g>
		

<path transform="rotate(180 500 500) scale(0.9)" d="M550.478 450.793l436.286 436.287c12.102 12.102 12.102 31.651 0 43.753s-31.651 12.102-43.753 0l-436.286-436.287-436.286 436.287c-12.102 12.102-31.651 12.102-43.753 0s-12.102-31.651 0-43.753l436.286-436.287-436.286-436.286c-12.102-12.102-12.102-31.651 0-43.753 11.791-11.792 32.272-11.792 43.753 0l436.286 436.286 436.286-436.286c5.896-5.896 13.653-8.999 22.032-8.999s16.136 3.103 22.032 8.999c12.102 12.102 12.102 31.651 0 43.753l-436.596 436.286z" fill="#1D1D1D" />

    </g>
</svg>